<svg xmlns="http://www.w3.org/2000/svg" width="32" height="32" viewBox="0 0 32 32">
    <g fill="none" fill-rule="evenodd">
        <path fill="#D7F2EE" fill-rule="nonzero" d="M21 18.587c0 .92-.355 1.7-1.064 2.34-.71.642-1.739 1.03-3.086 1.167V24h-1.467v-1.89a10.478 10.478 0 0 1-2.505-.459c-.787-.25-1.413-.567-1.878-.953l.805-1.72c.441.341.978.628 1.61.86a7.47 7.47 0 0 0 1.968.434v-3.404c-.847-.193-1.554-.406-2.12-.638a3.664 3.664 0 0 1-1.422-1.021c-.382-.449-.573-1.042-.573-1.78 0-.918.352-1.701 1.056-2.348.703-.647 1.723-1.033 3.059-1.158V8h1.467v1.89c.668.033 1.32.141 1.959.323a6.6 6.6 0 0 1 1.672.715l-.733 1.719a7.706 7.706 0 0 0-2.898-.92v3.439c.858.193 1.571.403 2.137.63a3.661 3.661 0 0 1 1.432 1.013c.387.448.581 1.04.581 1.778zm-7.424-5.26c0 .375.155.676.465.903.31.227.757.42 1.342.579v-3.03c-.608.09-1.062.272-1.36.544a1.307 1.307 0 0 0-.447 1.005zm3.274 6.911c.632-.09 1.1-.266 1.404-.527.304-.261.456-.585.456-.97a1.09 1.09 0 0 0-.483-.928c-.322-.233-.781-.429-1.377-.587v3.012z"/>
        <circle cx="16" cy="16" r="15" stroke="#90CFBE" stroke-width="2"/>
    </g>
</svg>
