<svg xmlns="http://www.w3.org/2000/svg" xmlns:xlink="http://www.w3.org/1999/xlink" width="603" height="435" viewBox="0 0 603 435">
    <defs>
        <linearGradient id="a" x1="71.242%" x2="21.736%" y1="0%" y2="85.593%">
            <stop offset="0%" stop-color="#90CFBE" stop-opacity="0"/>
            <stop offset="100%" stop-color="#90CFBE"/>
        </linearGradient>
        <path id="b" d="M71.564 23.208c15.807 5.674 22.21 16.142 19.208 31.404l-16.833-2.046c-2.962 2.819-4.584 8.098-4.867 15.837-.195 5.351 6.008 13.95 18.61 25.795-30.924 7.5-50.117 5.384-57.58-6.35 2.077-7.13 2.099-12.957.066-17.48-5.717-12.715-9.428-16.13-6.39-25.234 2.025-6.07 4.202-10.295 6.531-12.676l-13.55 3.399c.76-10.337 6.307-13.674 12.18-16.318 3.745-1.686 11.238-2.28 22.478-1.783-3.836 7.42-7.528 12.82-11.075 16.202-.709.675-2.734 6.577-6.074 17.704 3.36-7.841 7.148-12.739 11.365-14.693 4.016-2.71 9.774-6.772 17.274-12.19l2.046-11.626c2.18 5.903 4.383 9.255 6.611 10.055z"/>
        <linearGradient id="d" x1="50%" x2="50%" y1="0%" y2="98.541%">
            <stop offset="0%" stop-color="#F8BE5A"/>
            <stop offset="100%" stop-color="#FFD650"/>
        </linearGradient>
        <linearGradient id="e" x1="50%" x2="50%" y1="0%" y2="98.541%">
            <stop offset="0%" stop-color="#F8DB5A"/>
            <stop offset="100%" stop-color="#FFD650"/>
        </linearGradient>
        <ellipse id="f" cx="9.783" cy="6.47" rx="8.804" ry="5.545"/>
        <filter id="g" width="103.4%" height="105.4%" x="-1.7%" y="-2.7%" filterUnits="objectBoundingBox">
            <feOffset dy=".6" in="SourceAlpha" result="shadowOffsetInner1"/>
            <feComposite in="shadowOffsetInner1" in2="SourceAlpha" k2="-1" k3="1" operator="arithmetic" result="shadowInnerInner1"/>
            <feColorMatrix in="shadowInnerInner1" values="0 0 0 0 0.97254902 0 0 0 0 0.745098039 0 0 0 0 0.352941176 0 0 0 1 0"/>
        </filter>
        <path id="i" d="M11.509 5.85l1.063-2.856L9.35 4.927 6.053 8.58l.711.89 1.477.027 3.268-3.648zm-4.02-1.74L6.344 2.51l-.069.65L3.984 5.71l.923 1.272L7.489 4.11zm5.909 2.525l-2.583 2.872 2.063.004 2.291-2.548.815-.332-2.586.004z"/>
        <filter id="h" width="104.2%" height="114.3%" x="-2.1%" y="-3.6%" filterUnits="objectBoundingBox">
            <feOffset dy=".5" in="SourceAlpha" result="shadowOffsetOuter1"/>
            <feColorMatrix in="shadowOffsetOuter1" values="0 0 0 0 0.97254902 0 0 0 0 0.745098039 0 0 0 0 0.352941176 0 0 0 1 0"/>
        </filter>
        <path id="k" d="M117.264 257.285c.23-.489.66-4.355.82-5.287.68-3.922 3.003-7.965 8.399-13.36l.604-.605-.171.835c-1.14 5.549-.697 9.832 1.311 12.86L306.19 73.763l-7.236-7.236-.053-.077-1.705-3.875 3.873 1.707.077.053 7.236 7.236 5.293-5.293c1.637-1.637 1.856-2.896.962-7.127-.1-.47-.254-.99-.48-1.64-.1-.286-.207-.583-.362-1.002l-.196-.525-.2-.54a32.946 32.946 0 0 1-.77-2.32c-1.564-5.469-.558-10.18 4.57-15.334l.482-2.352.149-.044a17.934 17.934 0 0 0 2.959-1.175c.101-.052.48-.238.566-.28.23-.116.426-.218.63-.333 1.811-1.017 4.204-2.997 8.402-7.195.797-.798 1.136-1.692 1.028-2.702l-.02-.188.175-.076c6.405-2.803 10.935-5.534 13.584-8.183l.362.361-20.441 20.442c-3.444 3.444-5.834 6.588-7.045 9.762-1.535 4.023-.946 7.691 2.238 10.98L341.9 36.962l.195-2.742 22.7-16.886.319.37.37.319-16.886 22.7-2.742.194-19.846 21.634c3.289 3.183 6.957 3.773 10.98 2.238 3.174-1.212 6.318-3.601 9.762-7.045l20.441-20.441.362.361c-2.65 2.65-5.38 7.18-8.183 13.585l-.076.175-.189-.02c-1.01-.108-1.904.23-2.701 1.028-4.198 4.198-6.179 6.59-7.196 8.403-.114.203-.216.398-.332.629l-.28.566a17.934 17.934 0 0 0-1.175 2.959l-.045.149-2.352.482c-5.154 5.128-9.865 6.134-15.333 4.57a32.946 32.946 0 0 1-2.32-.77l-.54-.2-.526-.196a49.796 49.796 0 0 0-1-.362 13.638 13.638 0 0 0-1.641-.48c-4.231-.895-5.49-.676-7.128.962l-5.293 5.292 7.237 7.237.052.077 1.708 3.873-3.875-1.705-.078-.053-7.236-7.236-177.963 177.963c3.028 2.008 7.31 2.45 12.86 1.311l.834-.171-.604.604c-5.396 5.396-9.438 7.719-13.36 8.398-.933.161-12.462 1.143-13.168.432-.706-.711-.937-6.712-.39-7.88z"/>
        <filter id="j" width="135.9%" height="136%" x="-18%" y="-18%" filterUnits="objectBoundingBox">
            <feOffset in="SourceAlpha" result="shadowOffsetOuter1"/>
            <feGaussianBlur in="shadowOffsetOuter1" result="shadowBlurOuter1" stdDeviation="15"/>
            <feColorMatrix in="shadowBlurOuter1" values="0 0 0 0 1 0 0 0 0 0.882352941 0 0 0 0 0.501960784 0 0 0 0.8 0"/>
        </filter>
        <filter id="l" width="215%" height="146%" x="-57.5%" y="-23%" filterUnits="objectBoundingBox">
            <feGaussianBlur in="SourceGraphic" stdDeviation="23"/>
        </filter>
        <linearGradient id="n" x1="50%" x2="50%" y1="100%" y2="0%">
            <stop offset="0%" stop-color="#4EAACF" stop-opacity="0"/>
            <stop offset="100%" stop-color="#4EAACF"/>
        </linearGradient>
        <linearGradient id="m" x1="50%" x2="50%" y1="100%" y2="0%">
            <stop offset="0%" stop-color="#4EAACF" stop-opacity="0"/>
            <stop offset="100%" stop-color="#4EAACF" stop-opacity=".16"/>
        </linearGradient>
        <filter id="o" width="445%" height="157.5%" x="-172.5%" y="-28.8%" filterUnits="objectBoundingBox">
            <feGaussianBlur in="SourceGraphic" stdDeviation="23"/>
        </filter>
        <linearGradient id="q" x1="50%" x2="50%" y1="100%" y2="0%">
            <stop offset="0%" stop-color="#C3E9E0" stop-opacity="0"/>
            <stop offset="50.623%" stop-color="#FFF" stop-opacity=".553"/>
            <stop offset="100%" stop-color="#90CFBE"/>
        </linearGradient>
        <linearGradient id="p" x1="50%" x2="50%" y1="100%" y2="0%">
            <stop offset="0%" stop-color="#EDFAF8" stop-opacity="0"/>
            <stop offset="100%" stop-color="#D7F2EE" stop-opacity=".16"/>
        </linearGradient>
        <ellipse id="r" cx="11.739" cy="5.478" rx="10.565" ry="4.696"/>
        <filter id="s" width="102.8%" height="106.4%" x="-1.4%" y="-3.2%" filterUnits="objectBoundingBox">
            <feOffset dy=".6" in="SourceAlpha" result="shadowOffsetInner1"/>
            <feComposite in="shadowOffsetInner1" in2="SourceAlpha" k2="-1" k3="1" operator="arithmetic" result="shadowInnerInner1"/>
            <feColorMatrix in="shadowInnerInner1" values="0 0 0 0 0.97254902 0 0 0 0 0.745098039 0 0 0 0 0.352941176 0 0 0 1 0"/>
        </filter>
        <path id="u" d="M10.422 4.167l.73-2.602 1.997 2.602.994 3.98-1.266.462-1.486-.475-.969-3.967zm5.09-.017l2.142-.872-.339.535L18 6.586l-1.715.69-.772-3.126zm-7.462 0l.772 3.126-2.056-.69-.685-2.773-.603-.535 2.572.872z"/>
        <filter id="t" width="104%" height="114.2%" x="-2%" y="-3.5%" filterUnits="objectBoundingBox">
            <feOffset dy=".5" in="SourceAlpha" result="shadowOffsetOuter1"/>
            <feColorMatrix in="shadowOffsetOuter1" values="0 0 0 0 0.97254902 0 0 0 0 0.745098039 0 0 0 0 0.352941176 0 0 0 1 0"/>
        </filter>
        <linearGradient id="v" x1="5.865%" x2="68.368%" y1="50%" y2="65.364%">
            <stop offset="0%" stop-color="#F8DB5A"/>
            <stop offset="100%" stop-color="#FFD650"/>
        </linearGradient>
        <ellipse id="w" cx="11.739" cy="5.478" rx="10.565" ry="4.696"/>
        <filter id="x" width="102.8%" height="106.4%" x="-1.4%" y="-3.2%" filterUnits="objectBoundingBox">
            <feOffset dy=".6" in="SourceAlpha" result="shadowOffsetInner1"/>
            <feComposite in="shadowOffsetInner1" in2="SourceAlpha" k2="-1" k3="1" operator="arithmetic" result="shadowInnerInner1"/>
            <feColorMatrix in="shadowInnerInner1" values="0 0 0 0 0.97254902 0 0 0 0 0.745098039 0 0 0 0 0.352941176 0 0 0 1 0"/>
        </filter>
        <path id="z" d="M10.742 4.37l1.54-2.522 1.088 2.683-.32 3.981-1.369.38-1.28-.556.341-3.966zm4.913.284L18 3.92l-.499.507-.23 2.774-1.876.578.26-3.126zM8.46 4.213L8.2 7.339l-1.76-.802.23-2.773-.41-.563 2.2 1.012z"/>
        <filter id="y" width="104.3%" height="114.2%" x="-2.1%" y="-3.5%" filterUnits="objectBoundingBox">
            <feOffset dy=".5" in="SourceAlpha" result="shadowOffsetOuter1"/>
            <feColorMatrix in="shadowOffsetOuter1" values="0 0 0 0 0.97254902 0 0 0 0 0.745098039 0 0 0 0 0.352941176 0 0 0 1 0"/>
        </filter>
        <linearGradient id="B" x1="50%" x2="50%" y1="0%" y2="100%">
            <stop offset="0%" stop-color="#FFD748"/>
            <stop offset="100%" stop-color="#FFAE23"/>
        </linearGradient>
        <linearGradient id="A" x1="78.325%" x2="30.169%" y1="97.679%" y2="39.527%">
            <stop offset="0%" stop-color="#90CFBE" stop-opacity=".1"/>
            <stop offset="100%" stop-color="#FFCF41"/>
        </linearGradient>
        <linearGradient id="C" x1="59.969%" x2="51.159%" y1="22.061%" y2="92.507%">
            <stop offset="0%" stop-color="#FFED88" stop-opacity="0"/>
            <stop offset="98.914%" stop-color="#FFD650"/>
            <stop offset="100%" stop-color="#FFD650"/>
        </linearGradient>
        <linearGradient id="D" x1="50%" x2="50%" y1="0%" y2="98.541%">
            <stop offset="0%" stop-color="#FFAE23"/>
            <stop offset="100%" stop-color="#FFD650"/>
        </linearGradient>
        <ellipse id="F" cx="11.739" cy="5.478" rx="11.739" ry="5.478"/>
        <filter id="E" width="102.1%" height="109.1%" x="-1.1%" y="-2.3%" filterUnits="objectBoundingBox">
            <feOffset dy=".5" in="SourceAlpha" result="shadowOffsetOuter1"/>
            <feColorMatrix in="shadowOffsetOuter1" values="0 0 0 0 0.97254902 0 0 0 0 0.745098039 0 0 0 0 0.352941176 0 0 0 1 0"/>
        </filter>
        <linearGradient id="G" x1="50%" x2="50%" y1="98.541%" y2="0%">
            <stop offset="0%" stop-color="#FFAE23"/>
            <stop offset="100%" stop-color="#FFD650"/>
        </linearGradient>
        <path id="I" d="M10.422 4.167l.73-2.602 1.997 2.602.994 3.98-1.266.462-1.486-.475-.969-3.967zm5.09-.017l2.142-.872-.339.535L18 6.586l-1.715.69-.772-3.126zm-7.462 0l.772 3.126-2.056-.69-.685-2.773-.603-.535 2.572.872z"/>
        <filter id="H" width="104%" height="114.2%" x="-2%" y="-3.5%" filterUnits="objectBoundingBox">
            <feOffset dy=".5" in="SourceAlpha" result="shadowOffsetOuter1"/>
            <feColorMatrix in="shadowOffsetOuter1" values="0 0 0 0 0.97254902 0 0 0 0 0.745098039 0 0 0 0 0.352941176 0 0 0 1 0"/>
        </filter>
        <linearGradient id="J" x1="50%" x2="50%" y1="98.541%" y2="0%">
            <stop offset="0%" stop-color="#F8A72D"/>
            <stop offset="100%" stop-color="#FFD650"/>
        </linearGradient>
        <path id="K" d="M0 10.174V5.478h5.69c1.766-.497 3.836-.782 6.05-.782 2.212 0 4.282.285 6.05.782h5.688v4.696c0 3.025-5.256 5.478-11.739 5.478C5.256 15.652 0 13.2 0 10.174z"/>
        <filter id="L" width="102.6%" height="105.5%" x="-1.3%" y="-2.7%" filterUnits="objectBoundingBox">
            <feOffset dy=".6" in="SourceAlpha" result="shadowOffsetInner1"/>
            <feComposite in="shadowOffsetInner1" in2="SourceAlpha" k2="-1" k3="1" operator="arithmetic" result="shadowInnerInner1"/>
            <feColorMatrix in="shadowInnerInner1" values="0 0 0 0 0.97254902 0 0 0 0 0.745098039 0 0 0 0 0.352941176 0 0 0 1 0"/>
        </filter>
        <ellipse id="M" cx="11.739" cy="5.478" rx="10.565" ry="4.696"/>
        <filter id="N" width="102.8%" height="106.4%" x="-1.4%" y="-3.2%" filterUnits="objectBoundingBox">
            <feOffset dy=".6" in="SourceAlpha" result="shadowOffsetInner1"/>
            <feComposite in="shadowOffsetInner1" in2="SourceAlpha" k2="-1" k3="1" operator="arithmetic" result="shadowInnerInner1"/>
            <feColorMatrix in="shadowInnerInner1" values="0 0 0 0 0.97254902 0 0 0 0 0.745098039 0 0 0 0 0.352941176 0 0 0 1 0"/>
        </filter>
        <path id="P" d="M10.422 4.167l.73-2.602 1.997 2.602.994 3.98-1.266.462-1.486-.475-.969-3.967zm5.09-.017l2.142-.872-.339.535L18 6.586l-1.715.69-.772-3.126zm-7.462 0l.772 3.126-2.056-.69-.685-2.773-.603-.535 2.572.872z"/>
        <filter id="O" width="104%" height="114.2%" x="-2%" y="-3.5%" filterUnits="objectBoundingBox">
            <feOffset dy=".5" in="SourceAlpha" result="shadowOffsetOuter1"/>
            <feColorMatrix in="shadowOffsetOuter1" values="0 0 0 0 0.97254902 0 0 0 0 0.745098039 0 0 0 0 0.352941176 0 0 0 1 0"/>
        </filter>
        <ellipse id="R" cx="11.739" cy="5.478" rx="11.739" ry="5.478"/>
        <filter id="Q" width="102.1%" height="109.1%" x="-1.1%" y="-2.3%" filterUnits="objectBoundingBox">
            <feOffset dy=".5" in="SourceAlpha" result="shadowOffsetOuter1"/>
            <feColorMatrix in="shadowOffsetOuter1" values="0 0 0 0 0.97254902 0 0 0 0 0.745098039 0 0 0 0 0.352941176 0 0 0 1 0"/>
        </filter>
        <ellipse id="S" cx="11.739" cy="5.478" rx="10.565" ry="4.696"/>
        <filter id="T" width="102.8%" height="106.4%" x="-1.4%" y="-3.2%" filterUnits="objectBoundingBox">
            <feOffset dy=".6" in="SourceAlpha" result="shadowOffsetInner1"/>
            <feComposite in="shadowOffsetInner1" in2="SourceAlpha" k2="-1" k3="1" operator="arithmetic" result="shadowInnerInner1"/>
            <feColorMatrix in="shadowInnerInner1" values="0 0 0 0 0.97254902 0 0 0 0 0.745098039 0 0 0 0 0.352941176 0 0 0 1 0"/>
        </filter>
        <linearGradient id="W" x1="50%" x2="68.854%" y1="0%" y2="100%">
            <stop offset="0%" stop-color="#FFE98D"/>
            <stop offset="100%" stop-color="#FDCF54"/>
        </linearGradient>
        <path id="V" d="M10.422 4.167l.73-2.602 1.997 2.602.994 3.98-1.266.462-1.486-.475-.969-3.967zm5.09-.017l2.142-.872-.339.535L18 6.586l-1.715.69-.772-3.126zm-7.462 0l.772 3.126-2.056-.69-.685-2.773-.603-.535 2.572.872z"/>
        <filter id="U" width="104%" height="114.2%" x="-2%" y="-3.5%" filterUnits="objectBoundingBox">
            <feOffset dy=".5" in="SourceAlpha" result="shadowOffsetOuter1"/>
            <feColorMatrix in="shadowOffsetOuter1" values="0 0 0 0 0.97254902 0 0 0 0 0.654901961 0 0 0 0 0.176470588 0 0 0 1 0"/>
        </filter>
        <path id="X" d="M0 10.174V5.478h5.69c1.766-.497 3.836-.782 6.05-.782 2.212 0 4.282.285 6.05.782h5.688v4.696c0 3.025-5.256 5.478-11.739 5.478C5.256 15.652 0 13.2 0 10.174z"/>
        <filter id="Y" width="102.6%" height="105.5%" x="-1.3%" y="-2.7%" filterUnits="objectBoundingBox">
            <feOffset dy=".6" in="SourceAlpha" result="shadowOffsetInner1"/>
            <feComposite in="shadowOffsetInner1" in2="SourceAlpha" k2="-1" k3="1" operator="arithmetic" result="shadowInnerInner1"/>
            <feColorMatrix in="shadowInnerInner1" values="0 0 0 0 0.97254902 0 0 0 0 0.745098039 0 0 0 0 0.352941176 0 0 0 1 0"/>
        </filter>
        <ellipse id="aa" cx="11.739" cy="5.478" rx="11.739" ry="5.478"/>
        <filter id="Z" width="102.1%" height="109.1%" x="-1.1%" y="-2.3%" filterUnits="objectBoundingBox">
            <feOffset dy=".5" in="SourceAlpha" result="shadowOffsetOuter1"/>
            <feColorMatrix in="shadowOffsetOuter1" values="0 0 0 0 0.97254902 0 0 0 0 0.745098039 0 0 0 0 0.352941176 0 0 0 1 0"/>
        </filter>
        <linearGradient id="ab" x1="99.271%" x2=".729%" y1="49.271%" y2="49.271%">
            <stop offset="0%" stop-color="#FFAE23"/>
            <stop offset="100%" stop-color="#FFD650"/>
        </linearGradient>
        <path id="ad" d="M10.422 4.167l.73-2.602 1.997 2.602.994 3.98-1.266.462-1.486-.475-.969-3.967zm5.09-.017l2.142-.872-.339.535L18 6.586l-1.715.69-.772-3.126zm-7.462 0l.772 3.126-2.056-.69-.685-2.773-.603-.535 2.572.872z"/>
        <filter id="ac" width="104%" height="114.2%" x="-2%" y="-3.5%" filterUnits="objectBoundingBox">
            <feOffset dy=".5" in="SourceAlpha" result="shadowOffsetOuter1"/>
            <feColorMatrix in="shadowOffsetOuter1" values="0 0 0 0 0.97254902 0 0 0 0 0.654901961 0 0 0 0 0.176470588 0 0 0 1 0"/>
        </filter>
        <ellipse id="ae" cx="11.739" cy="5.478" rx="10.565" ry="4.696"/>
        <filter id="af" width="102.8%" height="106.4%" x="-1.4%" y="-3.2%" filterUnits="objectBoundingBox">
            <feOffset dy=".6" in="SourceAlpha" result="shadowOffsetInner1"/>
            <feComposite in="shadowOffsetInner1" in2="SourceAlpha" k2="-1" k3="1" operator="arithmetic" result="shadowInnerInner1"/>
            <feColorMatrix in="shadowInnerInner1" values="0 0 0 0 0.97254902 0 0 0 0 0.745098039 0 0 0 0 0.352941176 0 0 0 1 0"/>
        </filter>
        <path id="ah" d="M10.422 4.167l.73-2.602 1.997 2.602.994 3.98-1.266.462-1.486-.475-.969-3.967zm5.09-.017l2.142-.872-.339.535L18 6.586l-1.715.69-.772-3.126zm-7.462 0l.772 3.126-2.056-.69-.685-2.773-.603-.535 2.572.872z"/>
        <filter id="ag" width="104%" height="114.2%" x="-2%" y="-3.5%" filterUnits="objectBoundingBox">
            <feOffset dy=".5" in="SourceAlpha" result="shadowOffsetOuter1"/>
            <feColorMatrix in="shadowOffsetOuter1" values="0 0 0 0 0.97254902 0 0 0 0 0.654901961 0 0 0 0 0.176470588 0 0 0 1 0"/>
        </filter>
        <ellipse id="ai" cx="11.739" cy="5.478" rx="10.565" ry="4.696"/>
        <filter id="aj" width="102.8%" height="106.4%" x="-1.4%" y="-3.2%" filterUnits="objectBoundingBox">
            <feOffset dy=".6" in="SourceAlpha" result="shadowOffsetInner1"/>
            <feComposite in="shadowOffsetInner1" in2="SourceAlpha" k2="-1" k3="1" operator="arithmetic" result="shadowInnerInner1"/>
            <feColorMatrix in="shadowInnerInner1" values="0 0 0 0 0.97254902 0 0 0 0 0.745098039 0 0 0 0 0.352941176 0 0 0 1 0"/>
        </filter>
        <path id="al" d="M10.422 4.167l.73-2.602 1.997 2.602.994 3.98-1.266.462-1.486-.475-.969-3.967zm5.09-.017l2.142-.872-.339.535L18 6.586l-1.715.69-.772-3.126zm-7.462 0l.772 3.126-2.056-.69-.685-2.773-.603-.535 2.572.872z"/>
        <filter id="ak" width="104%" height="114.2%" x="-2%" y="-3.5%" filterUnits="objectBoundingBox">
            <feOffset dy=".5" in="SourceAlpha" result="shadowOffsetOuter1"/>
            <feColorMatrix in="shadowOffsetOuter1" values="0 0 0 0 0.97254902 0 0 0 0 0.745098039 0 0 0 0 0.352941176 0 0 0 1 0"/>
        </filter>
        <ellipse id="am" cx="11.739" cy="5.478" rx="10.565" ry="4.696"/>
        <filter id="an" width="102.8%" height="106.4%" x="-1.4%" y="-3.2%" filterUnits="objectBoundingBox">
            <feOffset dy=".6" in="SourceAlpha" result="shadowOffsetInner1"/>
            <feComposite in="shadowOffsetInner1" in2="SourceAlpha" k2="-1" k3="1" operator="arithmetic" result="shadowInnerInner1"/>
            <feColorMatrix in="shadowInnerInner1" values="0 0 0 0 0.97254902 0 0 0 0 0.745098039 0 0 0 0 0.352941176 0 0 0 1 0"/>
        </filter>
        <path id="ap" d="M10.422 4.167l.73-2.602 1.997 2.602.994 3.98-1.266.462-1.486-.475-.969-3.967zm5.09-.017l2.142-.872-.339.535L18 6.586l-1.715.69-.772-3.126zm-7.462 0l.772 3.126-2.056-.69-.685-2.773-.603-.535 2.572.872z"/>
        <filter id="ao" width="104%" height="114.2%" x="-2%" y="-3.5%" filterUnits="objectBoundingBox">
            <feOffset dy=".5" in="SourceAlpha" result="shadowOffsetOuter1"/>
            <feColorMatrix in="shadowOffsetOuter1" values="0 0 0 0 0.97254902 0 0 0 0 0.654901961 0 0 0 0 0.176470588 0 0 0 1 0"/>
        </filter>
        <ellipse id="aq" cx="11.739" cy="5.478" rx="10.565" ry="4.696"/>
        <filter id="ar" width="102.8%" height="106.4%" x="-1.4%" y="-3.2%" filterUnits="objectBoundingBox">
            <feOffset dy=".6" in="SourceAlpha" result="shadowOffsetInner1"/>
            <feComposite in="shadowOffsetInner1" in2="SourceAlpha" k2="-1" k3="1" operator="arithmetic" result="shadowInnerInner1"/>
            <feColorMatrix in="shadowInnerInner1" values="0 0 0 0 0.97254902 0 0 0 0 0.745098039 0 0 0 0 0.352941176 0 0 0 1 0"/>
        </filter>
        <path id="at" d="M10.422 4.167l.73-2.602 1.997 2.602.994 3.98-1.266.462-1.486-.475-.969-3.967zm5.09-.017l2.142-.872-.339.535L18 6.586l-1.715.69-.772-3.126zm-7.462 0l.772 3.126-2.056-.69-.685-2.773-.603-.535 2.572.872z"/>
        <filter id="as" width="104%" height="114.2%" x="-2%" y="-3.5%" filterUnits="objectBoundingBox">
            <feOffset dy=".5" in="SourceAlpha" result="shadowOffsetOuter1"/>
            <feColorMatrix in="shadowOffsetOuter1" values="0 0 0 0 0.97254902 0 0 0 0 0.745098039 0 0 0 0 0.352941176 0 0 0 1 0"/>
        </filter>
        <path id="au" d="M10.957 10.174V5.478h5.689c1.766-.497 3.837-.782 6.05-.782 2.213 0 4.283.285 6.05.782h5.689v4.696c0 3.025-5.256 5.478-11.74 5.478-6.483 0-11.738-2.453-11.738-5.478z"/>
        <filter id="av" width="102.6%" height="105.5%" x="-1.3%" y="-2.7%" filterUnits="objectBoundingBox">
            <feOffset dy=".6" in="SourceAlpha" result="shadowOffsetInner1"/>
            <feComposite in="shadowOffsetInner1" in2="SourceAlpha" k2="-1" k3="1" operator="arithmetic" result="shadowInnerInner1"/>
            <feColorMatrix in="shadowInnerInner1" values="0 0 0 0 0.97254902 0 0 0 0 0.745098039 0 0 0 0 0.352941176 0 0 0 1 0"/>
        </filter>
        <ellipse id="aw" cx="22.696" cy="5.478" rx="10.565" ry="4.696"/>
        <filter id="ax" width="102.8%" height="106.4%" x="-1.4%" y="-3.2%" filterUnits="objectBoundingBox">
            <feOffset dy=".6" in="SourceAlpha" result="shadowOffsetInner1"/>
            <feComposite in="shadowOffsetInner1" in2="SourceAlpha" k2="-1" k3="1" operator="arithmetic" result="shadowInnerInner1"/>
            <feColorMatrix in="shadowInnerInner1" values="0 0 0 0 0.97254902 0 0 0 0 0.745098039 0 0 0 0 0.352941176 0 0 0 1 0"/>
        </filter>
        <path id="az" d="M20.895 4.64l-.669-2.826 3.03 2.191 2.852 3.83-.866.766-1.525-.14-2.822-3.822zm4.4-1.202l1.419-1.388-.027.625 1.98 2.67-1.14 1.103-2.232-3.01zm-6.462 1.736l2.231 3.01-2.125-.226-1.98-2.67-.79-.406 2.664.292z"/>
        <filter id="ay" width="104%" height="114.7%" x="-2%" y="-3.7%" filterUnits="objectBoundingBox">
            <feOffset dy=".5" in="SourceAlpha" result="shadowOffsetOuter1"/>
            <feColorMatrix in="shadowOffsetOuter1" values="0 0 0 0 0.97254902 0 0 0 0 0.745098039 0 0 0 0 0.352941176 0 0 0 1 0"/>
        </filter>
        <path id="aA" d="M0 10.174V5.478h5.69c1.766-.497 3.836-.782 6.05-.782 2.212 0 4.282.285 6.05.782h5.688v4.696c0 3.025-5.256 5.478-11.739 5.478C5.256 15.652 0 13.2 0 10.174z"/>
        <filter id="aB" width="102.6%" height="105.5%" x="-1.3%" y="-2.7%" filterUnits="objectBoundingBox">
            <feOffset dy=".6" in="SourceAlpha" result="shadowOffsetInner1"/>
            <feComposite in="shadowOffsetInner1" in2="SourceAlpha" k2="-1" k3="1" operator="arithmetic" result="shadowInnerInner1"/>
            <feColorMatrix in="shadowInnerInner1" values="0 0 0 0 0.97254902 0 0 0 0 0.745098039 0 0 0 0 0.352941176 0 0 0 1 0"/>
        </filter>
        <linearGradient id="aC" x1=".729%" x2="99.271%" y1="49.271%" y2="49.271%">
            <stop offset="0%" stop-color="#FFAE23"/>
            <stop offset="100%" stop-color="#FFD650"/>
        </linearGradient>
        <path id="aE" d="M9.939 4.64l-.67-2.826 3.03 2.191 2.852 3.83-.866.766-1.524-.14L9.939 4.64zm4.4-1.202l1.418-1.388-.026.625 1.98 2.67-1.14 1.103-2.232-3.01zM7.876 5.174l2.231 3.01-2.125-.226-1.98-2.67-.79-.406 2.664.292z"/>
        <filter id="aD" width="104%" height="114.7%" x="-2%" y="-3.7%" filterUnits="objectBoundingBox">
            <feOffset dy=".5" in="SourceAlpha" result="shadowOffsetOuter1"/>
            <feColorMatrix in="shadowOffsetOuter1" values="0 0 0 0 0.97254902 0 0 0 0 0.745098039 0 0 0 0 0.352941176 0 0 0 1 0"/>
        </filter>
        <path id="aF" d="M.007 12.173H0V7.478h1.898C3.992 5.264 7.618 3.8 11.739 3.8c4.121 0 7.747 1.463 9.841 3.677h1.898v4.695h-.007c-.218 4.335-5.387 7.802-11.732 7.802S.225 16.508.007 12.173z"/>
        <filter id="aG" width="102.6%" height="103.7%" x="-1.3%" y="-1.9%" filterUnits="objectBoundingBox">
            <feOffset dy=".6" in="SourceAlpha" result="shadowOffsetInner1"/>
            <feComposite in="shadowOffsetInner1" in2="SourceAlpha" k2="-1" k3="1" operator="arithmetic" result="shadowInnerInner1"/>
            <feColorMatrix in="shadowInnerInner1" values="0 0 0 0 0.97254902 0 0 0 0 0.745098039 0 0 0 0 0.352941176 0 0 0 1 0"/>
        </filter>
        <ellipse id="aH" cx="11.739" cy="8.087" rx="10.565" ry="6.932"/>
        <filter id="aI" width="102.8%" height="104.3%" x="-1.4%" y="-2.2%" filterUnits="objectBoundingBox">
            <feOffset dy=".6" in="SourceAlpha" result="shadowOffsetInner1"/>
            <feComposite in="shadowOffsetInner1" in2="SourceAlpha" k2="-1" k3="1" operator="arithmetic" result="shadowInnerInner1"/>
            <feColorMatrix in="shadowInnerInner1" values="0 0 0 0 0.97254902 0 0 0 0 0.745098039 0 0 0 0 0.352941176 0 0 0 1 0"/>
        </filter>
        <path id="aK" d="M11.048 6.047l.775-4.048 2.122 4.048 1.057 6.191-1.346.718-1.58-.739-1.028-6.17zm5.409-.026l2.275-1.356-.36.83.727 4.315-1.822 1.073-.82-4.862zm-7.93 0l.82 4.862L7.164 9.81l-.727-4.314-.641-.831L8.528 6.02z"/>
        <filter id="aJ" width="103.8%" height="109.1%" x="-1.9%" y="-2.3%" filterUnits="objectBoundingBox">
            <feOffset dy=".5" in="SourceAlpha" result="shadowOffsetOuter1"/>
            <feColorMatrix in="shadowOffsetOuter1" values="0 0 0 0 0.97254902 0 0 0 0 0.745098039 0 0 0 0 0.352941176 0 0 0 1 0"/>
        </filter>
        <ellipse id="aL" cx="11.739" cy="8.087" rx="10.565" ry="6.932"/>
        <filter id="aM" width="102.8%" height="104.3%" x="-1.4%" y="-2.2%" filterUnits="objectBoundingBox">
            <feOffset dy=".6" in="SourceAlpha" result="shadowOffsetInner1"/>
            <feComposite in="shadowOffsetInner1" in2="SourceAlpha" k2="-1" k3="1" operator="arithmetic" result="shadowInnerInner1"/>
            <feColorMatrix in="shadowInnerInner1" values="0 0 0 0 0.97254902 0 0 0 0 0.745098039 0 0 0 0 0.352941176 0 0 0 1 0"/>
        </filter>
        <path id="aO" d="M9.62 7.366L7.697 3.223l4.348 2.892 4.817 5.369-.67 1.256-1.793-.013-4.78-5.361zm4.513-2.36l1.045-2.258.226.937 3.35 3.745-.845 1.796-3.776-4.22zM7.491 8.429l3.776 4.22-2.512-.066-3.35-3.744-1.064-.506 3.15.096z"/>
        <filter id="aN" width="103.5%" height="110%" x="-1.7%" y="-2.5%" filterUnits="objectBoundingBox">
            <feOffset dy=".5" in="SourceAlpha" result="shadowOffsetOuter1"/>
            <feColorMatrix in="shadowOffsetOuter1" values="0 0 0 0 0.97254902 0 0 0 0 0.745098039 0 0 0 0 0.352941176 0 0 0 1 0"/>
        </filter>
        <ellipse id="aP" cx="11.739" cy="4.435" rx="10.565" ry="3.801"/>
        <filter id="aQ" width="102.8%" height="107.9%" x="-1.4%" y="-3.9%" filterUnits="objectBoundingBox">
            <feOffset dy=".6" in="SourceAlpha" result="shadowOffsetInner1"/>
            <feComposite in="shadowOffsetInner1" in2="SourceAlpha" k2="-1" k3="1" operator="arithmetic" result="shadowInnerInner1"/>
            <feColorMatrix in="shadowInnerInner1" values="0 0 0 0 0.97254902 0 0 0 0 0.745098039 0 0 0 0 0.352941176 0 0 0 1 0"/>
        </filter>
        <path id="aS" d="M10.422 3.373l.73-2.106 1.997 2.106.994 3.222-1.266.374-1.486-.385-.969-3.21zm5.09-.013l2.142-.706-.339.433L18 5.332l-1.715.558-.772-2.53zm-7.462 0l.772 2.53-2.056-.558-.685-2.245-.603-.433 2.572.706z"/>
        <filter id="aR" width="104%" height="117.5%" x="-2%" y="-4.4%" filterUnits="objectBoundingBox">
            <feOffset dy=".5" in="SourceAlpha" result="shadowOffsetOuter1"/>
            <feColorMatrix in="shadowOffsetOuter1" values="0 0 0 0 0.97254902 0 0 0 0 0.745098039 0 0 0 0 0.352941176 0 0 0 1 0"/>
        </filter>
        <ellipse id="aT" cx="11.739" cy="4.435" rx="10.565" ry="3.801"/>
        <filter id="aU" width="102.8%" height="107.9%" x="-1.4%" y="-3.9%" filterUnits="objectBoundingBox">
            <feOffset dy=".6" in="SourceAlpha" result="shadowOffsetInner1"/>
            <feComposite in="shadowOffsetInner1" in2="SourceAlpha" k2="-1" k3="1" operator="arithmetic" result="shadowInnerInner1"/>
            <feColorMatrix in="shadowInnerInner1" values="0 0 0 0 0.97254902 0 0 0 0 0.745098039 0 0 0 0 0.352941176 0 0 0 1 0"/>
        </filter>
        <path id="aW" d="M10.422 3.373l.73-2.106 1.997 2.106.994 3.222-1.266.374-1.486-.385-.969-3.21zm5.09-.013l2.142-.706-.339.433L18 5.332l-1.715.558-.772-2.53zm-7.462 0l.772 2.53-2.056-.558-.685-2.245-.603-.433 2.572.706z"/>
        <filter id="aV" width="104%" height="117.5%" x="-2%" y="-4.4%" filterUnits="objectBoundingBox">
            <feOffset dy=".5" in="SourceAlpha" result="shadowOffsetOuter1"/>
            <feColorMatrix in="shadowOffsetOuter1" values="0 0 0 0 0.97254902 0 0 0 0 0.745098039 0 0 0 0 0.352941176 0 0 0 1 0"/>
        </filter>
        <ellipse id="aX" cx="11.739" cy="8.087" rx="10.565" ry="6.932"/>
        <filter id="aY" width="102.8%" height="104.3%" x="-1.4%" y="-2.2%" filterUnits="objectBoundingBox">
            <feOffset dy=".6" in="SourceAlpha" result="shadowOffsetInner1"/>
            <feComposite in="shadowOffsetInner1" in2="SourceAlpha" k2="-1" k3="1" operator="arithmetic" result="shadowInnerInner1"/>
            <feColorMatrix in="shadowInnerInner1" values="0 0 0 0 0.97254902 0 0 0 0 0.745098039 0 0 0 0 0.352941176 0 0 0 1 0"/>
        </filter>
        <path id="ba" d="M9.62 7.366L7.697 3.223l4.348 2.892 4.817 5.369-.67 1.256-1.793-.013-4.78-5.361zm4.513-2.36l1.045-2.258.226.937 3.35 3.745-.845 1.796-3.776-4.22zM7.491 8.429l3.776 4.22-2.512-.066-3.35-3.744-1.064-.506 3.15.096z"/>
        <filter id="aZ" width="103.5%" height="110%" x="-1.7%" y="-2.5%" filterUnits="objectBoundingBox">
            <feOffset dy=".5" in="SourceAlpha" result="shadowOffsetOuter1"/>
            <feColorMatrix in="shadowOffsetOuter1" values="0 0 0 0 0.97254902 0 0 0 0 0.745098039 0 0 0 0 0.352941176 0 0 0 1 0"/>
        </filter>
        <linearGradient id="bb" x1="81.666%" x2="50%" y1="102.459%" y2="0%">
            <stop offset="0%" stop-color="#C3E9E0"/>
            <stop offset="51.511%" stop-color="#A2C6E7"/>
            <stop offset="100%" stop-color="#90CFBE"/>
        </linearGradient>
    </defs>
    <g fill="none" fill-rule="evenodd">
        <path d="M-12 0h600v500H-12z"/>
        <g transform="translate(0 57)">
            <g transform="rotate(47 53.172 685.177)">
                <path fill="url(#a)" d="M30.4 5c2.666-2.667 5.666-4.333 9-5-1.507 1.967-1.84 3.3-1 4 .84.7 2.806.7 5.9 0-1.723 2-5.454 3.667-11.193 5-5.738 1.333-6.64 0-2.708-4z"/>
                <path fill="#90CFBE" d="M.891 22c4.75-6.819 11-13.182 25.944-16 1.332-.251 8.48-1.975 10.056-2-3.134 2.937-4.808 4.543-5.022 4.818-3.881 4.992-7.513 8.39-10.895 10.193C14.76 22.325-4.32 29.481.89 22z"/>
                <path fill="#FFF5D6" fill-rule="nonzero" d="M5.573 22.418L4 21.183C9.903 13.668 21.117 8 37.117 4 21.498 9.863 10.983 16.002 5.573 22.418z"/>
                <circle cx="5.5" cy="21.5" r="1.5" fill="#216C8A"/>
                <path fill="#FFF5D6" d="M16 15.181c0-1.521 1-1.334 2-.76 1 .574 1 1.52 0 1.52s-2 .761-2-.76zM20 13.108c0-1.427.341-1.252.682-.713.341.538.341 1.427 0 1.427-.34 0-.682.713-.682-.714zM23.362 12.379c-1.34-.488-1.293-.108-.904.397.39.505 1.225.809 1.341.488.117-.32.904-.397-.437-.885zM13 18a1 1 0 0 0 1-1c0-.552-.107-.366-.659-.366S12 16.448 12 17a1 1 0 0 0 1 1z"/>
            </g>
            <g transform="rotate(61 100.92 574.818)">
                <path fill="url(#a)" d="M30.4 5c2.666-2.667 5.666-4.333 9-5-1.507 1.967-1.84 3.3-1 4 .84.7 2.806.7 5.9 0-1.723 2-5.454 3.667-11.193 5-5.738 1.333-6.64 0-2.708-4z"/>
                <path fill="#90CFBE" d="M.891 22c4.75-6.819 11-13.182 25.944-16 1.332-.251 8.48-1.975 10.056-2-3.134 2.937-4.808 4.543-5.022 4.818-3.881 4.992-7.513 8.39-10.895 10.193C14.76 22.325-4.32 29.481.89 22z"/>
                <path fill="#FFF5D6" fill-rule="nonzero" d="M5.573 22.418L4 21.183C9.903 13.668 21.117 8 37.117 4 20.49 9.74 9.974 15.88 5.573 22.418z"/>
                <circle cx="5.5" cy="21.5" r="1.5" fill="#216C8A"/>
                <path fill="#FFF5D6" d="M8.75 14.587c-.154-.368.464-.838 1.39-1.11.927-.273.605.728.057 1.064-.548.336-1.294.414-1.447.046zM16.845 13.613c.563-.524.998-.85 1.305-.977 1.283-.535 2.298-.42 2.465-.155.341.539.129.065-.999.483-.752.278-1.676.495-2.771.65zM19.405 14.616c-.612.077-1.08.672-.69 1.177.389.505 1.01.029 1.127-.292.117-.32.174-.962-.437-.885zM15.62 15.803c.893 0 2.38-.79 2.38-1.343 0-.552-.742-.063-1.636-.063-.894 0-2.364-.146-2.364.406s.725 1 1.62 1z"/>
            </g>
            <g transform="rotate(51 7.282 675.348)">
                <path fill="url(#a)" d="M39.58 7.058C43.179 3.69 47.228 1.585 51.727.743c-2.034 2.484-2.484 4.168-1.35 5.052 1.134.885 3.789.885 7.964 0-2.325 2.526-7.36 4.632-15.107 6.316-7.745 1.684-8.963 0-3.654-5.053z"/>
                <path fill="#90CFBE" d="M2.091 28.44C8.23 19.753 16.307 11.646 35.618 8.055c1.721-.32 10.96-2.516 12.996-2.548-4.05 3.742-6.214 5.788-6.49 6.139-5.016 6.36-12.891 14.49-16.632 17.16-12.367 8.826-30.135 9.166-23.4-.366z"/>
                <path fill="#FFF5D6" fill-rule="nonzero" d="M8.17 27.775l-1.995-1.61c10.69-11.051 21.489-14.969 41.78-20.181-21.802 8.352-35.063 15.615-39.785 21.79z"/>
                <circle cx="7.55" cy="27.278" r="2" fill="#216C8A"/>
                <path fill="#FFF5D6" d="M21.06 19.357c.983-.716 1.454-1.252 2.908-.714 1.455.539.568 2.168-.887 2.168-1.454 0-3.005-.739-2.022-1.454zM26.306 16.829c-.73-.689.677-.837 1.909-.813 1.231.024.727 1.427 0 1.427s-1.18.074-1.91-.614zM27.719 17.62c-1.524-.552-1.053.273-.61.844.442.57.974.52 1.107.157.132-.362 1.027-.449-.497-1zM14.026 18.498c1.24-1.044.291-1.048-.425-.95-.715.097-.938.583-.69.88.248.295-.125 1.113 1.115.07zM18.358 22.876c.553 0 1.323-.7 1.323-1.253 0-.552-.927.126-1.48.126-.551 0-1.245-.282-1.245.27s.85.857 1.402.857z"/>
            </g>
            <g transform="rotate(51 128.02 629.898)">
                <path fill="url(#a)" d="M39.58 7.058C43.179 3.69 47.228 1.585 51.727.743c-2.034 2.484-2.484 4.168-1.35 5.052 1.134.885 3.789.885 7.964 0-2.325 2.526-7.36 4.632-15.107 6.316-7.745 1.684-8.963 0-3.654-5.053z"/>
                <path fill="#90CFBE" d="M2.091 28.44C8.23 19.753 16.307 11.646 35.618 8.055c1.721-.32 10.96-2.516 12.996-2.548-4.05 3.742-6.214 5.788-6.49 6.139-5.016 6.36-12.891 14.49-16.632 17.16-12.367 8.826-30.135 9.166-23.4-.366z"/>
                <path fill="#FFF5D6" fill-rule="nonzero" d="M8.17 27.775l-1.995-1.61c10.69-11.051 21.489-14.969 41.78-20.181-21.802 8.352-35.063 15.615-39.785 21.79z"/>
                <circle cx="7.55" cy="27.278" r="2" fill="#216C8A"/>
                <path fill="#FFF5D6" d="M21.06 19.357c.983-.716 1.454-1.252 2.908-.714 1.455.539.568 2.168-.887 2.168-1.454 0-3.005-.739-2.022-1.454zM26.306 16.829c-.73-.689.677-.837 1.909-.813 1.231.024.727 1.427 0 1.427s-1.18.074-1.91-.614zM27.719 17.62c-1.524-.552-1.053.273-.61.844.442.57.974.52 1.107.157.132-.362 1.027-.449-.497-1zM14.026 18.498c1.24-1.044.291-1.048-.425-.95-.715.097-.938.583-.69.88.248.295-.125 1.113 1.115.07zM18.358 22.876c.553 0 1.323-.7 1.323-1.253 0-.552-.927.126-1.48.126-.551 0-1.245-.282-1.245.27s.85.857 1.402.857z"/>
            </g>
            <path fill="#FFF" d="M399.645 89.369l-9.577-26.312c-7.12-2.02-3.448-6.549 11.017-13.587l7.012 19.264c-6.72 4.928-9.537 11.807-8.452 20.635z"/>
            <path fill="#FFE180" d="M388.89 62.742c-.989-1.513-.119-3.26 2.61-5.242a48.857 48.857 0 0 1 8.561-4.997l5.301 14.565c-6.406 4.815-9.395 9.273-8.966 13.374l-6.328-17.385-1.179-.315z"/>
            <path fill="#D7F2EE" d="M395.964 64.636c2.477-1.966 5.382-1.781 8.714.553l.684 1.88c-6.406 4.814-9.395 9.272-8.966 13.373l-3.079-8.458c-.712-2.933.17-5.382 2.647-7.348z"/>
            <path fill="#90CFBE" d="M397.94 57.45l2.662.595-.894 3.181-2.662-.594zM390.068 63.057l9.577 26.312c-1.823-1.11-3.176-2.391-4.06-3.844l-8.821-24.237c.295.81 1.396 1.4 3.304 1.77z"/>
            <g transform="translate(338.044 56)">
                <path fill="#FFF" d="M0 0c0 15.333 2 31.667 6 49 19.333.934 33.667-.399 43-4L42 7C24.667 6.333 10.667 4 0 0z"/>
                <path fill="#D7F2EE" d="M6 6c0 11.6 1.51 22.624 4.53 33.07 14.6.707 25.422-.302 32.47-3.026l-5.286-24.748C24.626 10.79 14.054 9.026 6 6z"/>
                <path fill="#FFE180" d="M10.53 39.07c14.6.707 25.422-.302 32.47-3.026L39 17c-8.279 1.415-14.946 4.082-20 8s-7.878 8.608-8.47 14.07z"/>
                <circle cx="15" cy="17" r="3" fill="#216C8A"/>
            </g>
            <path fill="#FFF" d="M223 311.03l51.21-9.03 13.197 74.845-52.676.714z"/>
            <path fill="#216C8A" d="M230.298 317.866l39.53-6.16 8.197 46.485-40.223 2.232z"/>
            <path fill="#90CFBE" d="M271.774 322.738l6.251 35.453-40.21 2.307c-.672-8.382 1.856-12.571 7.69-15.716 2.237-1.206 11.671 3.36 16.666-3.21 4.996-6.572-.48-16.76 9.603-18.834z"/>
            <path fill="#FFE180" d="M251.018 337.13l-7.011-8.39c-1.756 1.402-1.623 4.401.295 6.697 1.918 2.295 4.924 3.052 6.716 1.693z"/>
            <path fill="#D7F2EE" stroke="#222633" stroke-linejoin="round" d="M98.92 148.868l8.366-8.975c-9.903-7.852-14.7-13.088-14.393-15.71.46-3.932-.591-9.578-4.413-10.96-3.821-1.384-7.849 3.14-12.874-3.071-3.35-4.14-6.923-5.236-10.717-3.286-1.255-.764-2.616-.885-4.085-.362-2.203.784-1.685 3.035-.431 3.39 1.253.356 2.578-.544 4.034.866.97.94 8.3 8.16 21.987 21.664 5.034 8.005 9.21 13.486 12.526 16.444z"/>
            <path fill="#90CFBE" d="M210.913 169.209c-9.075-.931-17.275.515-24.6 4.337-10.986 5.735-10.987 15.2-20.197 22.874-2.492 2.077-7.036 3.172-13.634 3.286-2.866-10.498-7.824-20.532-14.872-30.102-7.049-9.57-18.744-22.145-35.085-37.727l-12.376 8.525c14.169 17.539 24.563 30.967 31.183 40.284 6.62 9.318 12.357 19.898 17.21 31.741 2.638 10.877 8.795 15.204 18.472 12.981 9.677-2.223 37.787-16.055 84.331-41.496l-30.432-14.703z"/>
            <path stroke="#222633" stroke-linecap="round" d="M106.774 161.4c12.495 15 20.625 28.39 24.39 40.168"/>
            <path fill="#D7F2EE" stroke="#222633" stroke-linejoin="round" d="M56.198 179.144c-4.366-.827-10.768-3.375-19.206-7.644-18.687-4.525-28.689-6.94-30.004-7.245-1.974-.459-2.646.995-3.904 1.336-1.257.34-2.86-1.322-1.376-3.129.99-1.204 2.219-1.802 3.688-1.793 2.248-3.626 5.874-4.527 10.878-2.704 7.506 2.735 8.63-3.216 12.617-3.999 3.988-.782 7.798 3.516 9.428 7.124 1.086 2.405 7.896 4.422 20.428 6.053"/>
            <path fill="#90CFBE" d="M222.403 178.008c-8.274-2.277-16.91-.755-25.907 4.568-5.14 3.041-8.636 12.156-15.559 18.593-4.615 4.291-11.156 8.618-19.623 12.98-29.13-27.347-63.8-43.587-104.01-48.72l-6.103 13.32c18.288 6.406 33.387 13.307 45.298 20.703 11.91 7.395 25.339 19.04 40.284 34.935 13.07 9.29 29.826 9.779 50.27 1.464 20.443-8.314 44.996-21.564 73.66-39.749l-38.31-18.094z"/>
            <path fill="#222633" d="M231.6 89.835a42.376 42.376 0 0 1-5.456-2.554l.364.093c2.213.565 10.522 2.833 12.319 3.274 2.517.619 4.807 1.015 6.906 1.196-1.902-.023-3.982-.194-6.273-.534-2.88-.429-5.463-.938-7.86-1.475zM226.483 88.604c-9.714-2.45-17.298-4.665-32.351-1.937-.206.037-.41.075-.614.114 3.562-1.383 6.933-2.322 10.176-2.865a53.18 53.18 0 0 1 1.53-.234c1.911.124 3.863.32 5.854.584 3.816.506 7.646 1.238 11.845 2.227a42.984 42.984 0 0 0 3.56 2.11zM222.137 84.737c1.65.358 3.433.783 5.393 1.276 10.509 2.64 14.988 3.426 22.038 3.27 5.04-.11 8.982-1.688 13.224-4.858-2.563 2.648-4.462 4.052-6.978 5.125-4.208 1.795-9.464 1.917-16.749.127-1.781-.437-10.084-2.704-12.309-3.272-1.173-.3-2.314-.581-3.429-.845-.4-.267-.797-.541-1.19-.823zM219.857 84.269c.11.083.218.167.326.252.198.155.397.308.598.459a115.427 115.427 0 0 0-9.443-1.688c2.637.043 5.34.367 8.52.977z"/>
            <path fill="#222633" d="M163.839 101.348c-.314.688-.28 1.217.122 1.525 7.312 8.562 12.242 14.253 14.79 17.072 9.265-8.149 18.537-11.771 18.02-10.83-.516.94-6.413 2.205-17.173 12.159 1.18 1.623 1.958 1.656 2.033 1.58 5.149-5.197 9.288-8.637 12.417-10.319l-11.986 11.124c.308.3 2.243 1.892 5.804 4.774l6.273-7.56a268.363 268.363 0 0 0-4.624 9.427c15.169 14.27 28.66 23.632 39.919 26.364 27.11 6.58 56.383-22.876 58.765-24.917-.905 1.78-2.807 3.088-5.706 3.924l2.992 1.418c13.46-9.183 13.397-16.172 14.459-19.613-.416 7.67-4.949 14.328-13.648 19.991l1.128.253c9.6-6.25 13.673-13.213 13.445-21.997 18.96-12.445 8.893-29.96 1.682-35.093-7.21-5.134-4.736-.656-10.904-5.074-2.32-1.661-5.94-2.55-9.813-2.307-4.151-.72-7.227.3-11.328 3.416a20.22 20.22 0 0 0-2.117 1.71c-.414.352-.84.722-1.28 1.11l-.767.68-.775.684c-.589.516-1.092.948-1.581 1.356-4.818 4.011-8.945 5.958-14.44 6.079-6.933.153-11.347-.621-21.772-3.241-2.816-.708-5.272-1.278-7.5-1.712-8.54-6.38-18.923-6.77-32.225-2.741-5.62 1.702-10.26 4.6-14.863 9.186-3.794 2.41-7.31 5.462-10.546 9.21-.36.416-.658.792-1.235 1.54l-.116.151.793.61.116-.15c.565-.735.855-1.1 1.199-1.498a48.762 48.762 0 0 1 6.464-6.257c-1.73 2.023-3.484 4.297-5.314 6.847-.151.193-.284.38-.398.558-.07.096-.138.193-.207.29a.552.552 0 0 0-.103.27z"/>
            <path fill="#222633" d="M168.426 96.716c1.831-2.331 3.608-4.37 5.386-6.15 7.742-4.891 16.669-7.074 26.777-7.045-3.873.908-7.933 2.359-12.274 4.423-8.906 2.306-15.704 5.745-19.889 8.772z"/>
            <path fill="#222633" d="M177.154 87.535c3.458-2.813 7.054-4.737 11.185-5.988 12.1-3.664 21.648-3.6 29.547 1.358-4.633-.745-8.378-.815-12.7-.228-10.498-.67-19.85.785-28.032 4.858zM264.67 83.888a114.63 114.63 0 0 0 1.594-1.774l1.194-1.356a22.615 22.615 0 0 1 1.58-1.622c-1.476 1.595-2.879 3.22-4.368 4.752zM303.15 112.548c2.787-3.215 5.788-7.627 6.26-10.806-.04 3.39-1.343 6.47-6.26 10.806z"/>
            <path fill="#D7F2EE" stroke="#222633" stroke-linecap="round" stroke-linejoin="round" d="M303 145.5l-12.457-10.57c-9.28 17.114-15.147 28.944-17.602 35.488-3.04 8.1-5.976 17.24-4.974 20.669 1.586 5.429 37.76 13.784 46.033 17.413 10.552.477 16.45-.663 17.696-3.418 1.867-4.133-1.661-1.596-4.063-1.574-3.197.03-6.555.22-4.585-.584 2.301-.94 3.304-2.433 3.007-4.48-.96.777-2.48 1.324-4.555 1.643-2.076.319-3.718 1.345-4.927 3.08l-31.428-19.906c3.256-6.961 6.968-14.05 11.135-21.267 4.166-7.217 6.406-12.715 6.72-16.494z"/>
            <g transform="translate(205 97)">
                <mask id="c" fill="#fff">
                    <use xlink:href="#b"/>
                </mask>
                <use fill="#222633" transform="scale(-1 1) rotate(-30 0 257.865)" xlink:href="#b"/>
                <circle cx="72.586" cy="62.237" r="22" stroke="#D7F2EE" mask="url(#c)" transform="scale(-1 1) rotate(-30 0 333.13)"/>
                <circle cx="69.337" cy="11.864" r="22" stroke="#D7F2EE" mask="url(#c)" transform="scale(-1 1) rotate(-30 0 270.634)"/>
                <circle cx="32.82" cy="23.113" r="22" stroke="#D7F2EE" mask="url(#c)" transform="scale(-1 1) rotate(-30 0 145.6)"/>
                <circle cx="46.762" cy="106.966" r="22" stroke="#D7F2EE" mask="url(#c)" transform="scale(-1 1) rotate(-30 0 281.483)"/>
                <circle cx="37.435" cy="73.12" r="22" stroke="#D7F2EE" mask="url(#c)" transform="scale(-1 1) rotate(-30 0 212.83)"/>
                <circle cx="57.912" cy="56.652" r="11.5" stroke="#D7F2EE" mask="url(#c)" transform="scale(-1 1) rotate(-30 0 272.784)"/>
                <circle cx="62.001" cy="85.571" r="11.5" stroke="#D7F2EE" mask="url(#c)" transform="scale(-1 1) rotate(-30 0 316.961)"/>
                <circle cx="36.664" cy="37.456" r="11.5" stroke="#D7F2EE" mask="url(#c)" transform="scale(-1 1) rotate(-30 0 174.287)"/>
                <circle cx="26.807" cy="22.528" r="11.5" stroke="#D7F2EE" mask="url(#c)" transform="scale(-1 1) rotate(-30 0 122.574)"/>
                <circle cx="91.794" cy="50.81" r="11.5" stroke="#D7F2EE" mask="url(#c)" transform="scale(-1 1) rotate(-30 0 393.389)"/>
                <circle cx="22.329" cy="67.285" r="16" stroke="#D7F2EE" mask="url(#c)" transform="scale(-1 1) rotate(-30 0 150.617)"/>
                <circle cx="101.062" cy="30.757" r="11.5" stroke="#D7F2EE" mask="url(#c)" transform="scale(-1 1) rotate(-30 0 407.925)"/>
            </g>
            <path fill="#D7F2EE" stroke="#222633" stroke-linejoin="round" d="M301.449 104.144c-6.81-4.514-10.465-9.263-10.965-14.248-3 6-6.982 8.897-11.946 8.692 1.268-4.94-5.67-6.839-7.245-2.451-.821 2.288-.211 4.564 1.83 6.83l-2.7 7.678-4.14 11.01c3.13 5.722 5.776 11.137 7.942 16.245 3.528 3.25 4.774 10.32 3.74 21.207 2.372-7.13 3.76-12.126 4.16-14.985.402-2.859.02-5.023-1.144-6.493l-.435-16.52 1.266-2.192c5.815 3.858 9.11 2.647 11.465-.62 3.408-4.729 6.132-9.447 8.172-14.153z"/>
            <path stroke="#222633" stroke-linecap="round" stroke-linejoin="round" d="M289.822 115.223c-.878.342-1.811-.456-1.504-1.396"/>
            <path stroke="#222633" stroke-linecap="round" d="M292.85 104.364c-.782-1.508-3.476-3.494-6.408-2.989l6.409 2.989z"/>
            <path stroke="#222633" stroke-linecap="round" stroke-linejoin="round" d="M299.922 106.91c-1.461-1.384-2.999-1.508-4.612-.371-1.664 2.767-2.29 4.715-1.88 5.842.41 1.128-.23 1.374-1.92.74l8.412-6.211z"/>
            <path fill="#222633" d="M288.941 106.51a1 1 0 0 1-.366-1.366c.042-.072.119-.163.232-.273.108-.077.193-.127.254-.152a1 1 0 1 1-.12 1.79z"/>
            <circle cx="297.736" cy="109.278" r="1" fill="#222633" transform="scale(-1 1) rotate(-30 0 1220.442)"/>
            <path stroke="#222633" stroke-linecap="round" d="M274.891 95.905c1.321.378 1.71 1.372 1.165 2.982"/>
            <path stroke="#FFE180" d="M273.928 99.932l-1.161 1.343c-.921.827-5.044 3.931-3.087 5.472.95.748 2.374-.503 4.405-4.857.32-.688.269-1.341-.157-1.958z"/>
            <path stroke="#222633" stroke-linecap="round" d="M215.2 179.605c-9.73-.996-17.273 1.24-22.628 6.71-10.043 10.258-13.397 14.579-18.803 18.149-3.603 2.38-9.89 4.621-18.858 6.724-4.9-5.633-11.324-10.578-19.27-14.835"/>
            <path fill="#D7F2EE" stroke="#222633" stroke-linecap="round" stroke-linejoin="round" d="M312.376 207.875c3.514 1.32 5.688 2.087 6.52 2.302 3.982 1.028 5.763 1.23 8.104.223 3.808-1.637 4.986-3.905 5.478-4.875.328-.647-.266-2.663-1.782-6.047-1.13.772-1.189 2.184-.174 4.237.348.978-.615 2.11-2.89 3.397-2.716.21-4.554.1-5.514-.33"/>
            <path stroke="#222633" stroke-linecap="round" stroke-linejoin="round" d="M323.048 205.525H329M332.492 202.248l.715-1.72c.601 1.558 1.032 2.69 1.293 3.396.26.706-.674 2.498-2.804 5.376l-5.641 1.373"/>
            <g transform="rotate(-10 1180.27 -1721.67)">
                <path fill="url(#d)" d="M.006 9.739H0V5.982h1.582c1.745-1.77 4.766-2.941 8.2-2.941 3.435 0 6.456 1.17 8.202 2.941h1.581V9.74h-.006c-.181 3.467-4.49 6.241-9.776 6.241-5.288 0-9.595-2.774-9.777-6.241z"/>
                <ellipse cx="9.783" cy="6.47" fill="#FFF5D6" rx="9.783" ry="6.47"/>
                <use fill="url(#e)" xlink:href="#f"/>
                <use fill="#000" filter="url(#g)" xlink:href="#f"/>
                <g transform="rotate(-5.7 9.984 6.011)">
                    <use fill="#000" filter="url(#h)" xlink:href="#i"/>
                    <use fill="#FFF5D6" xlink:href="#i"/>
                </g>
            </g>
            <g fill-rule="nonzero">
                <use fill="#000" filter="url(#j)" xlink:href="#k"/>
                <use fill="#FFE180" xlink:href="#k"/>
            </g>
            <path fill="#D7F2EE" stroke="#222633" d="M240 127.5l-6.5-16.5c-25.667 8.667-40.833 16-45.5 22-7 9-8 9.906 6.5 16.406 14.5 6.5 42-9.308 56-13.808 5.193-1.67 11.39-3.693 14.5-6.598 1.658-1.549 2-3 2.5-5.5.333-1.667-.167-2.833-1.5-3.5-1.23.954-2.564 1.287-4 1-1.979-.396-1-1.5 1-4.5s-.136-7.803-1-5.5c-1.5 4-5.297 5.297-9 9l-6 6-52.5 12"/>
            <g opacity=".32" transform="translate(423.859)">
                <rect width="120" height="300" fill="#4EAACF" filter="url(#l)" rx="53.5"/>
                <path fill="url(#n)" stroke="url(#m)" stroke-width="12" d="M60 24c20.987 0 38 17.013 38 38v214H22V62c0-20.987 17.013-38 38-38z"/>
            </g>
            <g opacity=".32" transform="translate(401 83)">
                <rect width="40" height="240" fill="#90CFBE" filter="url(#o)" rx="20"/>
                <path fill="url(#q)" stroke="url(#p)" stroke-width="15" d="M20-6.5C32.979-6.5 43.5 4.021 43.5 17v231.5h-47V17C-3.5 4.021 7.021-6.5 20-6.5z"/>
            </g>
            <g>
                <path fill="#FFAE23" d="M406.435 311.87l-17.943-5.981-3.452-4.506-44.766-14.697-3.735 1.885-16.974-5.658 4.696-15.652 82.174 26.609 63.391-18.783 4.696 15.652-68.087 21.13z" opacity=".3" style="mix-blend-mode:multiply"/>
                <g transform="translate(330.522 304.957)">
                    <ellipse cx="11.739" cy="10.957" fill="#FFAE23" rx="11.739" ry="5.478" style="mix-blend-mode:multiply"/>
                    <path fill="url(#d)" d="M0 10.174V5.478h5.69c1.766-.497 3.836-.782 6.05-.782 2.212 0 4.282.285 6.05.782h5.688v4.696c0 3.025-5.256 5.478-11.739 5.478C5.256 15.652 0 13.2 0 10.174z"/>
                    <ellipse cx="11.739" cy="5.478" fill="#FFF5D6" rx="11.739" ry="5.478"/>
                    <use fill="url(#e)" xlink:href="#r"/>
                    <use fill="#000" filter="url(#s)" xlink:href="#r"/>
                    <g>
                        <use fill="#000" filter="url(#t)" xlink:href="#u"/>
                        <use fill="#FFF5D6" xlink:href="#u"/>
                    </g>
                </g>
                <g transform="rotate(30 -377.026 804.735)">
                    <path fill="#FFAE23" d="M23.478 10.957c0-3.026-5.256-5.479-11.739-5.479C5.256 5.478.464 7.575.464 10.601c0 2.418 2.893 4.826 7.551 5.552.164.026 1.202.942 3.115 2.748 4.582-2.092 7.424-3.432 8.524-4.018 3.753-1.998 3.824-2.82 3.824-3.926z" style="mix-blend-mode:multiply"/>
                    <path fill="url(#d)" d="M0 10.174V5.478h5.69c1.766-.497 3.836-.782 6.05-.782 2.212 0 4.282.285 6.05.782h5.688v4.696c0 3.025-5.256 5.478-11.739 5.478C5.256 15.652 0 13.2 0 10.174z"/>
                    <ellipse cx="11.739" cy="5.478" fill="#FFF5D6" rx="11.739" ry="5.478"/>
                    <use fill="url(#v)" xlink:href="#w"/>
                    <use fill="#000" filter="url(#x)" xlink:href="#w"/>
                    <g>
                        <use fill="#000" filter="url(#y)" xlink:href="#z"/>
                        <use fill="#FFF5D6" xlink:href="#z"/>
                    </g>
                </g>
                <path fill="#FFF5D6" d="M324.26 264.26l64.175-10.956 81.391 18.783-63.391 18.783z"/>
                <path fill="url(#B)" stroke="url(#A)" stroke-width=".5" d="M88.685 109.381V137.4l12.022-3.757v-26.515l-12.022 2.254z" transform="translate(318 150)"/>
                <path fill="#FFD650" d="M393.522 256.435l1.565 28.174 11.348 3.13v-28.174zM406.435 290.87l63.391-18.783 4.696 15.652-68.087 21.13z"/>
                <path fill="#FFAE23" d="M460.435 249.391l-2.348 24.261-2.74-.782 1.566-22.305z"/>
                <path fill="#F8BE5A" d="M469.043 247.826l-2.739 23.87-8.217 1.956 2.348-23.87z"/>
                <path fill="url(#B)" stroke="url(#A)" stroke-width=".5" d="M150.755 98.148l-8.09 1.838-2.295 23.342 7.706-1.835 2.679-23.345z" transform="translate(318 150)"/>
                <path fill="#FFD650" d="M406.435 241.565l72-11.739-6.261 18-65.74 12.522z"/>
                <path fill="#FFE180" stroke="url(#C)" stroke-width=".6" d="M1.565 140.87l82.174-26.61 4.696 15.653-16.974 5.658-3.735-1.885-44.766 14.697-3.452 4.506-17.943 5.98z" transform="matrix(-1 0 0 1 408 150)"/>
                <path fill="#3195BD" d="M337.957 242.74l1.956 23.869 55.174 17.217-1.174-26.609z"/>
                <path fill="#FFD650" d="M335.609 242.348L337.957 267l-9-2.74-3.13-24.26z"/>
                <path fill="url(#B)" stroke="url(#A)" stroke-width=".5" d="M20.306 93.351l-2.423-.323 1.91 23.68 1.857-.309-1.344-23.048z" transform="translate(318 150)"/>
                <path fill="#3195BD" d="M402.522 152.348l70.435 14.087-3.914 3.522-18.782 4.304-69.652-14.87a22.927 22.927 0 0 1 9.391-6.26c3.652-1.305 7.826-1.566 12.522-.783z"/>
                <path fill="#FFF5D6" d="M318 222l64.957-10.957 83.627 16.452 11.85 2.331-72.782 11.74-10.896-2.444z"/>
                <path fill="#FFAE23" d="M332.478 222.1l52.539-8.709 77.374 15.241-58.906 9.02z"/>
                <path fill="#3195BD" d="M368.87 172.696l75.15 15.67 20.328 34.417-75.15-15.67z"/>
                <path fill="#FFAE23" d="M394.696 200.087L460 213.313l4.348 9.47-75.15-15.67z"/>
                <path fill="#216C8A" d="M368.87 172.696l41.708 8.63-21.38 25.786z"/>
                <path fill="#FFD650" d="M368.87 172.696l11.858 2.453 14.297 24.935-5.827 7.028z"/>
                <path fill="#FFE180" stroke="url(#C)" stroke-width=".6" d="M37.565 14.087l94.696 19.174 28.174 46.565-95.478-18.783-27.392-46.956zm13.305 8.609l20.328 34.416 75.15 15.67-20.328-34.416-75.15-15.67z" transform="translate(318 150)"/>
                <path fill="#FFE180" d="M368.478 157.043l14.87 3.13c4.435-6.26 10.826-8.869 19.174-7.825-10.696-4.174-22.044-2.609-34.044 4.695zM444.391 171.913l14.87 2.74 10.174 16.434 25.043-11.348c-5.656-7.549-13.091-12.244-22.304-14.087-10.435-2.087-19.696 0-27.783 6.261z"/>
                <path fill="#FFE180" d="M465.913 185.087c8.87-5.391 15.605-5.391 20.206 0 6.902 8.088 1.974 18.865-4.052 27.119l-16.154-27.119z"/>
                <path fill="#216C8A" d="M465.913 185.087c8.87-4.348 15.083-4.348 18.64 0 5.337 6.523 1.974 15.734-4.051 23.988l-14.589-23.988z"/>
                <path fill="url(#D)" d="M142.435 26.609c13.043-7.826 23.468-7.953 31.274-.38 11.709 11.36 5.036 30.31-4.666 44.206l-26.608-43.826zm5.478 9l16.154 26.597c6.026-8.254 10.954-19.031 4.052-27.119-4.601-5.391-11.336-5.217-20.206.522z" transform="translate(318 150)"/>
                <path fill="#FFD650" d="M355.565 164.087l10.565-7.826 29.565 5.666 2.76-1.401a20 20 0 0 1 12.54-1.861l6.198 1.096a7.262 7.262 0 0 1 5.99 7.435l36.47 7.456-9.392 8.609-94.696-19.174z"/>
                <path fill="#216C8A" d="M418.957 258v25.043l36.39-9.39 1.566-23.088z"/>
                <path fill="url(#D)" d="M120.87 129.087c-8.213 0-14.87-7.183-14.87-16.044 0-8.86 6.657-16.043 14.87-16.043 8.212 0 14.87 7.183 14.87 16.043 0 8.861-6.658 16.044-14.87 16.044zm0-6.26c4.754 0 8.608-4.38 8.608-9.784 0-5.402-3.854-9.782-8.608-9.782-4.755 0-8.61 4.38-8.61 9.782 0 5.403 3.855 9.783 8.61 9.783z" transform="translate(318 150)"/>
                <path fill="url(#B)" d="M132.26 33.26l9.392-8.608 28.565 46.957-9.782 8.217z" transform="translate(318 150)"/>
                <path fill="#FFAE23" d="M436.565 242.348l6.652-.783c4.174 1.565 6.261 4.044 6.261 7.435s-1.043 5.74-3.13 7.043c-2.29 1.04-3.986 1.693-5.087 1.957-1.102.264-2.667.395-4.696.391v-4.304c3.13.522 4.696-.652 4.696-3.522 0-2.87-1.565-4.304-4.696-4.304v-3.913z"/>
                <path fill="#FFE180" d="M436.565 242.348v4.304c3.13 0 4.696 1.305 4.696 3.913 0 2.609-1.565 3.783-4.696 3.522v4.304c5.478.261 8.218-2.348 8.218-7.826s-2.74-8.217-8.218-8.217z"/>
                <g transform="rotate(10 -1002.788 2149.102)">
                    <ellipse cx="11.739" cy="10.957" fill="#FFE180" rx="11.739" ry="5.478" style="mix-blend-mode:multiply"/>
                    <path fill="url(#d)" d="M0 10.174V5.478h5.69c1.766-.497 3.836-.782 6.05-.782 2.212 0 4.282.285 6.05.782h5.688v4.696c0 3.025-5.256 5.478-11.739 5.478C5.256 15.652 0 13.2 0 10.174z"/>
                    <use fill="#000" filter="url(#E)" xlink:href="#F"/>
                    <use fill="#FFF5D6" xlink:href="#F"/>
                    <ellipse cx="11.739" cy="5.478" fill="url(#G)" rx="10.565" ry="4.696"/>
                    <g>
                        <use fill="#000" filter="url(#H)" xlink:href="#I"/>
                        <use fill="#FFF5D6" xlink:href="#I"/>
                    </g>
                </g>
                <g transform="rotate(-20 782.722 -848.96)">
                    <ellipse cx="11.739" cy="10.957" fill="#FFAE23" rx="11.739" ry="5.478" style="mix-blend-mode:multiply"/>
                    <use fill="url(#J)" xlink:href="#K"/>
                    <use fill="#000" filter="url(#L)" xlink:href="#K"/>
                    <ellipse cx="11.739" cy="5.478" fill="#FFEDB4" rx="11.739" ry="5.478"/>
                    <use fill="url(#e)" xlink:href="#M"/>
                    <use fill="#000" filter="url(#N)" xlink:href="#M"/>
                    <g>
                        <use fill="#000" filter="url(#O)" xlink:href="#P"/>
                        <use fill="#FFEDB4" xlink:href="#P"/>
                    </g>
                    <path fill="#FFAE23" d="M4.914 10.49l9.231 5.944 5.422-2.842a326.635 326.635 0 0 1-6.938-1.384c-1.561-.337-4.133-.91-7.715-1.718z" opacity=".3" style="mix-blend-mode:multiply"/>
                </g>
                <g transform="translate(357.13 221.217)">
                    <ellipse cx="11.739" cy="10.957" fill="#FFE180" rx="11.739" ry="5.478" style="mix-blend-mode:multiply"/>
                    <path fill="url(#d)" d="M0 10.174V5.478h5.69c1.766-.497 3.836-.782 6.05-.782 2.212 0 4.282.285 6.05.782h5.688v4.696c0 3.025-5.256 5.478-11.739 5.478C5.256 15.652 0 13.2 0 10.174z"/>
                    <use fill="#000" filter="url(#Q)" xlink:href="#R"/>
                    <use fill="#FFF5D6" xlink:href="#R"/>
                    <use fill="url(#J)" xlink:href="#S"/>
                    <use fill="#000" filter="url(#T)" xlink:href="#S"/>
                    <g>
                        <use fill="#000" filter="url(#U)" xlink:href="#V"/>
                        <use fill="url(#W)" xlink:href="#V"/>
                    </g>
                </g>
                <g transform="rotate(10 -1060.318 2212.725)">
                    <ellipse cx="11.739" cy="10.957" fill="#FFE180" rx="11.739" ry="5.478" style="mix-blend-mode:multiply"/>
                    <use fill="url(#e)" xlink:href="#X"/>
                    <use fill="#000" filter="url(#Y)" xlink:href="#X"/>
                    <use fill="#000" filter="url(#Z)" xlink:href="#aa"/>
                    <use fill="#FFF5D6" xlink:href="#aa"/>
                    <ellipse cx="11.739" cy="5.478" fill="url(#ab)" rx="10.565" ry="4.696"/>
                    <g>
                        <use fill="#000" filter="url(#ac)" xlink:href="#ad"/>
                        <use fill="url(#W)" xlink:href="#ad"/>
                    </g>
                </g>
                <g transform="translate(380.609 225.13)">
                    <ellipse cx="11.739" cy="10.957" fill="#FFE180" rx="11.739" ry="5.478" style="mix-blend-mode:multiply"/>
                    <path fill="url(#d)" d="M0 10.174V5.478h5.69c1.766-.497 3.836-.782 6.05-.782 2.212 0 4.282.285 6.05.782h5.688v4.696c0 3.025-5.256 5.478-11.739 5.478C5.256 15.652 0 13.2 0 10.174z"/>
                    <ellipse cx="11.739" cy="5.478" fill="#FFE180" rx="11.739" ry="5.478"/>
                    <use fill="url(#J)" xlink:href="#ae"/>
                    <use fill="#000" filter="url(#af)" xlink:href="#ae"/>
                    <g>
                        <use fill="#000" filter="url(#ag)" xlink:href="#ah"/>
                        <use fill="url(#W)" xlink:href="#ah"/>
                    </g>
                </g>
                <g transform="rotate(20 -414.86 1211.564)">
                    <ellipse cx="11.739" cy="10.957" fill="#FFAE23" rx="11.739" ry="5.478" style="mix-blend-mode:multiply"/>
                    <path fill="url(#d)" d="M0 10.174V5.478h5.69c1.766-.497 3.836-.782 6.05-.782 2.212 0 4.282.285 6.05.782h5.688v4.696c0 3.025-5.256 5.478-11.739 5.478C5.256 15.652 0 13.2 0 10.174z"/>
                    <ellipse cx="11.739" cy="5.478" fill="#FFF5D6" rx="11.739" ry="5.478"/>
                    <use fill="url(#e)" xlink:href="#ai"/>
                    <use fill="#000" filter="url(#aj)" xlink:href="#ai"/>
                    <g>
                        <use fill="#000" filter="url(#ak)" xlink:href="#al"/>
                        <use fill="#FFF5D6" xlink:href="#al"/>
                    </g>
                </g>
                <g transform="rotate(-10 1412.175 -2135.892)">
                    <ellipse cx="11.739" cy="10.957" rx="11.739" ry="5.478"/>
                    <path fill="url(#d)" d="M0 10.174V5.478h5.69c1.766-.497 3.836-.782 6.05-.782 2.212 0 4.282.285 6.05.782h5.688v4.696c0 3.025-5.256 5.478-11.739 5.478C5.256 15.652 0 13.2 0 10.174z"/>
                    <ellipse cx="11.739" cy="5.478" fill="#FFE180" rx="11.739" ry="5.478"/>
                    <use fill="url(#J)" xlink:href="#am"/>
                    <use fill="#000" filter="url(#an)" xlink:href="#am"/>
                    <g>
                        <use fill="#000" filter="url(#ao)" xlink:href="#ap"/>
                        <use fill="url(#W)" xlink:href="#ap"/>
                    </g>
                </g>
                <g transform="rotate(-10 1477.964 -2238.3)">
                    <ellipse cx="11.739" cy="10.957" fill="#FFE180" rx="11.739" ry="5.478" style="mix-blend-mode:multiply"/>
                    <path fill="url(#d)" d="M0 10.174V5.478h5.69c1.766-.497 3.836-.782 6.05-.782 2.212 0 4.282.285 6.05.782h5.688v4.696c0 3.025-5.256 5.478-11.739 5.478C5.256 15.652 0 13.2 0 10.174z"/>
                    <ellipse cx="11.739" cy="5.478" fill="#FFF5D6" rx="11.739" ry="5.478"/>
                    <use fill="url(#e)" xlink:href="#aq"/>
                    <use fill="#000" filter="url(#ar)" xlink:href="#aq"/>
                    <g>
                        <use fill="#000" filter="url(#as)" xlink:href="#at"/>
                        <use fill="#FFF5D6" xlink:href="#at"/>
                    </g>
                </g>
                <g transform="rotate(-10 1473.95 -2253.131)">
                    <ellipse cx="22.696" cy="10.957" fill="#FFE180" rx="11.739" ry="5.478" style="mix-blend-mode:multiply"/>
                    <use fill="url(#e)" xlink:href="#au"/>
                    <use fill="#000" filter="url(#av)" xlink:href="#au"/>
                    <ellipse cx="22.696" cy="5.478" fill="#FFF5D6" rx="11.739" ry="5.478"/>
                    <use fill="url(#e)" xlink:href="#aw"/>
                    <use fill="#000" filter="url(#ax)" xlink:href="#aw"/>
                    <g>
                        <use fill="#000" filter="url(#ay)" xlink:href="#az"/>
                        <use fill="#FFF5D6" xlink:href="#az"/>
                    </g>
                    <path fill="#FFAE23" d="M29.68 15.496c-2.995-2.539-4.844-4.071-5.546-4.597.172-1.111.1-1.968-.218-2.571C22.324 5.302 15.777 2.85 9.294 2.85c-6.483 0-10.312 1.682-8.72 4.707.673 1.28 9.149 6.25 19.92 8.21 2.306.442 5.368.351 9.187-.27z" opacity=".3" style="mix-blend-mode:multiply"/>
                </g>
                <g transform="rotate(20 -378.758 1259.906)">
                    <ellipse cx="11.739" cy="10.957" fill="#FFE180" rx="11.739" ry="5.478" style="mix-blend-mode:multiply"/>
                    <use fill="url(#J)" xlink:href="#aA"/>
                    <use fill="#000" filter="url(#aB)" xlink:href="#aA"/>
                    <ellipse cx="11.739" cy="5.478" fill="#FFEDB4" rx="11.739" ry="5.478"/>
                    <ellipse cx="11.739" cy="5.478" fill="url(#aC)" rx="10.565" ry="4.696"/>
                    <g>
                        <use fill="#000" filter="url(#aD)" xlink:href="#aE"/>
                        <use fill="#FFEDB4" xlink:href="#aE"/>
                    </g>
                </g>
                <g transform="translate(393.913 219.652)">
                    <ellipse cx="11.739" cy="13.043" fill="#FFE180" rx="11.739" ry="8.087" style="mix-blend-mode:multiply"/>
                    <use fill="url(#J)" xlink:href="#aF"/>
                    <use fill="#000" filter="url(#aG)" xlink:href="#aF"/>
                    <ellipse cx="11.739" cy="8.087" fill="#FFF5D6" rx="11.739" ry="8.087"/>
                    <use fill="url(#e)" xlink:href="#aH"/>
                    <use fill="#000" filter="url(#aI)" xlink:href="#aH"/>
                    <g transform="matrix(-1 0 0 1 24.894 0)">
                        <use fill="#000" filter="url(#aJ)" xlink:href="#aK"/>
                        <use fill="#FFF5D6" xlink:href="#aK"/>
                    </g>
                </g>
                <g transform="rotate(-20 762.007 -922.53)">
                    <path fill="#FFAE23" d="M23.468 13.322c0-4.467-4.51-8.098-10.993-8.098-6.484 0-11.74 3.62-11.74 8.087 0 3.57 3.714 6.638 9.207 7.977l11.38 6.24c1.43-8.895 2.146-13.63 2.146-14.206z" opacity=".8" style="mix-blend-mode:multiply"/>
                    <path fill="url(#d)" d="M.007 12.173H0V7.478h1.898C3.992 5.264 7.618 3.8 11.739 3.8c4.121 0 7.747 1.463 9.841 3.677h1.898v4.695h-.007c-.218 4.335-5.387 7.802-11.732 7.802S.225 16.508.007 12.173z"/>
                    <ellipse cx="11.739" cy="8.087" fill="#FFF5D6" rx="11.739" ry="8.087"/>
                    <use fill="url(#e)" xlink:href="#aL"/>
                    <use fill="#000" filter="url(#aM)" xlink:href="#aL"/>
                    <g>
                        <use fill="#000" filter="url(#aN)" xlink:href="#aO"/>
                        <use fill="#FFF5D6" xlink:href="#aO"/>
                    </g>
                </g>
                <path fill="#FFF5D6" d="M318 222l10.957-1.565 76.695 16.826 60.932-9.766 11.85 2.331-72 11.74-11.678-2.444z"/>
                <g transform="translate(414.798 222.394)">
                    <path fill="#FFAE23" d="M11.74 13.693c6.482 0 11.738-2.102 11.738-4.695 0-2.594-5.256-4.696-11.739-4.696C5.256 4.302 0 6.404 0 8.998c0 .393.5 1.775 1.497 4.148a98.74 98.74 0 0 1 2.991-.455c1.658.521 4.514 1.002 7.251 1.002z" style="mix-blend-mode:multiply"/>
                    <path fill="url(#d)" d="M0 8.236V4.435h5.69c1.766-.402 3.836-.634 6.05-.634 2.212 0 4.282.232 6.05.634h5.688v3.801c0 2.45-5.256 4.435-11.739 4.435C5.256 12.67 0 10.685 0 8.236z"/>
                    <ellipse cx="11.739" cy="4.435" fill="#FFF5D6" rx="11.739" ry="4.435"/>
                    <use fill="url(#e)" xlink:href="#aP"/>
                    <use fill="#000" filter="url(#aQ)" xlink:href="#aP"/>
                    <g>
                        <use fill="#000" filter="url(#aR)" xlink:href="#aS"/>
                        <use fill="#FFF5D6" xlink:href="#aS"/>
                    </g>
                </g>
                <g transform="translate(383.494 210.654)">
                    <path fill="#FFAE23" d="M11.74 13.693c6.482 0 11.738-2.102 11.738-4.695 0-2.594-5.256-4.696-11.739-4.696C5.256 4.302 0 6.404 0 8.998c0 .859 1.256 1.902 3.767 3.13l6.652 10.5v-4.874c0-.466-.075-.982 0-1.431.295-1.755 1.095-2.63 1.32-2.63z" opacity=".8" style="mix-blend-mode:multiply"/>
                    <path fill="url(#d)" d="M0 8.236V4.435h5.69c1.766-.402 3.836-.634 6.05-.634 2.212 0 4.282.232 6.05.634h5.688v3.801c0 2.45-5.256 4.435-11.739 4.435C5.256 12.67 0 10.685 0 8.236z"/>
                    <ellipse cx="11.739" cy="4.435" fill="#FFF5D6" rx="11.739" ry="4.435"/>
                    <use fill="url(#e)" xlink:href="#aT"/>
                    <use fill="#000" filter="url(#aU)" xlink:href="#aT"/>
                    <g>
                        <use fill="#000" filter="url(#aV)" xlink:href="#aW"/>
                        <use fill="#FFF5D6" xlink:href="#aW"/>
                    </g>
                </g>
                <g transform="rotate(20 -350.391 1223.198)">
                    <path fill="#FFAE23" d="M11.204 20.834c.435.043 2.057 1.13 4.865 3.258.85-1.07 1.411-1.816 1.684-2.237.766-1.183 1.852-2.067 2.546-2.111 1.662-.106 2.67-.136 3.026-.088a70.14 70.14 0 0 0 .153-4.265c0-4.466-5.256-8.612-11.739-9.26C5.256 5.481 0 8.576 0 13.042c0 4.467 4.72 7.142 11.204 7.79z" opacity=".8" style="mix-blend-mode:multiply"/>
                    <path fill="url(#d)" d="M.007 12.173H0V7.478h1.898C3.992 5.264 7.618 3.8 11.739 3.8c4.121 0 7.747 1.463 9.841 3.677h1.898v4.695h-.007c-.218 4.335-5.387 7.802-11.732 7.802S.225 16.508.007 12.173z"/>
                    <ellipse cx="11.739" cy="8.087" fill="#FFF5D6" rx="11.739" ry="8.087"/>
                    <use fill="url(#e)" xlink:href="#aX"/>
                    <use fill="#000" filter="url(#aY)" xlink:href="#aX"/>
                    <g>
                        <use fill="#000" filter="url(#aZ)" xlink:href="#ba"/>
                        <use fill="#FFF5D6" xlink:href="#ba"/>
                    </g>
                </g>
                <path fill="url(#B)" stroke="url(#A)" stroke-width=".5" d="M40.972 106.498l7.92 1.953a8.615 8.615 0 0 0 10.27-5.745l-8.253-1.875-9.937 5.667z" transform="translate(318 150)"/>
                <path fill="#FFE180" stroke="url(#C)" stroke-width=".6" d="M0 91.565L88.435 72l-6.261 18-19.776 4.696-2.062 4.317a12 12 0 0 1-7.873 6.459l-8.737 2.22a10 10 0 0 1-11.3-5.011l-.17-.32L0 110.348V91.565z" transform="matrix(-1 0 0 1 406.435 150)"/>
                <path fill="#FFE180" stroke="url(#C)" stroke-width=".6" d="M85.696 21.913l-5.087-.783c-.522-3.13-.392-5.739.391-7.826C82.174 10.174 86.681 5.87 93.913 9c-4.821.618-7.43 2.314-7.826 5.087-.396 2.773-.527 5.382-.391 7.826z" transform="translate(318 150)"/>
                <path fill="#FFAE23" d="M415.043 162.522l-1.565 1.565c-1.344-2.408-2.723-3.14-4.138-2.197-1.415.943-1.862 2.98-1.34 6.11l-4.304 3.913c-.939-8.169.942-12.567 5.644-13.195 2.498-.334 4.4.934 5.703 3.804z"/>
            </g>
            <g stroke="url(#bb)" stroke-linecap="round" stroke-linejoin="round" stroke-width="3" transform="translate(431 269)">
                <path d="M34.765 4.118c0 11.88 1.014 31.56 11.663 36.48-2.231 6.08-1.735 11.92 1.489 17.52l3.848-8.4c-1.567-2.68-1.958-5.72-1.175-9.12M27.168 7.008c.667 7.301 3 10.16 7 8.577M43.146 15.414c.9 7.704-.684 13.037-4.755 16M39.703 6.124c.022 10.756 1.355 15.728 4 14.914M44.718 2.86c0 3.398-1.334 6.731-4 10M32.339 19.644c-.153 5.334.842 8 2.984 8M51.631 45.119c4.045 1.58 7.235-.79 9.568-7.11 2.334-6.32 2.988-14.791 1.962-25.416M54.179 20.378c-.665 10.173 2.304 13.29 8.909 9.35M63.743 24.008c3.5-4.1 4.703-8.433 3.609-13M67.689 16.963c4.667-.777 7-4.777 7-12M67.33 12.87c-2-1.742-3-4.076-3-7M62.687 38.528c7.049.826 11.382-2.129 13-8.865M70.004 36.456c-1.55-1.341-1.198-5.341 1.053-12"/>
                <path d="M59.129 31.231c2.011-4.491 2.165-9.334.461-14.528-2.828-2.533-3.535-6.357-2.12-11.472M56.717 11.848c-4.007-.994-5.606-4.327-4.797-10M58.074 42.08c-3.534 0-5.194-3-4.982-9M43.964 37.39c4.667.245 7-3.418 7-10.989M70.946 17.281c4.076 3.017 7.076 2.7 9-.953M39.72 35.047c-4.147 5.687-8.814 6.523-14 2.506M32.85 39.312c2.063-3.414.344-8.414-5.156-15M30.751 30.478c-7.857 2.755-12.857.106-15-7.946M24.258 29.49c1.952-3.902.94-7.569-3.036-11M22.969 21.163c3-2.663 3.75-5.663 2.25-9M25.637 17.367c-2.243-.248-3.91-1.915-5-5M53.706 57.312c4.087-1.09 6.446-3.696 7.078-7.818 4.744 1.778 8.176.775 10.296-3.007 6.006 2.383 10.507-.438 13.504-8.465 4.61-1.256 6.108-6.493 4.496-15.71M88.632 31.606c-3.382-.707-5.048-4.04-4.999-10M89.73 28.722c1.807-.313 2.807-1.647 3-4M84.535 30.037c-3 1.57-5.334-.946-7-7.548M81.404 42.85c-3-1.521-3.75-5.188-2.25-11M78.812 41.442c-2.21.36-3.877-.615-5-2.927M64.76 50.357c2.233-1.839 3.22-4.505 2.96-8M77.733 48.472c3.053 5.18 6.72 5.329 11 .449M84.709 38.753c3.555 2.734 6.222 1.928 8-2.416M71.01 46.504v-4M69.69 49.579c-.24 2.003.748 3.003 2.964 3M83.988 51.314c-.74-.104-.555-1.437.556-4M62.147 48.067v-4M59.505 53.866c-2-.416-3-2.083-3-5M61.116 52.85c2.056 3.255 4.056 3.862 6 1.82M44.518 52.68c-2.651 3.594-5.651 3.039-9-1.665M39.8 53.815c2.223-3.636 2.593-6.97 1.111-10M41.223 47.875c-1.915 1.097-3.915-.456-6-4.66M35.353 51.129c-4.144 5.19-9.144 5.33-15 .418M33.554 52.156c1.729-2.75 1.037-5.75-2.074-9M33.178 48.362c-4.147 1.105-6.48-.447-7-4.655M25.968 46.795c-5.018 1.157-8.684.325-11-2.495M21.48 47.021c2.612-5.183 2.17-9.183-1.324-12M21.76 40.28c-2 .676-4-.253-6-2.787M19.43 47.572c-3.728 3.945-7.728 4-12 .162M27.16 54.318c.146-1.796-.176-3.13-.966-4M25.546 54.839c-2.47 2.412-5.47 1.911-9-1.502M92.16 34.072c1.607 1.334 3.94 1.334 7 0M18.987 26.317c1.543-3.922.804-6.922-2.217-9M18.548 28.134c-2.456 2.266-5.79.959-10-3.922M13.747 49.663c1.494-4.923.374-9.256-3.36-13M13.14 38.453c1.198-2.771.75-5.771-1.346-9M13.311 32.599c-3.23.889-5.564 0-7-2.667M13.106 28.163c1.334-2.268 1.334-4.935 0-8M56.804 15.247c-1 2.029-2.75 2.537-5.25 1.526-2.5.358-3.75-2.14-3.75-7.495M51.717 16.285c1.204-1.65 1.32-3.984.352-7M49.979 32.137c-3.338-1.19-3.89-5.19-1.657-12M64.52 7.59c3.332-.713 5-2.713 5-6M57.539 9.34c1.859 1.691 3.525-1.15 5-8.526M74.858 11.43c2.99 2.378 4.657 1.868 5-1.532M89.3 24.373c-3.667-1.783-5.317-5.45-4.95-11M70.23 28.003c2.666-.416 4-2.083 4-5M90.667 41.29c2.566 4.41 5.566 5.174 9 2.294"/>
                <path d="M13.456 43.122c-1.61-.76-3.567-.88-5.874-.363-2.308.518-4.016 1.413-5.126 2.686M8.421 41.623c0-4.223-1.333-6.556-4-7M7.372 37.064c-1.947 1.784-4.28 2.375-7 1.772M95.647 29.205c-1.651 1.149-2.28 2.815-1.886 5"/>
            </g>
        </g>
    </g>
</svg>
