<svg xmlns="http://www.w3.org/2000/svg" xmlns:xlink="http://www.w3.org/1999/xlink" width="540" height="525" viewBox="0 0 540 525">
    <defs>
        <linearGradient id="a" x1="50%" x2="50%" y1="100%" y2="0%">
            <stop offset="0%" stop-color="#C3E9E0"/>
            <stop offset="51.511%" stop-color="#A2C6E7"/>
            <stop offset="100%" stop-color="#90CFBE"/>
        </linearGradient>
        <linearGradient id="b" x1="71.242%" x2="23.357%" y1="0%" y2="82.79%">
            <stop offset="0%" stop-color="#90CFBE" stop-opacity="0"/>
            <stop offset="100%" stop-color="#90CFBE"/>
        </linearGradient>
        <filter id="c" width="142.9%" height="142.9%" x="-21.4%" y="-21.4%" filterUnits="objectBoundingBox">
            <feGaussianBlur in="SourceGraphic" stdDeviation="20"/>
        </filter>
        <linearGradient id="d" x1="50%" x2="50%" y1="0%" y2="100%">
            <stop offset="0%" stop-color="#90CFBE"/>
            <stop offset="100%" stop-color="#90CFBE"/>
        </linearGradient>
        <path id="f" d="M358.76 105.599c-16.408.187-28.531-2.117-1.183 38.412 27.349 40.53 12.744.215 18.949-1.013 6.205-1.229 10.449-10.78 7.958-15.524-2.49-4.744 9.278-2.25-9.65-6.716s-32.632 8.189-35.045 26.9c-2.412 18.71-.705 6.673 0 9.896.706 3.223 1.65 2.105 2.775 2.773 1.124.668-.913.444 3.524.968s8.896 1.005 13.364 1.026c4.468.021 1.091 1.16 9.507-.919 8.416-2.078 15.37-4.866 1.774-17.71-13.597-12.845-21.63-16.344-38.097-8.372-8.176 3.959-11.692-3.59-14.031-.625-2.372 3.006-3.442 16.558 6.542 25.134 19.832 17.033 31.784-27.671 17.205-37.266-14.579-9.595-25.804 7.026-21.414 19.708 4.39 12.682 6.586 9.611 14.101 2.627 7.515-6.985 14.147-30.993 3.423-37.299-10.723-6.305-10.596 9.612-9.243 13.66 1.354 4.05 2.711 8.63 11.892 9.418 9.18.788 48.11-5.71 37.978-1.435-10.13 4.275 0-12.496 0-16.942s-2.029-3.002-2.348-4.446c-.319-1.445 18.04 11.757-1.392-1.87-19.431-13.63-28.54 28.07-12.288 31.184 16.252 3.113 15.666 8.406 18.988 2.933 3.322-5.473-4.499 10.331 1.904-.218 6.403-10.55-3.288-24.926-16.011-19.353-12.723 5.572-13.024 33.91 6.387 35.756 19.41 1.847 4.753.368 8.437 0 3.684-.367 8.396-12.382 6.651-15.364-1.744-2.982 7.617-.041-6.152-2.017-13.77-1.976-32.74 16.664-27.103 19.581 5.637 2.916-2.125 9.632 4.066 11.047 6.19 1.415 16.367-.82 7.156-11.047-9.21-10.226-35.538-8.184-25.293 8.873 10.245 17.057-2.873.026 2.856 1.427 5.73 1.402 9.427-.253 4.333-10.877-5.094-10.624-20.538-16.878-25.433-2.232-4.896 14.646-3.064-2.604-.03 5.139 3.034 7.742 7.548 2.52 10.978-5.954 3.429-8.474 4.22-22.494-5.654-27.662-9.873-5.168-7.028.008-5.552 8.205 1.476 8.198 26.33 3.697 32.573.834 6.243-2.862 1.6-.389 2.772-1.544 1.17-1.156 1.796-1.342 2.865-4.018 1.07-2.676 1.65-5.54 2.09-8.388.44-2.847.53-3.494 0-5.116-.529-1.621 6.064 1.58-2.856-3.64-8.92-5.219-29.739 4.853-17.948 14.12 11.792 9.267 20.598-1.004 13.954-10.672-6.643-9.668-30.94-3.43-24.621 14.797 6.32 18.228 21.49 12.35 27.77 6.423 6.282-5.926 6.719-12.662 6.345-21.07-.373-8.408 19.246 3.6-1.2-2.223-20.445-5.822-29.308 24.505-18.107 36.386 5.177 5.492 9.813-1.85 6.177-4.77-3.637-2.92.744 7.074 9.71 6.879 16.673-.365-1.664-37.917-13.41-20.149-11.744 17.768-3.055 5.605-4.267 8.551-1.212 2.946-8.356 1.641-.557 11.483 7.798 9.843 42.178 22.975 40.955.763-1.223-22.212 2.647-7.242-2.289-15.215-4.935-7.972-.269-5.085-17.162-18.815s-40.9 8.678-43.172 26.503c-2.273 17.824 15.251 26.567 23.304 26.567 8.053 0 17.69.082 22.098-2.203 4.408-2.285 15.95-9.926 20.478-16.081 4.528-6.155 3.072-4.092 4.242-6.97s1.808-5.967 2.266-9.04c.457-3.072.699-3.21 0-6.165-.7-2.955 4.593 5.877-3.453-8.43-8.046-14.307-22.795-28.683-40.806-24.45-18.01 4.235-39.207 37.396-22.678 54.234 16.53 16.837 45.087 13.668 57.762-4.543 12.675-18.21 13.759-12.373 8.9-22.432-4.857-10.06-32.879-18.236-43.622-16.619-10.743 1.617-12.685 16.882-9.318 23.071 3.368 6.189 41.122 24.346 34.85 3.255-6.273-21.09-33.585-7.396-20.635 8.33 12.95 15.725 41.859-15.492 35.547-28.581-6.312-13.09-24.922-15.157-44.92-13.09s-24.514 7.702-22.923 28.118c1.591 20.415 11.15 18.859 21.766 9.961 10.615-8.897 14.321-18.818 14.756-32.319.434-13.5 14.344-3.726-2.064-3.538z"/>
        <filter id="e" width="251.8%" height="261.8%" x="-75.9%" y="-78.3%" filterUnits="objectBoundingBox">
            <feMorphology in="SourceAlpha" operator="dilate" radius=".5" result="shadowSpreadOuter1"/>
            <feOffset dy="2" in="shadowSpreadOuter1" result="shadowOffsetOuter1"/>
            <feMorphology in="SourceAlpha" radius="1" result="shadowInner"/>
            <feOffset dy="2" in="shadowInner" result="shadowInner"/>
            <feComposite in="shadowOffsetOuter1" in2="shadowInner" operator="out" result="shadowOffsetOuter1"/>
            <feGaussianBlur in="shadowOffsetOuter1" result="shadowBlurOuter1" stdDeviation="20"/>
            <feColorMatrix in="shadowBlurOuter1" values="0 0 0 0 1 0 0 0 0 0.960784314 0 0 0 0 0.839215686 0 0 0 1 0"/>
        </filter>
        <linearGradient id="h" x1="78.325%" x2="30.169%" y1="97.679%" y2="39.527%">
            <stop offset="0%" stop-color="#90CFBE" stop-opacity=".1"/>
            <stop offset="100%" stop-color="#FFCF41"/>
        </linearGradient>
        <path id="g" d="M88.985 135.754c-2.77 4.04-13.535 17.146-11.15 20.863.375.585 1.735 2.16 2.08 2.725 3.42 5.601 4.893 11.487 4.42 17.658l-48.69.018 10-26.063V147l-2.3-4.37-2.01-8.63c-3.481-4.544-5.378-7.71-5.69-9.5-.874-5-1.31-9.833-1.31-14.5-7-1.333-13.443-5.5-19.328-12.5-5.805-2.333-9.852-4.847-12.14-7.542-3.41-4.016-3.778-18.884-1.102-44.604L2.867 26.77c-.582-7.694-.582-13.284 0-16.77.581-3.486 2.07-6.82 4.467-10-.077 8.16.09 13.993.5 17.5.165 1.403 4.177-7.716 4.367-6.5.19 1.216-.631 6.472-2.464 15.77l.055 11.488C13.51 54.84 15.582 66.088 16.007 72l2.827 7c25.55 5.61 40.717 12.277 45.5 20 15-4 34 0 44.016 17.435 6.323 1.377 12.651 4.898 18.984 10.565l23.25-34c.5-9.372 1.847-15.039 4.044-17 1.286-1.148 4.945-.812 6.441-1.959 3.064-2.348 6.535-4.622 10.265-6.541 9.037-4.647 7 4.5 5 14.5-1.183 5.917-9.275 10.626-15 15.5-2.235 1-5.297 8.5-9.186 22.5-5.834 21-10.9 36.617-14.4 36.617S121.834 152.5 116.334 148c-9-1.667-18.116-5.749-27.35-12.246z"/>
        <linearGradient id="j" x1="81.666%" x2="50%" y1="102.459%" y2="0%">
            <stop offset="0%" stop-color="#C3E9E0"/>
            <stop offset="51.511%" stop-color="#A2C6E7"/>
            <stop offset="100%" stop-color="#90CFBE"/>
        </linearGradient>
        <linearGradient id="k" x1="71.242%" x2="21.736%" y1="0%" y2="85.593%">
            <stop offset="0%" stop-color="#EDFAF8" stop-opacity="0"/>
            <stop offset="100%" stop-color="#FFF5D6"/>
        </linearGradient>
        <linearGradient id="l" x1="71.242%" x2="21.736%" y1="0%" y2="85.593%">
            <stop offset="0%" stop-color="#FFF5D6" stop-opacity="0"/>
            <stop offset="100%" stop-color="#FFF5D6"/>
        </linearGradient>
    </defs>
    <g fill="none" fill-rule="evenodd">
        <path d="M-57 47h600v500H-57z"/>
        <g transform="translate(-4 50)">
            <circle cx="355" cy="142" r="120" fill="url(#a)" opacity=".64"/>
            <g opacity=".4">
                <path fill="#90CFBE" d="M132.08 270.747c-6.132 2.863-13.141 4.794-24.857.676-1.044-.367-6.802-2.071-7.926-2.697 3.411-.79 5.248-1.237 5.511-1.343 4.776-1.932 8.726-2.842 11.852-2.732 5.744.203 22.15 2.954 15.42 6.096z"/>
                <path fill="url(#b)" d="M24.828 4.067C27.006 1.898 29.456.542 32.178 0c-1.23 1.6-1.503 2.684-.816 3.254.686.57 2.292.57 4.818 0-1.407 1.627-4.454 2.982-9.14 4.067-4.687 1.084-5.425 0-2.212-3.254z" transform="rotate(-150 100.28 126.723)"/>
                <path fill="#90CFBE" d="M164.093 262.751c-6.436 2.095-13.628 3.157-24.755-2.357-.992-.492-6.498-2.885-7.538-3.644 3.482-.367 5.36-.588 5.634-.661 4.975-1.335 9.007-1.757 12.097-1.267 5.675.902 21.623 5.63 14.562 7.93z"/>
                <path fill="url(#b)" d="M24.828 4.067C27.006 1.898 29.456.542 32.178 0c-1.23 1.6-1.503 2.684-.816 3.254.686.57 2.292.57 4.818 0-1.407 1.627-4.454 2.982-9.14 4.067-4.687 1.084-5.425 0-2.212-3.254z" transform="rotate(-143 123.374 112.993)"/>
                <path fill="#90CFBE" d="M113.905 288.567c-6.274 2.54-13.374 4.1-24.859-.625-1.023-.42-6.683-2.425-7.774-3.108 3.448-.61 5.306-.961 5.575-1.053 4.87-1.68 8.863-2.382 11.979-2.108 5.724.503 21.963 4.109 15.08 6.894z"/>
                <path fill="url(#b)" d="M24.828 4.067C27.006 1.898 29.456.542 32.178 0c-1.23 1.6-1.503 2.684-.816 3.254.686.57 2.292.57 4.818 0-1.407 1.627-4.454 2.982-9.14 4.067-4.687 1.084-5.425 0-2.212-3.254z" transform="rotate(-147 97.405 136.469)"/>
                <path fill="#90CFBE" d="M70.688 284.2c-6.505 1.87-13.73 2.68-24.657-3.22-.974-.525-6.394-3.11-7.407-3.904 3.493-.245 5.378-.4 5.654-.464 5.02-1.16 9.064-1.442 12.134-.844 5.64 1.1 21.414 6.382 14.276 8.433z"/>
                <path fill="url(#b)" d="M24.828 4.067C27.006 1.898 29.456.542 32.178 0c-1.23 1.6-1.503 2.684-.816 3.254.686.57 2.292.57 4.818 0-1.407 1.627-4.454 2.982-9.14 4.067-4.687 1.084-5.425 0-2.212-3.254z" transform="rotate(-141 82.86 138.661)"/>
                <path fill="#90CFBE" d="M119.692 247.367c-6.506 1.87-13.73 2.68-24.658-3.22-.974-.526-6.393-3.11-7.406-3.904 3.492-.246 5.377-.4 5.654-.465 5.018-1.16 9.063-1.442 12.133-.843 5.64 1.098 21.414 6.381 14.277 8.432z"/>
                <path fill="url(#b)" d="M24.828 4.067C27.006 1.898 29.456.542 32.178 0c-1.23 1.6-1.503 2.684-.816 3.254.686.57 2.292.57 4.818 0-1.407 1.627-4.454 2.982-9.14 4.067-4.687 1.084-5.425 0-2.212-3.254z" transform="rotate(-141 100.84 111.568)"/>
                <path fill="#90CFBE" d="M207.897 287.757c-6.505 1.87-13.73 2.68-24.657-3.22-.974-.526-6.394-3.11-7.407-3.904 3.493-.246 5.378-.401 5.654-.465 5.02-1.16 9.064-1.442 12.134-.843 5.64 1.098 21.414 6.381 14.276 8.432z"/>
                <path fill="url(#b)" d="M24.828 4.067C27.006 1.898 29.456.542 32.178 0c-1.23 1.6-1.503 2.684-.816 3.254.686.57 2.292.57 4.818 0-1.407 1.627-4.454 2.982-9.14 4.067-4.687 1.084-5.425 0-2.212-3.254z" transform="rotate(-141 152.094 116.145)"/>
                <path fill="#90CFBE" d="M40.423 255.47c-6.743.593-13.99.01-23.59-7.866-.856-.702-5.683-4.273-6.526-5.246 3.476.425 5.355.633 5.639.623 5.148-.182 9.172.314 12.071 1.487 5.328 2.155 19.803 10.35 12.406 11.001z"/>
                <path fill="url(#b)" d="M24.828 4.067C27.006 1.898 29.456.542 32.178 0c-1.23 1.6-1.503 2.684-.816 3.254.686.57 2.292.57 4.818 0-1.407 1.627-4.454 2.982-9.14 4.067-4.687 1.084-5.425 0-2.212-3.254z" transform="rotate(-130 75.967 127.427)"/>
                <path fill="#90CFBE" d="M92.221 300.071c-6.436 2.095-13.628 3.157-24.754-2.358-.992-.491-6.499-2.885-7.539-3.643 3.482-.367 5.36-.588 5.635-.661 4.975-1.335 9.007-1.758 12.096-1.267 5.676.901 21.624 5.63 14.562 7.93z"/>
                <path fill="url(#b)" d="M24.828 4.067C27.006 1.898 29.456.542 32.178 0c-1.23 1.6-1.503 2.684-.816 3.254.686.57 2.292.57 4.818 0-1.407 1.627-4.454 2.982-9.14 4.067-4.687 1.084-5.425 0-2.212-3.254z" transform="rotate(-143 93.682 143.677)"/>
                <path fill="#90CFBE" d="M39.588 308.348c-6.595 1.526-13.852 1.957-24.456-4.507-.944-.576-6.222-3.44-7.191-4.286 3.5-.063 5.39-.119 5.67-.168 5.073-.896 9.126-.966 12.161-.208 5.575 1.393 21.05 7.494 13.816 9.169z"/>
                <path fill="url(#b)" d="M24.828 4.067C27.006 1.898 29.456.542 32.178 0c-1.23 1.6-1.503 2.684-.816 3.254.686.57 2.292.57 4.818 0-1.407 1.627-4.454 2.982-9.14 4.067-4.687 1.084-5.425 0-2.212-3.254z" transform="rotate(-138 75.905 155.663)"/>
                <path fill="#90CFBE" d="M174.255 307.028c-5.974 3.18-12.872 5.475-24.788 1.976-1.062-.311-6.9-1.712-8.056-2.279 3.365-.966 5.176-1.51 5.434-1.63 4.667-2.178 8.565-3.294 11.693-3.347 5.745-.098 22.273 1.79 15.717 5.28z"/>
                <path fill="url(#b)" d="M24.828 4.067C27.006 1.898 29.456.542 32.178 0c-1.23 1.6-1.503 2.684-.816 3.254.686.57 2.292.57 4.818 0-1.407 1.627-4.454 2.982-9.14 4.067-4.687 1.084-5.425 0-2.212-3.254z" transform="rotate(-153 122.199 141.631)"/>
                <path fill="#90CFBE" d="M160.15 291.897c-6.4 2.207-13.571 3.394-24.793-1.926-1-.474-6.547-2.77-7.6-3.511 3.475-.428 5.348-.681 5.621-.76 4.951-1.421 8.976-1.914 12.073-1.477 5.69.802 21.719 5.252 14.698 7.674z"/>
                <path fill="url(#b)" d="M24.828 4.067C27.006 1.898 29.456.542 32.178 0c-1.23 1.6-1.503 2.684-.816 3.254.686.57 2.292.57 4.818 0-1.407 1.627-4.454 2.982-9.14 4.067-4.687 1.084-5.425 0-2.212-3.254z" transform="rotate(-144 124.953 128.996)"/>
                <path fill="#90CFBE" d="M176.974 287.29c-5.115 1.373-10.78 1.908-19.25-2.857-.755-.425-4.96-2.521-5.742-3.157 2.736-.144 4.213-.24 4.43-.286 3.944-.84 7.112-1.004 9.506-.494 4.4.937 16.67 5.286 11.056 6.793z"/>
                <path fill="url(#b)" d="M19.43 3.183C21.135 1.485 23.052.424 25.183 0c-.963 1.252-1.176 2.1-.64 2.546.538.446 1.795.446 3.772 0-1.101 1.274-3.486 2.335-7.154 3.183-3.668.85-4.245 0-1.73-2.546z" transform="rotate(-140 138.506 118.544)"/>
                <g>
                    <path fill="#90CFBE" d="M145.043 276.123c-3.968 3.431-8.758 6.341-18.17 5.676-.84-.059-5.404-.146-6.351-.383 2.36-1.303 3.627-2.022 3.8-2.157 3.147-2.447 5.881-3.953 8.204-4.52 4.267-1.04 16.87-2.38 12.517 1.384z"/>
                    <path fill="url(#b)" d="M19.43 3.183C21.135 1.485 23.052.424 25.183 0c-.963 1.252-1.176 2.1-.64 2.546.538.446 1.795.446 3.772 0-1.101 1.274-3.486 2.335-7.154 3.183-3.668.85-4.245 0-1.73-2.546z" transform="rotate(-165 90.052 135.553)"/>
                </g>
                <g>
                    <path fill="#90CFBE" d="M223.099 301.074c-4.902 1.867-7.136 2.97-15.753-.874-.768-.343-5.028-1.986-5.837-2.533 2.664-.417 4.1-.66 4.31-.727 3.793-1.223 6.878-1.703 9.254-1.441 4.365.48 13.404 3.527 8.026 5.575z"/>
                    <path fill="url(#b)" d="M16.98 3.183C18.685 1.485 20.602.424 22.733 0c-.963 1.252-1.176 2.1-.64 2.546.538.446 1.795.446 3.772 0-1.101 1.274-3.486 2.335-7.154 3.183-3.668.85-4.245 0-1.73-2.546z" transform="rotate(-145 157.49 121.558)"/>
                </g>
                <g>
                    <path fill="#90CFBE" d="M33.175 290.355c-4.72 2.287-6.85 3.58-15.77.502-.795-.274-5.181-1.54-6.035-2.014 2.617-.648 4.027-1.014 4.23-1.1 3.672-1.549 6.703-2.296 9.093-2.242 4.39.098 13.66 2.345 8.482 4.854z"/>
                    <path fill="url(#b)" d="M16.98 3.183C18.685 1.485 20.602.424 22.733 0c-.963 1.252-1.176 2.1-.64 2.546.538.446 1.795.446 3.772 0-1.101 1.274-3.486 2.335-7.154 3.183-3.668.85-4.245 0-1.73-2.546z" transform="rotate(-150 54.25 146.907)"/>
                </g>
                <g>
                    <path fill="#90CFBE" d="M80.12 277.015c-4.992 1.608-7.281 2.592-15.685-1.698-.75-.382-4.917-2.246-5.696-2.834 2.682-.278 4.129-.444 4.341-.5 3.853-1.024 6.958-1.342 9.317-.956 4.335.709 13.202 4.224 7.724 5.988z"/>
                    <path fill="url(#b)" d="M16.98 3.183C18.685 1.485 20.602.424 22.733 0c-.963 1.252-1.176 2.1-.64 2.546.538.446 1.795.446 3.772 0-1.101 1.274-3.486 2.335-7.154 3.183-3.668.85-4.245 0-1.73-2.546z" transform="rotate(-142 86.052 130.917)"/>
                </g>
                <g>
                    <path fill="#90CFBE" d="M118.028 261.297c-4.833 2.037-7.028 3.217-15.774-.324-.78-.315-5.094-1.808-5.921-2.327 2.647-.51 4.074-.802 4.28-.877 3.75-1.355 6.816-1.942 9.2-1.764 4.379.329 13.518 3.058 8.215 5.292z"/>
                    <path fill="url(#b)" d="M16.98 3.183C18.685 1.485 20.602.424 22.733 0c-.963 1.252-1.176 2.1-.64 2.546.538.446 1.795.446 3.772 0-1.101 1.274-3.486 2.335-7.154 3.183-3.668.85-4.245 0-1.73-2.546z" transform="rotate(-147 96.305 119.353)"/>
                </g>
                <g>
                    <path fill="#90CFBE" d="M101.356 255.1c-4.993 1.607-7.282 2.591-15.686-1.698-.75-.383-4.917-2.246-5.696-2.835 2.682-.277 4.129-.444 4.34-.5 3.853-1.023 6.959-1.341 9.318-.955 4.334.709 13.201 4.224 7.724 5.988z"/>
                    <path fill="url(#b)" d="M16.98 3.183C18.685 1.485 20.602.424 22.733 0c-.963 1.252-1.176 2.1-.64 2.546.538.446 1.795.446 3.772 0-1.101 1.274-3.486 2.335-7.154 3.183-3.668.85-4.245 0-1.73-2.546z" transform="rotate(-142 92.896 116.304)"/>
                </g>
                <g>
                    <path fill="#90CFBE" d="M112.114 229.263c-5.114 1.167-7.48 1.948-15.478-3.058-.713-.446-4.702-2.666-5.428-3.32 2.696-.043 4.153-.083 4.369-.12 3.927-.683 7.048-.73 9.365-.14 4.256 1.084 12.783 5.359 7.172 6.638z"/>
                    <path fill="url(#b)" d="M16.98 3.183C18.685 1.485 20.602.424 22.733 0c-.963 1.252-1.176 2.1-.64 2.546.538.446 1.795.446 3.772 0-1.101 1.274-3.486 2.335-7.154 3.183-3.668.85-4.245 0-1.73-2.546z" transform="rotate(-137 99.21 98.773)"/>
                </g>
                <g>
                    <path fill="#90CFBE" d="M177.452 278.14c-5.114 1.166-7.48 1.947-15.479-3.059-.712-.446-4.702-2.665-5.427-3.32 2.696-.042 4.152-.082 4.369-.12 3.926-.683 7.048-.73 9.365-.14 4.256 1.084 12.782 5.359 7.172 6.639z"/>
                    <path fill="url(#b)" d="M16.98 3.183C18.685 1.485 20.602.424 22.733 0c-.963 1.252-1.176 2.1-.64 2.546.538.446 1.795.446 3.772 0-1.101 1.274-3.486 2.335-7.154 3.183-3.668.85-4.245 0-1.73-2.546z" transform="rotate(-137 141.505 110.343)"/>
                </g>
                <g>
                    <path fill="#90CFBE" d="M210.12 272.156c-5.113 1.167-7.48 1.948-15.478-3.058-.713-.446-4.702-2.666-5.427-3.32 2.696-.043 4.152-.083 4.368-.12 3.927-.683 7.049-.73 9.365-.14 4.256 1.084 12.783 5.359 7.173 6.638z"/>
                    <path fill="url(#b)" d="M16.98 3.183C18.685 1.485 20.602.424 22.733 0c-.963 1.252-1.176 2.1-.64 2.546.538.446 1.795.446 3.772 0-1.101 1.274-3.486 2.335-7.154 3.183-3.668.85-4.245 0-1.73-2.546z" transform="rotate(-137 156.661 100.917)"/>
                </g>
                <g>
                    <path fill="#90CFBE" d="M198.686 307.827c-5.113 1.166-7.48 1.947-15.478-3.059-.713-.446-4.702-2.666-5.427-3.32 2.696-.043 4.152-.083 4.368-.12 3.927-.683 7.049-.73 9.365-.14 4.256 1.084 12.783 5.359 7.172 6.639z"/>
                    <path fill="url(#b)" d="M16.98 3.183C18.685 1.485 20.602.424 22.733 0c-.963 1.252-1.176 2.1-.64 2.546.538.446 1.795.446 3.772 0-1.101 1.274-3.486 2.335-7.154 3.183-3.668.85-4.245 0-1.73-2.546z" transform="rotate(-137 157.97 121.004)"/>
                </g>
                <g>
                    <path fill="#90CFBE" d="M58.363 246.003c-5.093 1.256-7.445 2.078-15.53-2.788-.72-.433-4.748-2.583-5.484-3.225 2.695-.089 4.15-.154 4.365-.196 3.915-.751 7.035-.852 9.362-.303 4.274 1.01 12.874 5.135 7.287 6.512z"/>
                    <path fill="url(#b)" d="M16.98 3.183C18.685 1.485 20.602.424 22.733 0c-.963 1.252-1.176 2.1-.64 2.546.538.446 1.795.446 3.772 0-1.101 1.274-3.486 2.335-7.154 3.183-3.668.85-4.245 0-1.73-2.546z" transform="rotate(-138 74.457 118.019)"/>
                </g>
                <g>
                    <path fill="#90CFBE" d="M140.035 232.018c-5.093 1.255-7.445 2.077-15.53-2.788-.72-.434-4.748-2.583-5.484-3.225 2.695-.09 4.15-.155 4.366-.196 3.914-.752 7.034-.853 9.36-.303 4.275 1.01 12.875 5.134 7.288 6.512z"/>
                    <path fill="url(#b)" d="M16.98 3.183C18.685 1.485 20.602.424 22.733 0c-.963 1.252-1.176 2.1-.64 2.546.538.446 1.795.446 3.772 0-1.101 1.274-3.486 2.335-7.154 3.183-3.668.85-4.245 0-1.73-2.546z" transform="rotate(-138 112.608 95.35)"/>
                </g>
            </g>
            <circle cx="354" cy="140" r="140" fill="#90CFBE" filter="url(#c)" opacity=".32"/>
            <circle cx="354" cy="140" r="120" fill="url(#a)" opacity=".64"/>
            <circle cx="354" cy="140" r="100" fill="url(#d)"/>
            <g opacity=".6">
                <use fill="#000" filter="url(#e)" xlink:href="#f"/>
                <use stroke="#D7F2EE" xlink:href="#f"/>
            </g>
            <g transform="translate(93 175)">
                <path fill="#FFF" d="M0 0c0 15.333 2 31.667 6 49 19.333.934 33.667-.399 43-4L42 7C24.667 6.333 10.667 4 0 0z"/>
                <path fill="#D7F2EE" d="M6 6c0 11.6 1.51 22.624 4.53 33.07 14.6.707 25.422-.302 32.47-3.026l-5.286-24.748C24.626 10.79 14.054 9.026 6 6z"/>
                <path fill="#FFE180" d="M10.53 39.07c14.6.707 25.422-.302 32.47-3.026L39 17c-8.279 1.415-14.946 4.082-20 8s-7.878 8.608-8.47 14.07z"/>
                <circle cx="15" cy="17" r="3" fill="#216C8A"/>
            </g>
            <path fill="#FFF" d="M76 259.03l51.21-9.03 13.197 74.845-52.676.714z"/>
            <path fill="#216C8A" d="M83.298 265.866l39.53-6.16 8.197 46.485-40.223 2.232z"/>
            <path fill="#90CFBE" d="M124.774 270.738l6.251 35.453-40.21 2.307c-.672-8.382 1.856-12.571 7.69-15.716 2.237-1.206 11.671 3.36 16.666-3.21 4.996-6.572-.48-16.76 9.603-18.834z"/>
            <path fill="#FFE180" d="M104.018 285.13l-7.011-8.39c-1.756 1.402-1.623 4.401.295 6.697 1.918 2.295 4.924 3.052 6.716 1.693z"/>
            <g transform="translate(228 147)">
                <mask id="i" fill="#fff">
                    <use xlink:href="#g"/>
                </mask>
                <path stroke="url(#h)" stroke-width=".5" d="M11.978 11.367a7.4 7.4 0 0 0-.293.446c-.327.533-.627 1.079-1.429 2.573l-.017.032c-.76 1.419-1.12 2.067-1.464 2.614-.225.358-.402.597-.545.726-.272.246-.599.158-.644-.229-.399-3.407-.568-8.99-.508-16.756-2.107 2.961-3.428 6.05-3.965 9.268-.577 3.461-.577 9.034.003 16.744L2.013 45.38C-.653 71.01-.287 85.86 3.057 89.796c2.258 2.658 6.273 5.152 12.043 7.472l.099.071c5.85 6.959 12.243 11.094 19.182 12.415l.203.04V110c0 4.652.436 9.47 1.307 14.457.303 1.735 2.186 4.88 5.642 9.391l.045.095 1.989 8.57 2.299 4.37.028.117-.016 4.045-9.87 25.723 48.094-.018c.416-6.033-1.05-11.79-4.4-17.278-.138-.225-.4-.565-1.024-1.345l-.007-.008c-.66-.826-.887-1.117-1.047-1.367-1.156-1.802.32-5.472 3.788-10.804a98.261 98.261 0 0 1 1.94-2.863c1.266-1.805 5.022-6.882 5.427-7.473l.143-.208.207.145c9.205 6.478 18.288 10.545 27.251 12.205l.113.053c4.827 3.949 17.076 8.56 21.255 8.56 2.92 0 7.31-11.778 14.16-36.434 3.92-14.112 6.982-21.613 9.264-22.623a73.209 73.209 0 0 1 2.156-1.757 171.236 171.236 0 0 1 1.904-1.479l.64-.494c6.822-5.258 9.495-8.02 10.217-11.629l.02-.1c1.554-7.763 1.92-10.206 1.613-12.59-.388-3.01-2.212-3.627-6.273-1.539-3.531 1.816-6.984 4.032-10.228 6.518-.646.495-1.455.712-3.236.999l-.173.027c-1.806.29-2.532.486-3.018.92-2.127 1.9-3.464 7.523-3.96 16.827l-.043.128-23.411 34.235-.212-.19c-6.303-5.64-12.594-9.14-18.87-10.507l-.164-.12c-9.077-15.8-26.81-21.831-43.735-17.317l-.18.047-.097-.157C59.386 91.487 44.266 84.84 18.78 79.244l-.129-.028-.05-.122-2.844-7.076c-.424-5.896-2.494-17.135-6.216-33.759l-.05-11.537c1.686-8.557 2.517-13.709 2.486-15.355z"/>
                <circle cx="51" cy="128" r="7.5" stroke="#FFF" mask="url(#i)"/>
                <circle cx="60.5" cy="133.5" r="7" stroke="#FFF" mask="url(#i)"/>
                <circle cx="71" cy="114" r="7.5" stroke="#FFF" mask="url(#i)"/>
                <circle cx="81" cy="142" r="7.5" stroke="#FFF" mask="url(#i)"/>
                <circle cx="44" cy="147" r="7.5" stroke="#FFF" mask="url(#i)"/>
                <circle cx="54" cy="154" r="7.5" stroke="#FFF" mask="url(#i)"/>
                <circle cx="54" cy="104" r="7.5" stroke="#FFF" mask="url(#i)"/>
                <circle cx="44" cy="111" r="7.5" stroke="#FFF" mask="url(#i)"/>
                <circle cx="34" cy="111" r="7.5" stroke="#FFF" mask="url(#i)"/>
                <circle cx="14" cy="39" r="7.5" stroke="#FFF" mask="url(#i)"/>
                <circle cx="4" cy="34" r="7.5" stroke="#FFF" mask="url(#i)"/>
                <circle cx="32" cy="99" r="7.5" stroke="#FFF" mask="url(#i)"/>
                <circle cx="22" cy="99" r="7.5" stroke="#FFF" mask="url(#i)"/>
                <circle cx="26" cy="90" r="7.5" stroke="#FFF" mask="url(#i)"/>
                <circle cx="12" cy="99" r="7.5" stroke="#FFF" mask="url(#i)"/>
                <circle cx="16" cy="76" r="7.5" stroke="#FFF" mask="url(#i)"/>
                <circle cx="5" cy="76" r="7.5" stroke="#FFF" mask="url(#i)"/>
                <circle cx="5" cy="94" r="7.5" stroke="#FFF" mask="url(#i)"/>
                <circle cx="5" cy="55" r="7.5" stroke="#FFF" mask="url(#i)"/>
                <circle cx="13" cy="65" r="7.5" stroke="#FFF" mask="url(#i)"/>
                <circle cx="41" cy="129" r="7.5" stroke="#FFF" mask="url(#i)"/>
                <circle cx="61" cy="149" r="7.5" stroke="#FFF" mask="url(#i)"/>
                <circle cx="68" cy="141" r="7.5" stroke="#FFF" mask="url(#i)"/>
                <circle cx="78" cy="161" r="7.5" stroke="#FFF" mask="url(#i)"/>
                <circle cx="70" cy="158" r="7.5" stroke="#FFF" mask="url(#i)"/>
                <circle cx="50" cy="164" r="7.5" stroke="#FFF" mask="url(#i)"/>
                <circle cx="55" cy="116" r="7.5" stroke="#FFF" mask="url(#i)"/>
                <circle cx="75" cy="122" r="7.5" stroke="#FFF" mask="url(#i)"/>
                <circle cx="82" cy="114" r="7.5" stroke="#FFF" mask="url(#i)"/>
                <circle cx="84" cy="131" r="7.5" stroke="#FFF" mask="url(#i)"/>
                <circle cx="84" cy="103" r="7.5" stroke="#FFF" mask="url(#i)"/>
                <circle cx="92" cy="122" r="7.5" stroke="#FFF" mask="url(#i)"/>
                <circle cx="102" cy="127" r="7.5" stroke="#FFF" mask="url(#i)"/>
                <circle cx="102" cy="107" r="7.5" stroke="#FFF" mask="url(#i)"/>
                <circle cx="102" cy="137" r="7.5" stroke="#FFF" mask="url(#i)"/>
                <circle cx="109" cy="132" r="7.5" stroke="#FFF" mask="url(#i)"/>
                <circle cx="112" cy="122" r="7.5" stroke="#FFF" mask="url(#i)"/>
                <circle cx="118" cy="140" r="7.5" stroke="#FFF" mask="url(#i)"/>
                <circle cx="140" cy="132" r="7.5" stroke="#FFF" mask="url(#i)"/>
                <circle cx="140" cy="112" r="7.5" stroke="#FFF" mask="url(#i)"/>
                <circle cx="140" cy="132" r="7.5" stroke="#FFF" mask="url(#i)"/>
                <circle cx="150" cy="112" r="7.5" stroke="#FFF" mask="url(#i)"/>
                <circle cx="156" cy="102" r="7.5" stroke="#FFF" mask="url(#i)"/>
                <circle cx="126" cy="149" r="7.5" stroke="#FFF" mask="url(#i)"/>
                <circle cx="134" cy="141" r="7.5" stroke="#FFF" mask="url(#i)"/>
                <circle cx="137" cy="151" r="7.5" stroke="#FFF" mask="url(#i)"/>
            </g>
            <path fill="#216C8A" d="M281.815 320.545c-24.648 33.585-38.805 56.79-42.472 69.613-5.5 19.235 0 25.859 31.5 17.765 21-5.397 39.784-9.651 56.35-12.765 3.37 4.2 5.397 7.604 6.083 10.214 1.708 6.505-.863 8.406 1.51 8.645 2.373.239 7.872-.517 7.274-7.76-.567-6.877-2.971-11.217-3.594-19.376-.623-8.158-10.31-2.62-20.966-2.62-10.657 0-18.833-4.338-30.157-4.338-7.55 0-13.723 1.76-18.521 5.283 23.576-23.619 36.916-38.713 40.021-45.283 3.105-6.57 2.827-14.886-.833-24.948l-26.195 5.57z"/>
            <path fill="#216C8A" d="M309.158 309.556c-11.547-9.667-35.068-1.5-70.563 24.5-9.334 5-17.667 10.5-25 16.5-11 9-11.216 21.874 5.5 33.866 11.143 7.995 34.525 26.49 70.146 55.484 9.22 9.418 14.525 16.796 15.917 22.134 2.088 8.007-8.203 8.074-2.477 12.068 2.989 2.085 10.052-.938 11.234-5.576 1.182-4.639-1.278-6.742-.62-17.945.66-11.204 4.057-19.436-10.614-19.531-14.67-.096-27.628-33.767-41.826-46.634-9.465-8.578-16.03-13.09-19.699-13.535 22.098-7.804 39.46-14.581 52.085-20.331 18.939-8.625 33.237-26.5 15.917-41z"/>
            <path fill="#222633" d="M289.523 205.602c7.137 4.358 10.5 19-1 29.65-2.02 1.871-2.353 4.32-1 7.35-8.898-9.342-15.863-11.791-20.895-7.35-7.549 6.664-22.128 3.586-18.628-10.414s10-13.838 13.523-18.236c6.865-8.572 17.977-7.12 28-1z"/>
            <path fill="#D7F2EE" d="M260.855 237.573c3.02 6.734 5.568 10.876 7.645 12.427 3.116 2.326 5.091 1 8.5-1 1.667 3 4.667 4.5 9 4.5s8.5-2.833 12.5-8.5l-7.5-1-7.409-7.427c2.115-1.78 2.282-3.612.5-5.5-.943-1-4.994-1-4.994 2-2.495-1.334-4.33-4.167-5.506-8.5-2.333 5.666-6.578 10-12.736 13z"/>
            <g stroke="url(#j)" stroke-linecap="round" stroke-linejoin="round" stroke-width="3" transform="translate(325 354)">
                <path d="M44 4c0 15.18 1.313 40.327 15.094 46.613-2.887 7.77-2.245 15.231 1.926 22.387L66 62.267c-2.027-3.425-2.534-7.31-1.52-11.654M35 8c.857 8.924 3.857 12.418 9 10.483M54.706 19c1.081 9.63-.82 16.297-5.706 20M51 7c.027 13.625 1.694 19.922 5 18.891M57 2c0 4.417-1.667 8.75-5 13M41.02 24c-.203 6.667 1.123 10 3.98 10M66 56.397c5.056 2.01 9.043-1.006 11.96-9.049 2.918-8.043 3.735-18.826 2.453-32.348M69.122 25c-1.284 11 2.38 16 10.993 15M82 30c4.375-5.361 5.88-11.028 4.511-17M87 20c6-.972 9-5.972 9-15M86 15c-2.667-2.24-4-5.24-4-9M80 47.835c9.218 1.01 14.884-2.602 17-10.835M89.42 45c-2.323-1.676-1.796-6.676 1.58-15"/>
                <path d="M75.958 39c2.515-5.7 2.707-11.847.577-18.44C73 17.346 72.116 12.492 73.884 6M72 14c-4.808-1.292-6.726-5.625-5.755-13M74 52c-4.24 0-6.233-3.667-5.978-11M56 46.985c6 .313 9-4.349 9-13.985M91 21.27c5.435 4.023 9.435 3.6 12-1.27M51 44c-5.333 6.825-11.333 7.827-18 3.007M41.875 49c2.75-4.325.458-10.658-6.875-19M39 37.713c-9.952 3.367-16.286.129-19-9.713M30.794 36c2.44-4.967 1.176-9.634-3.794-14M29 26c4-3.254 5-6.92 3-11M33 21c-2.69-.297-4.69-2.297-6-6M69 72c5.222-1.37 8.236-4.646 9.043-9.828 6.062 2.235 10.448.975 13.157-3.78 7.674 2.996 13.425-.551 17.255-10.642 5.89-1.579 7.804-8.162 5.744-19.75M113 39c-4.059-.92-6.059-5.253-5.999-13M115 35c2.409-.392 3.742-2.059 4-5M108 37.434c-3.857 1.963-6.857-1.182-9-9.434M104 53c-4-1.937-5-6.604-3-14M101 51.903c-2.652.48-4.652-.82-6-3.903M83 63c2.977-2.298 4.292-5.631 3.946-10M100 61c3.886 6.474 8.553 6.661 14 .561M109 48.02c4.444 3.418 7.778 2.41 10-3.02M90.5 58v-5M89.047 62c-.32 2.67.998 4.004 3.953 4M107.444 64c-.74-.129-.555-1.796.556-5M79.5 60v-5M76 67c-2.667-.5-4-2.5-4-6M78 66c2.741 4.339 5.408 5.148 8 2.427M57 66.081c-3.534 4.493-7.534 3.8-12-2.081M51 68c3.333-4.727 3.889-9.06 1.667-13M53 59.592c-2.553 1.315-5.22-.549-8-5.592M45 64c-5.25 6.488-11.583 6.662-19 .523M42.765 65c2.305-3.36 1.383-7.027-2.765-11M42 60.586c-5.333 1.326-8.333-.536-9-5.586M33 58.327C26.614 59.87 21.947 58.76 19 55M27.766 59C31.248 52.521 30.66 47.521 26 44M28 50.715c-2.667.902-5.333-.337-8-3.715M25 59c-4.659 5.26-9.659 5.332-15 .216M34.966 68c.146-2.245-.176-3.911-.966-5M33 69.002c-3.294 3.217-7.294 2.55-12-2.002M118 42c2.066 1.333 5.066 1.333 9 0M23.957 32c2.057-4.795 1.072-8.461-2.957-11M24 34.707c-3.193 2.719-7.526 1.15-13-4.707M17.2 62c1.867-6.437.467-12.104-4.2-17M17.02 48c1.796-3.387 1.123-7.053-2.02-11M17 40.556c-4.154 1.185-7.154 0-9-3.556M17 35c1.333-2.835 1.333-6.168 0-10M73 18.461c-1.332 2.536-3.666 3.172-7 1.908-3.333.448-5-2.675-5-9.369M66 20c1.204-2.123 1.32-5.123.352-9M64 40c-4.45-1.487-5.187-6.487-2.21-15M83 9c4-.952 6-3.618 6-8M74 10.422C76.231 12.488 78.231 9.014 80 0M96 13.041c3.588 3.172 5.588 2.492 6-2.041M114 30c-4.4-2.27-6.38-6.936-5.94-14M90 34c3.333-.5 5-2.5 5-6M116 52c3.422 5.51 7.422 6.466 12 2.866"/>
                <path d="M17 53.903c-2.047-1.012-4.54-1.173-7.476-.483C6.587 54.11 4.413 55.303 3 57M11 52c0-5.429-1.667-8.429-5-9M9 46c-2.503 2.676-5.503 3.562-9 2.657M123 36c-2.477 1.379-3.42 3.379-2.83 6"/>
            </g>
            <path fill="#D7F2EE" stroke="#222633" stroke-linecap="round" stroke-linejoin="round" d="M260.855 237.573c3.02 6.734 5.568 10.876 7.645 12.427 3.116 2.326 5.091 1 8.5-1 1.667 3 4.667 4.5 9 4.5s8.5-2.833 12.5-8.5"/>
            <ellipse cx="269" cy="239.5" fill="#222633" rx="1" ry="1"/>
            <ellipse cx="264" cy="241.5" fill="#222633" rx="1" ry="1"/>
            <g transform="rotate(47 -234.555 613.305)">
                <path fill="url(#k)" d="M23.537 3.783C25.602 1.766 27.925.504 30.506 0c-1.167 1.488-1.425 2.497-.774 3.027.65.53 2.173.53 4.568 0C32.966 4.54 30.077 5.8 25.634 6.81c-4.443 1.009-5.142 0-2.097-3.027z"/>
                <path fill="#FFE180" d="M.69 16.647c3.678-5.16 8.517-9.975 20.088-12.107 1.03-.19 6.566-1.494 7.786-1.513-2.427 2.222-3.723 3.437-3.888 3.645-3.006 3.777-5.818 6.348-8.437 7.713C11.428 16.893-3.345 22.307.69 16.647z"/>
                <path fill="#FFF5D6" fill-rule="nonzero" d="M4.315 16.963l-1.218-.935C7.667 10.342 16.35 6.053 28.74 3.027 16.645 7.463 8.504 12.108 4.315 16.963z"/>
                <ellipse cx="4.259" cy="16.268" fill="#216C8A" rx="1.161" ry="1.135"/>
                <path fill="#FFF5D6" d="M12.388 11.487c0-1.15.775-1.01 1.549-.575.774.434.774 1.15 0 1.15s-1.549.576-1.549-.575zM15.485 9.918c0-1.08.265-.947.529-.54.264.408.264 1.08 0 1.08s-.529.54-.529-.54zM17.965 9.7a654.373 654.373 0 0 0 .519.185l-.52-.185zM10.066 13.62a.766.766 0 0 0 .774-.757c0-.418-.083-.277-.51-.277-.428 0-1.039-.14-1.039.277 0 .418.347.757.775.757z"/>
            </g>
            <g transform="rotate(47 -180.217 600.265)">
                <path fill="url(#k)" d="M23.537 3.783C25.602 1.766 27.925.504 30.506 0c-1.167 1.488-1.425 2.497-.774 3.027.65.53 2.173.53 4.568 0C32.966 4.54 30.077 5.8 25.634 6.81c-4.443 1.009-5.142 0-2.097-3.027z"/>
                <path fill="#FFE180" d="M.69 16.647c3.678-5.16 8.517-9.975 20.088-12.107 1.03-.19 6.566-1.494 7.786-1.513-2.427 2.222-3.723 3.437-3.888 3.645-3.006 3.777-5.818 6.348-8.437 7.713C11.428 16.893-3.345 22.307.69 16.647z"/>
                <path fill="#FFF5D6" fill-rule="nonzero" d="M4.315 16.963l-1.218-.935C7.667 10.342 16.35 6.053 28.74 3.027 16.645 7.463 8.504 12.108 4.315 16.963z"/>
                <ellipse cx="4.259" cy="16.268" fill="#216C8A" rx="1.161" ry="1.135"/>
                <path fill="#FFF5D6" d="M12.388 11.487c0-1.15.775-1.01 1.549-.575.774.434.774 1.15 0 1.15s-1.549.576-1.549-.575zM15.485 9.918c0-1.08.265-.947.529-.54.264.408.264 1.08 0 1.08s-.529.54-.529-.54zM17.965 9.7a654.373 654.373 0 0 0 .519.185l-.52-.185zM10.066 13.62a.766.766 0 0 0 .774-.757c0-.418-.083-.277-.51-.277-.428 0-1.039-.14-1.039.277 0 .418.347.757.775.757z"/>
            </g>
            <g transform="rotate(51 -164.367 584.118)">
                <path fill="url(#l)" d="M30.645 5.34c2.787-2.548 5.922-4.14 9.406-4.778-1.575 1.88-1.923 3.154-1.045 3.823.878.67 2.933.67 6.166 0-1.8 1.912-5.7 3.505-11.697 4.779-5.997 1.274-6.94 0-2.83-3.823z"/>
                <path fill="#FFE180" d="M1.62 21.52C6.371 14.947 12.625 8.812 27.577 6.095c1.333-.242 8.485-1.904 10.062-1.928-3.136 2.832-4.81 4.38-5.025 4.645-3.883 4.812-9.981 10.964-12.877 12.984-9.576 6.68-23.333 6.936-18.119-.276z"/>
                <path fill="#FFF5D6" fill-rule="nonzero" d="M6.326 21.016L4.78 19.798c8.277-8.362 16.638-11.326 32.35-15.27C20.25 10.848 9.98 16.343 6.326 21.016z"/>
                <ellipse cx="5.846" cy="20.64" fill="#222633" stroke="#216C8A" rx="1.049" ry="1.013"/>
                <path fill="#FFF5D6" d="M16.306 14.647c.76-.542 1.126-.948 2.252-.54 1.126.407.44 1.64-.687 1.64-1.126 0-2.327-.559-1.565-1.1zM20.368 12.734c-.565-.521.524-.633 1.478-.615.954.018.563 1.08 0 1.08s-.913.056-1.478-.465zM21.353 13.625c-1.18-.42-.703-.094-.29.15.411.245.782.319.815.232.032-.086.655.036-.525-.382zM10.656 13.759c.96-.789.435-.549.012-.322-.423.226-.673.503-.613.574.06.071-.36.536.601-.252zM14.214 17.31c.428 0 1.025-.53 1.025-.949 0-.418-.718.096-1.146.096-.427 0-.965-.214-.965.204s.659.648 1.086.648z"/>
            </g>
            <g transform="rotate(51 -92.66 599.73)">
                <path fill="url(#l)" d="M30.645 5.34c2.787-2.548 5.922-4.14 9.406-4.778-1.575 1.88-1.923 3.154-1.045 3.823.878.67 2.933.67 6.166 0-1.8 1.912-5.7 3.505-11.697 4.779-5.997 1.274-6.94 0-2.83-3.823z"/>
                <path fill="#FFE180" d="M1.62 21.52C6.371 14.947 12.625 8.812 27.577 6.095c1.333-.242 8.485-1.904 10.062-1.928-3.136 2.832-4.81 4.38-5.025 4.645-3.883 4.812-9.981 10.964-12.877 12.984-9.576 6.68-23.333 6.936-18.119-.276z"/>
                <path fill="#FFF5D6" fill-rule="nonzero" d="M6.326 21.016L4.78 19.798c8.277-8.362 16.638-11.326 32.35-15.27C20.25 10.848 9.98 16.343 6.326 21.016z"/>
                <ellipse cx="5.846" cy="20.64" fill="#222633" stroke="#216C8A" rx="1.049" ry="1.013"/>
                <path fill="#FFF5D6" d="M16.306 14.647c.76-.542 1.126-.948 2.252-.54 1.126.407.44 1.64-.687 1.64-1.126 0-2.327-.559-1.565-1.1zM20.368 12.734c-.565-.521.524-.633 1.478-.615.954.018.563 1.08 0 1.08s-.913.056-1.478-.465zM21.353 13.625c-1.18-.42-.703-.094-.29.15.411.245.782.319.815.232.032-.086.655.036-.525-.382zM10.656 13.759c.96-.789.435-.549.012-.322-.423.226-.673.503-.613.574.06.071-.36.536.601-.252zM14.214 17.31c.428 0 1.025-.53 1.025-.949 0-.418-.718.096-1.146.096-.427 0-.965-.214-.965.204s.659.648 1.086.648z"/>
            </g>
            <path stroke="#222633" d="M306 298c6.333-11.2 12.5-18.667 18.5-22.4"/>
            <path stroke="#222633" stroke-linecap="round" stroke-linejoin="round" d="M266 241c.759 1.984 1.342 3.15 1.75 3.5.408.35.991.183 1.75-.5"/>
            <path stroke="#222633" stroke-linecap="round" stroke-width="2" d="M267 238l3.5-2M264 239.25l-2.5.75"/>
            <path stroke="#222633" stroke-linecap="round" d="M271.5 245.205a8.074 8.074 0 0 1 2-.5M280.5 234c0-1.667.667-2.5 2-2.5"/>
            <path fill="#FFF" d="M49.645 234.369l-9.577-26.312c-7.12-2.02-3.448-6.549 11.017-13.587l7.012 19.264c-6.72 4.928-9.537 11.807-8.452 20.635z"/>
            <path fill="#FFE180" d="M38.89 207.742c-.989-1.513-.119-3.26 2.61-5.242a48.857 48.857 0 0 1 8.561-4.997l5.301 14.565c-6.406 4.815-9.395 9.273-8.966 13.374l-6.328-17.385-1.179-.315z"/>
            <path fill="#D7F2EE" d="M45.964 209.636c2.477-1.966 5.382-1.781 8.714.553l.684 1.88c-6.406 4.814-9.395 9.272-8.966 13.373l-3.079-8.458c-.712-2.933.17-5.382 2.647-7.348z"/>
            <path fill="#90CFBE" d="M47.94 202.45l2.662.595-.894 3.181-2.662-.594zM40.068 208.057l9.577 26.312c-1.823-1.11-3.176-2.391-4.06-3.844l-8.821-24.237c.295.81 1.396 1.4 3.304 1.77z"/>
            <path stroke="#222633" d="M306 337c-10.667 8.333-22.333 15.167-35 20.5-12.667 5.333-20.333 9-23 11M218 383c10.5 7.5 12.459 8.606 36 28M249.5 376c11 3 19.167 10.5 24.5 22.5 5.333 12 11.167 21 17.5 27"/>
        </g>
    </g>
</svg>
