<svg xmlns="http://www.w3.org/2000/svg" width="107" height="102" viewBox="0 0 107 102">
    <defs>
        <linearGradient id="a" x1="69.823%" x2="69.823%" y1="97.683%" y2="0%">
            <stop offset="0%" stop-color="#AAD1CC" stop-opacity="0"/>
            <stop offset="51.809%" stop-color="#AAD1CC"/>
            <stop offset="100%" stop-color="#AAD1CC" stop-opacity="0"/>
        </linearGradient>
    </defs>
    <g fill="none" fill-rule="evenodd" transform="translate(-52 -54)">
        <circle cx="105" cy="105" r="105"/>
        <g transform="translate(52 54)">
            <path fill="#D7F2EE" d="M79.494 78h6.012c5.912 0 8.701.743 11.309 2.137a14.538 14.538 0 0 1 6.048 6.048c1.394 2.608 2.137 5.397 2.137 11.309V102H60v-4.506c0-5.912.743-8.701 2.137-11.309a14.538 14.538 0 0 1 6.048-6.048C70.793 78.743 73.582 78 79.494 78zM19.494 78h6.012c5.912 0 8.701.743 11.309 2.137a14.538 14.538 0 0 1 6.048 6.048C44.257 88.793 45 91.582 45 97.494V102H0v-4.506c0-5.912.743-8.701 2.137-11.309a14.538 14.538 0 0 1 6.048-6.048C10.793 78.743 13.582 78 19.494 78z"/>
            <path fill="url(#a)" d="M58.5 75.679c1.866-.448 4.193-.679 7.494-.679h6.012c5.912 0 8.701.743 11.309 2.137a14.538 14.538 0 0 1 6.048 6.048c1.394 2.608 2.137 5.397 2.137 11.309V102h-75v-7.506c0-5.912.743-8.701 2.137-11.309a14.538 14.538 0 0 1 6.048-6.048C27.293 75.743 30.082 75 35.994 75h6.012c3.3 0 5.628.231 7.494.679V51h9v24.679z"/>
            <path fill="#90CFBE" d="M55.35 46.5h-2.7L54 51h-4.5l1.35-4.5H45v-4.8a7.194 7.194 0 0 1 3.303-6.055L46.937 17.72A21.69 21.69 0 0 1 54 0a21.69 21.69 0 0 1 7.063 17.72l-1.366 17.925A7.194 7.194 0 0 1 63 41.7v4.8h-5.85L58.5 51H54l1.35-4.5zM32.022 90.715c.36-1.818.903-3.198 1.615-4.53a14.538 14.538 0 0 1 6.048-6.048C42.293 78.743 45.082 78 50.994 78h6.012c5.912 0 8.701.743 11.309 2.137a14.538 14.538 0 0 1 6.048 6.048 15.616 15.616 0 0 1 1.615 4.53A9 9 0 0 1 88.5 99v3h-69v-3a9 9 0 0 1 12.522-8.285z"/>
            <circle cx="103.5" cy="19.5" r="3" fill="#FFF" fill-rule="nonzero"/>
            <circle cx="22.5" cy="24" r="3" fill="#FFF" fill-rule="nonzero"/>
            <circle cx="6" cy="31.5" r="3" fill="#FFF" fill-rule="nonzero" opacity=".32"/>
            <circle cx="84" cy="57" r="3" fill="#FFF" fill-rule="nonzero" opacity=".32"/>
            <circle cx="33" cy="55.5" r="3" fill="#FFF" fill-rule="nonzero"/>
        </g>
    </g>
</svg>
