<svg xmlns="http://www.w3.org/2000/svg" xmlns:xlink="http://www.w3.org/1999/xlink" width="599" height="583" viewBox="0 0 599 583">
    <defs>
        <path id="a" d="M14.326 1.939c-4.058-9.379 30.104 18.5 84.633 15 54.53-3.5 52.274-12.5 59.741 0 7.468 12.5 19.914 30 37.339 30 17.424 0-30.61 37-85.11 13.5-1.545 2.245-4.688 4.217-9.429 5.918-7.111 2.55-11.181-.055-7.111-3.95 2.714-2.595 4.264-4.418 4.652-5.468-47.074-14.937-75.313-33.27-84.715-55z"/>
        <filter id="b" width="100.5%" height="101.5%" x="-.3%" y="-.7%" filterUnits="objectBoundingBox">
            <feOffset dy="1" in="SourceAlpha" result="shadowOffsetInner1"/>
            <feComposite in="shadowOffsetInner1" in2="SourceAlpha" k2="-1" k3="1" operator="arithmetic" result="shadowInnerInner1"/>
            <feColorMatrix in="shadowInnerInner1" values="0 0 0 0 0.21 0 0 0 0 0.3 0 0 0 0 0.276 0 0 0 1 0"/>
        </filter>
        <linearGradient id="e" x1="2.958%" y1="-1.816%" y2="100%">
            <stop offset="0%" stop-color="#FFC8C8" stop-opacity=".32"/>
            <stop offset="100%" stop-color="#FF9797" stop-opacity="0"/>
        </linearGradient>
        <linearGradient id="f" x1="40.796%" y1="18.8%" y2="100%">
            <stop offset="0%" stop-color="#F8574F"/>
            <stop offset="40.268%" stop-color="#FF6D58"/>
            <stop offset="100%" stop-color="#FC6455" stop-opacity="0"/>
        </linearGradient>
        <path id="d" d="M13 13c46.548 12.164 69.822 44.152 69.822 95.965C82.822 186.685 93 224 177.5 248c18.652 5.298 33.285 10.756 46.512 18.993"/>
        <filter id="c" width="118.2%" height="115.2%" x="-9%" y="-6.7%" filterUnits="objectBoundingBox">
            <feMorphology in="SourceAlpha" operator="dilate" radius="2.5" result="shadowSpreadOuter1"/>
            <feOffset dy="2" in="shadowSpreadOuter1" result="shadowOffsetOuter1"/>
            <feMorphology in="SourceAlpha" radius="2.5" result="shadowInner"/>
            <feOffset dy="2" in="shadowInner" result="shadowInner"/>
            <feComposite in="shadowOffsetOuter1" in2="shadowInner" operator="out" result="shadowOffsetOuter1"/>
            <feGaussianBlur in="shadowOffsetOuter1" result="shadowBlurOuter1" stdDeviation="5"/>
            <feColorMatrix in="shadowBlurOuter1" values="0 0 0 0 1 0 0 0 0 0.298039216 0 0 0 0 0.298039216 0 0 0 0.32 0"/>
        </filter>
        <path id="g" d="M49.587 2c0-6.5 6.554 17.897 29.605 19.767 23.05 1.871 37.197-8.853 42.511 0 5.314 8.854 18.02 8.854 29.47 3.01 11.448-5.843-13.384 36.917-60.624 26.032-5.011 4.034-9.878 6.05-14.602 6.05-4.723 0-6.41-.932-5.06-2.796l9.83-6.508C59.965 37.895 49.588 22.709 49.588 2z"/>
        <filter id="h" width="101%" height="101.8%" x="-.5%" y="-.9%" filterUnits="objectBoundingBox">
            <feOffset dy="1" in="SourceAlpha" result="shadowOffsetInner1"/>
            <feComposite in="shadowOffsetInner1" in2="SourceAlpha" k2="-1" k3="1" operator="arithmetic" result="shadowInnerInner1"/>
            <feColorMatrix in="shadowInnerInner1" values="0 0 0 0 0.21 0 0 0 0 0.3 0 0 0 0 0.276 0 0 0 1 0"/>
        </filter>
        <path id="i" d="M13 1c-.5-3.5 9.69 7.484 21.5 8.511 11.81 1.028 13.897-6.516 16.62-1.653 2.722 4.863 9.817 2.665 15.099 1.653C71.5 8.5 57.069 23.5 36 23.5l-3 1.334-2-.886 1.637-2.344C20.877 17.186 14.331 10.318 13 1z"/>
        <filter id="j" width="101.8%" height="104.1%" x="-.9%" y="-2%" filterUnits="objectBoundingBox">
            <feOffset dy="1" in="SourceAlpha" result="shadowOffsetInner1"/>
            <feComposite in="shadowOffsetInner1" in2="SourceAlpha" k2="-1" k3="1" operator="arithmetic" result="shadowInnerInner1"/>
            <feColorMatrix in="shadowInnerInner1" values="0 0 0 0 0.21 0 0 0 0 0.3 0 0 0 0 0.276 0 0 0 1 0"/>
        </filter>
        <linearGradient id="k" x1="71.242%" x2="21.736%" y1="0%" y2="85.593%">
            <stop offset="0%" stop-color="#EDFAF8" stop-opacity="0"/>
            <stop offset="100%" stop-color="#FFF5D6"/>
        </linearGradient>
        <linearGradient id="l" x1="71.242%" x2="21.736%" y1="0%" y2="85.593%">
            <stop offset="0%" stop-color="#FFF5D6" stop-opacity="0"/>
            <stop offset="100%" stop-color="#FFF5D6"/>
        </linearGradient>
        <linearGradient id="m" x1="71.242%" x2="21.736%" y1="0%" y2="85.593%">
            <stop offset="0%" stop-color="#EDFAF8" stop-opacity="0"/>
            <stop offset="100%" stop-color="#D7F2EE"/>
        </linearGradient>
        <path id="n" d="M63.346 20.333c16.795-.073 26.391 7.485 28.79 22.675l-16.517 3.79c-1.82 3.62-1.538 9.071.843 16.355 1.646 5.036 10.416 10.925 26.31 17.667-26.494 17.42-45.253 21.943-56.28 13.567-.486-7.324-2.459-12.743-5.916-16.257C30.855 68.252 26.2 66.336 25.94 56.853c-.173-6.322.428-10.983 1.802-13.981l-15.525-2.46c3.93-5.651 4.862-8.77 10.542-11.895 3.137-1.725 9.733-3.87 19.79-6.437-1.067 8.189-2.69 14.453-4.867 18.793-.435.867-.319 7.032.348 18.497.923-7.786 2.808-13.615 5.654-17.49 2.847-3.873 6.868-9.593 12.063-17.16l-2.054-11.49c4.067 4.746 7.285 7.113 9.652 7.103z"/>
        <path id="q" d="M13 12c38.667 22.786 63.333 43.235 74 61.345 16 27.164 29.5 58.505 29.5 125.015 0 44.34 24.167 80.568 72.5 108.685"/>
        <filter id="p" width="122.1%" height="113.2%" x="-11%" y="-5.9%" filterUnits="objectBoundingBox">
            <feMorphology in="SourceAlpha" operator="dilate" radius="2.5" result="shadowSpreadOuter1"/>
            <feOffset dy="2" in="shadowSpreadOuter1" result="shadowOffsetOuter1"/>
            <feMorphology in="SourceAlpha" radius="2.5" result="shadowInner"/>
            <feOffset dy="2" in="shadowInner" result="shadowInner"/>
            <feComposite in="shadowOffsetOuter1" in2="shadowInner" operator="out" result="shadowOffsetOuter1"/>
            <feGaussianBlur in="shadowOffsetOuter1" result="shadowBlurOuter1" stdDeviation="5"/>
            <feColorMatrix in="shadowBlurOuter1" values="0 0 0 0 1 0 0 0 0 0.298039216 0 0 0 0 0.298039216 0 0 0 0.32 0"/>
        </filter>
        <linearGradient id="t" x1="50%" x2="50%" y1="1.949%" y2="96.602%">
            <stop offset="0%" stop-color="#F8574F"/>
            <stop offset="100%" stop-color="#FF6D58"/>
        </linearGradient>
        <path id="s" d="M38.11 6.948L0 0l20.056 50L48 16.268z"/>
        <filter id="r" width="440.6%" height="427.2%" x="-170.4%" y="-163.3%" filterUnits="objectBoundingBox">
            <feMorphology in="SourceAlpha" operator="dilate" radius=".5" result="shadowSpreadOuter1"/>
            <feOffset in="shadowSpreadOuter1" result="shadowOffsetOuter1"/>
            <feGaussianBlur in="shadowOffsetOuter1" result="shadowBlurOuter1" stdDeviation="27"/>
            <feComposite in="shadowBlurOuter1" in2="SourceAlpha" operator="out" result="shadowBlurOuter1"/>
            <feColorMatrix in="shadowBlurOuter1" values="0 0 0 0 1 0 0 0 0 0.312618371 0 0 0 0 0.312618371 0 0 0 0.5 0"/>
        </filter>
    </defs>
    <g fill="none" fill-rule="evenodd">
        <g transform="translate(179)">
            <use fill="#1D202B" xlink:href="#a"/>
            <use fill="#000" filter="url(#b)" xlink:href="#a"/>
        </g>
        <path stroke="#1D202B" d="M292.873 54c-29.176 22.171-66.315 33.951-111.417 35.34"/>
        <g transform="rotate(5 -2484.566 645.374)">
            <use fill="#000" filter="url(#c)" xlink:href="#d"/>
            <use stroke="url(#e)" stroke-width="5" xlink:href="#d"/>
            <use stroke="url(#f)" xlink:href="#d"/>
        </g>
        <path fill="#FF9797" d="M59.218 233.137c-1.65-1.1-2.342-3.17-2.076-6.212.4-4.56.61-6.966 1.91-6.853 1.3.114 2.394 2.074 2.15 6.247-.163 2.782-.824 5.055-1.984 6.818z"/>
        <path fill="#FF9797" d="M58.962 233.326c-2.892.428-5.417-.438-7.575-2.596-3.238-3.238-3.614-5.149-2.691-6.071.923-.923 2.7.138 5.74 3.008 2.026 1.913 3.535 3.8 4.526 5.66z"/>
        <path fill="#FF9797" d="M59.64 233.728c-1.835-.753-3.938-.169-6.31 1.752-3.559 2.882-5.435 4.401-4.614 5.415.821 1.014 3.058.826 6.381-1.71 2.215-1.691 3.73-3.51 4.543-5.457zM65.144 235.969c-1.97-.218-3.832.923-5.583 3.423-2.626 3.75-4.01 5.729-2.942 6.477 1.069.749 3.167-.05 5.662-3.403 1.664-2.236 2.618-4.402 2.863-6.497zM70.947 238.484c-1.971-.218-3.832.923-5.583 3.424-2.626 3.75-4.01 5.728-2.942 6.477 1.069.748 3.167-.05 5.662-3.404 1.664-2.236 2.618-4.401 2.863-6.497zM77.66 242.083c-1.972-.218-3.833.923-5.584 3.423-2.626 3.75-4.011 5.729-2.942 6.477 1.069.749 3.167-.05 5.662-3.403 1.664-2.236 2.618-4.402 2.863-6.497zM83.63 245.822c-1.958-.32-3.876.722-5.755 3.127-2.819 3.608-4.306 5.51-3.277 6.314 1.028.803 3.165.116 5.832-3.102 1.779-2.146 2.845-4.259 3.2-6.339zM89.444 249.61c-1.871-.544-3.768.215-5.69 2.276-2.882 3.09-4.402 4.72-3.448 5.61.954.89 3.046.497 5.764-2.242 1.813-1.826 2.937-3.707 3.374-5.644zM94.077 254.03c-1.872-.543-3.769.215-5.69 2.276-2.883 3.091-4.403 4.721-3.449 5.611.955.89 3.046.496 5.765-2.243 1.812-1.825 2.937-3.707 3.374-5.643zM98.845 258.612c-1.852-.609-3.774.083-5.766 2.076-2.989 2.988-4.565 4.564-3.642 5.487.923.922 3.027.602 5.84-2.04 1.874-1.762 3.064-3.603 3.568-5.523zM103.122 263.907c-1.701-.95-3.72-.638-6.056.937-3.503 2.364-5.351 3.61-4.622 4.692.73 1.082 2.857 1.169 6.121-.889 2.177-1.371 3.696-2.951 4.557-4.74zM106.9 269.71c-1.613-1.095-3.65-.96-6.115.407-3.696 2.049-5.646 3.13-5.013 4.27.632 1.142 2.743 1.414 6.175-.351 2.288-1.177 3.939-2.618 4.953-4.325zM110.777 276.04c-1.397-1.36-3.428-1.58-6.092-.663-3.996 1.376-6.104 2.102-5.68 3.335.426 1.234 2.457 1.868 6.143.726 2.458-.761 4.334-1.894 5.629-3.399zM113.243 282.278c-1.398-1.359-3.429-1.58-6.093-.662-3.996 1.376-6.103 2.101-5.678 3.335.424 1.234 2.456 1.868 6.142.726 2.457-.761 4.334-1.894 5.629-3.4zM115.907 288.142c-1.248-1.498-3.244-1.93-5.99-1.296-4.117.95-6.29 1.452-5.996 2.724.294 1.271 2.248 2.114 6.033 1.364 2.524-.5 4.508-1.431 5.953-2.792zM117.403 295.554c-.91-1.725-2.772-2.562-5.59-2.513-4.225.074-6.454.113-6.43 1.417.022 1.305 1.758 2.536 5.617 2.59 2.572.034 4.706-.463 6.403-1.494zM118.766 302.434c-.692-1.822-2.44-2.88-5.241-3.175-4.204-.442-6.42-.675-6.557.623-.136 1.297 1.437 2.73 5.26 3.254 2.55.348 4.729.114 6.538-.702zM119.987 310.192c-.498-1.885-2.125-3.12-4.88-3.706-4.135-.878-6.315-1.342-6.586-.066-.272 1.277 1.143 2.867 4.89 3.786 2.5.613 4.691.609 6.576-.014zM120.46 316.256c-.498-1.884-2.125-3.12-4.88-3.705-4.135-.88-6.315-1.342-6.586-.066-.271 1.276 1.143 2.866 4.891 3.786 2.499.613 4.69.608 6.575-.015zM120.338 324.47c-.096-1.947-1.43-3.493-4.004-4.64-3.861-1.718-5.897-2.625-6.428-1.433-.53 1.192.522 3.042 3.997 4.72 2.317 1.12 4.461 1.57 6.435 1.353zM120.256 332.23c.176-1.941-.93-3.658-3.32-5.152-3.584-2.24-5.474-3.42-6.165-2.314-.692 1.107.094 3.085 3.301 5.23 2.138 1.431 4.2 2.176 6.184 2.236zM119.646 339.203c.176-1.941-.93-3.658-3.32-5.151-3.584-2.24-5.474-3.42-6.165-2.314-.692 1.106.094 3.084 3.3 5.23 2.14 1.43 4.2 2.176 6.185 2.235zM119.036 346.176c.176-1.94-.93-3.658-3.32-5.15-3.584-2.24-5.474-3.422-6.166-2.315-.691 1.106.094 3.084 3.302 5.23 2.138 1.431 4.2 2.176 6.184 2.235zM118.908 353.262c-.163-1.942-1.551-3.44-4.164-4.496-3.918-1.583-5.985-2.418-6.474-1.209-.488 1.21.629 3.022 4.16 4.578 2.354 1.038 4.513 1.414 6.478 1.127zM118.21 361.232c-.163-1.942-1.55-3.441-4.163-4.497-3.918-1.583-5.985-2.418-6.474-1.208-.489 1.21.628 3.021 4.16 4.578 2.354 1.037 4.513 1.413 6.478 1.127zM117.6 368.205c-.163-1.942-1.55-3.44-4.163-4.496-3.919-1.584-5.985-2.418-6.474-1.209-.489 1.21.628 3.022 4.16 4.578 2.354 1.038 4.513 1.413 6.478 1.127zM117.987 375.266c-.164-1.942-1.551-3.441-4.164-4.497-3.918-1.583-5.985-2.418-6.474-1.208-.489 1.21.628 3.021 4.16 4.578 2.354 1.037 4.513 1.413 6.478 1.127zM117.377 382.24c-.164-1.943-1.551-3.442-4.164-4.497-3.918-1.584-5.985-2.419-6.474-1.209-.489 1.21.628 3.021 4.16 4.578 2.354 1.038 4.513 1.413 6.478 1.127zM118.066 388.629c-.399-1.908-1.96-3.227-4.68-3.956-4.083-1.094-6.236-1.67-6.574-.41-.337 1.26.992 2.922 4.687 4.036 2.463.743 4.652.853 6.567.33zM119.36 396.772c-.398-1.907-1.958-3.226-4.68-3.955-4.082-1.094-6.235-1.671-6.573-.41-.337 1.26.992 2.922 4.687 4.036 2.463.743 4.652.853 6.567.33zM120.656 404.916c-.399-1.908-1.959-3.226-4.68-3.955-4.083-1.094-6.236-1.671-6.573-.41-.338 1.26.991 2.921 4.686 4.036 2.463.743 4.652.853 6.567.33zM122.038 412.064c-.398-1.908-1.959-3.226-4.68-3.956-4.082-1.094-6.235-1.67-6.573-.41-.338 1.26.992 2.922 4.686 4.037 2.463.743 4.652.852 6.567.329zM124.417 419.299c-.399-1.908-1.96-3.227-4.68-3.956-4.083-1.094-6.236-1.67-6.574-.41-.337 1.26.992 2.922 4.687 4.036 2.463.743 4.652.853 6.567.33zM127.081 425.522c-.723-1.81-2.489-2.837-5.296-3.083-4.21-.368-6.43-.562-6.544.737-.114 1.3 1.484 2.706 5.316 3.162 2.555.304 4.73.032 6.524-.816zM131.452 432.931c-.724-1.81-2.489-2.837-5.296-3.083-4.21-.368-6.43-.562-6.544.738-.114 1.3 1.484 2.705 5.316 3.161 2.555.304 4.73.032 6.524-.816zM135.909 439.715c-.91-1.724-2.772-2.562-5.59-2.512-4.225.073-6.454.112-6.431 1.417.023 1.304 1.759 2.536 5.617 2.589 2.573.035 4.707-.463 6.404-1.494zM141.383 445.584c-1.084-1.62-3.025-2.258-5.821-1.914-4.195.515-6.408.786-6.249 2.082.16 1.295 2.015 2.338 5.858 1.987 2.562-.234 4.633-.952 6.212-2.155zM146.924 451.088c-1.084-1.62-3.024-2.258-5.821-1.914-4.195.515-6.407.786-6.248 2.081.159 1.296 2.014 2.338 5.857 1.988 2.562-.234 4.633-.952 6.212-2.155z"/>
        <path fill="#FF9797" d="M141.383 445.584c-1.084-1.62-3.025-2.258-5.821-1.914-4.195.515-6.408.786-6.249 2.082.16 1.295 2.015 2.338 5.858 1.987 2.562-.234 4.633-.952 6.212-2.155zM151.312 455.254c-1.398-1.359-3.429-1.58-6.093-.662-3.996 1.376-6.103 2.101-5.678 3.335.424 1.234 2.456 1.868 6.142.726 2.457-.761 4.334-1.894 5.629-3.399zM157.856 459.543c-1.466-1.283-3.506-1.397-6.118-.342-3.919 1.583-5.986 2.418-5.497 3.628.489 1.21 2.55 1.737 6.172.404 2.415-.89 4.229-2.12 5.443-3.69zM163.105 463.071c-1.668-1.01-3.696-.768-6.085.725-3.585 2.24-5.475 3.421-4.783 4.528.691 1.106 2.813 1.267 6.148-.675 2.223-1.294 3.796-2.82 4.72-4.578zM170.726 467.753c-1.668-1.01-3.696-.768-6.085.725-3.585 2.24-5.475 3.421-4.783 4.528.691 1.106 2.813 1.267 6.148-.675 2.223-1.294 3.796-2.82 4.72-4.578zM176.893 470.453c-1.817-.705-3.773-.115-5.867 1.77-3.14 2.828-4.797 4.32-3.924 5.29.873.97 2.991.76 5.938-1.732 1.965-1.661 3.249-3.437 3.853-5.328zM184.601 474.138c-1.817-.704-3.773-.114-5.867 1.771-3.14 2.828-4.797 4.32-3.924 5.29.873.969 2.991.76 5.938-1.732 1.965-1.661 3.249-3.438 3.853-5.329zM191.12 477.487c-1.852-.608-3.774.083-5.766 2.076-2.989 2.988-4.565 4.564-3.642 5.487.923.922 3.027.602 5.839-2.04 1.875-1.762 3.065-3.603 3.569-5.523zM197.569 479.697c-1.898-.445-3.752.412-5.563 2.57-2.717 3.238-4.15 4.945-3.15 5.784 1 .838 3.067.336 5.639-2.542 1.714-1.918 2.739-3.855 3.074-5.812zM204.28 483.296c-1.897-.445-3.751.411-5.562 2.57-2.717 3.237-4.15 4.945-3.15 5.783 1 .84 3.067.337 5.639-2.54 1.714-1.92 2.739-3.857 3.074-5.813zM212.076 485.985c-1.898-.445-3.752.412-5.563 2.57-2.717 3.238-4.15 4.945-3.15 5.784 1 .839 3.068.336 5.64-2.541 1.713-1.919 2.738-3.856 3.073-5.813zM219.002 489.816c-1.872-.544-3.768.215-5.69 2.275-2.882 3.091-4.402 4.721-3.448 5.611.954.89 3.046.497 5.764-2.242 1.812-1.826 2.937-3.708 3.374-5.644zM225.801 492.418c-1.872-.543-3.768.215-5.69 2.276-2.882 3.09-4.402 4.72-3.448 5.61.954.89 3.046.497 5.764-2.242 1.813-1.826 2.937-3.707 3.374-5.644zM232.513 496.017c-1.872-.544-3.768.215-5.69 2.275-2.882 3.091-4.403 4.722-3.448 5.611.954.89 3.046.497 5.764-2.242 1.812-1.826 2.937-3.707 3.374-5.644zM238.558 499.94c-1.818-.706-3.773-.115-5.867 1.77-3.14 2.828-4.797 4.32-3.924 5.29.873.969 2.99.759 5.938-1.733 1.964-1.66 3.249-3.437 3.853-5.328zM65.046 234.907c-1.433-1.37-1.755-3.53-.965-6.477 1.185-4.423 1.81-6.755 3.07-6.418 1.26.338 1.998 2.458 1.032 6.526-.643 2.711-1.689 4.834-3.137 6.369zM71.758 238.506c-1.434-1.37-1.756-3.53-.966-6.478 1.185-4.422 1.81-6.755 3.07-6.417 1.261.338 1.999 2.458 1.033 6.525-.643 2.712-1.689 4.835-3.137 6.37zM77.474 242.017c-1.434-1.37-1.756-3.529-.966-6.477 1.185-4.423 1.81-6.755 3.07-6.418 1.26.338 1.998 2.458 1.033 6.526-.643 2.711-1.69 4.834-3.137 6.37zM84.186 245.616c-1.434-1.37-1.756-3.53-.966-6.478 1.185-4.422 1.81-6.755 3.07-6.417 1.26.338 1.998 2.458 1.033 6.525-.644 2.712-1.69 4.835-3.137 6.37zM89.902 249.127c-1.434-1.37-1.756-3.529-.966-6.477 1.185-4.423 1.81-6.755 3.07-6.417 1.26.337 1.998 2.458 1.033 6.525-.644 2.712-1.69 4.835-3.137 6.37zM94.43 253.347c-1.175-1.598-1.117-3.78.173-6.546 1.935-4.15 2.955-6.338 4.138-5.787 1.182.551 1.54 2.768-.116 6.606-1.105 2.558-2.504 4.467-4.196 5.727zM99.062 257.768c-1.175-1.598-1.117-3.78.173-6.547 1.935-4.15 2.956-6.338 4.138-5.786 1.183.551 1.54 2.767-.116 6.605-1.105 2.559-2.503 4.468-4.195 5.728zM103.607 263.185c-1.175-1.598-1.117-3.78.173-6.547 1.935-4.15 2.956-6.338 4.138-5.787 1.183.552 1.541 2.768-.116 6.606-1.105 2.558-2.503 4.468-4.195 5.728zM107.537 269.383c-1.03-1.694-.782-3.863.744-6.507 2.289-3.965 3.496-6.056 4.626-5.404 1.13.653 1.294 2.892-.691 6.57-1.324 2.453-2.883 4.233-4.679 5.341zM111.292 275.42c-.816-1.807-.306-3.93 1.531-6.368 2.756-3.656 4.209-5.585 5.251-4.8 1.042.786.932 3.028-1.487 6.438-1.612 2.273-3.377 3.85-5.295 4.73zM114.375 281.493c-.688-1.86-.031-3.941 1.971-6.245 3.004-3.456 4.588-5.278 5.573-4.422.985.856.718 3.085-1.932 6.318-1.768 2.155-3.638 3.605-5.612 4.35zM115.89 287.987c-.355-1.951.654-3.887 3.026-5.808 3.558-2.882 5.435-4.401 6.256-3.387.82 1.014.171 3.163-3 5.886-2.115 1.815-4.209 2.918-6.282 3.309zM117.46 295.338c-.011-1.983 1.318-3.715 3.988-5.194 4.005-2.22 6.116-3.39 6.75-2.25.632 1.142-.381 3.145-3.978 5.276-2.397 1.42-4.65 2.143-6.76 2.168zM118.842 302.486c-.01-1.983 1.319-3.715 3.988-5.195 4.005-2.22 6.117-3.39 6.75-2.249.632 1.141-.38 3.145-3.977 5.276-2.398 1.42-4.651 2.143-6.761 2.168zM120.618 309.89c-.075-1.949 1.12-3.605 3.584-4.971 3.697-2.05 5.646-3.13 6.279-1.989.632 1.141-.256 3.076-3.57 5.05-2.21 1.318-4.308 1.954-6.293 1.91zM120.573 316.227c.197-1.94 1.611-3.414 4.241-4.423 3.946-1.515 6.027-2.314 6.495-1.096.467 1.219-.681 3.01-4.24 4.505-2.371.996-4.537 1.334-6.496 1.014zM120.872 324.284c.197-1.94 1.611-3.414 4.241-4.424 3.946-1.514 6.027-2.313 6.494-1.095.468 1.218-.68 3.01-4.238 4.505-2.372.996-4.538 1.334-6.497 1.014zM119.92 331.676c.399-1.908 1.959-3.227 4.68-3.956 4.083-1.094 6.236-1.67 6.574-.41.337 1.26-.992 2.922-4.687 4.036-2.463.743-4.652.853-6.567.33zM119.31 338.649c.399-1.908 1.959-3.226 4.68-3.956 4.083-1.094 6.236-1.67 6.573-.41.338 1.26-.991 2.922-4.686 4.037-2.463.743-4.652.852-6.567.329zM118.42 346.018c.596-1.856 2.285-3.005 5.068-3.445 4.174-.661 6.376-1.01 6.58.279.204 1.288-1.292 2.802-5.083 3.524-2.527.482-4.715.362-6.565-.358zM118.806 353.078c.596-1.856 2.285-3.004 5.068-3.445 4.174-.66 6.376-1.01 6.58.28.204 1.288-1.292 2.802-5.083 3.524-2.527.481-4.715.362-6.565-.359zM118.109 361.048c.596-1.856 2.285-3.004 5.068-3.445 4.174-.661 6.376-1.01 6.58.279.204 1.288-1.292 2.802-5.083 3.524-2.527.482-4.716.362-6.565-.358zM118.495 368.108c.596-1.856 2.285-3.004 5.068-3.445 4.174-.66 6.376-1.01 6.58.28.204 1.288-1.292 2.802-5.083 3.524-2.527.481-4.715.362-6.565-.359zM117.859 374.98c.628-1.846 2.337-2.964 5.127-3.356 4.185-.589 6.393-.899 6.574.393.182 1.292-1.34 2.78-5.143 3.436-2.535.437-4.721.28-6.558-.474zM118.245 382.04c.628-1.845 2.337-2.964 5.127-3.356 4.186-.588 6.393-.898 6.574.394.182 1.292-1.34 2.78-5.143 3.435-2.535.438-4.721.28-6.558-.473zM118.63 389.1c.63-1.845 2.338-2.963 5.128-3.355 4.186-.589 6.393-.899 6.574.393.182 1.292-1.34 2.78-5.143 3.436-2.535.437-4.721.28-6.558-.473zM119.132 396.566c.498-1.884 2.125-3.12 4.88-3.705 4.135-.879 6.315-1.342 6.586-.066.271 1.276-1.143 2.866-4.891 3.786-2.499.613-4.69.608-6.575-.015zM120.618 404.012c.399-1.908 1.96-3.227 4.68-3.956 4.083-1.094 6.236-1.67 6.574-.41.337 1.26-.992 2.922-4.687 4.036-2.463.743-4.652.853-6.567.33zM122 411.16c.4-1.908 1.96-3.227 4.681-3.956 4.082-1.094 6.235-1.671 6.573-.41.338 1.26-.992 2.922-4.686 4.036-2.463.743-4.652.853-6.567.33zM124.721 417.976c.197-1.94 1.61-3.414 4.241-4.424 3.946-1.514 6.027-2.313 6.494-1.095.468 1.218-.68 3.01-4.238 4.505-2.372.996-4.538 1.334-6.497 1.014zM127.235 424.308c.163-1.942 1.55-3.441 4.163-4.497 3.919-1.583 5.986-2.418 6.474-1.208.49 1.21-.628 3.021-4.16 4.578-2.353 1.037-4.513 1.413-6.477 1.127zM131.466 431.762c-.278-1.93.737-3.702 3.045-5.318 3.462-2.425 5.288-3.703 6.037-2.634.748 1.069.067 3.085-3.023 5.396-2.06 1.54-4.08 2.392-6.059 2.556zM135.924 438.174c-.278-1.929.737-3.701 3.045-5.317 3.462-2.425 5.288-3.703 6.037-2.634.748 1.069.067 3.085-3.023 5.396-2.06 1.54-4.08 2.392-6.059 2.555zM140.47 443.591c-.278-1.929.737-3.702 3.045-5.318 3.462-2.424 5.287-3.702 6.036-2.633.748 1.068.067 3.085-3.023 5.396-2.06 1.54-4.08 2.392-6.059 2.555zM145.015 449.008c-.278-1.93.737-3.702 3.045-5.318 3.462-2.424 5.288-3.703 6.036-2.634.748 1.07.068 3.085-3.023 5.396-2.06 1.541-4.08 2.393-6.058 2.556zM150.643 453.516c-.278-1.93.737-3.702 3.045-5.318 3.462-2.424 5.288-3.703 6.037-2.634.748 1.069.067 3.085-3.023 5.396-2.06 1.54-4.08 2.393-6.059 2.556zM156.633 458.406c-.445-1.897.411-3.752 2.57-5.563 3.237-2.716 4.945-4.15 5.783-3.15.84 1 .337 3.068-2.54 5.64-1.92 1.714-3.857 2.738-5.813 3.073z"/>
        <path fill="#FF9797" d="M162.261 462.914c-.445-1.898.412-3.752 2.57-5.563 3.238-2.717 4.945-4.15 5.784-3.15.839 1 .336 3.068-2.541 5.64-1.919 1.713-3.856 2.738-5.813 3.073zM169.312 466.69c-.5-1.851.238-3.607 2.217-5.267 2.967-2.49 4.533-3.803 5.371-2.804.839 1 .446 2.976-2.185 5.34-1.754 1.577-3.555 2.487-5.403 2.73zM176.024 470.288c-.5-1.85.238-3.606 2.217-5.266 2.967-2.49 4.532-3.804 5.371-2.804.839 1 .446 2.976-2.185 5.34-1.755 1.577-3.555 2.487-5.403 2.73zM183.576 473.493c-.814-1.735-.392-3.592 1.268-5.57 2.49-2.968 3.804-4.534 4.804-3.695 1 .839.955 2.853-1.225 5.64-1.454 1.856-3.07 3.065-4.847 3.625zM190.375 476.096c-.814-1.736-.392-3.593 1.269-5.571 2.49-2.968 3.803-4.533 4.803-3.694 1 .838.955 2.853-1.225 5.639-1.454 1.857-3.07 3.066-4.847 3.626zM197.175 478.698c-.815-1.735-.393-3.592 1.268-5.57 2.49-2.968 3.803-4.534 4.803-3.695s.955 2.853-1.225 5.64c-1.454 1.856-3.07 3.065-4.846 3.625zM203.886 482.297c-.814-1.735-.392-3.592 1.268-5.571 2.49-2.968 3.804-4.533 4.804-3.694 1 .838.955 2.853-1.225 5.639-1.454 1.857-3.07 3.066-4.847 3.626zM211.682 484.987c-.815-1.736-.392-3.593 1.268-5.571 2.49-2.968 3.803-4.533 4.803-3.695 1 .84.955 2.854-1.225 5.64-1.454 1.857-3.07 3.065-4.846 3.626zM218.394 488.585c-.815-1.735-.393-3.592 1.268-5.57 2.49-2.968 3.803-4.534 4.803-3.695s.955 2.853-1.225 5.64c-1.454 1.856-3.07 3.065-4.846 3.625zM225.105 492.184c-.814-1.735-.392-3.592 1.269-5.571 2.49-2.968 3.803-4.533 4.803-3.694 1 .838.955 2.853-1.225 5.639-1.454 1.857-3.07 3.066-4.847 3.626zM232.23 496.033c-.963-1.658-.703-3.545.778-5.66 2.222-3.174 3.394-4.848 4.463-4.1 1.069.749 1.2 2.76-.729 5.725-1.286 1.977-2.79 3.322-4.512 4.035zM237.946 499.544c-.963-1.658-.704-3.545.778-5.66 2.222-3.174 3.394-4.847 4.463-4.099 1.068.748 1.2 2.759-.73 5.724-1.286 1.977-2.79 3.322-4.51 4.035z"/>
        <g>
            <path stroke="#1D202B" d="M149.642 72.63c-27.214 12.332-54.38 15.165-81.5 8.5"/>
            <g transform="translate(68 20)">
                <use fill="#1D202B" xlink:href="#g"/>
                <use fill="#000" filter="url(#h)" xlink:href="#g"/>
            </g>
        </g>
        <g>
            <path stroke="#1D202B" d="M203 109.165c-10 4.89-21 7.335-33 7.335"/>
            <g transform="translate(170 85)">
                <use fill="#1D202B" xlink:href="#i"/>
                <use fill="#000" filter="url(#j)" xlink:href="#i"/>
            </g>
        </g>
        <g transform="scale(-1 1) rotate(47 -382.867 147.762)">
            <path fill="url(#k)" d="M15.2 2.5C16.533 1.167 18.033.333 19.7 0c-.754.983-.92 1.65-.5 2 .42.35 1.403.35 2.95 0-.862 1-2.727 1.833-5.596 2.5-2.87.667-3.321 0-1.354-2z"/>
            <path fill="#FFE180" d="M.446 11c2.375-3.41 5.5-6.591 12.972-8 .665-.126 4.24-.988 5.028-1-1.567 1.468-2.404 2.271-2.511 2.409-1.941 2.496-3.757 4.195-5.448 5.097C7.38 11.163-2.16 14.74.446 11z"/>
            <path fill="#FFF5D6" fill-rule="nonzero" d="M2.786 11.209L2 10.591C4.952 6.834 10.559 4 18.559 2c-7.81 2.931-13.067 6.001-15.773 9.209z"/>
            <circle cx="2.75" cy="10.75" r="1" fill="#216C8A"/>
            <path fill="#FFF5D6" d="M8 7.59c0-.76.5-.667 1-.38.5.287.5.76 0 .76s-1 .381-1-.38zM10 6.554c0-.713.17-.626.341-.357.17.27.17.714 0 .714S10 7.268 10 6.554zM11.681 6.19c-.67-.245-.647-.054-.452.198s.612.404.67.244c.059-.16.453-.198-.218-.443zM6.5 9a.5.5 0 0 0 .5-.5c0-.276-.053-.183-.33-.183-.276 0-.67-.093-.67.183a.5.5 0 0 0 .5.5z"/>
        </g>
        <g transform="scale(-1 1) rotate(51 -376.449 133.388)">
            <path fill="url(#l)" d="M19.79 3.53C21.59 1.844 23.614.791 25.864.37c-1.017 1.242-1.242 2.084-.675 2.527.567.442 1.894.442 3.981 0-1.162 1.263-3.68 2.315-7.553 3.157-3.873.843-4.482 0-1.827-2.526z"/>
            <path fill="#FFE180" d="M1.046 14.22C4.115 9.877 8.153 5.823 17.809 4.028c.86-.16 5.48-1.258 6.498-1.274-2.025 1.87-3.107 2.894-3.245 3.069-2.508 3.18-6.446 7.245-8.316 8.58-6.184 4.413-15.068 4.583-11.7-.183z"/>
            <path fill="#FFF5D6" fill-rule="nonzero" d="M4.085 13.887l-.997-.805c5.345-5.525 10.744-7.484 20.89-10.09C13.077 7.168 6.446 10.8 4.085 13.887z"/>
            <circle cx="3.775" cy="13.639" r="1" fill="#222633" stroke="#216C8A"/>
            <path fill="#FFF5D6" d="M10.53 9.678c.491-.357.727-.626 1.454-.356.727.269.284 1.083-.443 1.083-.728 0-1.503-.369-1.011-.727zM13.153 8.414c-.365-.344.339-.418.954-.406.616.012.364.714 0 .714-.363 0-.59.037-.954-.308z"/>
            <path fill="#FFF5D6" d="M13.86 8.81c-.762-.276-.527.136-.306.422.221.285.488.26.554.079.066-.182.513-.225-.249-.5zM7.013 9.249c.62-.522.145-.524-.212-.475-.358.049-.47.292-.346.44.124.148-.062.557.558.035zM9.18 11.438c.275 0 .66-.35.66-.627 0-.276-.463.063-.74.063-.275 0-.622-.14-.622.136s.425.428.701.428z"/>
        </g>
        <g transform="rotate(4 -2016.765 8340.725)">
            <path fill="#D7F2EE" d="M.446 11c2.375-3.41 5.5-6.591 12.972-8 .665-.126 4.24-.988 5.028-1-1.567 1.468-2.404 2.271-2.511 2.409-1.941 2.496-3.757 4.195-5.448 5.097C7.38 11.163-2.16 14.74.446 11z"/>
            <path fill="url(#m)" d="M15.2 2.5C16.533 1.167 18.033.333 19.7 0c-.754.983-.92 1.65-.5 2 .42.35 1.403.35 2.95 0-.862 1-2.727 1.833-5.596 2.5-2.87.667-3.321 0-1.354-2z"/>
            <path fill="#90CFBE" fill-rule="nonzero" d="M2.786 11.209L2 10.591C4.952 6.834 10.559 4 18.559 2 9.905 5.77 4.648 8.84 2.786 11.209z"/>
            <circle cx="2.75" cy="10.75" r="1" fill="#222633"/>
            <path fill="#90CFBE" d="M8 7.59c0-.76.5-.667 1-.38.5.287.5.76 0 .76s-1 .381-1-.38zM10 6.554c0-.713.17-.626.341-.357.17.27.17.714 0 .714S10 7.268 10 6.554zM11.681 6.19c-.67-.245-.647-.054-.452.198s.612.404.67.244c.059-.16.453-.198-.218-.443z"/>
            <circle cx="6.5" cy="8.5" r="1" fill="#90CFBE"/>
        </g>
        <g transform="translate(537 136)">
            <path fill="#D7F2EE" d="M.725 17.372C4.587 11.928 9.67 6.847 21.822 4.597 22.905 4.397 28.72 3.02 30 3c-2.549 2.345-3.91 3.627-4.084 3.847-3.156 3.986-6.11 6.699-8.86 8.139-5.053 2.646-20.57 8.36-16.331 2.386z"/>
            <path fill="url(#m)" d="M24.914 4.21C27.04 1.966 29.434.562 32.092 0c-1.202 1.656-1.468 2.779-.798 3.368.67.59 2.239.59 4.706 0-1.374 1.685-4.35 3.088-8.927 4.21-4.577 1.124-5.296 0-2.16-3.367z"/>
            <path fill="#90CFBE" fill-rule="nonzero" d="M4.282 18L3 16.994C7.813 10.874 16.955 6.258 30 3 15.89 9.14 7.317 14.14 4.282 18z"/>
            <circle cx="5" cy="17" r="1" fill="#222633"/>
            <path fill="#90CFBE" d="M13 12.108c0-1.427.727-1.252 1.455-.713.727.538.727 1.427 0 1.427-.728 0-1.455.713-1.455-.714zM16 11.108c0-1.427.364-1.252.727-.713.364.538.364 1.427 0 1.427-.363 0-.727.713-.727-.714zM19.167 10.354l-.554-.197 1.108.395-.554-.198z"/>
            <circle cx="11" cy="14" r="1" fill="#90CFBE"/>
        </g>
        <g transform="translate(564 140)">
            <path fill="#D7F2EE" d="M.446 11c2.375-3.41 5.5-6.591 12.972-8 .665-.126 4.24-.988 5.028-1-1.567 1.468-2.404 2.271-2.511 2.409-1.941 2.496-3.757 4.195-5.448 5.097C7.38 11.163-2.16 14.74.446 11z"/>
            <path fill="url(#m)" d="M15.2 2.5C16.533 1.167 18.033.333 19.7 0c-.754.983-.92 1.65-.5 2 .42.35 1.403.35 2.95 0-.862 1-2.727 1.833-5.596 2.5-2.87.667-3.321 0-1.354-2z"/>
            <path fill="#90CFBE" fill-rule="nonzero" d="M2.786 11.209L2 10.591C4.952 6.834 10.559 4 18.559 2 9.905 5.77 4.648 8.84 2.786 11.209z"/>
            <circle cx="2.75" cy="10.75" r="1" fill="#222633"/>
            <path fill="#90CFBE" d="M8 7.59c0-.76.5-.667 1-.38.5.287.5.76 0 .76s-1 .381-1-.38zM10 6.554c0-.713.17-.626.341-.357.17.27.17.714 0 .714S10 7.268 10 6.554zM11.681 6.19c-.67-.245-.647-.054-.452.198s.612.404.67.244c.059-.16.453-.198-.218-.443z"/>
            <circle cx="6.5" cy="8.5" r="1" fill="#90CFBE"/>
        </g>
        <g transform="scale(-1 1) rotate(47 -399.917 99.115)">
            <path fill="url(#k)" d="M15.2 2.5C16.533 1.167 18.033.333 19.7 0c-.754.983-.92 1.65-.5 2 .42.35 1.403.35 2.95 0-.862 1-2.727 1.833-5.596 2.5-2.87.667-3.321 0-1.354-2z"/>
            <path fill="#FFE180" d="M.446 11c2.375-3.41 5.5-6.591 12.972-8 .665-.126 4.24-.988 5.028-1-1.567 1.468-2.404 2.271-2.511 2.409-1.941 2.496-3.757 4.195-5.448 5.097C7.38 11.163-2.16 14.74.446 11z"/>
            <path fill="#FFF5D6" fill-rule="nonzero" d="M2.786 11.209L2 10.591C4.952 6.834 10.559 4 18.559 2c-7.81 2.931-13.067 6.001-15.773 9.209z"/>
            <circle cx="2.75" cy="10.75" r="1" fill="#216C8A"/>
            <path fill="#FFF5D6" d="M8 7.59c0-.76.5-.667 1-.38.5.287.5.76 0 .76s-1 .381-1-.38zM10 6.554c0-.713.17-.626.341-.357.17.27.17.714 0 .714S10 7.268 10 6.554zM11.681 6.19c-.67-.245-.647-.054-.452.198s.612.404.67.244c.059-.16.453-.198-.218-.443zM6.5 9a.5.5 0 0 0 .5-.5c0-.276-.053-.183-.33-.183-.276 0-.67-.093-.67.183a.5.5 0 0 0 .5.5z"/>
        </g>
        <g transform="translate(274 307)">
            <path fill="#222633" d="M211.025 44.39c1.966.31 3.976.486 6.003.515l-.362-.102c-2.2-.616-10.528-2.807-12.305-3.323-2.49-.723-4.67-1.525-6.579-2.418 1.658.931 3.545 1.824 5.7 2.674 2.707 1.069 5.2 1.92 7.543 2.653zm5.048 1.491c9.638 2.735 17.313 4.61 28.985 14.499.16.135.318.27.475.405-2.394-2.978-4.843-5.477-7.38-7.57a53.18 53.18 0 0 0-1.207-.966 88.036 88.036 0 0 0-5.363-2.422c-3.558-1.47-7.24-2.75-11.372-3.994a42.984 42.984 0 0 1-4.139.048zm5.697-1.176a171.915 171.915 0 0 0-5.308-1.591c-10.422-2.967-14.694-4.527-20.721-8.187-4.309-2.615-6.934-5.952-9.023-10.82.896 3.576 1.838 5.74 3.48 7.929 2.748 3.658 7.238 6.392 14.441 8.484 1.762.512 10.085 2.7 12.297 3.32 1.166.328 2.294.654 3.392.984.48-.031.961-.07 1.442-.119zm2.208.735c-.135.017-.272.036-.408.055-.249.035-.498.068-.747.099a115.427 115.427 0 0 1 9.021 3.26c-2.305-1.281-4.808-2.353-7.866-3.414zm39.975 42.8c-.073.753-.367 1.194-.869 1.26-10.614 3.759-17.728 6.222-21.344 7.39-3.95-11.69-10.169-19.463-10.192-18.39-.023 1.073 4.452 5.117 8.793 19.117-1.833.816-2.524.455-2.55.353-1.86-7.076-3.726-12.125-5.595-15.146l4.819 15.627c-.417.106-2.888.516-7.413 1.232L227.949 90c-.187 3.77-.423 7.262-.709 10.476-20.272 4.773-36.637 6.135-47.753 2.872-26.767-7.857-37.39-48.003-38.433-50.962-.107 1.995.886 4.078 2.979 6.251l-3.3-.267c-7.065-14.683-3.516-20.704-2.715-24.215-3.475 6.85-2.879 14.883 1.824 24.137l-1.104-.346c-5.19-10.212-5.235-18.279-.645-25.772-10.198-20.257 7.279-30.391 16.09-31.232 8.81-.841 4.43 1.8 11.98 1.058 2.84-.279 6.42.762 9.653 2.908 3.954 1.451 6.108 3.873 8.101 8.623.375.803.702 1.65.979 2.54.183.51.366 1.044.552 1.6.072.212.318.95.325.973.13.39.23.689.33.98.251.74.47 1.367.69 1.965 2.168 5.882 4.768 9.631 9.466 12.484 5.929 3.599 10.138 5.135 20.477 8.08 2.792.794 5.204 1.528 7.35 2.266 10.587-1.255 19.773 3.6 29.279 13.739 4.016 4.284 6.586 9.114 8.278 15.386 2.08 3.986 3.6 8.386 4.529 13.25.103.54.174 1.015.299 1.952l.025.188-.992.132-.025-.188c-.122-.919-.19-1.38-.29-1.897a48.762 48.762 0 0 0-2.47-8.65c.487 2.616.87 5.463 1.18 8.586.034.243.056.47.066.682l.033.355a.552.552 0 0 1-.045.286zm-1.657-6.305c-.42-2.934-.94-5.589-1.59-8.02-4.258-8.106-10.898-14.46-19.667-19.489 2.9 2.723 5.691 6.01 8.419 9.968 6.56 6.45 10.727 12.827 12.838 17.54zm-2.969-12.315c-1.588-4.165-3.74-7.63-6.692-10.778-8.646-9.223-16.947-13.942-26.268-13.598 4.385 1.672 7.663 3.483 11.113 6.153 9.427 4.669 16.798 10.604 21.847 18.223zM185.36 22.704c-.162-.725-.325-1.5-.493-2.334l-.356-1.77c-.154-.761-.34-1.493-.558-2.196.482 2.12.884 4.229 1.407 6.3zm-47.653 5.58c-.807-4.178-1.2-9.499-.02-12.489-1.66 2.957-2.072 6.276.02 12.489z"/>
            <path fill="#FFF" d="M143.38 21.856c-.586 5.096-.586 10.544 0 16.344.406 4.006 2.655 6.703 9.62 6.268V47l-13 15-5.5 21L167 58V43l1.5-8c2.9-.941 4.567-2.608 5-5 .83-4.587-6.129-6.412-7.5-1.5-4.402-2.304-6.402-6.804-6-13.5-2.925 4.067-8.465 6.352-16.62 6.856z"/>
            <path stroke="#222633" stroke-linecap="round" stroke-linejoin="round" d="M147.91 37.265c.59.735 1.797.51 2-.458"/>
            <path stroke="#222633" stroke-linecap="round" d="M150.717 26.346c1.431-.915 4.758-1.287 7.044.616"/>
            <path stroke="#222633" stroke-linecap="round" stroke-linejoin="round" d="M143.32 25.015c1.957-.467 3.35.194 4.18 1.985.057 3.229-.374 5.229-1.293 6-.92.771-.488 1.305 1.293 1.6"/>
            <path fill="#FFF" stroke="#222633" d="M118.88 53.5L93.498 80.682 50.814 61.364C44.009 56.968 39.404 54.17 37 52.97c-1.411-.704-1.93-2.385-6.5-4.259-1.68-.688-3.944-1.326-4.5 0-.78-.277-2-1.177-2.53.442-.904-.066-2.813.202-2.282 2.055-1.188.792-.531 3.72 1.12 5.144.47.405 4.357 3.728 4.88 4.15 2.918 2.364 5.017 3.952 7.812 5.202 2.341 1.048 5.008 1.447 8 1.2C57.643 77.143 70.643 86.008 82 93.5c.97.64 1.882 1.22 2.738 1.742 14.183 8.653 13.446 1.74 19.582-3.499 4.06-3.466 13.903-13.547 29.528-30.243l-14.967-8z"/>
            <g transform="translate(98 28)">
                <mask id="o" fill="#fff">
                    <use xlink:href="#n"/>
                </mask>
                <use fill="#D7F2EE" transform="rotate(20 57.495 55.848)" xlink:href="#n"/>
                <circle cx="38.5" cy="53.5" r="22" stroke="#90CFBE" mask="url(#o)"/>
                <circle cx="66.5" cy="11.5" r="22" stroke="#90CFBE" mask="url(#o)"/>
                <circle cx="92.5" cy="39.5" r="22" stroke="#90CFBE" mask="url(#o)"/>
                <circle cx="38.5" cy="105.148" r="22" stroke="#90CFBE" mask="url(#o)"/>
                <circle cx="63.5" cy="80.5" r="22" stroke="#90CFBE" mask="url(#o)"/>
                <circle cx="54" cy="56" r="11.5" stroke="#90CFBE" mask="url(#o)"/>
                <circle cx="36" cy="79" r="11.5" stroke="#90CFBE" mask="url(#o)"/>
                <circle cx="82" cy="50" r="11.5" stroke="#90CFBE" mask="url(#o)"/>
                <circle cx="98" cy="42" r="11.5" stroke="#90CFBE" mask="url(#o)"/>
                <circle cx="27.579" cy="34" r="11.5" stroke="#90CFBE" mask="url(#o)"/>
                <circle cx="79.5" cy="83" r="16" stroke="#90CFBE" mask="url(#o)"/>
                <circle cx="29.579" cy="12" r="11.5" stroke="#90CFBE" mask="url(#o)"/>
            </g>
            <path fill="#FFF" stroke="#222633" d="M148.706 225.259l26.401 15.623c16.652 17.33 25.557 26.61 26.715 27.839 1.738 1.842.599 3.453 1.025 5.013.427 1.56 3.226 2.27 4.233-.431.67-1.8.538-3.487-.398-5.061 2.481-4.633 1.163-9.083-3.954-13.35-7.675-6.401-1.983-11.245-3.657-16.011-1.673-4.767-8.698-6.238-13.606-5.786-3.271.301-9.142-4.963-17.612-15.793"/>
            <path fill="#216C8A" d="M131.825 116c5.45 5.667 13.508 8.833 24.175 9.5 3.932 15.236 1.636 25.514-6.887 30.835-4.578 2.858-10.34 7.27-17.288 13.235l47.775 58.177-13.018 8.453c-33.376-20.114-56.46-38.585-69.253-55.412-13.798-18.15-7.862-22.855 15.68-46.511 4.6-4.622 10.872-10.714 18.816-18.277z"/>
            <path fill="#FFF" stroke="#222633" d="M238.32 183.704c15.913-17.11 24.353-26.126 25.32-27.05 1.453-1.384 2.088-1.813 3.31-2.161 1.222-.348 1.024-3.092-.81-3.076-1.224.01-2.17.478-2.84 1.404-3.602-1.926-7.088-.854-10.459 3.215-5.055 6.105-8.8 1.645-12.536 3-3.736 1.355-4.697 5.19-4.378 9.062.212 2.58-1.15 4.447-4.085 5.597"/>
            <path fill="#216C8A" d="M155 125.5c9.58 1.2 20.991.3 34.232-2.7 4.657 7.118 6.413 14.051 5.268 20.8-1.717 10.123-9.195 24.853-12 32.15-3.255 8.468-5.589 15.152-7 20.05l54.5-24.4 8.636 11.68c-37.313 32.035-63.088 46.315-77.326 42.842-14.238-3.474-16.341-36.948-6.31-100.422z"/>
            <path stroke="#222633" d="M149.775 199.246c-2.017 26.636 7.286 35.042 27.908 25.216M145 144l6.76 5.756L151 156l-14 9.293c-4.527 3.843-7.286 6.578-8.278 8.207"/>
            <path fill="#222633" d="M153.03 30.16a1 1 0 0 0 1-1c0-.083-.022-.2-.064-.353a1.465 1.465 0 0 0-.145-.258 1 1 0 1 0-.792 1.61z"/>
            <circle cx="144.029" cy="28.159" r="1" fill="#222633"/>
            <path fill="#FFF" stroke="#222633" d="M175.82 81c-2.037 12.915-3.577 22.205-4.62 27.869-.307 1.665-12.653-3.04-37.04-14.119-8.812-8.111-13.938-12.538-15.377-13.28-1.021-.526-2.517.395-1.87 2.256.324.934 1.694 2.317 2.421 3.277.592.783.907 1.382.944 1.8-8.219-3.885-13.42-5.683-15.607-5.396-3.28.431 7.854 13.762 10.661 14.572 6.973 2.01 12.368 1.082 19.367 6.18 5.841 4.256 26.814 16.337 35.918 21.485 7.33 4.145 8.342 3.019 12.844-3.483.912-1.317 3.758-14.366 8.539-39.146"/>
            <path stroke="#222633" stroke-linecap="round" d="M170.5 28c-1.333-.333-2.167.333-2.5 2"/>
            <path stroke="#FFE180" d="M169.32 31.969c-.677.322-1.048.86-1.115 1.617-.418 4.787.189 6.582 1.387 6.409 2.465-.356.446-5.105.063-6.282"/>
            <path fill="#FFF" stroke="#222633" d="M49 61c-.026-2.415-.359-4.212-1-5.39-1.092-2.008-2.228-2.342-3.543-3.858-1.208-1.391-2.629-4.018-2.957-4.676-1.5-3.01-3.5 1.262-2 4.924 1.5 3.662.5 5.678 3 8.111"/>
            <path stroke="#222633" d="M31.97 58.752C25.825 54.183 21.835 51.599 20 51M33 56.352C27.502 52.05 23.835 49.6 22 49"/>
            <path stroke="#222633" d="M31.97 60.214c.687-3.034 1.697-4.666 3.03-4.895-4.165-3.806-7.165-6.009-9-6.608"/>
        </g>
        <g>
            <g transform="rotate(-4 2765.215 -4806.207)">
                <use fill="#000" filter="url(#p)" xlink:href="#q"/>
                <use stroke="url(#e)" stroke-width="5" xlink:href="#q"/>
                <use stroke="url(#f)" xlink:href="#q"/>
            </g>
            <path fill="#FF9797" d="M356.483 193.203c-1.802-.829-2.81-2.765-3.022-5.81-.32-4.568-.488-6.976.814-7.067 1.301-.091 2.69 1.673 3.1 5.833.275 2.774-.023 5.121-.892 7.044z"/>
            <path fill="#FF9797" d="M356.313 192.24c-1.129 1.632-3.21 2.287-6.246 1.968-4.554-.478-6.955-.73-6.819-2.028.136-1.298 2.115-2.358 6.284-2.041 2.778.211 5.039.912 6.781 2.102zM361.672 195.269c-1.63-1.129-2.287-3.211-1.968-6.247.48-4.553.731-6.955 2.03-6.818 1.297.136 2.357 2.115 2.04 6.283-.212 2.779-.912 5.04-2.102 6.782z"/>
            <path fill="#FF9797" d="M362.027 195.212c-.828 1.801-2.765 2.809-5.81 3.022-4.567.32-6.976.488-7.067-.814-.091-1.302 1.674-2.69 5.834-3.1 2.773-.275 5.12.022 7.043.892zM368.264 197.762c-.503 1.918-2.235 3.246-5.197 3.985-4.442 1.107-6.785 1.692-7.1.426-.317-1.266 1.18-2.94 5.206-4.067 2.683-.752 5.047-.867 7.091-.344zM374.529 201.333c-.503 1.919-2.236 3.247-5.197 3.986-4.443 1.107-6.786 1.691-7.101.425-.316-1.266 1.18-2.939 5.206-4.066 2.684-.752 5.048-.867 7.092-.345zM380.577 204.274c-.3 1.96-1.884 3.463-4.752 4.507-4.303 1.566-6.572 2.392-7.018 1.166-.446-1.227.868-3.047 4.753-4.59 2.59-1.027 4.93-1.388 7.017-1.083zM387.058 208.477c-.503 1.918-2.236 3.247-5.198 3.985-4.442 1.108-6.785 1.692-7.1.426-.316-1.266 1.18-2.94 5.206-4.067 2.683-.752 5.047-.866 7.092-.344zM393.322 212.048c-.503 1.919-2.235 3.247-5.197 3.986-4.443 1.107-6.786 1.691-7.101.425-.316-1.266 1.181-2.939 5.206-4.066 2.684-.752 5.048-.867 7.092-.345zM399.656 216.618c-.503 1.918-2.235 3.247-5.197 3.985-4.442 1.108-6.785 1.692-7.101.426-.316-1.266 1.181-2.94 5.206-4.067 2.684-.752 5.048-.866 7.092-.344zM403.925 220.329c-.503 1.918-2.235 3.247-5.197 3.985-4.442 1.108-6.785 1.692-7.1.426-.316-1.266 1.18-2.94 5.206-4.067 2.683-.751 5.047-.866 7.091-.344zM410.272 224.917c-.733 1.842-2.614 2.95-5.644 3.322-4.545.558-6.941.852-7.1-.443-.16-1.295 1.53-2.773 5.663-3.402 2.755-.419 5.116-.245 7.08.523zM415.609 229.556c-.734 1.842-2.615 2.95-5.644 3.322-4.545.558-6.942.852-7.1-.443-.16-1.295 1.53-2.773 5.663-3.402 2.755-.419 5.115-.245 7.08.523zM420.945 234.195c-.733 1.842-2.614 2.95-5.644 3.322-4.544.558-6.941.852-7.1-.443-.159-1.295 1.53-2.773 5.663-3.402 2.756-.419 5.116-.245 7.081.523zM426.346 239.17c-.828 1.801-2.765 2.809-5.81 3.022-4.567.319-6.976.487-7.067-.814-.091-1.302 1.673-2.69 5.833-3.1 2.774-.275 5.122.022 7.044.891zM430.685 243.878c-.828 1.802-2.765 2.81-5.81 3.022-4.567.32-6.976.488-7.067-.813-.091-1.302 1.673-2.69 5.833-3.101 2.774-.274 5.122.023 7.044.892zM434.975 249.255c-.829 1.802-2.765 2.809-5.81 3.022-4.568.32-6.976.488-7.067-.814-.091-1.302 1.673-2.69 5.833-3.1 2.773-.275 5.121.022 7.044.892zM440.792 257.104c-1.129 1.63-3.21 2.287-6.246 1.968-4.554-.479-6.955-.731-6.819-2.029.136-1.298 2.115-2.358 6.284-2.04 2.778.21 5.039.911 6.781 2.101zM445.272 265.94c-1.394 1.41-3.559 1.693-6.493.852-4.401-1.262-6.722-1.927-6.363-3.182.36-1.254 2.493-1.954 6.543-.918 2.7.69 4.804 1.773 6.313 3.247zM449.89 274.638c-1.394 1.41-3.559 1.695-6.493.853-4.401-1.262-6.722-1.927-6.363-3.182.36-1.254 2.493-1.954 6.543-.918 2.7.69 4.804 1.773 6.313 3.247zM453.51 283.407c-1.394 1.41-3.558 1.694-6.492.853-4.402-1.262-6.723-1.928-6.363-3.182.36-1.254 2.492-1.955 6.542-.918 2.7.69 4.805 1.773 6.314 3.247zM457.822 293.202c-1.618 1.146-3.8 1.05-6.543-.288-4.115-2.007-6.285-3.065-5.713-4.238.572-1.173 2.794-1.492 6.602.231 2.54 1.15 4.424 2.581 5.654 4.295zM460.445 302.04c-1.618 1.147-3.8 1.051-6.543-.287-4.115-2.007-6.285-3.066-5.713-4.238.572-1.173 2.794-1.493 6.602.231 2.54 1.15 4.424 2.58 5.654 4.295zM463.138 311.877c-1.619 1.146-3.8 1.05-6.543-.288-4.115-2.007-6.286-3.066-5.714-4.238.572-1.173 2.794-1.492 6.603.231 2.539 1.15 4.423 2.58 5.654 4.295zM465.467 320.242c-1.712 1-3.876.715-6.493-.857-3.924-2.358-5.994-3.602-5.322-4.72.672-1.119 2.913-1.244 6.557.805 2.43 1.366 4.182 2.957 5.258 4.772zM466.92 328.356c-1.746.94-3.899.58-6.458-1.083-3.84-2.494-5.865-3.809-5.155-4.903.71-1.094 2.955-1.14 6.525 1.034 2.38 1.45 4.076 3.1 5.089 4.952zM468.476 336.267c-1.746.94-3.899.58-6.459-1.083-3.84-2.494-5.865-3.809-5.154-4.903.71-1.095 2.955-1.14 6.525 1.034 2.38 1.45 4.076 3.1 5.088 4.952zM469.683 344.887c-1.746.94-3.899.58-6.459-1.083-3.84-2.494-5.865-3.809-5.154-4.903.71-1.094 2.955-1.14 6.525 1.034 2.38 1.45 4.076 3.1 5.088 4.952z"/>
            <path fill="#FF9797" d="M469.683 344.887c-1.746.94-3.899.58-6.459-1.083-3.84-2.494-5.865-3.809-5.154-4.903.71-1.094 2.955-1.14 6.525 1.034 2.38 1.45 4.076 3.1 5.088 4.952zM470.016 353.264c-1.808.816-3.93.306-6.368-1.531-3.657-2.756-5.585-4.209-4.8-5.251.786-1.042 3.028-.932 6.437 1.487 2.273 1.612 3.85 3.377 4.73 5.295zM471.183 361.736c-1.883.623-3.94-.106-6.173-2.188-3.348-3.122-5.114-4.769-4.225-5.723.89-.955 3.109-.61 6.247 2.151 2.092 1.842 3.476 3.762 4.15 5.76zM471.671 368.72c-1.883.622-3.94-.107-6.173-2.189-3.348-3.122-5.114-4.77-4.224-5.723.89-.955 3.108-.61 6.246 2.151 2.092 1.842 3.476 3.762 4.151 5.76zM472.299 377.697c-1.883.623-3.94-.106-6.173-2.188-3.348-3.122-5.114-4.769-4.224-5.723.89-.954 3.108-.61 6.246 2.151 2.092 1.842 3.476 3.762 4.151 5.76zM474.701 387.885c-1.922.49-3.923-.382-6.005-2.614-3.123-3.348-4.77-5.114-3.815-6.004.954-.89 3.143-.392 6.08 2.582 1.96 1.983 3.206 3.994 3.74 6.036zM476.105 395.442c-1.72.845-3.585.455-5.592-1.17-3.01-2.438-4.598-3.724-3.777-4.738.82-1.014 2.836-1.005 5.66 1.126 1.882 1.421 3.118 3.015 3.71 4.782zM479.248 403.247c-1.508 1.184-3.412 1.19-5.714.018-3.452-1.759-5.272-2.687-4.68-3.85.593-1.162 2.565-1.572 5.77-.074 2.137.999 3.678 2.3 4.624 3.906zM481.731 410.09c-1.507 1.185-3.412 1.19-5.713.018-3.452-1.759-5.273-2.686-4.68-3.849.592-1.162 2.565-1.573 5.77-.075 2.136.999 3.678 2.301 4.623 3.907zM485.212 416.864c-1.507 1.185-3.412 1.19-5.713.018-3.452-1.759-5.273-2.687-4.68-3.85.592-1.162 2.565-1.572 5.77-.074 2.136.999 3.678 2.3 4.623 3.906zM489.119 422.747c-1.012 1.628-2.8 2.285-5.363 1.97-3.845-.472-5.873-.72-5.714-2.016.159-1.295 1.872-2.355 5.396-2.043 2.35.207 4.243.904 5.681 2.089zM492.596 429.23c-.925 1.68-2.676 2.43-5.253 2.25-3.864-.27-5.902-.413-5.811-1.715.09-1.301 1.746-2.45 5.282-2.323 2.357.084 4.284.68 5.782 1.789zM496.993 434.744c-.866 1.711-2.59 2.521-5.17 2.431-3.872-.135-5.914-.206-5.868-1.51.045-1.304 1.66-2.51 5.197-2.507 2.359.002 4.306.531 5.841 1.586zM501.204 438.647c-.442 1.807-1.712 2.84-3.81 3.097-3.145.387-4.805.59-4.964-.705-.159-1.295.964-2.703 3.82-3.175 1.905-.315 3.556-.054 4.954.783zM506.61 444.284c-.442 1.807-1.712 2.84-3.809 3.097-3.146.386-4.805.59-4.964-.705-.16-1.295.963-2.704 3.82-3.176 1.904-.314 3.555-.053 4.954.784zM512.817 450.103c-.121 1.857-1.193 3.094-3.214 3.712-3.03.926-4.63 1.415-5.011.167-.381-1.247.48-2.83 3.21-3.79 1.821-.64 3.493-.67 5.015-.089zM367.867 197.843c-1.631-1.129-2.287-3.211-1.968-6.247.479-4.553.731-6.954 2.029-6.818 1.297.136 2.358 2.115 2.04 6.283-.211 2.78-.912 5.04-2.101 6.782zM374.13 201.415c-1.63-1.129-2.285-3.211-1.966-6.247.478-4.553.73-6.955 2.028-6.818 1.298.136 2.358 2.115 2.04 6.283-.21 2.779-.911 5.04-2.101 6.782zM380.395 204.986c-1.63-1.128-2.286-3.21-1.967-6.246.479-4.554.731-6.955 2.029-6.819 1.297.137 2.357 2.116 2.04 6.284-.211 2.779-.912 5.04-2.102 6.781zM386.73 209.556c-1.631-1.129-2.287-3.211-1.968-6.247.479-4.553.731-6.955 2.029-6.818 1.297.136 2.358 2.115 2.04 6.283-.211 2.779-.912 5.04-2.101 6.782zM392.994 213.127c-1.63-1.128-2.287-3.21-1.967-6.246.478-4.554.73-6.955 2.028-6.819 1.298.137 2.358 2.116 2.04 6.284-.21 2.779-.911 5.04-2.101 6.781zM399.328 217.697c-1.63-1.129-2.286-3.211-1.967-6.247.478-4.553.73-6.955 2.028-6.818 1.298.136 2.358 2.115 2.041 6.283-.211 2.779-.912 5.04-2.102 6.782zM404.525 220.34c-1.63-1.128-2.286-3.21-1.967-6.246.478-4.553.73-6.955 2.028-6.818 1.298.136 2.358 2.115 2.041 6.283-.211 2.779-.912 5.04-2.102 6.782zM409.862 224.98c-1.63-1.13-2.287-3.211-1.968-6.247.479-4.553.731-6.955 2.029-6.818 1.298.136 2.358 2.115 2.04 6.283-.21 2.779-.911 5.04-2.101 6.782zM416.113 229.387c-1.63-1.129-2.287-3.21-1.967-6.246.478-4.554.73-6.955 2.028-6.819 1.298.136 2.358 2.115 2.04 6.283-.21 2.78-.911 5.04-2.101 6.782zM421.399 234.007c-1.526-1.267-1.998-3.399-1.416-6.395.874-4.494 1.335-6.865 2.615-6.616 1.281.25 2.165 2.313 1.486 6.438-.453 2.75-1.348 4.94-2.685 6.573zM426.728 239.524c-1.41-1.395-1.694-3.559-.853-6.493 1.262-4.401 1.928-6.722 3.182-6.363 1.254.36 1.955 2.493.919 6.543-.69 2.7-1.773 4.804-3.248 6.313zM430.965 244.016c-1.283-1.512-1.378-3.693-.284-6.543 1.64-4.274 2.506-6.529 3.724-6.061 1.218.467 1.73 2.653.345 6.597-.923 2.63-2.185 4.632-3.785 6.007zM435.443 250.72c-1.283-1.512-1.377-3.693-.283-6.543 1.64-4.275 2.506-6.529 3.724-6.061 1.218.467 1.73 2.653.345 6.597-.924 2.63-2.185 4.632-3.786 6.007zM440.99 258.352c-1.284-1.513-1.378-3.694-.284-6.543 1.64-4.275 2.506-6.53 3.724-6.061 1.218.467 1.73 2.653.345 6.597-.924 2.63-2.186 4.632-3.786 6.007zM445.607 267.05c-1.283-1.512-1.377-3.693-.283-6.542 1.64-4.275 2.506-6.529 3.724-6.061 1.218.467 1.73 2.653.345 6.597-.924 2.63-2.186 4.632-3.786 6.007zM450.225 275.75c-1.283-1.513-1.377-3.694-.283-6.543 1.64-4.275 2.506-6.529 3.724-6.061 1.218.467 1.73 2.653.345 6.597-.924 2.63-2.185 4.632-3.786 6.007zM453.776 283.521c-1.283-1.512-1.377-3.693-.284-6.543 1.641-4.274 2.507-6.529 3.725-6.061 1.218.467 1.73 2.653.345 6.597-.924 2.63-2.186 4.632-3.786 6.007zM457.536 294.285c-1.283-1.512-1.377-3.693-.284-6.543 1.641-4.274 2.507-6.529 3.725-6.061 1.218.467 1.73 2.653.345 6.597-.924 2.63-2.186 4.632-3.786 6.007zM461.157 303.054c-1.283-1.513-1.378-3.694-.284-6.543 1.64-4.275 2.506-6.529 3.724-6.061 1.218.467 1.73 2.653.345 6.597-.923 2.63-2.185 4.632-3.785 6.007zM463.202 312.671c-1.118-1.638-.984-3.817.402-6.536 2.078-4.08 3.174-6.231 4.337-5.639 1.163.592 1.443 2.82-.347 6.597-1.193 2.519-2.657 4.378-4.392 5.578zM465.545 320.425c-1.06-1.677-.85-3.85.63-6.52 2.22-4.004 3.39-6.115 4.53-5.483 1.142.633 1.345 2.868-.576 6.581-1.28 2.476-2.808 4.283-4.584 5.422zM466.578 328.489c-.848-1.793-.375-3.924 1.42-6.394 2.69-3.704 4.11-5.657 5.166-4.89 1.055.766.984 3.01-1.375 6.461-1.572 2.301-3.31 3.909-5.211 4.823zM468.134 336.4c-.848-1.793-.375-3.925 1.42-6.394 2.69-3.704 4.11-5.658 5.165-4.89 1.056.766.985 3.01-1.374 6.461-1.573 2.301-3.31 3.908-5.211 4.822z"/>
            <path fill="#FF9797" d="M469.644 344.966c-.752-1.835-.168-3.938 1.753-6.31 2.88-3.558 4.4-5.435 5.414-4.614 1.014.821.826 3.058-1.71 6.381-1.691 2.216-3.51 3.73-5.457 4.543zM470.272 353.944c-.753-1.834-.169-3.938 1.752-6.31 2.882-3.558 4.401-5.435 5.415-4.614 1.014.821.826 3.058-1.71 6.381-1.691 2.216-3.51 3.73-5.457 4.543zM471.577 361.082c-.557-1.904.244-3.935 2.402-6.093 3.237-3.238 4.945-4.945 5.867-4.022.923.922.502 3.127-2.368 6.167-1.913 2.027-3.88 3.342-5.901 3.948zM472.135 369.062c-.557-1.903.244-3.934 2.402-6.093 3.237-3.237 4.945-4.945 5.868-4.022.922.923.5 3.128-2.369 6.168-1.913 2.026-3.88 3.342-5.901 3.947zM472.824 377.948c-.723-1.776-.204-3.608 1.558-5.497 2.642-2.833 4.035-4.328 4.99-3.438.954.89.805 2.9-1.519 5.567-1.549 1.779-3.225 2.902-5.029 3.368zM513.78 449.3c-1.314-1.354-1.513-3.112-.596-5.273 1.376-3.242 2.102-4.952 3.303-4.442 1.201.51 1.804 2.317.659 5.323-.764 2.004-1.885 3.468-3.365 4.392zM474.639 387.722c-.845-1.721-.455-3.585 1.17-5.592 2.439-3.011 3.724-4.599 4.738-3.778 1.014.821 1.006 2.836-1.126 5.66-1.421 1.882-3.015 3.119-4.782 3.71zM476.195 395.633c-.845-1.721-.455-3.585 1.17-5.592 2.438-3.011 3.724-4.6 4.738-3.778 1.014.821 1.005 2.836-1.126 5.66-1.421 1.882-3.015 3.119-4.782 3.71zM479.745 403.404c-.89-1.664-.597-3.408.88-5.233 2.217-2.737 3.386-4.18 4.4-3.36 1.014.822 1.095 2.725-.835 5.3-1.286 1.715-2.768 2.813-4.445 3.293zM482.215 410.054c-.89-1.664-.598-3.409.88-5.233 2.216-2.737 3.385-4.18 4.4-3.36 1.013.821 1.095 2.725-.835 5.299-1.286 1.716-2.768 2.814-4.445 3.294zM485.696 416.827c-.89-1.664-.598-3.408.88-5.233 2.216-2.737 3.385-4.18 4.4-3.36 1.013.822 1.095 2.726-.835 5.3-1.286 1.715-2.768 2.813-4.445 3.293zM489.107 422.604c-.89-1.664-.597-3.409.88-5.234 2.217-2.737 3.386-4.18 4.4-3.359 1.014.821 1.095 2.725-.835 5.299-1.286 1.716-2.767 2.813-4.445 3.294zM493.331 428.788c-1.166-1.484-1.18-3.253-.042-5.307 1.707-3.08 2.608-4.704 3.75-4.072 1.14.633 1.55 2.494.098 5.363-.969 1.913-2.237 3.252-3.806 4.016zM497.74 434.494c-1.166-1.484-1.18-3.253-.042-5.306 1.707-3.08 2.608-4.705 3.749-4.073 1.141.633 1.552 2.494.099 5.364-.97 1.913-2.238 3.251-3.806 4.015zM502.08 439.203c-1.167-1.484-1.181-3.253-.043-5.306 1.707-3.08 2.608-4.705 3.749-4.073 1.141.633 1.552 2.494.099 5.363-.97 1.913-2.238 3.252-3.806 4.016zM507.416 443.842c-1.167-1.484-1.18-3.253-.043-5.306 1.708-3.08 2.608-4.705 3.75-4.073 1.14.633 1.551 2.494.098 5.363-.969 1.913-2.237 3.252-3.805 4.016z"/>
        </g>
        <g>
            <g transform="rotate(-3 5671.511 -5335.288)">
                <use fill="#000" filter="url(#r)" xlink:href="#s"/>
                <use fill="url(#t)" stroke="#FF9797" xlink:href="#s"/>
            </g>
            <path stroke="#FF9797" d="M287.389 289.75l23.808 18.173-1.154 29.655"/>
            <path stroke="#FF9797" stroke-linejoin="round" d="M325.402 294.652l-14.205 13.27 24.123-4.386"/>
        </g>
    </g>
</svg>
