<svg xmlns="http://www.w3.org/2000/svg" width="111" height="104" viewBox="0 0 111 104">
    <g fill="none" fill-rule="evenodd" transform="translate(-58 -52)">
        <circle cx="105" cy="105" r="105"/>
        <g transform="translate(58 52)">
            <path fill="#90CFBE" fill-rule="nonzero" d="M50.9 34.33l38.209 22.989c1.442.836 1.91 2.645 1.045 4.039a2.997 2.997 0 0 1-1.045 1.01l-38.21 22.99a6.276 6.276 0 0 1-6.27 0L6.422 62.367c-1.443-.837-1.91-2.645-1.045-4.04A2.997 2.997 0 0 1 6.42 57.32l38.209-22.99a6.276 6.276 0 0 1 6.27 0z"/>
            <path fill="#D7F2EE" fill-rule="nonzero" d="M50.9 33.231l38.209 22.99c1.442.836 1.91 2.645 1.045 4.039a2.997 2.997 0 0 1-1.045 1.01l-38.21 22.99a6.276 6.276 0 0 1-6.27 0L6.422 61.27c-1.443-.837-1.91-2.645-1.045-4.04a2.997 2.997 0 0 1 1.045-1.009l38.209-22.99a6.276 6.276 0 0 1 6.27 0z"/>
            <path fill="#90CFBE" fill-rule="nonzero" d="M50.9 20.604l38.209 22.99c1.442.836 1.91 2.644 1.045 4.038a2.997 2.997 0 0 1-1.045 1.01l-38.21 22.99a6.276 6.276 0 0 1-6.27 0L6.422 48.642c-1.443-.837-1.91-2.645-1.045-4.039a2.997 2.997 0 0 1 1.045-1.01l38.209-22.99a6.276 6.276 0 0 1 6.27 0z"/>
            <path fill="#90CFBE" fill-rule="nonzero" stroke="#FFF" stroke-opacity=".32" stroke-width="4" d="M51.903 17.226l.028.017 38.18 22.973c2.413 1.399 3.207 4.465 1.742 6.824a4.962 4.962 0 0 1-1.713 1.668L51.903 71.715a8.289 8.289 0 0 1-8.304-.017L5.418 48.725c-2.413-1.399-3.206-4.465-1.741-6.824a4.962 4.962 0 0 1 1.713-1.668l38.237-23.007a8.276 8.276 0 0 1 8.276 0z"/>
            <path fill="#222633" d="M48.414 26.353l2.799 12.169.5 18.614-3.16 2.158-3.156-2.22.308-18.552 2.709-12.17zm7.048 13.246l5.207-4.023-.867 2.466 1.14 12.799-4.668 3.183-.812-14.425zm-19.734-1.557l-.868-2.466 5.207 4.023-.811 14.425-4.668-3.183 1.14-12.8z"/>
            <circle cx="10.735" cy="17.324" r="2.5" fill="#FFF" fill-rule="nonzero"/>
            <circle cx="25.559" cy="83.206" r="2.5" fill="#FFF" fill-rule="nonzero"/>
            <circle cx="107.912" cy="50.265" r="2.5" fill="#FFF" fill-rule="nonzero"/>
            <circle cx="88.265" cy="88.618" r="2.5" fill="#FFF" fill-rule="nonzero" opacity=".32"/>
            <circle cx="78.265" cy="2.5" r="2.5" fill="#FFF" fill-rule="nonzero" opacity=".32"/>
            <circle cx="2.5" cy="101.324" r="2.5" fill="#FFF" fill-rule="nonzero" opacity=".32"/>
        </g>
    </g>
</svg>
