<svg xmlns="http://www.w3.org/2000/svg" xmlns:xlink="http://www.w3.org/1999/xlink" width="493" height="504" viewBox="0 0 493 504">
    <defs>
        <linearGradient id="a" x1="50%" x2="50%" y1="0%" y2="100%">
            <stop offset="0%" stop-color="#45A5BE" stop-opacity="0"/>
            <stop offset="100%" stop-color="#90CFBE"/>
        </linearGradient>
        <path id="c" d="M2 0h21.75L30 6.25V35.5a2 2 0 0 1-2 2H2a2 2 0 0 1-2-2V2a2 2 0 0 1 2-2z"/>
        <filter id="b" width="146.7%" height="137.3%" x="-23.3%" y="-13.3%" filterUnits="objectBoundingBox">
            <feOffset dy="2" in="SourceAlpha" result="shadowOffsetOuter1"/>
            <feGaussianBlur in="shadowOffsetOuter1" result="shadowBlurOuter1" stdDeviation="2"/>
            <feColorMatrix in="shadowBlurOuter1" values="0 0 0 0 0.342840502 0 0 0 0 0.608072917 0 0 0 0 0.538081029 0 0 0 0.3 0"/>
        </filter>
        <linearGradient id="d" x1="50%" x2="50%" y1="0%" y2="100%">
            <stop offset="0%" stop-color="#45A5BE" stop-opacity="0"/>
            <stop offset="100%" stop-color="#216C8A"/>
        </linearGradient>
        <linearGradient id="e" x1="50%" x2="50%" y1="0%" y2="98.541%">
            <stop offset="0%" stop-color="#F8BE5A"/>
            <stop offset="100%" stop-color="#FFD650"/>
        </linearGradient>
        <linearGradient id="f" x1="50%" x2="50%" y1="0%" y2="98.541%">
            <stop offset="0%" stop-color="#F8DB5A"/>
            <stop offset="100%" stop-color="#FFD650"/>
        </linearGradient>
        <ellipse id="g" cx="16.286" cy="7.6" rx="14.657" ry="6.514"/>
        <filter id="h" width="102%" height="104.6%" x="-1%" y="-2.3%" filterUnits="objectBoundingBox">
            <feOffset dy=".6" in="SourceAlpha" result="shadowOffsetInner1"/>
            <feComposite in="shadowOffsetInner1" in2="SourceAlpha" k2="-1" k3="1" operator="arithmetic" result="shadowInnerInner1"/>
            <feColorMatrix in="shadowInnerInner1" values="0 0 0 0 0.97254902 0 0 0 0 0.745098039 0 0 0 0 0.352941176 0 0 0 1 0"/>
        </filter>
        <path id="j" d="M14.46 5.781l1.011-3.61 2.77 3.61 1.38 5.522-1.757.64-2.062-.66-1.343-5.502zm7.061-.023l2.97-1.21-.47.742.95 3.847-2.379.957-1.07-4.336zm-10.353 0l1.071 4.336-2.852-.957-.95-3.847-.837-.742 3.568 1.21z"/>
        <filter id="i" width="102.9%" height="110.2%" x="-1.4%" y="-2.6%" filterUnits="objectBoundingBox">
            <feOffset dy=".5" in="SourceAlpha" result="shadowOffsetOuter1"/>
            <feColorMatrix in="shadowOffsetOuter1" values="0 0 0 0 0.97254902 0 0 0 0 0.745098039 0 0 0 0 0.352941176 0 0 0 1 0"/>
        </filter>
        <linearGradient id="k" x1="50%" x2="50%" y1="0%" y2="98.541%">
            <stop offset="0%" stop-color="#F8BE5A"/>
            <stop offset="100%" stop-color="#FFD650"/>
        </linearGradient>
        <linearGradient id="l" x1="5.865%" x2="68.368%" y1="50%" y2="53.095%">
            <stop offset="0%" stop-color="#F8DB5A"/>
            <stop offset="100%" stop-color="#FFD650"/>
        </linearGradient>
        <ellipse id="m" cx="24.756" cy="15.59" rx="15.236" ry="6.839"/>
        <filter id="n" width="102%" height="104.4%" x="-1%" y="-2.2%" filterUnits="objectBoundingBox">
            <feOffset dy=".6" in="SourceAlpha" result="shadowOffsetInner1"/>
            <feComposite in="shadowOffsetInner1" in2="SourceAlpha" k2="-1" k3="1" operator="arithmetic" result="shadowInnerInner1"/>
            <feColorMatrix in="shadowInnerInner1" values="0 0 0 0 0.97254902 0 0 0 0 0.745098039 0 0 0 0 0.352941176 0 0 0 1 0"/>
        </filter>
        <path id="p" d="M23.327 14.275l2.21-3.689 1.562 3.925-.46 5.825-1.964.556-1.838-.814.49-5.803zm7.051.416l3.365-1.072-.716.741-.331 4.059-2.692.846.374-4.574zm-10.325-.646l-.374 4.575-2.526-1.173.331-4.059-.588-.822 3.157 1.48z"/>
        <filter id="o" width="103%" height="109.7%" x="-1.5%" y="-2.4%" filterUnits="objectBoundingBox">
            <feOffset dy=".5" in="SourceAlpha" result="shadowOffsetOuter1"/>
            <feColorMatrix in="shadowOffsetOuter1" values="0 0 0 0 0.97254902 0 0 0 0 0.745098039 0 0 0 0 0.352941176 0 0 0 1 0"/>
        </filter>
        <linearGradient id="q" x1="50%" x2="50%" y1="0%" y2="98.541%">
            <stop offset="0%" stop-color="#F8BE5A"/>
            <stop offset="100%" stop-color="#FFD650"/>
        </linearGradient>
        <linearGradient id="r" x1="50%" x2="50%" y1="0%" y2="98.541%">
            <stop offset="0%" stop-color="#F8DB5A"/>
            <stop offset="100%" stop-color="#FFD650"/>
        </linearGradient>
        <ellipse id="s" cx="17.646" cy="10.536" rx="14.339" ry="9.031"/>
        <filter id="t" width="102.1%" height="103.3%" x="-1%" y="-1.7%" filterUnits="objectBoundingBox">
            <feOffset dy=".6" in="SourceAlpha" result="shadowOffsetInner1"/>
            <feComposite in="shadowOffsetInner1" in2="SourceAlpha" k2="-1" k3="1" operator="arithmetic" result="shadowInnerInner1"/>
            <feColorMatrix in="shadowInnerInner1" values="0 0 0 0 0.97254902 0 0 0 0 0.745098039 0 0 0 0 0.352941176 0 0 0 1 0"/>
        </filter>
        <path id="v" d="M20.457 9.526l1.732-4.65-5.247 3.147-5.37 5.95 1.158 1.45 2.405.044 5.322-5.941zm-6.546-2.833L12.046 4.09l-.112 1.059-3.732 4.15 1.503 2.071 4.206-4.677zm9.622 4.112l-4.206 4.678 3.36.007 3.731-4.15 1.327-.54-4.212.005z"/>
        <filter id="u" width="102.6%" height="108.8%" x="-1.3%" y="-2.2%" filterUnits="objectBoundingBox">
            <feOffset dy=".5" in="SourceAlpha" result="shadowOffsetOuter1"/>
            <feColorMatrix in="shadowOffsetOuter1" values="0 0 0 0 0.97254902 0 0 0 0 0.745098039 0 0 0 0 0.352941176 0 0 0 1 0"/>
        </filter>
        <path id="w" d="M14.138 1.135l13.626 3.254 1.937 7.375-11.689 4.12-13.625-3.255-1.938-7.375z"/>
        <filter id="x" width="103.7%" height="106.8%" x="-1.8%" y="-3.4%" filterUnits="objectBoundingBox">
            <feOffset dy="1" in="SourceAlpha" result="shadowOffsetInner1"/>
            <feComposite in="shadowOffsetInner1" in2="SourceAlpha" k2="-1" k3="1" operator="arithmetic" result="shadowInnerInner1"/>
            <feColorMatrix in="shadowInnerInner1" values="0 0 0 0 0.48458539 0 0 0 0 0.613483468 0 0 0 0 0.660580842 0 0 0 1 0"/>
        </filter>
        <path id="y" d="M24.42 1.346L36.713 8.18l.13 8.75-12.162 1.915-12.29-6.834-.13-8.75z"/>
        <filter id="z" width="104.1%" height="105.7%" x="-2%" y="-2.9%" filterUnits="objectBoundingBox">
            <feOffset dy="1" in="SourceAlpha" result="shadowOffsetInner1"/>
            <feComposite in="shadowOffsetInner1" in2="SourceAlpha" k2="-1" k3="1" operator="arithmetic" result="shadowInnerInner1"/>
            <feColorMatrix in="shadowInnerInner1" values="0 0 0 0 0.48458539 0 0 0 0 0.613483468 0 0 0 0 0.660580842 0 0 0 1 0"/>
        </filter>
        <path id="A" d="M19.164 1.62L31.82 9.847 30.775 20.38l-13.702 2.306-12.656-8.227L5.463 3.927z"/>
        <filter id="B" width="103.6%" height="104.7%" x="-1.8%" y="-2.4%" filterUnits="objectBoundingBox">
            <feOffset dy="1" in="SourceAlpha" result="shadowOffsetInner1"/>
            <feComposite in="shadowOffsetInner1" in2="SourceAlpha" k2="-1" k3="1" operator="arithmetic" result="shadowInnerInner1"/>
            <feColorMatrix in="shadowInnerInner1" values="0 0 0 0 0.48458539 0 0 0 0 0.613483468 0 0 0 0 0.660580842 0 0 0 1 0"/>
        </filter>
        <path id="D" d="M45.999 45.344a1.673 1.673 0 0 1-.794 1.353L24.684 59.199a3.23 3.23 0 0 1-3.368 0L.795 46.697a1.664 1.664 0 0 1-.793-1.353L0 41.165h46v4.18z"/>
        <filter id="C" width="156.5%" height="240.5%" x="-28.3%" y="-59.4%" filterUnits="objectBoundingBox">
            <feMorphology in="SourceAlpha" radius="1" result="shadowSpreadOuter1"/>
            <feOffset dy="2" in="shadowSpreadOuter1" result="shadowOffsetOuter1"/>
            <feGaussianBlur in="shadowOffsetOuter1" result="shadowBlurOuter1" stdDeviation="5"/>
            <feColorMatrix in="shadowBlurOuter1" values="0 0 0 0 0.129411765 0 0 0 0 0.423529412 0 0 0 0 0.541176471 0 0 0 0.1 0"/>
        </filter>
        <path id="F" d="M45.999 39.494a1.673 1.673 0 0 1-.794 1.352L24.684 53.348a3.23 3.23 0 0 1-3.368 0L.795 40.846a1.664 1.664 0 0 1-.793-1.352L0 35.314h46v4.18z"/>
        <filter id="E" width="156.5%" height="240.5%" x="-28.3%" y="-59.4%" filterUnits="objectBoundingBox">
            <feMorphology in="SourceAlpha" radius="1" result="shadowSpreadOuter1"/>
            <feOffset dy="2" in="shadowSpreadOuter1" result="shadowOffsetOuter1"/>
            <feGaussianBlur in="shadowOffsetOuter1" result="shadowBlurOuter1" stdDeviation="5"/>
            <feColorMatrix in="shadowBlurOuter1" values="0 0 0 0 0.129411765 0 0 0 0 0.423529412 0 0 0 0 0.541176471 0 0 0 0.1 0"/>
        </filter>
        <path id="H" d="M45.999 32.807a1.673 1.673 0 0 1-.794 1.353L24.684 46.662a3.23 3.23 0 0 1-3.368 0L.795 34.16a1.664 1.664 0 0 1-.793-1.353L0 28.628h46v4.18z"/>
        <filter id="G" width="156.5%" height="240.5%" x="-28.3%" y="-59.4%" filterUnits="objectBoundingBox">
            <feMorphology in="SourceAlpha" radius="1" result="shadowSpreadOuter1"/>
            <feOffset dy="2" in="shadowSpreadOuter1" result="shadowOffsetOuter1"/>
            <feGaussianBlur in="shadowOffsetOuter1" result="shadowBlurOuter1" stdDeviation="5"/>
            <feColorMatrix in="shadowBlurOuter1" values="0 0 0 0 0.129411765 0 0 0 0 0.423529412 0 0 0 0 0.541176471 0 0 0 0.1 0"/>
        </filter>
        <linearGradient id="I" x1="50%" x2="50%" y1="-25.316%" y2="100%">
            <stop offset="0%" stop-color="#90CFBE"/>
            <stop offset="100%" stop-color="#206871"/>
        </linearGradient>
        <path id="K" d="M45.999 25.97a1.673 1.673 0 0 1-.794 1.352L24.684 39.824a3.23 3.23 0 0 1-3.368 0L.795 27.322a1.664 1.664 0 0 1-.793-1.352L0 21.79h46v4.18z"/>
        <filter id="J" width="156.5%" height="240.5%" x="-28.3%" y="-59.4%" filterUnits="objectBoundingBox">
            <feMorphology in="SourceAlpha" radius="1" result="shadowSpreadOuter1"/>
            <feOffset dy="2" in="shadowSpreadOuter1" result="shadowOffsetOuter1"/>
            <feGaussianBlur in="shadowOffsetOuter1" result="shadowBlurOuter1" stdDeviation="5"/>
            <feColorMatrix in="shadowBlurOuter1" values="0 0 0 0 0.129411765 0 0 0 0 0.423529412 0 0 0 0 0.541176471 0 0 0 0.1 0"/>
        </filter>
        <path id="M" d="M45.999 19.283a1.673 1.673 0 0 1-.794 1.353L24.684 33.138a3.23 3.23 0 0 1-3.368 0L.795 20.636a1.664 1.664 0 0 1-.793-1.353L0 15.104h46v4.18z"/>
        <filter id="L" width="156.5%" height="240.5%" x="-28.3%" y="-59.4%" filterUnits="objectBoundingBox">
            <feMorphology in="SourceAlpha" radius="1" result="shadowSpreadOuter1"/>
            <feOffset dy="2" in="shadowSpreadOuter1" result="shadowOffsetOuter1"/>
            <feGaussianBlur in="shadowOffsetOuter1" result="shadowBlurOuter1" stdDeviation="5"/>
            <feColorMatrix in="shadowBlurOuter1" values="0 0 0 0 0.129411765 0 0 0 0 0.423529412 0 0 0 0 0.541176471 0 0 0 0.1 0"/>
        </filter>
        <linearGradient id="N" x1="133.314%" x2="0%" y1="72.639%" y2="27.361%">
            <stop offset="0%" stop-color="#90CFBE"/>
            <stop offset="100%" stop-color="#206871"/>
        </linearGradient>
        <path id="O" d="M24.684.615l20.521 12.258a1.625 1.625 0 0 1 0 2.794L24.684 27.925a3.285 3.285 0 0 1-3.368 0L.795 15.667a1.625 1.625 0 0 1 0-2.794L21.316.615a3.285 3.285 0 0 1 3.368 0z"/>
        <filter id="P" width="104.3%" height="107.1%" x="-2.2%" y="-3.5%" filterUnits="objectBoundingBox">
            <feGaussianBlur in="SourceAlpha" result="shadowBlurInner1" stdDeviation=".5"/>
            <feOffset dy="1" in="shadowBlurInner1" result="shadowOffsetInner1"/>
            <feComposite in="shadowOffsetInner1" in2="SourceAlpha" k2="-1" k3="1" operator="arithmetic" result="shadowInnerInner1"/>
            <feColorMatrix in="shadowInnerInner1" values="0 0 0 0 0.345098039 0 0 0 0 0.654901961 0 0 0 0 0.580392157 0 0 0 1 0"/>
        </filter>
        <path id="R" d="M2 0h21.75L30 6.25V35.5a2 2 0 0 1-2 2H2a2 2 0 0 1-2-2V2a2 2 0 0 1 2-2z"/>
        <filter id="Q" width="146.7%" height="137.3%" x="-23.3%" y="-13.3%" filterUnits="objectBoundingBox">
            <feOffset dy="2" in="SourceAlpha" result="shadowOffsetOuter1"/>
            <feGaussianBlur in="shadowOffsetOuter1" result="shadowBlurOuter1" stdDeviation="2"/>
            <feColorMatrix in="shadowBlurOuter1" values="0 0 0 0 0.342840502 0 0 0 0 0.608072917 0 0 0 0 0.538081029 0 0 0 0.3 0"/>
        </filter>
        <path id="T" d="M2 0h21.75L30 6.25V35.5a2 2 0 0 1-2 2H2a2 2 0 0 1-2-2V2a2 2 0 0 1 2-2z"/>
        <filter id="S" width="146.7%" height="137.3%" x="-23.3%" y="-13.3%" filterUnits="objectBoundingBox">
            <feOffset dy="2" in="SourceAlpha" result="shadowOffsetOuter1"/>
            <feGaussianBlur in="shadowOffsetOuter1" result="shadowBlurOuter1" stdDeviation="2"/>
            <feColorMatrix in="shadowBlurOuter1" values="0 0 0 0 0.342840502 0 0 0 0 0.608072917 0 0 0 0 0.538081029 0 0 0 0.3 0"/>
        </filter>
        <path id="V" d="M2 0h21.75L30 6.25V35.5a2 2 0 0 1-2 2H2a2 2 0 0 1-2-2V2a2 2 0 0 1 2-2z"/>
        <filter id="U" width="146.7%" height="137.3%" x="-23.3%" y="-13.3%" filterUnits="objectBoundingBox">
            <feOffset dy="2" in="SourceAlpha" result="shadowOffsetOuter1"/>
            <feGaussianBlur in="shadowOffsetOuter1" result="shadowBlurOuter1" stdDeviation="2"/>
            <feColorMatrix in="shadowBlurOuter1" values="0 0 0 0 0.342840502 0 0 0 0 0.608072917 0 0 0 0 0.538081029 0 0 0 0.3 0"/>
        </filter>
        <circle id="W" cx="55.018" cy="55.018" r="55.018"/>
        <linearGradient id="Y" x1="0%" y1="50%" y2="50%">
            <stop offset="0%" stop-color="#FFF" stop-opacity="0"/>
            <stop offset="100%" stop-color="#FFF" stop-opacity=".8"/>
        </linearGradient>
        <circle id="Z" cx="55.018" cy="55.018" r="55.018"/>
    </defs>
    <g fill="none" fill-rule="evenodd">
        <path stroke="#90CFBE" stroke-dasharray="2" stroke-linecap="square" d="M313 205l68.158-17.874M100.609 260.274h61.141M293 184.5l35.438-84.5M298 329l60.534 78M104.852 395.671L170.5 324M124.5 150.5l53 63.5M231.75 165v17.25M242.75 335v17.25M320 296.5l13.5 1.5"/>
        <path fill="#1D202B" stroke="url(#a)" stroke-dasharray="2" d="M342 100c27.614 0 50-22.386 50-50S369.614 0 342 0s-50 22.386-50 50 22.386 50 50 50zM383 353c27.614 0 50-22.386 50-50s-22.386-50-50-50-50 22.386-50 50 22.386 50 50 50zM242 450c27.614 0 50-22.386 50-50s-22.386-50-50-50-50 22.386-50 50 22.386 50 50 50zM232 165c27.614 0 50-22.386 50-50s-22.386-50-50-50-50 22.386-50 50 22.386 50 50 50z" transform="translate(1)"/>
        <path fill="#1D202B" stroke="url(#a)" stroke-dasharray="2" d="M50 100c27.614 0 50-22.386 50-50S77.614 0 50 0 0 22.386 0 50s22.386 50 50 50z" transform="translate(1 214)"/>
        <g transform="translate(36 245)">
            <use fill="#000" filter="url(#b)" xlink:href="#c"/>
            <use fill="#FFF" xlink:href="#c"/>
        </g>
        <path fill="#668AFF" d="M56.75 260.625h-2L53 257.5h-1.75l1.75 3.125h-2l-1.75-3.125h-2.375l1.75 3.125h-2l-1.75-3.125h-1.618c-.556 0-1.007.445-1.007 1.002v10.496a1 1 0 0 0 .991 1.002h15.518a.994.994 0 0 0 .991-1.002V257.5H55l1.75 3.125z"/>
        <path fill="#FFF" d="M50.375 263.125v3.75l2.5-1.875"/>
        <path fill="#668AFF" d="M59.75 245l6.25 6.25h-4.25a2 2 0 0 1-2-2V245z"/>
        <path fill="#1D202B" stroke="url(#a)" stroke-dasharray="2" d="M91 159c33.137 0 60-26.863 60-60s-26.863-60-60-60-60 26.863-60 60 26.863 60 60 60z" transform="translate(1)"/>
        <path fill="#1D202B" stroke="url(#d)" stroke-dasharray="2" d="M400 503c33.137 0 60-26.863 60-60s-26.863-60-60-60-60 26.863-60 60 26.863 60 60 60z" transform="translate(1)"/>
        <g transform="translate(62 94.535)">
            <ellipse cx="16.286" cy="15.2" fill="#FFAE23" rx="16.286" ry="7.6" style="mix-blend-mode:multiply"/>
            <path fill="url(#e)" d="M0 14.114V7.6h7.893c2.45-.69 5.322-1.086 8.393-1.086 3.07 0 5.942.397 8.393 1.086h7.892v6.514c0 4.198-7.29 7.6-16.285 7.6C7.29 21.714 0 18.312 0 14.114z"/>
            <ellipse cx="16.286" cy="7.6" fill="#FFF5D6" rx="16.286" ry="7.6"/>
            <use fill="url(#f)" xlink:href="#g"/>
            <use fill="#000" filter="url(#h)" xlink:href="#g"/>
            <g>
                <use fill="#000" filter="url(#i)" xlink:href="#j"/>
                <use fill="#FFF5D6" xlink:href="#j"/>
            </g>
        </g>
        <g transform="translate(75.29 83.05)">
            <path fill="#FFAE23" d="M35.414 31.12c2.171-3.834-2.6-10.787-10.658-15.53-8.058-4.743-15.518-5.593-17.689-1.759-1.735 3.064.133 8.233 5.4 12.561.186.152.819 2.072 1.9 5.76 7.197.701 11.69 1.083 13.477 1.146 6.099.213 6.776-.776 7.57-2.179z" style="mix-blend-mode:multiply"/>
            <path fill="url(#k)" d="M4.54 21.54v-6.87h8.164c2.536-.728 5.507-1.146 8.682-1.146 3.176 0 6.147.418 8.683 1.145h8.164v6.87c0 4.428-7.543 8.016-16.847 8.016-9.304 0-16.846-3.588-16.846-8.015z" transform="rotate(30 21.386 21.54)"/>
            <ellipse cx="24.756" cy="15.59" fill="#FFF5D6" rx="16.929" ry="7.978" transform="rotate(30 24.756 15.59)"/>
            <g transform="rotate(30 24.756 15.59)">
                <use fill="url(#l)" xlink:href="#m"/>
                <use fill="#000" filter="url(#n)" xlink:href="#m"/>
            </g>
            <g transform="rotate(30 25.32 15.739)">
                <use fill="#000" filter="url(#o)" xlink:href="#p"/>
                <use fill="#FFF5D6" xlink:href="#p"/>
            </g>
        </g>
        <g transform="rotate(-10 478.97 -343.501)">
            <path fill="#FFAE23" d="M1.588 18.592h-.01v-6.118h2.576c2.842-2.883 7.762-4.79 13.356-4.79 5.593 0 10.513 1.907 13.355 4.79h2.576v6.118h-.01c-.263 5.03-5.857 9.164-13.162 10.007-.896.104-1.818.158-2.76.158-8.61 0-15.626-4.518-15.921-10.165z" style="mix-blend-mode:multiply"/>
            <path fill="url(#q)" d="M1.548 16.844h-.01v-6.118h2.576c2.842-2.883 7.762-4.79 13.356-4.79 5.593 0 10.513 1.907 13.355 4.79h2.576v6.118h-.01c-.295 5.647-7.31 10.165-15.921 10.165S1.843 22.49 1.548 16.844z"/>
            <ellipse cx="17.646" cy="10.536" fill="#FFF5D6" rx="15.932" ry="10.536"/>
            <use fill="url(#r)" xlink:href="#s"/>
            <use fill="#000" filter="url(#t)" xlink:href="#s"/>
            <g transform="rotate(-5.7 17.974 9.79)">
                <use fill="#000" filter="url(#u)" xlink:href="#v"/>
                <use fill="#FFF5D6" xlink:href="#v"/>
            </g>
        </g>
        <path fill="#5E8FA2" d="M332.939 44.54l-16.016 2.396-2.29 8.53v6.847l13.602 5.47 16.775-4.786 1.769-8.898-.009-6.184z" style="mix-blend-mode:multiply"/>
        <path fill="#A9BBC2" d="M332.939 42.85l-16.016 2.397-2.29 8.53v6.847l13.602 5.47 16.775-4.786 1.769-8.898-.009-6.184z"/>
        <path stroke="#E5F2F7" stroke-width="2" d="M332.885 42.522l12.691 4.373-1.848 7.035-15.21 3.544-12.69-4.373 1.848-7.035 15.21-3.544z"/>
        <g transform="matrix(-1 0 0 1 346.779 41.483)">
            <use fill="#A9BBC2" xlink:href="#w"/>
            <use fill="#000" filter="url(#x)" xlink:href="#w"/>
        </g>
        <path fill="#7C9CA8" fill-rule="nonzero" d="M325.867 51.788l4.072 1.242 4.853-1.542.805-2.518-3.968-1.21-4.98 1.583-.782 2.445zm-2.708.471l1.022-3.197c.073-.228.34-.438.693-.577.098-.05.207-.095.328-.133l6.162-1.959c.246-.078.502-.117.74-.12.243-.015.48.006.681.067l5.045 1.539c.27.082.428.224.464.387.03.076.034.16.006.248l-1.022 3.197a.576.576 0 0 1-.1.182c-.116.212-.403.416-.805.544l-4.104 1.304.28.085c.558.17.633.59.169.938-.465.348-1.293.492-1.85.322l-7.207-2.198a.805.805 0 0 1-.372-.214c-.129-.112-.18-.255-.13-.415z"/>
        <path fill="#E5F2F7" fill-rule="nonzero" d="M325.66 50.942l4.142 1.108 4.757-1.376.656-2.248-4.036-1.08-4.883 1.413-.637 2.183zm-2.678.42l.832-2.854c.06-.203.313-.39.658-.515.095-.045.202-.085.32-.119l6.04-1.748c.242-.07.496-.104.734-.106.24-.014.479.004.684.059l5.131 1.373c.276.074.44.2.487.346a.29.29 0 0 1 .02.22l-.832 2.854a.46.46 0 0 1-.09.163c-.102.189-.376.371-.77.485l-4.024 1.164.285.076c.566.152.667.527.223.837-.443.31-1.262.44-1.829.288l-7.33-1.962a.897.897 0 0 1-.385-.191c-.135-.1-.196-.228-.154-.37z"/>
        <g>
            <path fill="#5E8FA2" d="M357.952 44.467l14.47 8.655.197 11.013-2.025 5.045-14.637 2.31-22.414-5.396 8.484-3.672.19-9.648 1.368-6.004z" style="mix-blend-mode:multiply"/>
            <path fill="#A9BBC2" d="M357.952 42.778l14.47 8.655.197 11.013-2.025 5.045-14.637 2.31-13.93-7.379.19-11.336 1.368-6.005z"/>
            <path stroke="#E5F2F7" stroke-width="2" d="M357.759 43.816l-13.176 1.967.128 8.646 13.718 7.516 13.176-1.966-.128-8.646-13.718-7.517z"/>
            <g transform="translate(333.543 42.778)">
                <use fill="#A9BBC2" xlink:href="#y"/>
                <use fill="#000" filter="url(#z)" xlink:href="#y"/>
            </g>
            <path fill="#7C9CA8" fill-rule="nonzero" d="M353.025 53.647L357.322 56l4.149-.619-.04-2.667-4.186-2.293-4.259.635.039 2.59zm-2.44-.096l-.05-3.386c-.004-.241.183-.417.477-.493.077-.034.168-.06.27-.075l5.269-.786c.21-.031.443-.016.67.037.227.038.46.117.673.233l5.324 2.917c.285.156.48.353.569.547a.585.585 0 0 1 .084.282l.05 3.385a.414.414 0 0 1-.038.183c-.042.214-.25.379-.594.43l-3.508.524.295.161c.588.323.795.816.463 1.102-.333.286-1.08.257-1.667-.065l-7.605-4.166a1.559 1.559 0 0 1-.425-.33c-.16-.157-.255-.331-.257-.5z"/>
            <path fill="#E5F2F7" fill-rule="nonzero" d="M353.885 52.974l4.297 2.354 4.15-.619-.04-2.667-4.187-2.293-4.258.635.038 2.59zm-2.44-.096l-.05-3.386c-.004-.241.184-.417.477-.493.078-.034.169-.06.271-.075l5.269-.786c.21-.031.443-.016.67.037.227.038.46.117.673.233l5.323 2.917c.286.156.481.353.57.547a.585.585 0 0 1 .084.282l.05 3.385a.414.414 0 0 1-.038.183c-.042.213-.25.379-.594.43l-3.509.524.295.161c.588.323.796.816.463 1.102-.332.286-1.079.257-1.667-.065l-7.604-4.167a1.559 1.559 0 0 1-.426-.33c-.159-.156-.254-.33-.257-.5z"/>
        </g>
        <g>
            <path fill="#6A9CB0" d="M341.887 31.376l1.096 15.848v14.783L334.23 65.8v-9.627l-10.21-7.282v-1.867l1.707-13.097z" style="mix-blend-mode:multiply"/>
            <path fill="#A9BBC2" d="M343.345 27l14.902 9.587-1.159 12.197-2.867 5.588-16.459 2.558-13.742-9.906.905-10.822 2.261-6.651z"/>
            <path stroke="#E5F2F7" stroke-width="2" d="M343.127 28.048l-15.041 2.4-1.07 10.785 14.134 9.044 15.04-2.401 1.07-10.785-14.133-9.043z"/>
            <g transform="translate(324.02 27)">
                <use fill="#A9BBC2" xlink:href="#A"/>
                <use fill="#000" filter="url(#B)" xlink:href="#A"/>
            </g>
            <path fill="#7C9CA8" fill-rule="nonzero" d="M336.431 40.084l4.43 2.835 4.67-.746.318-3.21-4.315-2.761-4.793.765-.31 3.117zm-2.684-.115l.405-4.076c.029-.29.26-.502.594-.594.09-.04.195-.071.31-.09l5.93-.946a1.82 1.82 0 0 1 .736.044c.245.047.493.14.712.281l5.487 3.511c.295.188.484.425.555.659a.7.7 0 0 1 .055.339l-.404 4.075a.58.58 0 0 1-.067.22c-.076.257-.329.456-.716.518l-3.949.63.305.195c.606.388.768.982.362 1.326-.407.345-1.228.31-1.834-.078l-7.839-5.016a1.484 1.484 0 0 1-.425-.397c-.155-.188-.237-.398-.217-.601z"/>
            <path fill="#E5F2F7" fill-rule="nonzero" d="M337.474 39.274l4.43 2.834 4.669-.745.319-3.21-4.316-2.762-4.793.765-.31 3.118zm-2.684-.116l.404-4.075c.03-.29.26-.503.595-.594.09-.04.194-.071.31-.09l5.93-.946a1.82 1.82 0 0 1 .735.044c.246.046.493.14.712.28l5.488 3.512c.294.188.484.425.554.659a.7.7 0 0 1 .056.339l-.405 4.075a.58.58 0 0 1-.067.22c-.075.257-.328.456-.715.518l-3.949.63.304.195c.607.388.768.981.362 1.326-.406.345-1.227.31-1.833-.078l-7.84-5.016a1.484 1.484 0 0 1-.425-.397c-.154-.188-.236-.398-.216-.602z"/>
        </g>
        <g transform="translate(378 413)">
            <path fill="#90CFBE" fill-rule="nonzero" stroke="#C9FFF0" d="M24.427 33.14a2.784 2.784 0 0 0-2.854 0L1.05 45.403a1.126 1.126 0 0 0 0 1.936l20.522 12.264a2.784 2.784 0 0 0 2.854 0L44.95 47.339a1.126 1.126 0 0 0 0-1.936L24.427 33.14z"/>
            <path fill="#90CFBE" fill-rule="nonzero" stroke="#FFF" d="M24.427.894a2.785 2.785 0 0 0-2.854 0L1.05 13.152a1.125 1.125 0 0 0 0 1.935l20.522 12.258a2.785 2.785 0 0 0 2.854 0L44.95 15.087a1.125 1.125 0 0 0 0-1.935L24.427.894z"/>
            <g fill-rule="nonzero">
                <use fill="#000" filter="url(#C)" xlink:href="#D"/>
                <use fill="#90CFBE" xlink:href="#D"/>
            </g>
            <path fill="#5BAA95" fill-rule="nonzero" d="M24.684 27.361l20.521 12.258a1.625 1.625 0 0 1 0 2.794L24.684 54.67a3.285 3.285 0 0 1-3.368 0L.795 42.413a1.625 1.625 0 0 1 0-2.794l20.521-12.258a3.285 3.285 0 0 1 3.368 0z"/>
            <g fill-rule="nonzero">
                <use fill="#000" filter="url(#E)" xlink:href="#F"/>
                <use fill="#90CFBE" xlink:href="#F"/>
            </g>
            <path fill="#5BAA95" fill-rule="nonzero" d="M24.684 20.675l20.521 12.258a1.625 1.625 0 0 1 0 2.793L24.684 47.984a3.285 3.285 0 0 1-3.368 0L.795 35.726a1.625 1.625 0 0 1 0-2.793l20.521-12.258a3.285 3.285 0 0 1 3.368 0z"/>
            <ellipse cx="38.891" cy="12.27" fill="#CCEAE5" rx="2.091" ry="1.254"/>
            <ellipse cx="7.945" cy="12.27" fill="#CCEAE5" rx="2.091" ry="1.254"/>
            <g fill-rule="nonzero">
                <use fill="#000" filter="url(#G)" xlink:href="#H"/>
                <use fill="#90CFBE" xlink:href="#H"/>
            </g>
            <path fill="#90CFBE" fill-rule="nonzero" d="M24.684 14.645l20.521 12.258a1.625 1.625 0 0 1 0 2.794L24.684 41.955a3.285 3.285 0 0 1-3.368 0L.795 29.697a1.625 1.625 0 0 1 0-2.794l20.521-12.258a3.285 3.285 0 0 1 3.368 0z"/>
            <path fill="#5BAA95" fill-rule="nonzero" d="M24.684 13.988l20.521 12.258a1.625 1.625 0 0 1 0 2.794L24.684 41.298a3.285 3.285 0 0 1-3.368 0L.795 29.04a1.625 1.625 0 0 1 0-2.794l20.521-12.258a3.285 3.285 0 0 1 3.368 0z"/>
            <path fill="url(#I)" fill-rule="nonzero" d="M23.962 19.685L35.69 26.56c.443.25.586.79.32 1.208a.91.91 0 0 1-.32.301l-11.727 6.875a1.97 1.97 0 0 1-1.924 0L10.31 28.07c-.443-.25-.586-.79-.32-1.207a.91.91 0 0 1 .32-.302l11.727-6.875a1.97 1.97 0 0 1 1.924 0z"/>
            <g fill-rule="nonzero">
                <use fill="#000" filter="url(#J)" xlink:href="#K"/>
                <use fill="#90CFBE" xlink:href="#K"/>
            </g>
            <path fill="#90CFBE" fill-rule="nonzero" d="M24.684 7.807l20.521 12.258a1.625 1.625 0 0 1 0 2.794L24.684 35.117a3.285 3.285 0 0 1-3.368 0L.795 22.86a1.625 1.625 0 0 1 0-2.794L21.316 7.807a3.285 3.285 0 0 1 3.368 0z"/>
            <path fill="#5BAA95" fill-rule="nonzero" d="M24.684 7.15L45.205 19.41a1.625 1.625 0 0 1 0 2.793L24.684 34.46a3.285 3.285 0 0 1-3.368 0L.795 22.202a1.625 1.625 0 0 1 0-2.793L21.316 7.15a3.285 3.285 0 0 1 3.368 0z"/>
            <path fill="url(#I)" fill-rule="nonzero" d="M23.962 12.848l11.727 6.874c.443.25.586.791.32 1.208a.91.91 0 0 1-.32.302l-11.727 6.875a1.97 1.97 0 0 1-1.924 0L10.31 21.232c-.443-.25-.586-.79-.32-1.208a.91.91 0 0 1 .32-.302l11.727-6.874a1.97 1.97 0 0 1 1.924 0z"/>
            <g fill-rule="nonzero">
                <use fill="#000" filter="url(#L)" xlink:href="#M"/>
                <use fill="#90CFBE" xlink:href="#M"/>
            </g>
            <path fill="#256D75" fill-rule="nonzero" d="M5.018 21.13L2.51 19.62V18.54l2.51 1.571zM5.018 34.503l-2.509-1.51v-1.081l2.51 1.571z"/>
            <path fill="url(#N)" fill-rule="nonzero" d="M18.4 36.007l-12.545-7.36v-1.082L18.4 34.987zM15.89 47.876l-12.544-7.36v-1.082l12.545 7.422z"/>
            <path fill="#90CFBE" fill-rule="nonzero" d="M24.684 1.121l20.521 12.258a1.625 1.625 0 0 1 0 2.794L24.684 28.43a3.285 3.285 0 0 1-3.368 0L.795 16.173a1.625 1.625 0 0 1 0-2.794L21.316 1.121a3.285 3.285 0 0 1 3.368 0z"/>
            <g fill-rule="nonzero">
                <use fill="#90CFBE" xlink:href="#O"/>
                <use fill="#000" filter="url(#P)" xlink:href="#O"/>
                <path stroke="#C9FFF0" stroke-linejoin="square" d="M24.427 1.044a2.785 2.785 0 0 0-2.854 0L1.05 13.303a1.125 1.125 0 0 0 0 1.935l20.522 12.258a2.785 2.785 0 0 0 2.854 0L44.95 15.238a1.125 1.125 0 0 0 0-1.935L24.427 1.044z"/>
            </g>
            <path fill="#5BAA95" fill-rule="nonzero" d="M36.8 12.688V14.2a1 1 0 0 1-.5.866L24.398 21.93a2.038 2.038 0 0 1-1.96 0l-11.901-6.864a1 1 0 0 1-.5-.866v-1.512H36.8z"/>
            <path fill="#C9FFF0" fill-rule="nonzero" d="M24.398 5.417l11.94 6.874c.45.25.597.791.326 1.208a.92.92 0 0 1-.326.302l-11.94 6.875a2.038 2.038 0 0 1-1.96 0L10.499 13.8c-.45-.25-.596-.79-.326-1.208a.92.92 0 0 1 .327-.302l11.94-6.874a2.038 2.038 0 0 1 1.959 0z"/>
            <ellipse cx="33.036" cy="12.755" fill="#FFF" rx="1.255" ry="1"/>
            <path fill="#C9FFF0" fill-rule="nonzero" d="M6.69 22.133l-.835-.506v-1.082l.836.484zM8.364 23.136l-.837-.506v-1.082l.837.484zM3.345 27.148l-.836-.506v-1.083l.836.485zM5.018 28.15l-.836-.505v-1.083l.836.485zM6.69 35.673l-.835-.506v-1.082l.836.485zM8.364 36.676l-.837-.506v-1.082l.837.485zM2.51 40.103l-.837-.506v-1.083l.836.485zM2.51 46.037l-.837-.506v-1.082l.836.485zM4.18 47.04l-.835-.507.002-1.082.835.486zM5.855 48.043l-.836-.507.002-1.082.835.486zM7.527 49.13l-.835-.507.002-1.082.835.486z"/>
        </g>
        <g>
            <g transform="translate(218 96)">
                <use fill="#000" filter="url(#Q)" xlink:href="#R"/>
                <use fill="#FFF" xlink:href="#R"/>
            </g>
            <path fill="#FB0" fill-rule="nonzero" d="M224.25 121.625v-4.375l4.375-2.5 3.75 1.875 5.625-3.75 3.75 3.928v4.822h-17.5zm7.188-11.25a1.563 1.563 0 1 1-.001 3.126 1.563 1.563 0 0 1 0-3.126z"/>
            <path fill="#FB0" fill-opacity=".32" fill-rule="nonzero" d="M224.25 121.625V107.25h17.5v14.375z"/>
            <path fill="#FB0" d="M241.75 96l6.25 6.25h-4.25a2 2 0 0 1-2-2V96z"/>
        </g>
        <g>
            <g transform="translate(369 284)">
                <use fill="#000" filter="url(#S)" xlink:href="#T"/>
                <use fill="#FFF" xlink:href="#T"/>
            </g>
            <path fill="#71CBFF" d="M392.75 284l6.25 6.25h-4.25a2 2 0 0 1-2-2V284z"/>
            <path fill="#71CBFF" fill-rule="nonzero" d="M380.747 311.537h1.555v.588h-2.288v-3.555h.733v2.967zm2.673.588h-.708v-2.642h.708v2.642zm-.75-3.325c0-.106.036-.193.107-.261a.399.399 0 0 1 .29-.103.4.4 0 0 1 .287.103.345.345 0 0 1 .108.26.346.346 0 0 1-.109.264.4.4 0 0 1-.287.103.4.4 0 0 1-.287-.103.346.346 0 0 1-.108-.263zm2.32 2.463l.49-1.78h.738l-.891 2.642h-.674l-.891-2.642h.737l.491 1.78zm2.722.91c-.387 0-.703-.118-.946-.356-.243-.237-.365-.554-.365-.95v-.068c0-.265.051-.502.154-.711.102-.21.248-.37.436-.484.188-.113.402-.17.643-.17.361 0 .646.115.853.342.208.228.312.551.312.97v.288h-1.683c.023.172.092.31.207.415.115.104.26.156.436.156.271 0 .484-.098.637-.295l.346.388a1.06 1.06 0 0 1-.43.35 1.41 1.41 0 0 1-.6.126zm-.08-2.167a.442.442 0 0 0-.341.141.732.732 0 0 0-.167.406h.981v-.056a.522.522 0 0 0-.127-.363c-.081-.085-.197-.128-.346-.128z"/>
            <path fill="#71CBFF" d="M379.052 301.5a3.75 3.75 0 0 1 7.407-1.181 2.501 2.501 0 0 1-.584 4.931H379a1.875 1.875 0 0 1 0-3.75h.052z"/>
            <path fill="#71CBFF" fill-rule="nonzero" d="M391.47 303.375a6.256 6.256 0 0 0-4.345-5.339v-1.3a7.505 7.505 0 0 1 5.6 6.639h-1.256zm2.508 0a8.755 8.755 0 0 0-6.853-7.924v-1.276c4.428.84 7.822 4.6 8.106 9.2h-1.253z"/>
        </g>
        <g>
            <g transform="translate(228 381)">
                <use fill="#000" filter="url(#U)" xlink:href="#V"/>
                <use fill="#FFF" xlink:href="#V"/>
            </g>
            <path fill="#71CBFF" d="M251.75 381l6.25 6.25h-4.25a2 2 0 0 1-2-2V381z"/>
            <path fill="#71CBFF" fill-rule="nonzero" d="M239.747 408.537h1.555v.588h-2.288v-3.555h.733v2.967zm2.673.588h-.708v-2.642h.708v2.642zm-.75-3.325c0-.106.036-.193.107-.261a.399.399 0 0 1 .29-.103.4.4 0 0 1 .287.103.345.345 0 0 1 .108.26.346.346 0 0 1-.109.264.4.4 0 0 1-.287.103.4.4 0 0 1-.287-.103.346.346 0 0 1-.108-.263zm2.32 2.463l.49-1.78h.738l-.891 2.642h-.674l-.891-2.642h.737l.491 1.78zm2.722.91c-.387 0-.703-.118-.946-.356-.243-.237-.365-.554-.365-.95v-.068c0-.265.051-.502.154-.711.102-.21.248-.37.436-.484.188-.113.402-.17.643-.17.361 0 .646.115.853.342.208.228.312.551.312.97v.288h-1.683c.023.172.092.31.207.415.115.104.26.156.436.156.271 0 .484-.098.637-.295l.346.388a1.06 1.06 0 0 1-.43.35 1.41 1.41 0 0 1-.6.126zm-.08-2.167a.442.442 0 0 0-.341.141.732.732 0 0 0-.167.406h.981v-.056a.522.522 0 0 0-.127-.363c-.081-.085-.197-.128-.346-.128z"/>
            <path fill="#71CBFF" d="M238.052 398.5a3.75 3.75 0 0 1 7.407-1.181 2.501 2.501 0 0 1-.584 4.931H238a1.875 1.875 0 0 1 0-3.75h.052z"/>
            <path fill="#71CBFF" fill-rule="nonzero" d="M250.47 400.375a6.256 6.256 0 0 0-4.345-5.339v-1.3a7.505 7.505 0 0 1 5.6 6.639h-1.256zm2.508 0a8.755 8.755 0 0 0-6.853-7.924v-1.276c4.428.84 7.822 4.6 8.106 9.2h-1.253z"/>
        </g>
        <g>
            <g transform="translate(382.17 125.17)">
                <mask id="X" fill="#fff">
                    <use xlink:href="#W"/>
                </mask>
                <use fill="#1D202B" stroke="url(#d)" stroke-dasharray="2" xlink:href="#W"/>
                <path fill="#90CFBE" d="M22.239 56.546c-.073-9.33-.597-23.034 1.528-30.565 2.124-7.532 4.088-4.478 9.17-9.17 9.561-8.83 27.692-11.065 39.98 9.842 1.762 2.999-.551 8.253-4.586 8.07-1.585-.073-2.2 1.1-2.2 8.435 1.283 12.655 14.182 16.445 14.182 36.312 0 10.698-9.475 24.453-30.566 24.453-21.09 0-27.326-23.886-27.508-47.377z" mask="url(#X)" transform="matrix(-1 0 0 1 102.442 0)"/>
                <path fill="#216C8A" d="M88.762 84.238c1.793 3.424 3.138 12.39 4.035 26.898H17.239c.897-14.508 2.241-23.474 4.035-26.898 2.69-5.135 13.937-11.003 33.744-17.605 19.806 6.602 31.054 12.47 33.744 17.605z" mask="url(#X)"/>
                <path fill="#D7F2EE" d="M63.82 71.034c-3.12 1.712-6.117 2.568-8.99 2.568-2.871 0-5.743-.856-8.615-2.568v-8.07c-1.098.197-1.94.167-2.803.167-8.798 0-10.082-8.861-10.082-28.3 1.1 0 3.349-.109 7.016-5.244-.917 7.153 9.72 6.052 13.755.367-2.017 6.786 3.3 11.37 7.886 8.62 8.99-5.395 11.01 11.05 1.834 11.187v21.273z" mask="url(#X)"/>
                <path fill="#90CFBE" fill-rule="nonzero" d="M46.215 62.965c4.89-.856 9.17-2.507 12.837-4.952-3.056 5.258-7.335 7.886-12.837 7.886v-2.934z" mask="url(#X)"/>
                <path fill="#FFF" d="M55.03 73.226c2.65-.12 8.79-1.419 8.79-4.224v-2.37c.673 0 2.6 1.59 3.59 2.935 3.916 5.318-.428 10.087-3.97 10.087-4.47 0-7.431-3.735-8.422-5.532-.991 1.797-3.953 5.532-8.422 5.532-3.543 0-7.886-4.769-3.97-10.087.99-1.345 2.916-2.934 3.589-2.934v2.37c0 2.804 6.306 4.103 8.815 4.223z" mask="url(#X)"/>
            </g>
            <path fill="#FBD956" d="M437.187 122.679c15.193 0 27.51 12.316 27.51 27.508v2.492h-55.018v-2.492c0-15.192 12.316-27.508 27.508-27.508z"/>
            <path fill="#FBD956" d="M406.011 145.343h62.354v7.336h-62.354z"/>
            <path fill="#2F364A" d="M409.679 138.007h55.018v7.336h-55.018z"/>
            <path fill="#FFF7E3" stroke="#FBD956" stroke-width="2" d="M418.014 146.177h16.34v-3.838a7 7 0 0 0-7-7h-2.34a7 7 0 0 0-7 7v3.838z"/>
            <path fill="url(#Y)" d="M55.018 22.32a5.504 5.504 0 0 1 3.668 5.189v1.834H0V0l55.018 22.007v.313z" transform="translate(373 116)"/>
        </g>
        <path stroke="#1D202B" d="M421 179.5h3"/>
        <g>
            <path fill="#D7F2EE" d="M211.278 176h57.444c17.83 0 24.296 1.857 30.815 5.343 6.518 3.486 11.634 8.602 15.12 15.12 3.486 6.519 5.343 12.984 5.343 30.815v57.444c0 17.83-1.857 24.296-5.343 30.815-3.486 6.518-8.602 11.634-15.12 15.12-6.519 3.486-12.984 5.343-30.815 5.343h-57.444c-17.83 0-24.296-1.857-30.815-5.343-6.518-3.486-11.634-8.602-15.12-15.12-3.486-6.519-5.343-12.984-5.343-30.815v-57.444c0-17.83 1.857-24.296 5.343-30.815 3.486-6.518 8.602-11.634 15.12-15.12 6.519-3.486 12.984-5.343 30.815-5.343z"/>
            <path fill="#90CFBE" d="M229.096 239.547L229 310.504 240.452 319 252 310.746l-.099-71.199L240.576 193z"/>
            <path fill="#216C8A" d="M271 238.701V295l15.202-12.424v-49.952L290 223zM209 238.701V295l-15.202-12.424v-49.952L190 223z"/>
        </g>
        <g transform="translate(29 388)">
            <mask id="aa" fill="#fff">
                <use xlink:href="#Z"/>
            </mask>
            <use fill="#1D202B" stroke="url(#a)" stroke-dasharray="2" xlink:href="#Z"/>
            <g mask="url(#aa)">
                <path fill="#D7F2EE" stroke="#222633" d="M66.466 65.075v8.037c0 1.547-22.537 1.027-22.537-1.205 0-2.1.042-11.618 0-21.41-5.047-6.635-5.047-10.782-1.057-15.068 2.66-2.858 13.812-3.93 33.455-3.215.716 11.718 1.186 19.457 1.408 23.217.134 2.268 1.585 9.644-4.05 9.644h-7.219z"/>
                <path fill="#90CFBE" fill-rule="nonzero" d="M66 64.5c-5.156-.621-9.49-2.121-13-4.5 1.875 4.72 6.208 7.72 13 9v-4.5z" style="mix-blend-mode:multiply"/>
                <path fill="#90CFBE" d="M91.75 89.332C93.971 93.903 95.721 101.46 97 112H13c1.28-10.542 3.03-18.098 5.25-22.668 1.476-3.036 9.059-7.476 22.75-13.32.273-2.671.74-4.198 1.4-4.581.991-.575 24.02-.575 25.2 0 .787.383 1.254 1.909 1.4 4.579 13.694 5.851 21.277 10.292 22.75 13.322z"/>
                <path fill="#216C8A" d="M48.696 39.967c-1.128-.971-2.847-1.552-4.786-.543-4.596 2.393-1.546 11.618 3.598 11.438 1.773-.062.96 3.482-3.78 5.823 0-2.846-5.184-11.499-5.68-19.92-5.715-2.132-4.79-12.148-.866-12.148-.628-7.822 11.87-11.86 16.708-7.373 4.922-5.91 17.344-2.887 18.094 2.24 8.542-4.57 14.157 8.567 6.159 13.665-3.291 2.098-9.815 2.55-20.928 2.55-5.334 0-3.442 12.857-1.775 16.895 2.13 5.158 10.994.38 15.617.38h7.01C80.73 60.086 77.09 67 71.767 67c-9.051 0-18.928-3.926-20.941-10.315-1.065-3.38-2.13-7.114-2.13-16.718z"/>
                <path stroke="#1D202B" d="M74 55.5h3"/>
            </g>
        </g>
        <g>
            <path fill="#FBD956" d="M85.813 387.679c-15.193 0-27.51 12.316-27.51 27.508v2.492h55.018v-2.492c0-15.192-12.316-27.508-27.508-27.508z"/>
            <path fill="#FBD956" d="M116.989 410.343H54.635v7.336h62.354z"/>
            <path fill="#2F364A" d="M113.321 403.007H58.303v7.336h55.018z"/>
            <path fill="#FFF7E3" stroke="#FBD956" stroke-width="2" d="M104.986 411.177h-16.34v-3.838a7 7 0 0 1 7-7h2.34a7 7 0 0 1 7 7v3.838z"/>
            <path fill="url(#Y)" d="M55.018 22.32a5.504 5.504 0 0 1 3.668 5.189v1.834H0V0l55.018 22.007v.313z" transform="matrix(-1 0 0 1 150 381)"/>
        </g>
    </g>
</svg>
