<svg xmlns="http://www.w3.org/2000/svg" width="105" height="110" viewBox="0 0 105 110">
    <defs>
        <linearGradient id="a" x1="69.823%" x2="69.823%" y1="0%" y2="97.683%">
            <stop offset="0%" stop-color="#AAD1CC" stop-opacity="0"/>
            <stop offset="100%" stop-color="#AAD1CC"/>
        </linearGradient>
        <linearGradient id="b" x1="69.823%" x2="69.823%" y1="0%" y2="97.683%">
            <stop offset="0%" stop-color="#AAD1CC" stop-opacity="0"/>
            <stop offset="100%" stop-color="#AAD1CC"/>
        </linearGradient>
        <linearGradient id="c" x1="69.823%" x2="69.823%" y1="0%" y2="97.683%">
            <stop offset="0%" stop-color="#AAD1CC" stop-opacity="0"/>
            <stop offset="100%" stop-color="#AAD1CC"/>
        </linearGradient>
    </defs>
    <g fill="none" fill-rule="evenodd" transform="translate(-53 -40)">
        <circle cx="105" cy="105" r="105"/>
        <g transform="translate(53 40)">
            <path fill="#D7F2EE" d="M57 102h4.5l-7.5 7.5-7.5-7.5H51v-6.097c-5.122-.356-9.232-1.698-12.287-4.027-4.416-3.396-6.845-8.733-7.213-16.092h8.538c.589 4.367 1.987 7.52 4.27 9.38 1.574 1.236 3.794 2.047 6.692 2.361V68.67c-6.345-2.223-10.318-3.813-11.845-4.772-4.048-2.669-6.036-6.55-6.036-11.645 0-5.094 1.914-9.137 5.889-12.048 3.239-2.491 7.22-3.855 11.992-4.146V25.5h6v10.714c4.31.486 7.819 1.804 10.492 3.99 3.68 2.993 5.815 7.683 6.33 13.99h-8.538c-.736-3.558-2.134-6.145-4.048-7.682-1.088-.92-2.509-1.551-4.236-1.925v17.466c5.655 2.006 9.357 3.627 11.155 4.756C72.718 69.8 75 73.925 75 79.26c0 5.176-1.84 9.3-5.52 12.292-3.087 2.441-7.262 3.916-12.48 4.328V102zm-6-57.794c-2.555.134-4.551.617-6.03 1.498-2.209 1.212-3.239 3.234-3.239 5.983 0 2.426 1.178 4.448 3.68 5.903.82.48 2.692 1.272 5.589 2.342V44.206zm6 43.285c2.413-.293 4.431-.944 6.003-1.922 2.208-1.456 3.385-3.316 3.385-5.742 0-3.072-1.693-5.498-4.931-7.277-.622-.342-2.102-.949-4.457-1.803v16.744z"/>
            <path fill="url(#a)" d="M22.5 72H27l-6.75 7.5L13.5 72H18V22.5h4.5V72z"/>
            <path fill="url(#b)" d="M91.5 76.5H96L89.25 84l-6.75-7.5H87V18h4.5v58.5z"/>
            <path fill="url(#c)" d="M73.5 93H78l-6.75 7.5L64.5 93H69V0h4.5v93z"/>
            <circle cx="12.75" cy="29.25" r="2.25" fill="#FFF"/>
            <circle cx="32.25" cy="50.25" r="2.25" fill="#FFF"/>
            <circle cx="2.25" cy="80.25" r="2.25" fill="#FFF"/>
            <circle cx="87.75" cy="95.25" r="2.25" fill="#FFF"/>
            <circle cx="102.75" cy="65.25" r="2.25" fill="#FFF"/>
        </g>
    </g>
</svg>
