<svg xmlns="http://www.w3.org/2000/svg" width="120" height="120" viewBox="0 0 120 120">
    <g fill="none" fill-rule="evenodd">
        <path fill="#D7F2EE" d="M60.5 7.97v9.53h-1V7.97a4 4 0 1 1 1 0zm0 104.06a4 4 0 1 1-1 0V94.5h1v17.53zM100.18 26.938l-7.302 6.127-.643-.766 7.302-6.127a4 4 0 1 1 .642.766zm-79.717 66.89a4 4 0 1 1-.642-.766l13.43-11.269.642.766-13.43 11.269zM19.82 26.938l7.302 6.127.643-.766-7.302-6.127a4 4 0 1 0-.642.766zm79.717 66.89a4 4 0 1 0 .642-.766L86.75 81.793l-.642.766 13.43 11.269zM112.03 60.5h-9.53v-1h9.53a4 4 0 1 1 0 1zm-104.06 0a4 4 0 1 1 0-1H25.5v1H7.97z"/>
        <path fill="#90CFBE" d="M78.655 23.391l-4.178 8.567-.899-.439 4.179-8.566a4 4 0 1 1 .898.438zM42.243 98.047a4 4 0 1 1-.898-.438l4.178-8.567.899.439-4.179 8.566zM99.431 47.452l-9.012 3.103-.325-.946 9.011-3.103a4 4 0 1 1 .326.946zM20.895 74.494a4 4 0 1 1-.326-.946l9.012-3.103.325.946-9.011 3.103zM20.569 47.452l9.012 3.103.325-.946-9.011-3.103a4 4 0 1 0-.326.946zm78.536 27.042a4 4 0 1 0 .326-.946l-9.012-3.103-.325.946 9.011 3.103zM80.332 96.717l-4.765-8.254.866-.5 4.765 8.254a4 4 0 1 1-.866.5zm-41.53-71.934a4 4 0 1 1 .866-.5l4.765 8.254-.866.5-4.765-8.254z"/>
        <path stroke="#90CFBE" stroke-dasharray="1" d="M55.037 54.21L59.53 35l4.431 19.21L64 83.593 59.481 87 55 83.494l.037-29.284zM73 54.324L81 48l-1.6 3.876v20.12L73 77V54.324zm-26 0V77l-6.4-5.004v-20.12L39 48l8 6.324z"/>
    </g>
</svg>
