<svg xmlns="http://www.w3.org/2000/svg" xmlns:xlink="http://www.w3.org/1999/xlink" width="194" height="800" viewBox="0 0 194 800">
    <defs>
        <path id="b" d="M30.305 689.406c-.367-1.016-5.226-7.092-6.317-8.64-4.586-6.506-7.017-15.508-7.017-30.77v-1.708l.938 1.422c6.236 9.46 12.919 14.89 20.04 16.331V162.686H17.483l-.184-.034-7.892-3.07 7.892-3.062.184-.034h20.466v-14.97c0-4.632-1.471-6.722-8.72-11.44-.804-.524-1.758-1.042-2.998-1.642a99.59 99.59 0 0 0-1.928-.903l-1.019-.466c-.413-.19-.733-.337-1.047-.483-1.732-.803-3.066-1.466-4.371-2.19C7.92 118.87 2.68 110.784 2.644 96.244L0 92.236l.148-.274a35.868 35.868 0 0 0 2.522-5.846l.404-1.197c.164-.49.295-.91.42-1.36 1.125-4 1.708-10.185 1.708-22.058 0-2.257-.785-4-2.366-5.276l-.295-.238.139-.354c5.095-13.023 7.64-23.29 7.64-30.784h1.022v57.817c0 9.74 1.067 17.565 3.843 23.768 3.519 7.86 9.54 12.214 18.693 12.363l2.528-58.66-3.602-4.155L41.025 0 42 .072 42.975 0l8.221 55.982-3.602 4.154 2.528 58.661c9.153-.149 15.174-4.503 18.693-12.363 2.776-6.203 3.843-14.028 3.843-23.768V24.849h1.023c0 7.494 2.544 17.76 7.64 30.784l.138.354-.295.238c-1.581 1.276-2.366 3.02-2.366 5.276 0 11.873.583 18.058 1.707 22.058.126.45.257.87.42 1.36.06.18.333.98.405 1.197a35.868 35.868 0 0 0 2.522 5.846l.148.274-2.644 4.008c-.037 14.54-5.277 22.626-15.222 28.148-1.305.724-2.639 1.387-4.37 2.19-.315.146-.635.294-1.048.483l-1.019.466a99.59 99.59 0 0 0-1.928.903c-1.24.6-2.194 1.118-2.998 1.642-7.249 4.718-8.72 6.808-8.72 11.44v14.97h20.466l.184.034 7.892 3.063-7.892 3.069-.184.034H46.051v503.355c7.121-1.44 13.804-6.872 20.04-16.33l.938-1.423v1.708c0 15.262-2.43 24.264-7.017 30.77C58.92 682.315 44.004 700.007 42 700c-2.004-.007-10.818-8.167-11.695-10.594z"/>
        <filter id="a" width="314.1%" height="125.7%" x="-107.1%" y="-12.9%" filterUnits="objectBoundingBox">
            <feOffset in="SourceAlpha" result="shadowOffsetOuter1"/>
            <feGaussianBlur in="shadowOffsetOuter1" result="shadowBlurOuter1" stdDeviation="30"/>
            <feColorMatrix in="shadowBlurOuter1" values="0 0 0 0 1 0 0 0 0 0.882352941 0 0 0 0 0.501960784 0 0 0 0.5 0"/>
        </filter>
    </defs>
    <g fill="none" fill-rule="nonzero" transform="translate(55 47)">
        <use fill="#000" filter="url(#a)" xlink:href="#b"/>
        <use fill="#FFE180" xlink:href="#b"/>
    </g>
</svg>
