<svg xmlns="http://www.w3.org/2000/svg" xmlns:xlink="http://www.w3.org/1999/xlink" width="410" height="550" viewBox="0 0 410 550">
    <defs>
        <linearGradient id="c" x1="18.67%" x2="83.3%" y1="-1.816%" y2="100%">
            <stop offset="0%" stop-color="#FFC8C8" stop-opacity=".32"/>
            <stop offset="100%" stop-color="#FF9797" stop-opacity="0"/>
        </linearGradient>
        <linearGradient id="d" x1="43.87%" x2="83.3%" y1="18.8%" y2="100%">
            <stop offset="0%" stop-color="#F8574F"/>
            <stop offset="40.268%" stop-color="#FF6D58"/>
            <stop offset="100%" stop-color="#FC6455" stop-opacity="0"/>
        </linearGradient>
        <path id="b" d="M14 13c46.548 12.164 69.822 44.152 69.822 95.965C83.822 186.685 94 224 178.5 248c56.333 16 96.167 53.667 119.5 113"/>
        <filter id="a" width="113.5%" height="111%" x="-6.7%" y="-4.9%" filterUnits="objectBoundingBox">
            <feMorphology in="SourceAlpha" operator="dilate" radius="2.5" result="shadowSpreadOuter1"/>
            <feOffset dy="2" in="shadowSpreadOuter1" result="shadowOffsetOuter1"/>
            <feMorphology in="SourceAlpha" radius="2.5" result="shadowInner"/>
            <feOffset dy="2" in="shadowInner" result="shadowInner"/>
            <feComposite in="shadowOffsetOuter1" in2="shadowInner" operator="out" result="shadowOffsetOuter1"/>
            <feGaussianBlur in="shadowOffsetOuter1" result="shadowBlurOuter1" stdDeviation="5"/>
            <feColorMatrix in="shadowBlurOuter1" values="0 0 0 0 1 0 0 0 0 0.298039216 0 0 0 0 0.298039216 0 0 0 0.32 0"/>
        </filter>
        <filter id="e" width="204.5%" height="131.6%" x="-52.3%" y="-15.8%" filterUnits="objectBoundingBox">
            <feGaussianBlur in="SourceGraphic" stdDeviation="23"/>
        </filter>
        <linearGradient id="g" x1="50%" x2="50%" y1="100%" y2="0%">
            <stop offset="0%" stop-color="#4EAACF" stop-opacity="0"/>
            <stop offset="100%" stop-color="#4EAACF"/>
        </linearGradient>
        <linearGradient id="f" x1="50%" x2="50%" y1="100%" y2="0%">
            <stop offset="0%" stop-color="#4EAACF" stop-opacity="0"/>
            <stop offset="100%" stop-color="#4EAACF" stop-opacity=".16"/>
        </linearGradient>
        <path id="h" d="M61.381 19.78c16.795-.074 26.391 7.572 28.79 22.94l-16.517 3.835c-1.82 3.662-1.538 9.177.843 16.547 1.647 5.095 10.416 11.053 26.31 17.875-26.494 17.624-44.291 24.64-53.393 21.05-2.411-12.294-5.345-20.218-8.803-23.772-9.721-9.994-14.376-11.933-14.635-21.527-.173-6.397.428-11.112 1.802-14.146l-11.571 7.829c-2.82-9.974 1.25-15.007 5.864-19.5 2.943-2.865 9.781-5.987 20.514-9.364-1.067 8.285-2.69 14.623-4.866 19.013-.435.877-.32 7.115.347 18.714.475-8.517 2.36-14.415 5.654-17.694 2.847-3.92 6.868-9.707 12.063-17.362L51.73 12.593c4.067 4.801 7.284 7.197 9.651 7.187z"/>
        <path id="k" d="M160.07 346.31c-.184-.508-2.614-3.546-3.16-4.32-2.293-3.253-3.508-7.754-3.508-15.385v-.854l.469.711c3.118 4.73 6.46 7.446 10.02 8.166V82.95h-10.233l-.092-.017-3.946-1.534 3.946-1.532.092-.017h10.233v-7.485c0-2.316-.736-3.36-4.36-5.72-.402-.262-.879-.52-1.5-.82a49.796 49.796 0 0 0-.963-.452l-.51-.233-.523-.242a32.946 32.946 0 0 1-2.186-1.095c-4.972-2.76-7.592-6.804-7.61-14.074l-1.323-2.004.075-.137c.504-.93.924-1.905 1.26-2.923l.203-.598c.081-.245.147-.455.21-.68.562-2 .854-5.093.854-11.03 0-1.128-.393-2-1.184-2.637l-.147-.12.07-.176c2.547-6.512 3.819-11.645 3.819-15.392h.512V42.94c0 4.87.533 8.783 1.921 11.884 1.76 3.93 4.77 6.107 9.346 6.182l1.264-29.33-1.8-2.078 4.11-27.99.487.035.488-.036 4.11 27.991-1.8 2.077 1.263 29.331c4.577-.075 7.588-2.252 9.347-6.182 1.388-3.101 1.921-7.014 1.921-11.884V14.032h.512c0 3.747 1.272 8.88 3.82 15.392l.069.177-.148.119c-.79.638-1.183 1.51-1.183 2.638 0 5.936.292 9.029.854 11.029.063.225.129.435.21.68.03.09.167.49.202.598a17.934 17.934 0 0 0 1.261 2.923l.074.137-1.322 2.004c-.018 7.27-2.638 11.313-7.61 14.074-.653.362-1.32.694-2.186 1.095l-.524.242-.509.233c-.406.186-.692.32-.964.451-.62.3-1.097.56-1.5.821-3.624 2.36-4.36 3.404-4.36 5.72v7.485h10.234l.092.017 3.946 1.532-3.946 1.534-.092.017h-10.233v251.678c3.56-.72 6.902-3.436 10.02-8.166l.469-.71v.853c0 7.631-1.215 12.132-3.509 15.386-.545.773-8.004 9.62-9.006 9.616-1.001-.003-5.408-4.083-5.847-5.297z"/>
        <filter id="j" width="314.3%" height="125.7%" x="-107.1%" y="-12.9%" filterUnits="objectBoundingBox">
            <feOffset in="SourceAlpha" result="shadowOffsetOuter1"/>
            <feGaussianBlur in="shadowOffsetOuter1" result="shadowBlurOuter1" stdDeviation="15"/>
            <feColorMatrix in="shadowBlurOuter1" values="0 0 0 0 1 0 0 0 0 0.882352941 0 0 0 0 0.501960784 0 0 0 0.8 0"/>
        </filter>
        <linearGradient id="l" x1="50%" x2="50%" y1="0%" y2="98.541%">
            <stop offset="0%" stop-color="#F8DB5A"/>
            <stop offset="100%" stop-color="#FFD650"/>
        </linearGradient>
        <path id="m" d="M.618 9.468V5.182h5.089c1.58-.453 3.431-.714 5.41-.714 1.98 0 3.832.261 5.412.714h5.089v4.286c0 2.762-4.701 5-10.5 5-5.8 0-10.5-2.238-10.5-5z"/>
        <filter id="n" width="102.9%" height="106%" x="-1.4%" y="-3%" filterUnits="objectBoundingBox">
            <feOffset dy=".6" in="SourceAlpha" result="shadowOffsetInner1"/>
            <feComposite in="shadowOffsetInner1" in2="SourceAlpha" k2="-1" k3="1" operator="arithmetic" result="shadowInnerInner1"/>
            <feColorMatrix in="shadowInnerInner1" values="0 0 0 0 0.97254902 0 0 0 0 0.745098039 0 0 0 0 0.352941176 0 0 0 1 0"/>
        </filter>
        <linearGradient id="o" x1="50%" x2="50%" y1="0%" y2="98.541%">
            <stop offset="0%" stop-color="#F8DB5A"/>
            <stop offset="100%" stop-color="#FFD650"/>
        </linearGradient>
        <ellipse id="p" cx="10.886" cy="5.87" rx="9.5" ry="4"/>
        <filter id="q" width="103.2%" height="107.5%" x="-1.6%" y="-3.8%" filterUnits="objectBoundingBox">
            <feOffset dy=".6" in="SourceAlpha" result="shadowOffsetInner1"/>
            <feComposite in="shadowOffsetInner1" in2="SourceAlpha" k2="-1" k3="1" operator="arithmetic" result="shadowInnerInner1"/>
            <feColorMatrix in="shadowInnerInner1" values="0 0 0 0 0.97254902 0 0 0 0 0.745098039 0 0 0 0 0.352941176 0 0 0 1 0"/>
        </filter>
        <path id="s" d="M9.546 5.368l-.59-2.498 2.667 1.937 2.51 3.386-.762.677-1.342-.123-2.483-3.38zm3.872-1.062l1.249-1.227-.024.552 1.743 2.361-1.004.975-1.964-2.661zM7.73 5.84l1.964 2.662-1.87-.2L6.08 5.94l-.695-.359 2.344.258z"/>
        <filter id="r" width="104.5%" height="116.7%" x="-2.3%" y="-4.2%" filterUnits="objectBoundingBox">
            <feOffset dy=".5" in="SourceAlpha" result="shadowOffsetOuter1"/>
            <feColorMatrix in="shadowOffsetOuter1" values="0 0 0 0 0.97254902 0 0 0 0 0.745098039 0 0 0 0 0.352941176 0 0 0 1 0"/>
        </filter>
        <linearGradient id="v" x1="17.205%" x2="84.857%" y1="-1.816%" y2="100%">
            <stop offset="0%" stop-color="#FFC8C8" stop-opacity=".32"/>
            <stop offset="100%" stop-color="#FF9797" stop-opacity="0"/>
        </linearGradient>
        <linearGradient id="w" x1="50%" x2="50%" y1="1.949%" y2="96.602%">
            <stop offset="0%" stop-color="#F8574F"/>
            <stop offset="100%" stop-color="#FF6D58"/>
        </linearGradient>
        <path id="u" d="M13.588 13.956c49.97 13.058 74.954 47.397 74.954 103.019 0 83.431 10.926 123.49 101.637 149.254 54.7 15.536 94.907 50.1 120.623 103.694"/>
        <filter id="t" width="112.9%" height="110.8%" x="-6.4%" y="-4.8%" filterUnits="objectBoundingBox">
            <feMorphology in="SourceAlpha" operator="dilate" radius="2.5" result="shadowSpreadOuter1"/>
            <feOffset dy="2" in="shadowSpreadOuter1" result="shadowOffsetOuter1"/>
            <feMorphology in="SourceAlpha" radius="2.5" result="shadowInner"/>
            <feOffset dy="2" in="shadowInner" result="shadowInner"/>
            <feComposite in="shadowOffsetOuter1" in2="shadowInner" operator="out" result="shadowOffsetOuter1"/>
            <feGaussianBlur in="shadowOffsetOuter1" result="shadowBlurOuter1" stdDeviation="5"/>
            <feColorMatrix in="shadowBlurOuter1" values="0 0 0 0 1 0 0 0 0 0.298039216 0 0 0 0 0.298039216 0 0 0 0.32 0"/>
        </filter>
        <linearGradient id="z" x1="44.773%" x2="55.556%" y1="-1.816%" y2="100%">
            <stop offset="0%" stop-color="#FFC8C8" stop-opacity=".32"/>
            <stop offset="100%" stop-color="#FF9797" stop-opacity="0"/>
        </linearGradient>
        <linearGradient id="A" x1="48.977%" x2="55.556%" y1="18.8%" y2="100%">
            <stop offset="0%" stop-color="#F8574F"/>
            <stop offset="40.268%" stop-color="#FF6D58"/>
            <stop offset="100%" stop-color="#FC6455" stop-opacity="0"/>
        </linearGradient>
        <path id="y" d="M84 132.18c-1.867-.944-2.8-2.928-2.8-5.953 0-4.537 0-6.93 1.4-6.93s2.755 1.84 2.884 5.982c.086 2.76-.408 5.06-1.483 6.9z"/>
        <filter id="x" width="961.7%" height="393.4%" x="-430.8%" y="-128.1%" filterUnits="objectBoundingBox">
            <feMorphology in="SourceAlpha" operator="dilate" radius="2.5" result="shadowSpreadOuter1"/>
            <feOffset dy="2" in="shadowSpreadOuter1" result="shadowOffsetOuter1"/>
            <feMorphology in="SourceAlpha" radius="2.5" result="shadowInner"/>
            <feOffset dy="2" in="shadowInner" result="shadowInner"/>
            <feComposite in="shadowOffsetOuter1" in2="shadowInner" operator="out" result="shadowOffsetOuter1"/>
            <feGaussianBlur in="shadowOffsetOuter1" result="shadowBlurOuter1" stdDeviation="5"/>
            <feColorMatrix in="shadowBlurOuter1" values="0 0 0 0 1 0 0 0 0 0.298039216 0 0 0 0 0.298039216 0 0 0 0.32 0"/>
        </filter>
    </defs>
    <g fill="none" fill-rule="evenodd">
        <g opacity=".32">
            <g transform="scale(-1 1) rotate(77 -80.196 21.753)">
                <use fill="#000" filter="url(#a)" xlink:href="#b"/>
                <use stroke="url(#c)" stroke-width="5" xlink:href="#b"/>
                <use stroke="url(#d)" xlink:href="#b"/>
            </g>
            <path fill="#FF9797" d="M50.34 112.16c-.536-1.91-2.292-3.208-5.266-3.894-4.46-1.03-6.814-1.574-7.107-.302-.294 1.271 1.232 2.918 5.277 3.975 2.696.705 5.061.778 7.096.22zM50.635 111.606c1.5-2.45 1.802-5.135.91-8.054-1.339-4.378-2.481-5.512-3.729-5.13-1.248.38-1.91 2.525-.804 6.557.738 2.687 1.945 4.896 3.623 6.627zM50.603 112.375c.402-1.943 2.063-3.36 4.982-4.252 4.378-1.339 6.687-2.045 7.069-.797.381 1.248-1.026 2.997-4.987 4.334-2.64.89-4.995 1.13-7.064.715zM51.202 118.67c.402-1.941 2.063-3.359 4.982-4.251 4.378-1.339 6.687-2.045 7.069-.797.381 1.248-1.026 2.997-4.987 4.334-2.64.89-4.995 1.13-7.064.715zM51.801 124.967c.402-1.942 2.063-3.36 4.982-4.252 4.378-1.339 6.687-2.045 7.069-.797.381 1.248-1.026 2.997-4.987 4.334-2.64.891-4.995 1.13-7.064.715zM53.15 132.462c.402-1.942 2.062-3.36 4.981-4.251 4.379-1.34 6.688-2.045 7.07-.797.38 1.247-1.026 2.997-4.987 4.333-2.64.891-4.995 1.13-7.064.715zM54.861 139.296c.3-1.96 1.884-3.463 4.753-4.507 4.302-1.566 6.571-2.392 7.017-1.165.446 1.226-.867 3.046-4.753 4.588-2.59 1.028-4.929 1.39-7.017 1.084zM56.667 145.997c.061-1.948 1.369-3.518 3.922-4.709 3.83-1.786 5.85-2.728 6.402-1.545.552 1.182-.469 3.05-3.914 4.789-2.297 1.16-4.433 1.648-6.41 1.465zM59.44 151.768c.061-1.948 1.369-3.517 3.922-4.708 3.83-1.786 5.85-2.728 6.402-1.546.551 1.183-.47 3.05-3.914 4.79-2.297 1.16-4.433 1.647-6.41 1.464zM62.323 157.719c-.006-1.95 1.246-3.563 3.756-4.842 3.766-1.92 5.752-2.931 6.344-1.768.592 1.162-.362 3.064-3.745 4.922-2.254 1.24-4.373 1.802-6.355 1.688zM66.038 163.423c-.379-1.912.542-3.735 2.762-5.47 3.33-2.602 5.087-3.974 5.89-2.946.804 1.029.23 3.078-2.736 5.547-1.977 1.647-3.95 2.603-5.916 2.87zM70.39 168.81c-.544-1.873.215-3.77 2.275-5.69 3.091-2.883 4.722-4.403 5.611-3.449.89.954.497 3.046-2.242 5.764-1.826 1.813-3.707 2.937-5.644 3.374zM75.21 174.452c-.86-1.749-.442-3.748 1.253-5.998 2.544-3.376 3.885-5.156 4.927-4.37 1.042.785 1.018 2.913-1.207 6.066-1.484 2.102-3.141 3.536-4.973 4.302zM80.382 178.725c-.86-1.749-.443-3.748 1.253-5.999 2.543-3.375 3.884-5.155 4.926-4.37 1.043.785 1.018 2.914-1.207 6.066-1.484 2.102-3.141 3.537-4.972 4.303zM85.135 183.071c-1.038-1.65-.832-3.681.619-6.096 2.177-3.623 3.325-5.534 4.443-4.862 1.119.672 1.317 2.791-.567 6.16-1.255 2.245-2.754 3.845-4.495 4.798zM91.722 186.784c-1.359-1.397-1.58-3.428-.662-6.092 1.376-3.996 2.102-6.103 3.335-5.679 1.234.425 1.868 2.457.726 6.143-.761 2.457-1.894 4.333-3.399 5.628zM97.844 190.207c-1.519-1.222-1.985-3.21-1.4-5.966.88-4.134 1.343-6.314 2.619-6.043 1.276.271 2.153 2.21 1.47 6.008-.457 2.532-1.353 4.532-2.689 6zM104.845 193.765c-1.638-1.055-2.31-2.985-2.015-5.787.441-4.203.674-6.42 1.972-6.283 1.298.136 2.373 1.973 2.09 5.822-.19 2.565-.872 4.648-2.047 6.248zM110.466 196.09c-1.638-1.056-2.31-2.985-2.015-5.788.442-4.203.675-6.42 1.972-6.283 1.298.136 2.373 1.973 2.09 5.822-.19 2.565-.872 4.648-2.047 6.249zM118.316 198.511c-1.822-.692-2.88-2.44-3.174-5.241-.442-4.204-.675-6.42.622-6.557 1.298-.136 2.732 1.437 3.254 5.26.349 2.55.115 4.729-.702 6.538zM125.722 200.831c-1.901-.432-3.192-2.015-3.874-4.749-1.022-4.1-1.561-6.263-.295-6.579 1.266-.315 2.904 1.043 3.954 4.756.7 2.476.771 4.666.215 6.572zM132.542 202.406c-1.9-.432-3.192-2.015-3.873-4.749-1.023-4.1-1.562-6.264-.296-6.58 1.266-.315 2.905 1.043 3.955 4.757.7 2.476.771 4.666.214 6.572zM139.363 203.98c-1.9-.432-3.192-2.014-3.874-4.748-1.022-4.101-1.561-6.264-.295-6.58 1.266-.315 2.904 1.043 3.954 4.757.7 2.475.772 4.666.215 6.571zM146.141 206.049c-1.796-.756-2.793-2.539-2.99-5.35-.294-4.216-.45-6.44.852-6.53 1.301-.091 2.68 1.53 3.068 5.37.26 2.56-.05 4.73-.93 6.51zM153.936 207.848c-1.796-.755-2.793-2.538-2.99-5.349-.294-4.216-.45-6.44.852-6.53 1.301-.092 2.68 1.53 3.068 5.37.26 2.56-.05 4.73-.93 6.51zM160.757 209.423c-1.797-.756-2.793-2.539-2.99-5.35-.295-4.215-.45-6.439.851-6.53 1.302-.091 2.68 1.531 3.069 5.37.26 2.56-.05 4.73-.93 6.51zM167.353 211.972c-1.797-.756-2.794-2.539-2.99-5.35-.295-4.215-.45-6.439.85-6.53 1.303-.09 2.68 1.531 3.07 5.37.259 2.56-.051 4.73-.93 6.51zM174.173 213.546c-1.797-.755-2.793-2.538-2.99-5.349-.295-4.216-.45-6.44.852-6.53 1.301-.091 2.679 1.53 3.068 5.37.26 2.56-.05 4.73-.93 6.51zM180.037 216.176c-1.691-.968-2.463-2.86-2.316-5.673.221-4.22.338-6.447 1.641-6.379 1.303.069 2.473 1.847 2.391 5.705-.054 2.572-.626 4.688-1.716 6.347zM187.382 219.925c-1.691-.97-2.463-2.86-2.316-5.674.221-4.22.338-6.446 1.641-6.378 1.303.068 2.473 1.846 2.391 5.704-.054 2.572-.626 4.688-1.716 6.348zM194.727 223.673c-1.691-.969-2.463-2.86-2.316-5.674.221-4.22.338-6.446 1.641-6.378 1.303.068 2.473 1.846 2.391 5.705-.054 2.572-.626 4.688-1.716 6.347zM201.098 227.196c-1.692-.968-2.463-2.86-2.316-5.673.221-4.22.338-6.447 1.64-6.378 1.304.068 2.474 1.846 2.392 5.704-.055 2.572-.627 4.688-1.716 6.347zM207.243 231.694c-1.69-.969-2.463-2.86-2.315-5.674.22-4.22.338-6.446 1.64-6.378 1.304.069 2.473 1.847 2.392 5.705-.055 2.572-.627 4.688-1.717 6.347zM212.339 236.152c-1.498-1.248-1.93-3.245-1.296-5.99.951-4.118 1.452-6.29 2.724-5.996 1.271.293 2.114 2.247 1.364 6.033-.5 2.523-1.431 4.508-2.792 5.953zM218.035 242.598c-1.498-1.248-1.93-3.244-1.296-5.99.95-4.118 1.452-6.29 2.724-5.996 1.271.294 2.114 2.248 1.364 6.033-.5 2.524-1.431 4.508-2.792 5.953zM223.11 248.933c-1.36-1.398-1.58-3.428-.663-6.092 1.376-3.996 2.102-6.104 3.335-5.68 1.234.426 1.868 2.457.726 6.143-.761 2.458-1.894 4.334-3.399 5.629zM227 255.953c-1.206-1.532-1.213-3.575-.022-6.128 1.786-3.83 2.728-5.85 3.91-5.3 1.183.552 1.601 2.639.08 6.185-1.014 2.365-2.337 4.112-3.969 5.243zM230.522 262.924c-1.206-1.532-1.213-3.575-.022-6.128 1.786-3.83 2.728-5.85 3.91-5.3 1.183.552 1.602 2.639.08 6.185-1.014 2.365-2.337 4.112-3.968 5.243z"/>
            <path fill="#FF9797" d="M227 255.953c-1.206-1.532-1.213-3.575-.022-6.128 1.786-3.83 2.728-5.85 3.91-5.3 1.183.552 1.601 2.639.08 6.185-1.014 2.365-2.337 4.112-3.969 5.243zM233.128 268.383c-.86-1.748-.443-3.748 1.253-5.998 2.543-3.376 3.885-5.156 4.927-4.37 1.042.785 1.017 2.913-1.208 6.066-1.483 2.102-3.14 3.536-4.972 4.302zM235.185 275.933c-.768-1.791-.246-3.766 1.565-5.925 2.717-3.237 4.15-4.945 5.149-4.106 1 .839.864 2.963-1.523 5.995-1.592 2.021-3.322 3.367-5.191 4.036zM236.918 282.015c-.445-1.898.412-3.752 2.57-5.563 3.238-2.717 4.945-4.15 5.784-3.15.839 1 .336 3.068-2.541 5.639-1.919 1.714-3.856 2.739-5.813 3.074zM239.016 290.71c-.445-1.898.412-3.752 2.57-5.563 3.238-2.717 4.945-4.15 5.784-3.15.838 1 .336 3.067-2.541 5.639-1.919 1.714-3.856 2.739-5.813 3.074zM239.677 297.41c-.108-1.947 1.058-3.624 3.498-5.033 3.66-2.113 5.59-3.228 6.242-2.098.653 1.13-.201 3.08-3.481 5.112-2.187 1.356-4.273 2.028-6.259 2.018zM240.801 305.88c-.109-1.947 1.057-3.624 3.497-5.033 3.66-2.113 5.59-3.228 6.243-2.098.652 1.13-.202 3.08-3.482 5.112-2.187 1.355-4.273 2.028-6.258 2.018zM241.972 313.114c-.007-1.95 1.245-3.563 3.755-4.843 3.766-1.918 5.752-2.93 6.344-1.768.593 1.163-.362 3.065-3.744 4.923-2.255 1.24-4.374 1.802-6.355 1.688zM242.08 319.93c.163-1.942 1.551-3.441 4.164-4.497 3.918-1.583 5.985-2.418 6.474-1.208.488 1.21-.629 3.021-4.16 4.578-2.354 1.037-4.513 1.413-6.478 1.127zM243.429 327.425c.163-1.942 1.55-3.44 4.163-4.496 3.919-1.583 5.985-2.418 6.474-1.209.489 1.21-.628 3.022-4.16 4.578-2.354 1.038-4.513 1.414-6.477 1.127zM243.578 335.67c.163-1.942 1.55-3.44 4.163-4.496 3.919-1.584 5.985-2.419 6.474-1.209.489 1.21-.628 3.022-4.16 4.578-2.353 1.038-4.513 1.413-6.477 1.127zM245.08 343.441c.062-1.948 1.37-3.518 3.923-4.708 3.83-1.786 5.85-2.728 6.402-1.546.551 1.183-.47 3.05-3.914 4.79-2.297 1.159-4.433 1.647-6.41 1.464zM245.455 350.712c.061-1.949 1.369-3.518 3.922-4.709 3.83-1.786 5.85-2.728 6.402-1.545.551 1.182-.47 3.05-3.914 4.789-2.297 1.16-4.433 1.648-6.41 1.465zM246.803 358.207c.062-1.948 1.369-3.518 3.923-4.708 3.83-1.786 5.85-2.728 6.402-1.546.55 1.183-.47 3.05-3.915 4.79-2.296 1.159-4.433 1.647-6.41 1.464zM248.666 365.168c-.11-1.946 1.057-3.624 3.497-5.032 3.66-2.114 5.59-3.228 6.242-2.098.653 1.13-.201 3.08-3.481 5.112-2.187 1.355-4.273 2.028-6.258 2.018zM250.239 371.689c-.109-1.946 1.057-3.624 3.497-5.032 3.66-2.114 5.59-3.228 6.243-2.098.652 1.13-.202 3.08-3.482 5.112-2.187 1.355-4.273 2.028-6.258 2.018zM253.27 377.793c-.245-1.934.801-3.688 3.137-5.264 3.504-2.363 5.352-3.61 6.081-2.528.73 1.082.014 3.086-3.116 5.343-2.087 1.504-4.121 2.32-6.102 2.45zM254.618 385.289c-.244-1.934.802-3.689 3.138-5.264 3.503-2.364 5.351-3.61 6.08-2.528.73 1.081.015 3.086-3.116 5.342-2.087 1.505-4.12 2.321-6.102 2.45zM258.365 391.285c-.244-1.934.802-3.688 3.138-5.264 3.504-2.363 5.351-3.61 6.081-2.528.73 1.082.014 3.086-3.117 5.343-2.087 1.504-4.12 2.32-6.102 2.45zM262.112 397.282c-.244-1.934.802-3.689 3.138-5.264 3.504-2.364 5.351-3.61 6.081-2.528.73 1.082.014 3.086-3.117 5.342-2.087 1.505-4.12 2.321-6.102 2.45zM264.885 403.053c-.244-1.933.802-3.688 3.138-5.264 3.503-2.363 5.351-3.61 6.08-2.528.73 1.082.015 3.086-3.116 5.343-2.087 1.504-4.12 2.32-6.102 2.45zM269.738 411.21c-.799-1.777-.311-3.761 1.462-5.95 2.66-3.285 4.062-5.018 5.076-4.196 1.014.82.915 2.947-1.418 6.02-1.556 2.049-3.263 3.424-5.12 4.126zM273.485 417.207c-.798-1.778-.311-3.762 1.462-5.951 2.66-3.285 4.062-5.017 5.076-4.196 1.014.821.916 2.947-1.418 6.02-1.556 2.05-3.263 3.425-5.12 4.127zM278.26 421.953c-.846-1.72-.455-3.585 1.17-5.592 2.438-3.01 3.724-4.599 4.738-3.778 1.014.822 1.005 2.837-1.127 5.66-1.42 1.882-3.015 3.119-4.782 3.71zM282.231 426.975c-.845-1.72-.454-3.585 1.171-5.592 2.438-3.01 3.724-4.598 4.738-3.777 1.014.82 1.005 2.836-1.127 5.66-1.42 1.882-3.015 3.118-4.782 3.71zM286.953 433.197c-.845-1.721-.455-3.585 1.17-5.592 2.439-3.011 3.724-4.599 4.738-3.778 1.014.821 1.006 2.836-1.126 5.66-1.421 1.882-3.015 3.119-4.782 3.71zM293.206 438.866c-.963-1.658-.704-3.544.777-5.66 2.223-3.174 3.395-4.847 4.463-4.099 1.07.748 1.2 2.76-.729 5.724-1.286 1.977-2.79 3.322-4.511 4.035zM298.152 444.113c-.963-1.657-.704-3.544.778-5.66 2.222-3.173 3.394-4.847 4.463-4.099 1.069.749 1.2 2.76-.73 5.725-1.285 1.976-2.79 3.321-4.51 4.034zM303.324 448.386c-.963-1.658-.704-3.544.777-5.66 2.222-3.174 3.394-4.847 4.463-4.099 1.069.749 1.2 2.76-.729 5.724-1.286 1.977-2.79 3.322-4.511 4.035zM309.244 453.858c-.963-1.658-.703-3.544.778-5.66 2.222-3.173 3.394-4.847 4.463-4.099 1.069.749 1.2 2.76-.729 5.725-1.286 1.976-2.79 3.321-4.512 4.034zM314.416 458.131c-.963-1.658-.704-3.544.777-5.66 2.223-3.174 3.394-4.847 4.463-4.099 1.07.748 1.2 2.76-.729 5.724-1.286 1.977-2.79 3.322-4.511 4.035zM319.895 462.338c-.963-1.658-.703-3.544.778-5.66 2.222-3.174 3.394-4.847 4.463-4.099 1.069.749 1.2 2.76-.729 5.725-1.286 1.976-2.79 3.321-4.512 4.034zM324.794 466.708c-1.184-1.507-1.19-3.412-.018-5.713 1.759-3.452 2.687-5.272 3.85-4.68 1.162.592 1.572 2.565.074 5.77-.999 2.137-2.3 3.678-3.906 4.623zM50.223 118.25c-.86-1.788-2.814-2.761-5.862-2.92-4.572-.24-6.984-.367-7.052.936-.068 1.303 1.72 2.66 5.887 2.999 2.778.226 5.12-.113 7.027-1.015zM51.571 125.745c-.86-1.787-2.813-2.76-5.862-2.92-4.572-.24-6.983-.366-7.052.937-.068 1.303 1.72 2.66 5.887 2.998 2.778.226 5.12-.112 7.027-1.015zM53.145 132.266c-.86-1.787-2.814-2.76-5.862-2.92-4.573-.24-6.984-.366-7.052.937-.068 1.303 1.72 2.66 5.887 2.998 2.777.226 5.12-.112 7.027-1.015zM54.493 139.761c-.86-1.787-2.814-2.76-5.862-2.92-4.572-.24-6.983-.366-7.052.937-.068 1.303 1.72 2.66 5.887 2.999 2.778.226 5.12-.113 7.027-1.016zM56.067 146.283c-.86-1.788-2.814-2.761-5.862-2.92-4.573-.24-6.984-.367-7.052.936-.069 1.303 1.72 2.66 5.887 2.999 2.777.226 5.12-.113 7.027-1.015zM58.681 151.893c-1.157-1.611-3.25-2.23-6.28-1.859-4.544.558-6.941.853-6.782 2.148.159 1.295 2.156 2.32 6.318 1.93 2.775-.26 5.023-1 6.744-2.22zM61.454 157.664c-1.157-1.61-3.25-2.23-6.28-1.858-4.545.558-6.941.852-6.782 2.147.159 1.295 2.156 2.321 6.318 1.931 2.774-.26 5.022-1 6.744-2.22zM65.2 163.66c-1.156-1.61-3.25-2.23-6.28-1.857-4.544.558-6.94.852-6.781 2.147.159 1.295 2.156 2.32 6.318 1.93 2.775-.26 5.023-1 6.744-2.22zM69.881 169.314c-1.293-1.503-3.432-1.938-6.418-1.303-4.478.952-6.84 1.454-6.57 2.73.272 1.276 2.351 2.124 6.463 1.373 2.742-.501 4.917-1.434 6.525-2.8zM74.462 174.751c-1.466-1.335-3.643-1.505-6.529-.512-4.329 1.491-6.612 2.277-6.187 3.51.424 1.235 2.591 1.822 6.581.576 2.66-.831 4.705-2.022 6.135-3.574zM79.286 179.56c-1.556-1.23-3.74-1.248-6.55-.055-4.214 1.788-6.436 2.732-5.927 3.933.51 1.201 2.713 1.636 6.606.114 2.596-1.014 4.552-2.345 5.87-3.992zM84.993 183.007c-1.746-.94-3.899-.58-6.459 1.083-3.84 2.494-5.865 3.809-5.154 4.903.71 1.094 2.955 1.14 6.525-1.034 2.38-1.45 4.076-3.1 5.088-4.952zM91.5 186.772c-1.883-.623-3.94.106-6.173 2.188-3.349 3.122-5.115 4.769-4.225 5.723.89.955 3.108.61 6.247-2.151 2.092-1.842 3.475-3.762 4.15-5.76zM97.87 190.295c-1.882-.623-3.94.106-6.172 2.188-3.349 3.123-5.115 4.77-4.225 5.724.89.954 3.108.61 6.246-2.152 2.092-1.841 3.476-3.761 4.151-5.76zM104.363 194.272c-1.83-.673-3.775-.049-5.835 1.873-3.091 2.882-4.721 4.402-3.832 5.357.89.954 3.004.707 5.907-1.836 1.936-1.695 3.189-3.493 3.76-5.394zM110.404 196.188c-1.905-.412-3.744.477-5.517 2.667-2.66 3.284-4.063 5.016-3.049 5.837 1.014.822 3.073.283 5.594-2.639 1.68-1.948 2.671-3.903 2.972-5.865zM117.974 198.962c-1.905-.412-3.744.477-5.517 2.667-2.66 3.284-4.063 5.016-3.049 5.837 1.014.821 3.073.283 5.594-2.639 1.68-1.948 2.671-3.903 2.972-5.865zM125.298 200.34c-1.937-.21-3.673.867-5.208 3.23-2.302 3.544-3.516 5.413-2.422 6.124 1.095.71 3.086-.04 5.288-3.21 1.468-2.112 2.248-4.16 2.342-6.143zM132.119 201.915c-1.938-.21-3.674.866-5.208 3.23-2.302 3.544-3.516 5.413-2.422 6.124 1.094.71 3.086-.04 5.287-3.21 1.468-2.113 2.249-4.16 2.343-6.144zM139.402 203.346c-1.95-.007-3.563 1.245-4.842 3.755-1.92 3.766-2.931 5.752-1.769 6.344 1.163.593 3.065-.362 4.923-3.744 1.24-2.255 1.802-4.373 1.688-6.355zM145.998 205.895c-1.95-.007-3.564 1.245-4.843 3.755-1.919 3.766-2.93 5.752-1.768 6.344 1.163.593 3.065-.362 4.923-3.744 1.239-2.255 1.801-4.373 1.688-6.355zM153.793 207.694c-1.95-.006-3.564 1.245-4.843 3.756-1.919 3.766-2.93 5.752-1.768 6.344 1.163.592 3.065-.363 4.923-3.745 1.239-2.254 1.801-4.373 1.688-6.355zM160.388 210.243c-1.949-.006-3.563 1.245-4.842 3.756-1.919 3.766-2.93 5.752-1.768 6.344 1.162.592 3.064-.363 4.923-3.745 1.238-2.254 1.801-4.373 1.687-6.355zM167.12 211.762c-1.95.027-3.541 1.307-4.776 3.84-1.853 3.798-2.83 5.801-1.657 6.373 1.172.572 3.057-.416 4.856-3.83 1.2-2.276 1.725-4.404 1.577-6.383zM173.715 214.31c-1.948.028-3.54 1.308-4.776 3.84-1.852 3.799-2.83 5.802-1.657 6.374 1.173.572 3.058-.416 4.857-3.83 1.2-2.276 1.725-4.404 1.576-6.383zM180.311 216.86c-1.949.027-3.54 1.307-4.776 3.84-1.853 3.798-2.83 5.801-1.657 6.373 1.173.572 3.058-.416 4.857-3.83 1.199-2.276 1.724-4.404 1.576-6.383zM187.257 219.643c-1.947-.109-3.624 1.057-5.033 3.497-2.113 3.66-3.227 5.59-2.097 6.243 1.13.652 3.079-.202 5.112-3.482 1.355-2.187 2.027-4.273 2.018-6.258zM193.878 223.358c-1.937-.21-3.674.866-5.208 3.229-2.302 3.544-3.516 5.413-2.422 6.124 1.095.71 3.086-.04 5.288-3.21 1.468-2.112 2.248-4.16 2.342-6.143zM200.25 226.881c-1.939-.21-3.675.866-5.21 3.229-2.301 3.544-3.515 5.414-2.42 6.124 1.093.711 3.085-.04 5.286-3.21 1.468-2.112 2.25-4.16 2.343-6.143zM205.891 231.575c-1.905-.412-3.744.477-5.517 2.666-2.66 3.285-4.063 5.017-3.049 5.838 1.014.821 3.073.283 5.594-2.639 1.68-1.948 2.671-3.903 2.972-5.865zM211.136 235.922c-1.897-.445-3.752.412-5.563 2.57-2.716 3.238-4.15 4.945-3.15 5.784 1 .839 3.068.336 5.64-2.541 1.714-1.918 2.738-3.856 3.073-5.813zM216.918 242.25c-1.75-.86-3.749-.443-5.999 1.253-3.375 2.543-5.155 3.885-4.37 4.927.785 1.042 2.913 1.017 6.066-1.208 2.102-1.484 3.536-3.14 4.303-4.972zM221.64 248.471c-1.75-.86-3.75-.442-6 1.253-3.375 2.544-5.155 3.885-4.37 4.927.786 1.042 2.914 1.018 6.067-1.207 2.102-1.484 3.536-3.141 4.302-4.973zM225.386 254.468c-1.749-.86-3.748-.443-5.998 1.253-3.376 2.543-5.156 3.885-4.37 4.927.785 1.042 2.913 1.017 6.066-1.208 2.102-1.483 3.536-3.14 4.302-4.972zM229.133 260.465c-1.748-.86-3.748-.443-5.998 1.252-3.376 2.544-5.156 3.885-4.37 4.927.785 1.042 2.913 1.018 6.066-1.207 2.102-1.484 3.536-3.141 4.302-4.972zM231.681 267.21c-1.749-.86-3.748-.442-5.998 1.253-3.376 2.544-5.156 3.885-4.37 4.927.785 1.042 2.913 1.018 6.066-1.207 2.101-1.484 3.536-3.141 4.302-4.972zM234.482 274.418c-1.668-1.01-3.696-.768-6.085.725-3.585 2.24-5.475 3.421-4.783 4.528.691 1.106 2.813 1.267 6.148-.675 2.223-1.294 3.796-2.82 4.72-4.578z"/>
            <path fill="#FF9797" d="M237.03 281.164c-1.668-1.01-3.696-.768-6.086.725-3.584 2.24-5.474 3.421-4.783 4.528.692 1.106 2.814 1.267 6.149-.675 2.223-1.294 3.796-2.82 4.72-4.578zM238.441 289.037c-1.605-1.048-3.503-.888-5.693.48-3.286 2.053-5.018 3.136-4.327 4.243.692 1.106 2.693 1.343 5.755-.429 2.041-1.18 3.463-2.612 4.265-4.294zM239.79 296.532c-1.606-1.048-3.503-.888-5.694.48-3.285 2.054-5.018 3.137-4.326 4.243.691 1.107 2.692 1.343 5.754-.428 2.042-1.181 3.463-2.613 4.266-4.295zM240.504 304.705c-1.399-1.31-3.295-1.483-5.69-.515-3.592 1.451-5.486 2.217-4.998 3.426.49 1.21 2.419 1.79 5.742.578 2.215-.809 3.864-1.972 4.946-3.489zM240.878 311.976c-1.398-1.311-3.295-1.483-5.69-.516-3.592 1.452-5.486 2.217-4.998 3.427.49 1.21 2.419 1.79 5.742.577 2.216-.808 3.864-1.971 4.946-3.488zM241.252 319.246c-1.398-1.31-3.295-1.483-5.69-.515-3.592 1.451-5.486 2.217-4.997 3.426.488 1.21 2.418 1.79 5.741.578 2.216-.809 3.864-1.972 4.946-3.489zM242.6 326.742c-1.398-1.311-3.295-1.483-5.69-.516-3.591 1.452-5.486 2.217-4.997 3.427.489 1.21 2.418 1.79 5.742.577 2.215-.808 3.864-1.971 4.946-3.488zM242.75 334.987c-1.399-1.311-3.296-1.483-5.69-.516-3.592 1.451-5.487 2.217-4.998 3.427.489 1.21 2.418 1.79 5.742.577 2.215-.808 3.864-1.971 4.946-3.488zM244.098 342.482c-1.398-1.311-3.295-1.483-5.69-.515-3.592 1.45-5.486 2.216-4.997 3.426.488 1.21 2.418 1.79 5.741.578 2.216-.81 3.864-1.972 4.946-3.489zM245.447 349.978c-1.399-1.312-3.296-1.483-5.69-.516-3.592 1.451-5.487 2.217-4.998 3.427.489 1.21 2.418 1.79 5.742.577 2.215-.809 3.864-1.971 4.946-3.488zM246.905 357.943c-1.279-1.428-3.153-1.765-5.623-1.01-3.705 1.133-5.659 1.73-5.278 2.978.382 1.248 2.253 1.995 5.67 1.076 2.277-.612 4.021-1.627 5.231-3.044zM248.479 364.464c-1.28-1.428-3.154-1.764-5.624-1.01-3.705 1.133-5.659 1.73-5.277 2.978.381 1.248 2.253 1.995 5.67 1.076 2.277-.612 4.02-1.627 5.23-3.044zM250.12 371.463c-1.149-1.534-2.987-2.033-5.513-1.496-3.79.806-5.788 1.23-5.517 2.507.271 1.276 2.07 2.183 5.554 1.566 2.322-.412 4.148-1.27 5.477-2.577zM252.669 378.21c-1.15-1.535-2.988-2.034-5.515-1.497-3.79.806-5.788 1.23-5.516 2.507.27 1.276 2.07 2.183 5.554 1.566 2.322-.412 4.148-1.27 5.477-2.577zM255.216 384.955c-1.15-1.534-2.988-2.033-5.514-1.496-3.79.806-5.788 1.23-5.517 2.507.272 1.276 2.071 2.183 5.554 1.566 2.323-.412 4.148-1.27 5.477-2.577zM257.764 391.701c-1.15-1.534-2.988-2.033-5.514-1.496-3.79.806-5.788 1.23-5.517 2.507.271 1.276 2.07 2.183 5.554 1.566 2.323-.412 4.148-1.27 5.477-2.577zM261.511 397.698c-1.15-1.534-2.988-2.033-5.514-1.496-3.79.805-5.788 1.23-5.517 2.507.272 1.276 2.07 2.183 5.554 1.565 2.323-.411 4.148-1.27 5.477-2.576zM264.059 404.444c-1.15-1.534-2.988-2.033-5.514-1.496-3.79.805-5.788 1.23-5.517 2.507.271 1.276 2.07 2.183 5.554 1.565 2.322-.411 4.148-1.27 5.477-2.576zM268.78 410.665c-1.15-1.534-2.987-2.032-5.514-1.495-3.79.805-5.788 1.23-5.516 2.506.27 1.276 2.07 2.183 5.554 1.566 2.322-.412 4.148-1.27 5.476-2.577zM272.528 416.662c-1.15-1.534-2.988-2.033-5.515-1.496-3.79.806-5.788 1.23-5.516 2.507.27 1.276 2.07 2.183 5.554 1.565 2.322-.411 4.148-1.27 5.477-2.576zM277.249 422.884c-1.15-1.535-2.988-2.033-5.514-1.496-3.79.805-5.788 1.23-5.517 2.506.271 1.277 2.07 2.183 5.554 1.566 2.322-.412 4.148-1.27 5.477-2.576zM281.221 427.906c-1.15-1.534-2.988-2.033-5.514-1.496-3.79.805-5.788 1.23-5.517 2.507.271 1.276 2.07 2.183 5.554 1.565 2.322-.411 4.148-1.27 5.477-2.576zM286.917 434.352c-1.15-1.534-2.988-2.033-5.514-1.496-3.79.806-5.788 1.23-5.517 2.507.271 1.276 2.07 2.183 5.554 1.566 2.322-.412 4.148-1.27 5.477-2.577zM292.838 439.824c-1.15-1.534-2.988-2.032-5.514-1.495-3.79.805-5.789 1.23-5.517 2.506.271 1.276 2.07 2.183 5.554 1.566 2.322-.412 4.148-1.27 5.477-2.577zM297.732 444.689c-1.254-1.45-3.122-1.82-5.605-1.108-3.724 1.068-5.688 1.631-5.328 2.886.36 1.254 2.218 2.033 5.65 1.174 2.288-.573 4.049-1.557 5.283-2.952zM303.575 449.783c-1.352-1.36-3.242-1.597-5.669-.714-3.64 1.325-5.56 2.024-5.114 3.25.446 1.226 2.355 1.874 5.718.777 2.243-.73 3.93-1.835 5.065-3.313zM308.417 454.658c-1.443-1.262-3.345-1.367-5.704-.317-3.54 1.576-5.406 2.407-4.876 3.6.531 1.191 2.48 1.704 5.759.376 2.186-.886 3.793-2.105 4.821-3.659zM314.563 459.156c-1.444-1.262-3.345-1.367-5.705-.317-3.539 1.576-5.406 2.407-4.875 3.599.53 1.192 2.48 1.705 5.758.377 2.186-.886 3.794-2.105 4.822-3.66zM319.49 462.799c-1.586-1.077-3.487-.95-5.7.38-3.321 1.996-5.073 3.048-4.4 4.167.671 1.118 2.668 1.39 5.76-.328 2.062-1.145 3.509-2.552 4.34-4.22zM325.86 466.322c-1.586-1.076-3.486-.95-5.7.38-3.32 1.996-5.072 3.049-4.4 4.167.672 1.118 2.669 1.39 5.761-.328 2.062-1.145 3.509-2.552 4.34-4.22z"/>
        </g>
        <g opacity=".32" transform="translate(78.437 57)">
            <rect width="132" height="437" x=".872" y=".269" fill="#4EAACF" filter="url(#e)" rx="60"/>
            <path fill="url(#g)" stroke="url(#f)" stroke-width="12" d="M67.372 38.269c19.607 0 35.5 15.894 35.5 35.5v325.5h-71v-325.5c0-19.606 15.894-35.5 35.5-35.5z"/>
        </g>
        <g transform="matrix(-1 0 0 1 328.437 131)">
            <path fill="#D7F2EE" stroke="#222633" stroke-linejoin="round" d="M257.34 293.034c4.906.713 12.584.35 23.035-1.088 21.355 2.015 32.782 3.1 34.281 3.255 2.249.234 2.43 2.011 3.633 2.827 1.202.816 3.497-.355 2.588-2.8-.607-1.63-1.686-2.707-3.239-3.231-1.054-4.641-4.552-6.909-10.493-6.803-8.911.159-7.934-6.527-11.856-8.8-3.922-2.274-9.502.875-12.532 4.089-2.02 2.142-9.935 1.797-23.747-1.035"/>
            <path fill="#90CFBE" d="M175.596 204.514l-28.385 1.502c10.428 52.007 17.902 82.432 22.419 91.274 4.517 8.842 11.79 10.777 21.817 5.806 12.192-3.895 23.985-6.3 35.378-7.219 11.393-.918 28.36-1.587 50.903-2.006l-1.424-14.96c-22.44-2.503-39.591-3.379-51.453-2.626-11.862.752-22.735 3.403-32.619 7.955-4.228-12.308-6.348-20.084-6.36-23.328-.04-11.989 9.03-22.25 6.36-34.352-1.78-8.069-7.325-15.417-16.636-22.046z"/>
            <path fill="#D7F2EE" stroke="#222633" stroke-linejoin="round" d="M243.653 327.008c4.395 3.593 12.147 7.766 23.253 12.519 19.774 14.573 30.351 22.377 31.73 23.414 2.07 1.556 1.2 3.407 1.899 4.917.699 1.51 3.643 1.715 4.192-1.222.366-1.958-.059-3.651-1.273-5.081 1.701-5.178-.394-9.467-6.288-12.867-8.84-5.1-3.938-11.086-6.447-15.631-2.51-4.546-9.844-4.745-14.714-3.377-3.246.911-10.812-4.096-22.7-15.022"/>
            <path fill="#90CFBE" d="M171.343 201.327L136.5 202c-.826 14.5-.826 24.246 0 29.238 1.238 7.488 6.504 14.761 6.5 22.326 0 3.667-.376 12.979-1.128 27.936-.751 14.957 5.915 23.65 20 26.077 27.268 3.868 47.562 7.987 60.883 12.358 13.322 4.37 27.902 11.059 43.74 20.065l6.28-13.238c-29.778-27.501-59.376-40.065-88.793-37.691-2.101-9.29-2.992-17.082-2.671-23.376.48-9.44 5.216-17.978 4.242-23.87-1.706-10.314-6.443-23.813-14.21-40.498z"/>
            <path fill="#222633" d="M211.025 127.39c1.966.31 3.976.486 6.003.515l-.362-.102c-2.2-.616-10.528-2.807-12.305-3.323-2.49-.723-4.67-1.525-6.579-2.418 1.658.931 3.545 1.824 5.7 2.674 2.707 1.069 5.2 1.92 7.543 2.653zm5.048 1.491c9.638 2.735 17.313 4.61 28.985 14.499.16.135.318.27.475.405-2.394-2.978-4.843-5.477-7.38-7.57a53.179 53.179 0 0 0-1.207-.966 88.036 88.036 0 0 0-5.363-2.422c-3.558-1.47-7.24-2.75-11.372-3.994a42.984 42.984 0 0 1-4.139.048zm5.697-1.176a171.914 171.914 0 0 0-5.308-1.591c-10.422-2.967-14.694-4.527-20.721-8.187-4.309-2.615-6.934-5.952-9.023-10.82.896 3.576 1.838 5.74 3.48 7.929 2.748 3.658 7.238 6.392 14.441 8.484 1.762.512 10.085 2.7 12.297 3.32 1.166.328 2.294.654 3.392.984.48-.031.961-.07 1.442-.119zm2.208.735a28.16 28.16 0 0 0-.408.055c-.249.035-.498.068-.747.099a115.427 115.427 0 0 1 9.021 3.26c-2.305-1.281-4.808-2.353-7.866-3.414zm39.975 42.8c-.073.753-.367 1.194-.869 1.26-10.614 3.759-17.728 6.222-21.344 7.39-3.95-11.69-10.169-19.463-10.192-18.39-.023 1.073 4.452 5.117 8.793 19.117-1.833.816-2.524.455-2.55.353-1.86-7.076-3.726-12.125-5.595-15.146l4.819 15.627c-.417.106-2.888.516-7.413 1.232L227.949 173c-.187 3.77-.423 7.262-.709 10.476-20.272 4.773-36.637 6.135-47.753 2.872-26.767-7.857-37.39-48.003-38.433-50.962-.107 1.995.886 4.078 2.979 6.251l-3.3-.267c-7.065-14.683-3.516-20.704-2.715-24.215-3.475 6.85-2.879 14.883 1.824 24.137l-1.104-.346c-5.19-10.212-5.235-18.279-.645-25.772-10.198-20.257 7.279-30.391 16.09-31.232 8.81-.841 4.43 1.8 11.98 1.058 2.84-.279 6.42.762 9.653 2.908 3.954 1.451 6.108 3.873 8.101 8.623.375.803.702 1.65.979 2.54.183.51.366 1.044.552 1.6.072.212.318.95.325.973.13.39.23.689.33.98.251.74.47 1.367.69 1.965 2.168 5.882 4.768 9.631 9.466 12.484 5.929 3.599 10.138 5.135 20.477 8.08 2.792.794 5.204 1.528 7.35 2.266 10.587-1.255 19.773 3.6 29.279 13.739 4.016 4.284 6.586 9.114 8.278 15.386 2.08 3.986 3.6 8.386 4.529 13.25.103.54.174 1.015.299 1.952l.025.188-.992.132-.025-.188c-.122-.919-.19-1.38-.29-1.897a48.762 48.762 0 0 0-2.47-8.65c.487 2.616.87 5.463 1.18 8.586.034.243.056.47.066.682l.033.355a.552.552 0 0 1-.045.286zm-1.657-6.305c-.42-2.934-.94-5.589-1.59-8.02-4.258-8.106-10.898-14.46-19.667-19.489 2.9 2.723 5.691 6.01 8.419 9.968 6.56 6.45 10.727 12.827 12.838 17.54zm-2.969-12.315c-1.588-4.165-3.74-7.63-6.692-10.778-8.646-9.223-16.947-13.942-26.268-13.598 4.385 1.672 7.663 3.483 11.113 6.153 9.427 4.669 16.798 10.604 21.847 18.223zm-73.968-46.916c-.162-.725-.325-1.5-.493-2.334l-.356-1.77c-.154-.761-.34-1.493-.558-2.196.482 2.12.884 4.229 1.407 6.3zm-47.653 5.58c-.807-4.178-1.2-9.499-.02-12.489-1.66 2.957-2.072 6.276.02 12.489z"/>
            <path fill="#D7F2EE" stroke="#222633" stroke-linecap="round" stroke-linejoin="round" d="M121.36 139.896c-1.619 3.43-2.428 9.312-2.428 17.645s-.33 16.328-.99 23.985l-37.17 1.525c-.18-2.107-1.09-3.817-2.728-5.13-1.638-1.315-2.68-2.548-3.123-3.701-1.28 1.624-1.16 3.419.364 5.383 1.304 1.682-1.51-.163-4.263-1.786-2.069-1.22-3.855-5.182-4.305-.669-.3 3.009 4.239 6.945 13.616 11.808 8.98.994 44.484 11.845 48.573 7.937 2.581-2.468 4.608-11.852 6.026-20.387 1.146-6.896 1.98-20.074 2.5-39.535"/>
            <g transform="translate(99 112)">
                <mask id="i" fill="#fff">
                    <use xlink:href="#h"/>
                </mask>
                <use fill="#222633" transform="rotate(20 57.042 57.766)" xlink:href="#h"/>
                <circle cx="37.5" cy="52.5" r="22" stroke="#D7F2EE" mask="url(#i)"/>
                <circle cx="65.5" cy="10.5" r="22" stroke="#D7F2EE" mask="url(#i)"/>
                <circle cx="91.5" cy="38.5" r="22" stroke="#D7F2EE" mask="url(#i)"/>
                <circle cx="37.5" cy="104.148" r="22" stroke="#D7F2EE" mask="url(#i)"/>
                <circle cx="62.5" cy="79.5" r="22" stroke="#D7F2EE" mask="url(#i)"/>
                <circle cx="53" cy="55" r="11.5" stroke="#D7F2EE" mask="url(#i)"/>
                <circle cx="35" cy="78" r="11.5" stroke="#D7F2EE" mask="url(#i)"/>
                <circle cx="81" cy="49" r="11.5" stroke="#D7F2EE" mask="url(#i)"/>
                <circle cx="97" cy="41" r="11.5" stroke="#D7F2EE" mask="url(#i)"/>
                <circle cx="26.579" cy="33" r="11.5" stroke="#D7F2EE" mask="url(#i)"/>
                <circle cx="78.5" cy="82" r="16" stroke="#D7F2EE" mask="url(#i)"/>
                <circle cx="28.579" cy="11" r="11.5" stroke="#D7F2EE" mask="url(#i)"/>
            </g>
            <path fill="#D7F2EE" stroke="#222633" stroke-linejoin="round" d="M143.38 104.856c-.586 5.096-.586 10.544 0 16.344.406 4.006 2.655 6.703 9.62 6.268V130l-8.636 14.09c-1.744.69-3.157 2.373-4.238 5.05-1.082 2.677-2.378 7.696-3.889 15.058 4.548-9.946 9.161-15.445 13.842-16.496 4.43-3.34 9.43-6.707 15-10.098L167 126l1.5-8c2.9-.941 4.567-2.608 5-5 .83-4.587-6.129-6.412-7.5-1.5-4.402-2.304-6.402-6.804-6-13.5-2.925 4.067-8.465 6.352-16.62 6.856z"/>
            <path stroke="#222633" stroke-linecap="round" stroke-linejoin="round" d="M147.91 120.265c.59.735 1.797.51 2-.458"/>
            <path stroke="#222633" stroke-linecap="round" d="M150.717 109.346c1.431-.915 4.758-1.287 7.044.616"/>
            <path stroke="#222633" stroke-linecap="round" stroke-linejoin="round" d="M143.32 108.015c1.957-.467 3.35.194 4.18 1.985.057 3.229-.374 5.229-1.293 6-.92.771-.488 1.305 1.293 1.6"/>
            <path fill="#222633" d="M153.03 113.16a1 1 0 0 0 1-1c0-.083-.022-.2-.064-.353a1.465 1.465 0 0 0-.145-.258 1 1 0 1 0-.792 1.61z"/>
            <circle cx="144.029" cy="111.159" r="1" fill="#222633"/>
            <path stroke="#222633" stroke-linecap="round" d="M170.5 111c-1.333-.333-2.167.333-2.5 2"/>
            <path stroke="#FFE180" d="M169.32 114.969c-.677.322-1.048.86-1.115 1.617-.418 4.787.189 6.582 1.387 6.409 2.465-.356.446-5.105.063-6.282"/>
            <path stroke="#222633" stroke-linecap="round" d="M187 254.392c-1.418 6.804-3.432 18.5-6.042 35.086 16.326-.74 28.673.564 37.042 3.915"/>
            <path fill="#D7F2EE" stroke="#222633" stroke-linecap="round" stroke-linejoin="round" d="M82.052 189.227c-3.704-.614-5.97-1.036-6.798-1.267-3.962-1.101-5.605-1.816-7.13-3.859-2.479-3.32-2.365-5.875-2.306-6.96.04-.725 1.562-2.174 4.567-4.346.593 1.233-.063 2.485-1.968 3.756-.79.673-.522 2.135.803 4.387 2.248 1.54 3.895 2.363 4.942 2.471"/>
            <path stroke="#222633" stroke-linecap="round" stroke-linejoin="round" d="M73.984 181.855l-5.154-2.976M67.445 174.295l.24-1.846a282.908 282.908 0 0 0-2.818 2.294c-.579.481-.665 2.5-.259 6.058l4.199 4.009"/>
            <g fill-rule="nonzero" transform="rotate(5 165.916 176.607)">
                <use fill="#000" filter="url(#j)" xlink:href="#k"/>
                <use fill="#FFE180" xlink:href="#k"/>
            </g>
            <path fill="#D7F2EE" stroke="#222633" d="M173.209 164.132l17.508 2.676c2.184 20.175 1.845 33.783-1.017 40.824-4.295 10.563-4.58 11.882-17.459 2.574-12.879-9.307-8.01-38.181-11.112-52.555-1.151-5.332-2.497-11.71-1.536-15.857.512-2.21 1.598-3.232 3.513-4.915 1.277-1.122 2.537-1.272 3.78-.45-.21 1.542.168 2.863 1.135 3.963 1.332 1.516 1.799.116 3.397-3.116 1.598-3.232 6.826-3.783 5.263-1.884-2.714 3.3-1.939 7.236-3.294 12.295l-2.196 8.196 9.267 34.693"/>
        </g>
        <g transform="rotate(-30 653.007 -292.177)">
            <ellipse cx="11.484" cy="10.834" fill="#FFE180" rx="10.5" ry="5" style="mix-blend-mode:multiply"/>
            <use fill="url(#l)" xlink:href="#m"/>
            <use fill="#000" filter="url(#n)" xlink:href="#m"/>
            <ellipse cx="10.886" cy="5.87" fill="#FFF5D6" rx="10.5" ry="5"/>
            <use fill="url(#o)" xlink:href="#p"/>
            <use fill="#000" filter="url(#q)" xlink:href="#p"/>
            <g>
                <use fill="#000" filter="url(#r)" xlink:href="#s"/>
                <use fill="#FFF5D6" xlink:href="#s"/>
            </g>
        </g>
        <path fill="#FFF" d="M300.876 202.467l21.45-17.998c-.538-7.382 4.974-5.48 16.536 5.706l-15.704 13.177c-6.93-4.629-14.357-4.924-22.282-.885z"/>
        <path fill="#FFE180" d="M322.219 183.253c1.083-1.446 3.023-1.226 5.818.66a48.857 48.857 0 0 1 7.624 6.336l-11.874 9.964c-6.715-4.374-11.926-5.658-15.633-3.852l14.171-11.892-.106-1.216z"/>
        <path fill="#D7F2EE" d="M322.858 190.549c2.695 1.655 3.515 4.448 2.461 8.378l-1.532 1.286c-6.715-4.374-11.926-5.658-15.633-3.852l6.894-5.786c2.512-1.673 5.116-1.681 7.81-.026z"/>
        <path fill="#90CFBE" d="M330.287 189.949l.352 2.704-3.296.248-.352-2.704zM322.325 184.469l-21.449 17.998c.42-2.093 1.16-3.802 2.223-5.129l19.759-16.58c-.66.555-.838 1.791-.533 3.711z"/>
        <g transform="translate(242.565 190.842)">
            <path fill="#FFF" d="M0 0c0 12.88 1.714 26.6 5.143 41.16C21.714 41.945 34 40.825 42 37.8L36 5.88C21.143 5.32 9.143 3.36 0 0z"/>
            <path fill="#D7F2EE" d="M5.143 5.04c0 9.744 1.294 19.004 3.883 27.779 12.513.594 21.79-.254 27.831-2.542l-4.53-20.789c-11.22-.423-20.28-1.906-27.184-4.448z"/>
            <path fill="#FFE180" d="M9.026 32.819c12.513.594 21.79-.254 27.831-2.542L33.43 14.28c-7.097 1.189-12.81 3.429-17.143 6.72s-6.752 7.231-7.26 11.819z"/>
            <ellipse cx="12.857" cy="14.28" fill="#216C8A" rx="2.571" ry="2.52"/>
        </g>
        <g>
            <path fill="#FFF" d="M300.565 225.621l31.514-5.557 6.946 39.393-32.286 1.18z"/>
            <path fill="#216C8A" d="M304.932 229.127l24.314-3.861 4.314 24.465-24.678 1.794z"/>
            <path fill="#90CFBE" d="M330.27 231.072l3.29 18.66-24.671 1.832c-.285-4.424 1.328-6.678 4.951-8.43 1.388-.673 7.099 1.6 10.26-1.953 3.16-3.552-.039-8.858 6.17-10.11z"/>
            <path fill="#FFE180" d="M317.334 239.002l-4.168-4.332c-1.097.768-1.061 2.353.079 3.538 1.14 1.185 2.97 1.54 4.089.794z"/>
        </g>
        <path stroke="#222633" stroke-linecap="round" d="M187.437 352c-1.291 6.885-2.625 11.875-4 14.97M178.527 351.738c4.054 11.613 6.19 21.515 6.41 29.705"/>
        <g>
            <g transform="rotate(-16 699.903 110.575)">
                <use fill="#000" filter="url(#t)" xlink:href="#u"/>
                <use stroke="url(#v)" stroke-width="5" xlink:href="#u"/>
                <use stroke="url(#w)" xlink:href="#u"/>
            </g>
            <path fill="#FF9797" d="M14.172 206.692c-2.077-.468-3.567-2.276-4.47-5.426-1.355-4.725-2.07-7.217-.723-7.603 1.346-.386 3.197 1.157 4.558 5.434.907 2.85 1.119 5.382.635 7.595zM14.502 207.362c-2.12-.197-4.096 1.063-5.928 3.78-2.749 4.074-4.198 6.223-3.037 7.006 1.161.783 3.399-.112 6.014-3.759 1.744-2.431 2.727-4.773 2.951-7.027z"/>
            <path fill="#FF9797" d="M14.163 206.578c-2.32-2.06-5.098-2.833-8.335-2.32-4.854.769-5.887 1.737-5.668 3.12.22 1.383 2.4 2.409 6.85 1.835 2.968-.383 5.352-1.261 7.153-2.635zM21.2 207.25c-2.059.54-3.485 2.4-4.278 5.58-1.189 4.769-1.816 7.284-.457 7.623 1.36.339 3.155-1.268 4.366-5.59.807-2.88.93-5.418.37-7.612zM27.984 207.539c-2.06.54-3.486 2.4-4.278 5.58-1.19 4.768-1.816 7.283-.457 7.622 1.359.339 3.155-1.268 4.365-5.59.807-2.88.93-5.418.37-7.612zM36.095 208.563c-2.06.54-3.485 2.4-4.278 5.58-1.19 4.769-1.816 7.284-.457 7.623 1.359.339 3.155-1.268 4.365-5.59.807-2.88.93-5.418.37-7.613zM43.517 210.014c-2.085.432-3.606 2.214-4.564 5.348-1.437 4.7-2.195 7.18-.856 7.589 1.34.41 3.218-1.101 4.653-5.353.956-2.835 1.212-5.363.767-7.584zM50.802 211.574c-2.085.175-3.694 1.665-4.827 4.469-1.7 4.207-2.596 6.425-1.297 6.95 1.298.525 3.243-.674 4.914-4.465 1.114-2.527 1.517-4.845 1.21-6.954zM57.145 214.222c-2.085.175-3.694 1.665-4.827 4.47-1.7 4.206-2.596 6.424-1.297 6.95 1.299.524 3.243-.675 4.914-4.466 1.114-2.527 1.517-4.845 1.21-6.954zM63.686 216.979c-2.09.102-3.75 1.535-4.98 4.298-1.845 4.145-2.818 6.33-1.539 6.9 1.28.57 3.265-.56 5.067-4.29 1.202-2.487 1.686-4.79 1.452-6.908zM70.01 220.64c-2.07-.298-3.973.791-5.708 3.27-2.603 3.716-3.975 5.676-2.828 6.479 1.148.803 3.312.073 5.793-3.245 1.654-2.212 2.568-4.38 2.744-6.504zM76.029 225.003c-2.037-.477-4.028.442-5.972 2.76-2.917 3.475-4.455 5.308-3.382 6.208 1.073.9 3.293.361 6.054-2.728 1.84-2.059 2.94-4.139 3.3-6.24zM82.35 229.854c-1.924-.824-4.044-.264-6.361 1.68-3.476 2.916-5.309 4.454-4.408 5.527.9 1.073 3.18.928 6.435-1.635 2.17-1.708 3.614-3.566 4.333-5.572zM87.22 235.158c-1.923-.824-4.043-.264-6.36 1.68-3.476 2.916-5.309 4.454-4.408 5.527.9 1.073 3.18.927 6.435-1.635 2.17-1.709 3.614-3.566 4.333-5.572zM92.147 240.01c-1.827-1.021-3.994-.686-6.502 1.005-3.76 2.537-5.745 3.875-4.961 5.037.783 1.16 3.066 1.254 6.57-.954 2.337-1.472 3.968-3.169 4.893-5.089zM96.497 246.862c-1.574-1.378-3.764-1.5-6.568-.367-4.207 1.7-6.425 2.596-5.9 3.894.524 1.299 2.738 1.865 6.625.433 2.592-.954 4.54-2.274 5.843-3.96zM100.51 253.233c-1.395-1.56-3.553-1.948-6.474-1.165-4.383 1.174-6.694 1.793-6.331 3.146.362 1.353 2.49 2.185 6.523 1.238 2.689-.632 4.783-1.704 6.282-3.219zM104.718 260.538c-1.224-1.697-3.33-2.308-6.317-1.835-4.48.71-6.844 1.084-6.625 2.467.219 1.384 2.248 2.433 6.358 1.913 2.74-.347 4.935-1.195 6.584-2.545zM107.526 266.434c-1.224-1.697-3.33-2.309-6.317-1.836-4.482.71-6.845 1.084-6.626 2.468.22 1.383 2.249 2.433 6.359 1.912 2.74-.346 4.934-1.195 6.584-2.544zM110.563 274.713c-.845-1.914-2.777-2.95-5.798-3.109-4.53-.237-6.92-.362-6.993 1.036-.074 1.4 1.693 2.848 5.822 3.193 2.752.23 5.075-.143 6.969-1.12zM113.466 282.522c-.57-2.014-2.34-3.309-5.308-3.886-4.454-.866-6.803-1.322-7.07.053-.267 1.375 1.28 3.055 5.32 3.972 2.694.611 5.046.565 7.058-.14zM115.537 289.745c-.57-2.013-2.34-3.308-5.308-3.885-4.454-.866-6.803-1.323-7.07.052-.267 1.375 1.281 3.055 5.32 3.972 2.694.611 5.047.565 7.058-.139z"/>
            <g transform="scale(-1 1) rotate(79 -116.756 92.288)">
                <use fill="#000" filter="url(#x)" xlink:href="#y"/>
                <use stroke="url(#z)" stroke-width="5" xlink:href="#y"/>
                <use stroke="url(#A)" xlink:href="#y"/>
            </g>
            <path fill="#FF9797" d="M120.206 304.12c-.91-1.884-2.878-2.853-5.902-2.906-4.536-.079-6.929-.12-6.953 1.28-.025 1.4 1.792 2.786 5.93 2.988 2.758.134 5.067-.32 6.925-1.363zM122.574 312.375c-.911-1.884-2.879-2.852-5.903-2.905-4.536-.08-6.929-.121-6.953 1.28-.024 1.4 1.792 2.786 5.93 2.987 2.758.134 5.067-.32 6.926-1.362zM124.645 319.598c-.91-1.884-2.878-2.852-5.903-2.905-4.536-.079-6.928-.12-6.953 1.28-.024 1.4 1.792 2.786 5.93 2.987 2.759.135 5.067-.32 6.926-1.362zM127.748 326.526c-.91-1.884-2.878-2.852-5.902-2.905-4.537-.08-6.929-.121-6.953 1.28-.025 1.4 1.791 2.786 5.93 2.987 2.758.134 5.066-.32 6.925-1.362zM129.82 333.749c-.911-1.884-2.879-2.852-5.903-2.905-4.536-.079-6.929-.12-6.953 1.28-.025 1.4 1.792 2.786 5.93 2.987 2.758.135 5.067-.32 6.925-1.362zM132.968 339.887c-1.133-1.758-3.204-2.48-6.212-2.163-4.512.474-6.892.724-6.746 2.117.147 1.393 2.118 2.547 6.25 2.243 2.754-.203 4.99-.935 6.708-2.197zM137.4 347.55c-1.134-1.758-3.205-2.48-6.213-2.163-4.512.474-6.892.724-6.746 2.117.147 1.393 2.118 2.548 6.25 2.243 2.754-.203 4.99-.935 6.708-2.196zM141.83 355.214c-1.133-1.758-3.204-2.48-6.212-2.163-4.512.474-6.892.724-6.746 2.117.147 1.393 2.118 2.547 6.25 2.243 2.754-.203 4.99-.935 6.708-2.197zM145.965 361.846c-1.133-1.759-3.204-2.48-6.212-2.164-4.512.475-6.892.725-6.746 2.118.147 1.393 2.119 2.547 6.25 2.242 2.754-.203 4.99-.935 6.708-2.196zM151.132 368.182c-1.133-1.759-3.204-2.48-6.212-2.164-4.512.474-6.892.724-6.746 2.117.147 1.393 2.119 2.548 6.25 2.243 2.754-.203 4.99-.935 6.708-2.196zM156.197 373.394c-1.422-1.535-3.586-1.886-6.494-1.052-4.361 1.25-6.661 1.91-6.275 3.256.386 1.346 2.528 2.14 6.544 1.124 2.677-.679 4.752-1.788 6.225-3.328zM163.428 379.138c-1.422-1.536-3.586-1.886-6.494-1.053-4.361 1.251-6.661 1.91-6.275 3.257.386 1.346 2.528 2.14 6.544 1.123 2.677-.678 4.752-1.787 6.225-3.327zM170.504 384.222c-1.574-1.378-3.764-1.5-6.568-.368-4.207 1.7-6.425 2.596-5.9 3.895.524 1.299 2.738 1.864 6.625.433 2.592-.954 4.54-2.274 5.843-3.96zM178.248 387.998c-1.71-1.206-3.9-1.1-6.57.32-4.006 2.13-6.12 3.254-5.462 4.491.658 1.237 2.919 1.568 6.635-.262 2.478-1.22 4.277-2.736 5.397-4.549zM185.92 391.382c-1.71-1.206-3.9-1.099-6.572.321-4.005 2.13-6.118 3.253-5.46 4.49.657 1.237 2.918 1.568 6.634-.261 2.478-1.22 4.277-2.737 5.397-4.55z"/>
            <path fill="#FF9797" d="M178.248 387.998c-1.71-1.206-3.9-1.1-6.57.32-4.006 2.13-6.12 3.254-5.462 4.491.658 1.237 2.919 1.568 6.635-.262 2.478-1.22 4.277-2.736 5.397-4.549zM191.919 393.87c-1.924-.825-4.044-.265-6.36 1.68-3.476 2.916-5.31 4.454-4.409 5.527.9 1.073 3.18.927 6.435-1.636 2.17-1.708 3.615-3.565 4.334-5.572zM200.128 395.65c-1.964-.722-4.052-.052-6.264 2.011-3.318 3.094-5.068 4.726-4.113 5.75.956 1.025 3.225.76 6.341-1.97 2.078-1.819 3.423-3.75 4.036-5.79zM206.745 397.167c-2.06-.37-4 .652-5.82 3.068-2.73 3.623-4.17 5.534-3.051 6.377 1.118.843 3.307.188 5.902-3.041 1.73-2.153 2.72-4.288 2.969-6.404zM216.184 398.927c-2.06-.37-4 .653-5.82 3.068-2.73 3.624-4.17 5.534-3.051 6.377 1.118.843 3.307.188 5.902-3.04 1.73-2.153 2.72-4.288 2.969-6.405zM223.403 399.26c-2.092-.007-3.825 1.337-5.198 4.032-2.06 4.042-3.146 6.174-1.898 6.81 1.248.636 3.29-.389 5.285-4.02 1.33-2.42 1.934-4.694 1.811-6.822zM232.546 399.989c-2.092-.008-3.825 1.336-5.198 4.031-2.06 4.043-3.146 6.175-1.898 6.81 1.248.637 3.29-.388 5.285-4.02 1.33-2.42 1.934-4.694 1.811-6.821zM240.368 400.837c-2.09.102-3.75 1.535-4.98 4.298-1.846 4.145-2.819 6.331-1.54 6.9 1.28.57 3.266-.56 5.068-4.29 1.201-2.487 1.685-4.79 1.452-6.908zM247.681 400.57c-2.073.285-3.602 1.857-4.586 4.717-1.477 4.29-2.256 6.552-.932 7.008 1.324.456 3.204-.843 4.674-4.716.98-2.583 1.261-4.918.844-7.008zM255.792 401.595c-2.073.284-3.601 1.856-4.586 4.716-1.477 4.29-2.256 6.552-.932 7.008 1.324.456 3.204-.843 4.674-4.716.98-2.582 1.262-4.918.844-7.008zM264.64 401.292c-2.073.284-3.602 1.856-4.587 4.716-1.477 4.29-2.256 6.552-.932 7.008 1.325.456 3.204-.843 4.674-4.716.98-2.582 1.262-4.918.845-7.008zM273.055 402.466c-2.085.176-3.695 1.665-4.828 4.47-1.7 4.206-2.596 6.425-1.297 6.95 1.299.524 3.244-.675 4.914-4.466 1.114-2.527 1.518-4.845 1.21-6.954zM280.87 402.459c-2.085.175-3.694 1.665-4.827 4.47-1.7 4.206-2.596 6.424-1.298 6.95 1.3.524 3.244-.675 4.915-4.466 1.114-2.527 1.517-4.845 1.21-6.954zM288.98 403.483c-2.084.176-3.693 1.665-4.826 4.47-1.7 4.206-2.596 6.425-1.298 6.95 1.3.524 3.244-.675 4.915-4.465 1.114-2.528 1.517-4.846 1.21-6.955zM296.548 405.089c-2.093-.007-3.825 1.336-5.199 4.031-2.06 4.043-3.146 6.175-1.898 6.81 1.248.637 3.29-.388 5.285-4.02 1.33-2.42 1.934-4.694 1.812-6.821zM303.627 406.409c-2.092-.007-3.825 1.337-5.198 4.032-2.06 4.042-3.146 6.174-1.898 6.81 1.248.636 3.29-.389 5.284-4.02 1.33-2.42 1.934-4.694 1.812-6.822zM310.341 409.315c-2.087-.153-3.909 1.067-5.467 3.66-2.336 3.888-3.569 5.94-2.368 6.66 1.2.722 3.309-.158 5.552-3.64 1.496-2.322 2.257-4.549 2.283-6.68zM318.452 410.34c-2.086-.154-3.909 1.066-5.467 3.659-2.336 3.889-3.569 5.94-2.368 6.661 1.2.722 3.309-.158 5.552-3.641 1.496-2.322 2.257-4.548 2.283-6.68zM325.091 414.02c-2.086-.153-3.909 1.066-5.467 3.659-2.336 3.889-3.569 5.94-2.368 6.661 1.2.722 3.309-.158 5.552-3.641 1.496-2.322 2.257-4.548 2.283-6.68zM331.73 417.7c-2.086-.153-3.909 1.066-5.466 3.66-2.337 3.888-3.57 5.94-2.369 6.66 1.2.722 3.31-.158 5.552-3.64 1.496-2.323 2.257-4.55 2.283-6.68zM338.074 420.348c-2.087-.153-3.91 1.067-5.467 3.66-2.337 3.888-3.57 5.94-2.369 6.66 1.2.722 3.31-.158 5.553-3.64 1.495-2.323 2.256-4.549 2.283-6.68zM347.09 425.093c-1.95-.757-4.05-.123-6.297 1.9-3.372 3.037-5.15 4.638-4.213 5.678.938 1.041 3.211.816 6.375-1.859 2.109-1.783 3.487-3.69 4.136-5.72zM353.73 428.773c-1.95-.757-4.05-.123-6.298 1.9-3.372 3.037-5.15 4.638-4.213 5.679.938 1.04 3.211.815 6.375-1.86 2.109-1.783 3.488-3.69 4.136-5.72zM359.086 433.624c-1.892-.81-3.869-.286-5.93 1.569-3.09 2.783-4.72 4.25-3.783 5.291.938 1.041 3.097.919 6.004-1.525 1.938-1.63 3.175-3.408 3.71-5.335zM364.693 437.6c-1.892-.81-3.868-.286-5.929 1.569-3.09 2.783-4.72 4.25-3.783 5.291.937 1.041 3.096.919 6.004-1.525 1.938-1.63 3.174-3.408 3.708-5.335zM371.628 442.312c-1.892-.81-3.869-.286-5.929 1.569-3.09 2.783-4.72 4.25-3.783 5.291.937 1.041 3.096.919 6.004-1.525 1.938-1.63 3.174-3.408 3.708-5.335zM378.057 448.697c-1.831-.94-3.84-.556-6.024 1.151-3.277 2.56-5.006 3.911-4.143 5.015.862 1.104 3.025 1.132 6.095-1.103 2.047-1.49 3.405-3.178 4.072-5.063zM383.96 453.705c-1.831-.94-3.84-.556-6.024 1.151-3.277 2.56-5.006 3.911-4.143 5.015.862 1.104 3.025 1.132 6.095-1.103 2.047-1.49 3.405-3.178 4.072-5.063zM388.831 459.008c-1.831-.939-3.84-.555-6.024 1.152-3.277 2.56-5.006 3.911-4.143 5.015.862 1.104 3.025 1.132 6.095-1.103 2.047-1.49 3.405-3.178 4.072-5.064zM395.03 465.048c-1.831-.939-3.84-.555-6.024 1.152-3.277 2.56-5.006 3.91-4.143 5.015.862 1.103 3.025 1.132 6.095-1.103 2.047-1.49 3.405-3.178 4.072-5.064zM20.694 206.224c-1.964-.821-3.117-2.861-3.46-6.12-.514-4.888-.785-7.466.608-7.613 1.393-.146 2.948 1.695 3.546 6.143.398 2.965.167 5.495-.694 7.59zM28.805 207.249c-1.964-.822-3.117-2.862-3.46-6.12-.514-4.889-.785-7.467.608-7.613 1.393-.146 2.948 1.695 3.546 6.142.398 2.965.167 5.496-.694 7.59zM35.884 208.569c-1.964-.821-3.117-2.861-3.46-6.12-.513-4.888-.784-7.466.609-7.613 1.393-.146 2.948 1.695 3.545 6.143.398 2.965.167 5.495-.694 7.59zM43.996 209.593c-1.965-.82-3.118-2.86-3.46-6.12-.514-4.888-.785-7.466.608-7.612 1.393-.147 2.948 1.695 3.545 6.142.398 2.965.167 5.495-.693 7.59zM51.075 210.914c-1.964-.821-3.118-2.862-3.46-6.12-.514-4.888-.785-7.466.608-7.613 1.393-.146 2.948 1.695 3.545 6.143.398 2.965.167 5.495-.693 7.59zM57.236 213.401c-1.792-1.15-2.574-3.359-2.345-6.628.343-4.903.524-7.489 1.92-7.39 1.398.097 2.61 2.18 2.426 6.664-.123 2.99-.79 5.44-2.001 7.354zM63.579 216.05c-1.792-1.15-2.573-3.36-2.345-6.628.343-4.904.524-7.49 1.921-7.392 1.397.098 2.609 2.181 2.425 6.665-.123 2.99-.79 5.44-2.001 7.355zM70.218 219.73c-1.792-1.15-2.573-3.36-2.345-6.628.343-4.903.524-7.49 1.921-7.392 1.397.098 2.609 2.181 2.425 6.665-.123 2.99-.79 5.44-2.001 7.355zM76.542 224.43c-1.685-1.302-2.271-3.571-1.758-6.808.768-4.854 1.174-7.414 2.557-7.195 1.384.219 2.41 2.4 1.835 6.85-.383 2.968-1.26 5.352-2.634 7.153zM82.628 229.035c-1.514-1.497-1.82-3.82-.916-6.97 1.355-4.725 2.07-7.217 3.416-6.83 1.346.385 2.098 2.675.986 7.022-.742 2.899-1.904 5.158-3.486 6.778zM88.053 233.936c-1.405-1.6-1.547-3.938-.427-7.018 1.681-4.618 2.568-7.054 3.884-6.575 1.316.48 1.907 2.816.494 7.075-.942 2.84-2.259 5.012-3.95 6.518zM92.07 239.861c-1.106-1.819-.84-4.147.798-6.985 2.457-4.257 3.754-6.501 4.967-5.801 1.213.7 1.388 3.104-.743 7.053-1.42 2.633-3.095 4.544-5.022 5.733zM96.471 246.625c-.774-1.984-.107-4.23 1.999-6.74 3.16-3.766 4.825-5.752 5.898-4.851 1.073.9.83 3.297-1.955 6.817-1.857 2.346-3.837 3.937-5.942 4.774zM100.606 253.256c-.774-1.983-.107-4.23 1.999-6.74 3.16-3.765 4.826-5.751 5.899-4.85 1.073.9.828 3.297-1.956 6.816-1.856 2.347-3.837 3.938-5.942 4.774zM105.234 259.993c-.824-1.924-.264-4.044 1.68-6.36 2.917-3.476 4.455-5.31 5.528-4.409 1.073.9.927 3.18-1.636 6.435-1.708 2.17-3.566 3.615-5.572 4.334zM107.628 266.362c-.549-2.02.3-4.041 2.549-6.065 3.371-3.036 5.15-4.637 6.087-3.596.937 1.04.475 3.278-2.516 6.145-1.993 1.911-4.034 3.083-6.12 3.516zM111.027 274.321c-.549-2.02.3-4.04 2.549-6.065 3.371-3.036 5.15-4.637 6.087-3.596.937 1.041.475 3.279-2.515 6.145-1.994 1.911-4.035 3.083-6.121 3.516zM112.916 282.096c-.334-2.066.722-3.988 3.17-5.766 3.67-2.666 5.606-4.073 6.429-2.94.823 1.134.13 3.31-3.144 5.849-2.182 1.692-4.334 2.644-6.455 2.857zM114.988 289.319c-.335-2.066.722-3.987 3.169-5.765 3.67-2.667 5.606-4.073 6.43-2.94.822 1.133.13 3.31-3.145 5.848-2.182 1.693-4.334 2.645-6.454 2.857zM116.93 297.046c-.117-2.089 1.135-3.89 3.754-5.402 3.93-2.269 6.002-3.465 6.702-2.252.7 1.213-.216 3.306-3.738 5.488-2.347 1.455-4.587 2.177-6.718 2.166zM120.033 303.974c-.116-2.09 1.135-3.89 3.755-5.402 3.929-2.269 6-3.465 6.701-2.252.7 1.213-.216 3.305-3.738 5.488-2.347 1.454-4.586 2.176-6.718 2.166zM122.4 312.229c-.116-2.09 1.135-3.89 3.755-5.402 3.929-2.269 6.001-3.465 6.701-2.252.7 1.213-.216 3.306-3.737 5.488-2.348 1.455-4.587 2.177-6.718 2.166zM125.504 319.157c-.117-2.09 1.134-3.89 3.754-5.403 3.93-2.268 6.001-3.464 6.702-2.251.7 1.213-.217 3.305-3.738 5.487-2.348 1.455-4.587 2.177-6.718 2.167zM127.51 326.288c-.08-2.091 1.202-3.87 3.848-5.336 3.968-2.2 6.06-3.36 6.74-2.135.679 1.225-.275 3.302-3.833 5.422-2.373 1.414-4.625 2.097-6.755 2.049zM130.613 333.215c-.08-2.09 1.202-3.87 3.848-5.336 3.968-2.2 6.06-3.36 6.74-2.134.679 1.225-.274 3.301-3.833 5.422-2.373 1.413-4.624 2.096-6.755 2.048zM133.716 340.143c-.08-2.091 1.203-3.87 3.848-5.336 3.968-2.2 6.06-3.36 6.74-2.135.68 1.226-.274 3.302-3.833 5.422-2.373 1.414-4.624 2.097-6.755 2.049zM137.09 347.432c-.226-2.08.93-3.944 3.466-5.591 3.805-2.471 5.812-3.774 6.575-2.6.763 1.175-.043 3.313-3.445 5.676-2.269 1.576-4.467 2.414-6.596 2.515zM141.444 354.322c-.334-2.065.722-3.987 3.17-5.765 3.67-2.666 5.606-4.073 6.429-2.94.823 1.133.13 3.31-3.144 5.849-2.182 1.692-4.334 2.644-6.455 2.856zM145.58 360.954c-.335-2.065.721-3.987 3.168-5.765 3.671-2.667 5.607-4.073 6.43-2.94.823 1.133.13 3.31-3.144 5.848-2.182 1.693-4.334 2.645-6.454 2.857zM150.928 366.739c-.548-2.02.301-4.041 2.55-6.065 3.37-3.036 5.149-4.637 6.086-3.596.937 1.04.476 3.278-2.515 6.145-1.994 1.911-4.034 3.083-6.12 3.516zM155.884 372.118c-.584-2.01.23-4.046 2.442-6.109 3.319-3.094 5.069-4.726 6.024-3.701.955 1.024.533 3.27-2.408 6.188-1.96 1.945-3.98 3.153-6.058 3.622zM162.992 377.96c-1.02-1.827-.685-3.994 1.006-6.501 2.537-3.762 3.875-5.745 5.036-4.962 1.161.783 1.255 3.066-.954 6.571-1.472 2.337-3.168 3.967-5.088 4.892zM169.927 382.672c-1.02-1.827-.685-3.994 1.006-6.501 2.537-3.762 3.875-5.745 5.036-4.962 1.161.783 1.255 3.066-.954 6.571-1.472 2.337-3.168 3.967-5.088 4.892zM176.566 386.352c-1.02-1.826-.685-3.993 1.006-6.501 2.537-3.761 3.875-5.745 5.036-4.962 1.161.783 1.255 3.066-.953 6.571-1.473 2.337-3.169 3.967-5.09 4.892zM183.205 390.032c-1.02-1.826-.685-3.993 1.006-6.501 2.537-3.761 3.875-5.745 5.036-4.962 1.162.784 1.255 3.066-.953 6.571-1.473 2.337-3.169 3.968-5.089 4.892zM190.58 392.385c-1.02-1.827-.685-3.994 1.006-6.502 2.537-3.761 3.875-5.745 5.036-4.961 1.162.783 1.255 3.066-.953 6.57-1.473 2.337-3.169 3.968-5.089 4.893zM198.464 394.982c-1.176-1.73-1.03-3.919.436-6.564 2.2-3.969 3.36-6.061 4.584-5.382 1.225.679 1.517 2.945-.377 6.629-1.263 2.456-2.81 4.228-4.643 5.317z"/>
            <path fill="#FF9797" d="M205.84 397.334c-1.177-1.73-1.032-3.919.435-6.564 2.2-3.968 3.36-6.061 4.585-5.382 1.225.68 1.517 2.945-.378 6.63-1.263 2.455-2.81 4.228-4.643 5.316zM214.359 398.405c-1.215-1.662-1.15-3.705.195-6.13 2.016-3.638 3.08-5.556 4.304-4.877 1.225.679 1.592 2.81-.135 6.193-1.152 2.255-2.607 3.86-4.364 4.814zM222.47 399.43c-1.214-1.662-1.15-3.706.195-6.13 2.016-3.638 3.08-5.557 4.305-4.878 1.225.68 1.59 2.811-.136 6.194-1.152 2.254-2.606 3.86-4.364 4.813zM231.271 399.736c-1.484-1.425-1.775-3.45-.872-6.07 1.354-3.933 2.068-6.007 3.393-5.55 1.324.455 2.055 2.491.941 6.122-.742 2.42-1.896 4.253-3.462 5.498zM239.087 399.729c-1.485-1.426-1.775-3.45-.873-6.071 1.354-3.932 2.068-6.006 3.393-5.55 1.324.456 2.055 2.492.942 6.122-.743 2.421-1.897 4.254-3.462 5.499zM246.902 399.722c-1.484-1.426-1.775-3.45-.872-6.072 1.354-3.932 2.068-6.006 3.392-5.55 1.324.456 2.055 2.492.942 6.123-.743 2.42-1.897 4.253-3.462 5.499zM255.013 400.746c-1.484-1.426-1.775-3.45-.872-6.071 1.354-3.932 2.068-6.006 3.392-5.55 1.325.456 2.056 2.492.942 6.122-.743 2.421-1.896 4.254-3.462 5.499zM263.86 400.443c-1.484-1.426-1.775-3.45-.872-6.071 1.354-3.933 2.068-6.007 3.392-5.55 1.325.455 2.056 2.491.942 6.122-.742 2.42-1.896 4.254-3.462 5.499zM271.971 401.467c-1.484-1.426-1.775-3.45-.872-6.07 1.354-3.933 2.068-6.007 3.392-5.551 1.325.456 2.056 2.492.942 6.123-.742 2.42-1.896 4.253-3.462 5.498zM280.082 402.492c-1.484-1.426-1.775-3.45-.872-6.071 1.354-3.933 2.068-6.007 3.393-5.55 1.324.455 2.055 2.491.941 6.122-.742 2.42-1.896 4.253-3.462 5.499zM288.704 403.608c-1.603-1.291-2.07-3.282-1.398-5.972 1.006-4.036 1.536-6.164 2.895-5.825 1.36.339 2.265 2.303 1.472 6.017-.529 2.476-1.518 4.403-2.97 5.78zM295.783 404.928c-1.603-1.291-2.069-3.282-1.398-5.972 1.006-4.035 1.536-6.164 2.896-5.825 1.359.34 2.264 2.304 1.471 6.018-.528 2.476-1.518 4.402-2.97 5.779zM303.378 406.295c-1.71-1.146-2.347-3.089-1.913-5.827.65-4.108.994-6.274 2.377-6.055 1.383.219 2.457 2.097 1.99 5.866-.31 2.513-1.128 4.518-2.454 6.016zM310.753 408.647c-1.709-1.146-2.347-3.088-1.913-5.827.65-4.108.994-6.274 2.377-6.055 1.384.22 2.457 2.097 1.99 5.866-.31 2.513-1.128 4.518-2.454 6.016zM318.128 411c-1.709-1.147-2.347-3.09-1.913-5.828.65-4.107.994-6.274 2.377-6.055 1.384.22 2.457 2.097 1.99 5.867-.31 2.512-1.128 4.518-2.454 6.016zM325.504 413.352c-1.71-1.146-2.348-3.089-1.914-5.827.65-4.108.994-6.274 2.377-6.055 1.384.219 2.457 2.097 1.99 5.866-.31 2.513-1.128 4.518-2.453 6.016zM332.143 417.032c-1.71-1.146-2.347-3.089-1.914-5.827.65-4.108.994-6.274 2.377-6.055 1.384.219 2.457 2.097 1.991 5.866-.31 2.513-1.129 4.518-2.454 6.016zM339.518 419.384c-1.71-1.146-2.347-3.089-1.914-5.827.651-4.108.994-6.274 2.378-6.055 1.383.22 2.456 2.097 1.99 5.866-.31 2.513-1.129 4.518-2.454 6.016zM346.453 424.096c-1.71-1.146-2.347-3.088-1.914-5.827.65-4.108.994-6.274 2.378-6.055 1.383.22 2.456 2.097 1.99 5.866-.31 2.513-1.129 4.518-2.454 6.016zM353.092 427.776c-1.71-1.146-2.347-3.088-1.914-5.827.651-4.108.994-6.274 2.378-6.055 1.383.22 2.456 2.097 1.99 5.866-.31 2.513-1.129 4.518-2.454 6.016zM360.027 432.488c-1.71-1.146-2.347-3.088-1.914-5.827.651-4.108.994-6.274 2.378-6.055 1.383.22 2.456 2.097 1.99 5.866-.31 2.513-1.129 4.518-2.454 6.016zM365.634 436.464c-1.71-1.146-2.347-3.088-1.913-5.827.65-4.108.993-6.274 2.377-6.055 1.383.22 2.457 2.097 1.99 5.866-.31 2.513-1.129 4.518-2.454 6.016zM372.865 442.208c-1.71-1.146-2.347-3.088-1.914-5.827.651-4.108.994-6.274 2.378-6.055 1.383.22 2.456 2.097 1.99 5.866-.31 2.513-1.129 4.518-2.454 6.016zM379.064 448.248c-1.71-1.146-2.347-3.089-1.914-5.827.651-4.108.994-6.274 2.378-6.055 1.383.22 2.456 2.097 1.99 5.866-.31 2.513-1.129 4.518-2.454 6.016zM384.554 453.222c-1.626-1.262-2.126-3.245-1.503-5.946.936-4.053 1.43-6.19 2.794-5.875 1.365.315 2.305 2.264 1.577 5.991-.486 2.485-1.442 4.428-2.868 5.83zM390.343 459.2c-1.533-1.373-1.895-3.386-1.084-6.037 1.216-3.977 1.857-6.075 3.197-5.665 1.34.41 2.14 2.418 1.154 6.086-.657 2.445-1.746 4.317-3.267 5.616zM395.841 464.117c-1.433-1.477-1.653-3.51-.66-6.098 1.49-3.883 2.277-5.93 3.584-5.429 1.308.502 1.967 2.562.728 6.152-.827 2.393-2.044 4.185-3.652 5.375z"/>
        </g>
    </g>
</svg>
