<svg xmlns="http://www.w3.org/2000/svg" width="122" height="122" viewBox="0 0 122 122">
    <g fill="none" fill-rule="evenodd">
        <path stroke="#90CFBE" stroke-dasharray="71,24" d="M7.551 88.234C-7.489 58.714 4.247 22.592 33.766 7.55c29.52-15.04 65.642-3.304 80.683 26.215 15.04 29.52 3.304 65.642-26.215 80.683-29.52 15.04-65.642 3.304-80.683-26.215z"/>
        <path stroke="#90CFBE" stroke-dasharray="1" d="M56.037 54.21L60.53 35l4.431 19.21L65 83.593 60.481 87 56 83.494l.037-29.284zM74 54.324L82 48l-1.6 3.876v20.12L74 77V54.324zm-26 0V77l-6.4-5.004v-20.12L40 48l8 6.324z"/>
        <g fill="#D7F2EE">
            <path d="M100.266 22.44L86.81 35.899l-.707-.707L99.56 21.734a4 4 0 1 1 .707.707zM22.44 100.266L35.899 86.81l-.707-.707L21.734 99.56a4 4 0 1 0 .707.707z"/>
            <g>
                <path d="M21.734 22.44L35.19 35.899l.707-.707L22.44 21.734a4 4 0 1 0-.707.707zM99.56 100.266L86.101 86.81l.707-.707 13.457 13.457a4 4 0 1 1-.707.707z"/>
            </g>
        </g>
        <path stroke="#90CFBE" stroke-dasharray="18,10" d="M42.25 105.173C17.854 94.817 6.472 66.646 16.827 42.25 27.183 17.854 55.354 6.472 79.75 16.827c24.396 10.356 35.778 38.527 25.423 62.923-10.356 24.396-38.527 35.778-62.923 25.423z"/>
        <path stroke="#90CFBE" stroke-dasharray="8" d="M45.375 97.81c-20.33-8.629-29.815-32.105-21.186-52.435 8.63-20.33 32.106-29.815 52.436-21.186 20.33 8.63 29.815 32.106 21.186 52.436-8.63 20.33-32.106 29.815-52.436 21.186z"/>
    </g>
</svg>
