<svg xmlns="http://www.w3.org/2000/svg" width="165" height="50" viewBox="0 0 165 50">
    <g fill="none" fill-rule="evenodd">
        <path d="M0 0h165v50H0z"/>
        <g fill="#D7F2EE" fill-rule="nonzero">
            <path d="M29.736 10.465h-6.37a.61.61 0 0 0-.608.609V32.62a.61.61 0 0 1-.608.609H.608a.61.61 0 0 0-.608.61v6.37a.61.61 0 0 0 .608.608H30.345V11.074a.61.61 0 0 0-.609-.61"/>
            <path d="M.71 30.7h7.43c.391 0 .71-.319.71-.71v-7.433c0-.39-.319-.71-.71-.71H.71c-.39 0-.71.32-.71.71v7.433c0 .391.32.71.71.71M11.457 19.318h7.43c.391 0 .71-.32.71-.71v-7.433c0-.39-.319-.71-.71-.71H11.456c-.39 0-.709.32-.709.71v7.433c0 .39.32.71.71.71M125.195 19.384a.698.698 0 0 0-.606.424l-6.33 16.931c-.086.233-.273.257-.414.053l-4.069-5.869a1.699 1.699 0 0 1-.257-.823V19.138a.452.452 0 0 0-.447-.452h-2.156a.452.452 0 0 0-.447.452v11.039c0 .249-.116.62-.259.822l-5.188 7.44a.437.437 0 0 0 .118.617l1.596 1.055a.47.47 0 0 0 .636-.12l4.381-6.196c.144-.202.378-.201.52.001l4.023 5.703c.143.203.38.369.527.369h3.339c.103 0 .256-.191.342-.425l7.171-19.634c.086-.234-.046-.425-.292-.425h-2.188zM52.624 12.362a1.25 1.25 0 0 0-.767.32l-9.369 9.378a.454.454 0 0 0 0 .64l1.55 1.545a.458.458 0 0 0 .643 0l8.608-8.521c.177-.176.523-.319.77-.319h5.043c.247 0 .593.143.77.319l8.608 8.521a.458.458 0 0 0 .644 0l1.548-1.544a.454.454 0 0 0 0-.641l-9.368-9.377a1.25 1.25 0 0 0-.767-.321h-7.913z"/>
            <path d="M57.82 31.07c0-.252.202-.458.447-.458h9.627a.453.453 0 0 0 .447-.456v-2.069a.454.454 0 0 0-.447-.457h-9.627a.453.453 0 0 1-.446-.456v-3.123c0-.25.201-.456.446-.456h5.793a.453.453 0 0 0 .446-.457v-2.1c0-.25-.2-.455-.446-.455H48.466a.453.453 0 0 0-.447.456v2.099c0 .251.202.457.447.457h5.824c.246 0 .447.205.447.456v3.123c0 .25-.201.456-.447.456h-9.658a.453.453 0 0 0-.446.457v2.069c0 .251.2.456.446.456h9.658c.246 0 .447.206.447.457v5.015c0 .252-.201.457-.447.457H44.067a.453.453 0 0 0-.446.457v2.099c0 .251.2.457.446.457h24.394a.453.453 0 0 0 .447-.457v-2.1a.453.453 0 0 0-.447-.456H58.267a.453.453 0 0 1-.446-.457V31.07zM108.01 15.727c0-.25.203-.455.45-.455h6.24c.247 0 .45.205.45.455V31.51c0 .25.202.455.45.455h2.169c.247 0 .45-.204.45-.455V12.817a.454.454 0 0 0-.45-.455h-12.376a.454.454 0 0 0-.45.455V31.51c0 .25.202.455.45.455h2.167c.248 0 .45-.204.45-.455V15.727zM131.23 12.814a.448.448 0 0 0-.44-.452h-2.126a.448.448 0 0 0-.441.452v1.124a.448.448 0 0 1-.442.451h-6.593a.448.448 0 0 0-.44.452v2.036c0 .248.198.451.44.451h6.593c.243 0 .442.203.442.452v18.412a.448.448 0 0 1-.442.451h-2.152a.448.448 0 0 0-.441.452v2.007c0 .249.199.452.441.452h5.16a.448.448 0 0 0 .442-.452V17.78c0-.249.198-.452.441-.452h1.277a.448.448 0 0 0 .442-.451V14.84a.448.448 0 0 0-.442-.452h-1.277a.448.448 0 0 1-.441-.451v-1.124zM147.931 29.999c0 .246.201.447.447.447h6.088c.246 0 .447.2.447.446v5.337c0 .246-.2.447-.447.447h-6.088c-.246 0-.447.2-.447.446v1.985c0 .246.201.447.447.447h16.175c.246 0 .447-.201.447-.447v-1.985a.448.448 0 0 0-.447-.446h-6.149a.448.448 0 0 1-.447-.447v-5.337c0-.245.201-.446.447-.446h6.15c.245 0 .446-.201.446-.447v-2.014a.448.448 0 0 0-.447-.446h-16.175c-.246 0-.447.2-.447.446V30zM158.649 19.254c-.198-.149-.198-.392 0-.541l4.265-3.198c.198-.148.36-.472.36-.72v-1.983a.452.452 0 0 0-.45-.45h-15.008a.452.452 0 0 0-.451.45v1.984c0 .248.203.45.451.45h9.988c.248 0 .416.048.374.106-.041.058-.238.226-.437.375l-10.898 8.136a.435.435 0 0 0-.08.622l1.282 1.614a.467.467 0 0 0 .641.082l6.771-5.076a.638.638 0 0 1 .721.001l6.74 5.075c.198.149.49.116.65-.074l1.33-1.584a.424.424 0 0 0-.07-.616l-6.18-4.653zM78.93 23.015a.45.45 0 0 1 .449-.45h6.287a.45.45 0 0 1 .448.45v5.427a.45.45 0 0 1-.448.45h-6.287a.45.45 0 0 1-.448-.45v-5.427zm10.223 0a.45.45 0 0 1 .448-.45h6.96a.45.45 0 0 1 .447.45v5.427a.45.45 0 0 1-.448.45h-6.959a.45.45 0 0 1-.448-.45v-5.427zm11.364 14.05a.45.45 0 0 0-.448-.45h-20.69a.45.45 0 0 1-.448-.451v-3.881a.45.45 0 0 1 .448-.451H99.6a.45.45 0 0 0 .447-.45V20.104a.45.45 0 0 0-.447-.45h-2.77c-.245 0-.4-.197-.343-.438l1.185-4.999c.056-.24-.099-.438-.345-.438H80.304a.376.376 0 0 1-.382-.445l.079-.527a.376.376 0 0 0-.381-.445h-2.145c-.246 0-.483.2-.527.443l-.618 3.419a.363.363 0 0 0 .369.443H93.48c.246 0 .406.198.354.44l-.446 2.106a.58.58 0 0 1-.541.441H76.31a.45.45 0 0 0-.448.45v19c0 .247.201.45.448.45h23.759a.45.45 0 0 0 .448-.45v-2.04zM137.02 36.392a.481.481 0 0 0-.468.49v2.18c0 .27.21.492.468.492h7.914a.482.482 0 0 0 .468-.492v-2.18c0-.27-.21-.49-.468-.49h-7.914z"/>
            <path d="M50.575 34.654c0 .26-.213.473-.474.473h-2.214a.474.474 0 0 1-.473-.473v-2.216c0-.26.212-.473.473-.473H50.1c.26 0 .474.213.474.473v2.216zM65.747 34.654c0 .26-.213.473-.473.473h-2.215a.474.474 0 0 1-.473-.473v-2.216c0-.26.213-.473.473-.473h2.215c.26 0 .473.213.473.473v2.216zM142.02 30.361c-.257 0-.397-.189-.312-.42l2.6-7.042c.085-.231-.055-.42-.312-.42l-2.536.007c-.256 0-.535.19-.62.421l-3.631 9.903c-.085.23.055.42.312.42h7.415c.256 0 .466-.2.466-.446v-1.978a.458.458 0 0 0-.466-.445h-2.916zM140.389 20.614c.086-.233.23-.612.323-.844l2.764-6.988c.092-.231-.037-.42-.286-.42h-2.552a.701.701 0 0 0-.61.423l-3.45 9.272c-.086.233.047.423.296.423h2.371a.7.7 0 0 0 .61-.424l.534-1.442z"/>
        </g>
    </g>
</svg>
