<svg xmlns="http://www.w3.org/2000/svg" xmlns:xlink="http://www.w3.org/1999/xlink" width="24" height="24" viewBox="0 0 24 24">
    <defs>
        <path id="a" d="M6.205 3h15.59c1.115 0 1.519.116 1.926.334.407.218.727.538.945.945.218.407.334.811.334 1.926v15.59c0 1.115-.116 1.519-.334 1.926a2.272 2.272 0 0 1-.945.945c-.407.218-.811.334-1.926.334H6.205c-1.115 0-1.519-.116-1.926-.334a2.272 2.272 0 0 1-.945-.945C3.116 23.314 3 22.91 3 21.795V6.205c0-1.115.116-1.519.334-1.926.218-.407.538-.727.945-.945C4.686 3.116 5.09 3 6.205 3zm.183 18.857h3.266V11.358H6.388v10.5zm1.63-11.933c1.047 0 1.891-.845 1.891-1.89 0-1.042-.85-1.891-1.89-1.891a1.891 1.891 0 0 0 0 3.781zm13.854 11.933v-5.755c0-2.829-.614-5.004-3.914-5.004-1.586 0-2.652.869-3.089 1.694h-.044v-1.434h-3.128v10.5h3.26v-5.196c0-1.37.26-2.696 1.96-2.696 1.67 0 1.694 1.566 1.694 2.784v5.107h3.26z"/>
    </defs>
    <g fill="none" fill-rule="evenodd">
        <mask id="b" fill="#fff">
            <use xlink:href="#a"/>
        </mask>
        <use class="background" fill="#4100FF" xlink:href="#a"/>
        <g class="background" fill="#D7F2EE" mask="url(#b)">
            <path d="M0 0h24v24H0z"/>
        </g>
    </g>
</svg>
