<svg xmlns="http://www.w3.org/2000/svg" width="300" height="42" viewBox="0 0 300 42">
    <g fill="none" fill-rule="evenodd">
        <path fill="#90CFBE" d="M60.914 14.815c.45.44.787.953 1.013 1.536.225.585.338 1.193.338 1.823 0 .633-.113 1.24-.338 1.826a4.135 4.135 0 0 1-1.013 1.52c-.45.432-1.012.776-1.687 1.035-.675.258-1.453.387-2.335.387H51.83v4.682a.45.45 0 0 0 .127.33c.084.086.305.148.66.187v.344h-5.793v-.344c.356-.039.577-.101.66-.187a.45.45 0 0 0 .128-.33V14.24a.45.45 0 0 0-.128-.33c-.083-.087-.304-.149-.66-.187v-.346h10.068c.882 0 1.66.13 2.335.39.675.257 1.237.607 1.687 1.047zm-3.08 4.68c.365-.267.55-.707.55-1.32 0-.555-.185-.957-.55-1.206-.364-.249-.942-.374-1.729-.374H51.83v3.303h4.275c.787 0 1.365-.134 1.73-.402zM77.2 16.862a6.213 6.213 0 0 1 1.702 2.095c.42.832.63 1.796.63 2.894 0 1.097-.21 2.063-.63 2.894a6.195 6.195 0 0 1-1.702 2.094 7.012 7.012 0 0 1-2.496 1.248c-.948.266-1.962.399-3.038.399-1.074 0-2.087-.133-3.036-.399a6.99 6.99 0 0 1-2.495-1.248 6.183 6.183 0 0 1-1.702-2.094c-.42-.831-.63-1.797-.63-2.894 0-1.098.21-2.062.63-2.894.42-.832.987-1.53 1.702-2.095a7.537 7.537 0 0 1 2.495-1.285c.95-.29 1.962-.437 3.036-.437 1.076 0 2.09.147 3.038.437.949.29 1.782.72 2.496 1.285zm-1.739 6.548c.227-.457.34-.977.34-1.559s-.113-1.102-.34-1.559a3.42 3.42 0 0 0-.907-1.148 4.145 4.145 0 0 0-1.311-.71 4.932 4.932 0 0 0-1.577-.25c-.554 0-1.078.083-1.574.25a4.134 4.134 0 0 0-1.311.71c-.378.308-.68.69-.907 1.148-.227.457-.34.977-.34 1.56 0 .581.113 1.1.34 1.558.227.458.529.84.907 1.147.378.308.814.545 1.311.711.496.166 1.02.25 1.574.25.555 0 1.081-.084 1.577-.25a4.145 4.145 0 0 0 1.31-.71c.38-.309.68-.69.908-1.148zM94 21.114c.486.291.882.673 1.184 1.148.303.473.453 1.069.453 1.783 0 .549-.113 1.089-.34 1.62-.226.533-.613 1.012-1.159 1.435-.545.424-1.275.761-2.19 1.011-.915.25-2.052.374-3.412.374-1.058 0-1.97-.05-2.732-.15-.765-.1-1.415-.22-1.953-.362-.537-.14-.96-.269-1.27-.386-.312-.115-.336-.175-.487-.175-.1 0-.188.034-.264.1-.075.067-.156.141-.239.224l-.302-.074 1.035-4.44.252.125c-.035.1-.05.273-.05.523 0 .167.154.353.465.562.31.208.895.561 1.516.761.706.228 2.278.4 3.953.473 1.258.056 2.182-.145 2.77-.436.588-.29.882-.712.882-1.26 0-.3-.257-.512-.768-.636a14.128 14.128 0 0 0-1.927-.299c-.773-.075-1.604-.158-2.494-.25-.889-.09-1.72-.258-2.492-.499-.773-.241-1.415-.59-1.927-1.048-.512-.457-.767-1.084-.767-1.883 0-.632.146-1.205.44-1.72a4.023 4.023 0 0 1 1.234-1.323c.529-.366 1.17-.652 1.927-.861.755-.208 1.594-.311 2.518-.311.857 0 1.653.054 2.392.162.74.108 1.393.23 1.965.362.57.134 1.048.254 1.435.361.385.109.663.162.831.162a.66.66 0 0 0 .403-.112c.1-.074.192-.162.277-.262l.277.1-1.739 3.468-.302-.15v-.275c0-.149-.163-.304-.491-.462a6.569 6.569 0 0 0-1.245-.423 15.657 15.657 0 0 0-1.688-.312 13.688 13.688 0 0 0-1.814-.124c-1.09 0-1.854.124-2.291.374-.436.249-.654.515-.654.798 0 .283.15.495.453.635.301.143.697.246 1.184.312.486.067 1.04.12 1.662.162.62.042 1.26.104 1.913.187.654.084 1.292.2 1.915.35.62.15 1.175.37 1.661.661zm16.435-5.877c.067-.091.118-.278.15-.56h.304v4.331h-.303c-.033-.281-.084-.469-.15-.56-.068-.091-.17-.137-.303-.137h-8.094v2.067h4.69c.252 0 .432-.054.541-.162a.78.78 0 0 0 .215-.41h.302v3.883h-.302a.786.786 0 0 0-.215-.411c-.109-.108-.29-.162-.541-.162h-4.69v2.315h8.094c.134 0 .235-.045.302-.136.067-.092.118-.295.15-.61h.304v4.257h-.303c-.033-.216-.084-.348-.15-.398-.068-.05-.17-.075-.303-.075H97.55v-.299c.318-.033.516-.087.592-.162a.38.38 0 0 0 .114-.286V16.12a.38.38 0 0 0-.114-.286c-.076-.075-.274-.129-.592-.162v-.298h12.582c.134 0 .235-.046.302-.137zm2.89.485v-.299h5.193v.299c-.32.032-.516.087-.592.161a.38.38 0 0 0-.114.285v11.573c0 .115.038.21.114.285.076.075.273.128.592.162v.297h-5.194v-.297c.32-.034.518-.087.593-.162a.384.384 0 0 0 .113-.285V16.168a.383.383 0 0 0-.113-.285c-.075-.074-.274-.129-.593-.161zm20.717 1.576c.555.588.971 1.28 1.249 2.073.277.795.415 1.657.415 2.583 0 .844-.147 1.66-.44 2.447a5.867 5.867 0 0 1-1.337 2.085c-.596.605-1.337 1.09-2.22 1.453-.881.364-1.912.546-3.087.546h-8.094v-.297c.318-.034.516-.087.592-.162a.384.384 0 0 0 .113-.285V16.168a.383.383 0 0 0-.113-.285c-.076-.074-.274-.129-.592-.161v-.299h8.37c1.16 0 2.169.166 3.027.497.857.331 1.563.791 2.117 1.378zm-2.95 7.251c.589-.67.882-1.535.882-2.595 0-1.06-.293-1.924-.882-2.594-.588-.671-1.547-1.007-2.874-1.007h-3.202v7.202h3.202c1.327 0 2.286-.335 2.874-1.006zm20.41-7.688a6.199 6.199 0 0 1 1.7 2.095c.42.832.63 1.796.63 2.894 0 1.097-.21 2.063-.63 2.894a6.18 6.18 0 0 1-1.7 2.094 7.012 7.012 0 0 1-2.497 1.248 11.23 11.23 0 0 1-3.038.399c-1.074 0-2.088-.133-3.037-.399a7.008 7.008 0 0 1-2.495-1.248 6.195 6.195 0 0 1-1.702-2.094c-.42-.831-.63-1.797-.63-2.894 0-1.098.21-2.062.63-2.894.42-.832.988-1.53 1.702-2.095a7.556 7.556 0 0 1 2.495-1.285 10.35 10.35 0 0 1 3.037-.437c1.076 0 2.089.147 3.038.437.949.29 1.782.72 2.496 1.285zm-1.74 6.548c.226-.457.34-.977.34-1.559s-.114-1.102-.34-1.559a3.407 3.407 0 0 0-.908-1.148 4.14 4.14 0 0 0-1.31-.71 4.936 4.936 0 0 0-1.577-.25c-.555 0-1.08.083-1.574.25a4.112 4.112 0 0 0-1.311.71 3.41 3.41 0 0 0-.908 1.148c-.226.457-.34.977-.34 1.56 0 .581.114 1.1.34 1.558.227.458.53.84.908 1.147.377.308.813.545 1.311.711.495.166 1.02.25 1.574.25.556 0 1.08-.084 1.577-.25a4.14 4.14 0 0 0 1.31-.71c.378-.309.68-.69.907-1.148zm16.419-7.687v-.299h4.614v.299c-.319.032-.517.087-.592.161a.383.383 0 0 0-.113.285v11.573c0 .115.037.21.113.285.075.075.273.128.592.162v.297h-4.79v-.297c.235 0 .39-.026.467-.075a.228.228 0 0 0 .112-.2.356.356 0 0 0-.075-.185 4.293 4.293 0 0 0-.328-.385 48.06 48.06 0 0 0-.744-.782c-.328-.34-.76-.795-1.298-1.366a362.625 362.625 0 0 1-4.841-5.252v7.798c0 .115.037.21.113.285.076.075.273.128.592.162v.297h-4.79v-.297c.318-.034.517-.087.593-.162a.388.388 0 0 0 .113-.285V16.168a.387.387 0 0 0-.113-.285c-.076-.074-.275-.129-.593-.161v-.299h6.076v.299c-.285.017-.474.054-.567.11-.093.06-.138.13-.138.212 0 .033.11.183.327.447.219.265.504.595.858.994.353.397.751.84 1.196 1.328.447.488.897.977 1.35 1.466.454.488.891.952 1.31 1.39.422.438.783.816 1.085 1.13v-6.63c0-.282-.176-.43-.53-.447zm25.053-1.998v-.346h5.148v.346c-.357.038-.577.1-.662.187a.45.45 0 0 0-.127.33v13.382a.45.45 0 0 0 .127.33c.085.087.305.15.662.188v.344h-5.343v-.344c.26 0 .434-.03.52-.087a.267.267 0 0 0 .125-.23.42.42 0 0 0-.084-.214 4.165 4.165 0 0 0-.366-.445c-.187-.211-.463-.513-.828-.906-.367-.391-.849-.918-1.45-1.579-.6-.66-1.34-1.483-2.22-2.47-.883-.986-1.942-2.187-3.178-3.604v9.017c0 .135.041.245.126.33.084.087.304.15.66.188v.344H179v-.344c.356-.038.577-.101.66-.187a.448.448 0 0 0 .127-.33V14.24a.45.45 0 0 0-.127-.33c-.083-.086-.304-.149-.66-.187v-.346h6.778v.346c-.32.02-.53.062-.632.129-.104.067-.156.148-.156.244 0 .038.122.211.367.517.243.306.56.69.955 1.15.394.46.839.97 1.335 1.535.497.565 1 1.13 1.505 1.695.507.565.994 1.1 1.464 1.608.468.507.87.943 1.209 1.307V14.24c0-.326-.197-.497-.592-.517zm19.996 1.557c.066-.091.117-.278.15-.56h.304v4.332h-.304c-.033-.282-.084-.469-.15-.56-.067-.091-.169-.137-.303-.137h-8.094v2.066h4.69c.252 0 .433-.054.542-.162a.776.776 0 0 0 .215-.41h.303v3.883h-.303a.78.78 0 0 0-.215-.41c-.11-.109-.29-.163-.542-.163h-4.69v2.316h8.094c.134 0 .236-.045.303-.137.066-.092.117-.295.15-.61h.304v4.257h-.304c-.033-.215-.084-.348-.15-.398-.067-.05-.169-.075-.303-.075h-12.582v-.299c.319-.033.517-.087.592-.161a.383.383 0 0 0 .114-.286V16.164a.382.382 0 0 0-.114-.286c-.075-.074-.273-.129-.592-.161v-.299h12.582c.134 0 .236-.046.303-.137zm15.89-.028c.066-.091.115-.278.149-.56h.3v4.432h-.3c-.034-.282-.083-.47-.15-.56-.065-.092-.166-.137-.3-.137h-4.3v9.31c0 .116.037.212.113.286.075.075.27.13.588.162v.3h-5.15v-.3c.316-.033.512-.087.587-.162a.387.387 0 0 0 .113-.286v-9.31h-4.3c-.134 0-.235.045-.301.136-.066.091-.116.279-.15.56h-.3v-4.43h.3c.034.281.084.468.15.559.066.092.167.137.3.137h12.35c.134 0 .235-.045.3-.137zm19.827.436v-.3h4.006v.3c-.127.016-.218.066-.275.148a1.035 1.035 0 0 0-.13.324 144.584 144.584 0 0 1-.62 1.954c-.176.54-.374 1.155-.597 1.843-.222.689-.452 1.386-.69 2.092-.24.705-.467 1.397-.68 2.08-.216.68-.41 1.29-.585 1.828-.176.54-.315.98-.417 1.32-.105.34-.155.527-.155.56 0 .15.05.241.155.273.102.035.21.06.321.076v.299h-4.96v-.3c.318-.05.478-.165.478-.348 0-.2-.08-.61-.239-1.232-.16-.622-.354-1.349-.584-2.18-.23-.828-.477-1.713-.74-2.65-.262-.938-.505-1.822-.727-2.65h-.048c-.19.729-.43 1.571-.716 2.525-.285.955-.563 1.87-.833 2.752-.27.878-.502 1.642-.692 2.29-.191.647-.286 1.029-.286 1.145 0 .232.174.349.524.349v.299h-5.15v-.3c.127-.033.239-.07.333-.112.095-.04.144-.145.144-.311 0-.033-.053-.215-.156-.547-.104-.332-.243-.768-.417-1.308-.175-.539-.37-1.153-.584-1.842-.215-.689-.438-1.39-.668-2.104a711.174 711.174 0 0 1-1.276-3.995 124.22 124.22 0 0 1-.429-1.383c-.11-.364-.175-.572-.19-.622-.048-.182-.127-.273-.24-.273v-.3h4.364v.3c-.142.033-.261.07-.357.111-.096.042-.143.13-.143.262 0 .05.043.223.131.522.087.3.203.68.346 1.147.144.463.302.974.477 1.53l.524 1.668c.175.557.337 1.084.49 1.58.15.499.273.914.37 1.246h.047c.095-.315.214-.718.357-1.208s.299-1.013.465-1.568c.168-.555.334-1.117.5-1.681.168-.563.32-1.078.454-1.543.135-.464.243-.85.322-1.157.08-.308.119-.486.119-.536 0-.132-.06-.22-.179-.262l-.322-.111v-.3h5.676v.3c-.112.033-.207.07-.285.111-.081.042-.12.13-.12.262 0 .016.039.182.12.498.078.315.181.714.309 1.195.127.481.27 1.017.428 1.606.16.588.311 1.162.454 1.718.144.556.278 1.074.406 1.555.127.481.221.855.286 1.121h.048c.048-.2.139-.519.274-.959.135-.44.29-.934.464-1.48.176-.55.354-1.117.537-1.706.183-.59.354-1.133.513-1.631.158-.498.29-.921.393-1.27.103-.348.156-.548.156-.597 0-.15-.053-.25-.156-.298a1.841 1.841 0 0 0-.345-.125zm17.59 1.172a6.201 6.201 0 0 1 1.7 2.095c.42.832.632 1.796.632 2.894 0 1.097-.211 2.063-.631 2.894a6.183 6.183 0 0 1-1.702 2.094 7.009 7.009 0 0 1-2.497 1.248c-.948.266-1.962.399-3.037.399-1.076 0-2.09-.133-3.04-.399a7.004 7.004 0 0 1-2.495-1.248 6.183 6.183 0 0 1-1.702-2.094c-.42-.831-.63-1.797-.63-2.894 0-1.098.21-2.062.63-2.894.42-.832.987-1.53 1.702-2.095a7.552 7.552 0 0 1 2.496-1.285c.95-.29 1.963-.437 3.039-.437 1.075 0 2.089.147 3.037.437.95.29 1.783.72 2.497 1.285zm-1.74 6.548c.226-.457.34-.977.34-1.559s-.114-1.102-.34-1.559a3.407 3.407 0 0 0-.908-1.148 4.156 4.156 0 0 0-1.311-.71 4.936 4.936 0 0 0-1.576-.25c-.556 0-1.081.083-1.576.25a4.139 4.139 0 0 0-1.312.71 3.42 3.42 0 0 0-.907 1.148c-.227.457-.34.977-.34 1.56 0 .581.113 1.1.34 1.558.227.458.53.84.907 1.147.379.308.816.545 1.312.711a4.92 4.92 0 0 0 1.576.25c.555 0 1.08-.084 1.576-.25a4.156 4.156 0 0 0 1.311-.71c.378-.309.68-.69.907-1.148zm19.265 4.329c.201.299.443.448.73.448v.3h-5.232v-.3c.369-.015.553-.166.553-.448 0-.033-.067-.15-.2-.349a42.631 42.631 0 0 0-1.171-1.63c-.243-.324-.478-.635-.704-.933a40.603 40.603 0 0 1-.591-.798 8.361 8.361 0 0 1-.327-.473h-2.465v4.183c0 .116.039.212.113.286.076.075.273.13.592.162v.3h-5.183v-.3c.32-.033.517-.087.592-.162a.383.383 0 0 0 .113-.286V16.136a.385.385 0 0 0-.113-.286c-.075-.075-.273-.128-.592-.162v-.298h9.207c1.86 0 3.211.335 4.05 1.008.837.672 1.257 1.714 1.257 3.124 0 1.146-.34 2.042-1.02 2.69-.678.646-1.537 1.112-2.577 1.393l2.968 4.133zm-3.66-7.232a1.31 1.31 0 0 0 0-1.917c-.276-.274-.783-.411-1.522-.411h-4.225v2.739h4.225c.739 0 1.246-.137 1.522-.411zm21.069 7.631c.117.033.26.05.429.05v.298h-5.773v-.298c.151 0 .27-.013.354-.037.083-.026.125-.12.125-.286 0-.051-.075-.2-.227-.45a46.205 46.205 0 0 0-1.361-2.09 74.001 74.001 0 0 1-.806-1.195c-.252-.383-.48-.714-.68-.996-.202-.283-.337-.474-.405-.573l-2.47 2.19v2.989c0 .116.038.211.114.286.076.075.272.129.592.162v.298h-5.192v-.298c.319-.033.517-.087.592-.162a.383.383 0 0 0 .113-.286V16.137a.383.383 0 0 0-.113-.286c-.075-.075-.273-.13-.592-.162v-.3h5.192v.3c-.32.033-.516.087-.592.162a.384.384 0 0 0-.114.286v4.481h.177c.504-.481 1.046-.98 1.625-1.494.58-.514 1.114-.99 1.6-1.431.49-.44.896-.813 1.224-1.12.327-.307.492-.495.492-.561 0-.15-.044-.236-.127-.262a2.189 2.189 0 0 0-.328-.061v-.3h6.403v.3a2.3 2.3 0 0 0-.416.074c-.11.033-.21.083-.303.15a5.698 5.698 0 0 0-.302.237c-.11.09-.24.203-.39.335l-4.362 3.71 5.143 7.593c.134.2.26.316.378.349zM13.41 15.239l-.032 23.23 3.886 2.781 3.918-2.702-.033-23.31L17.306 0z"/>
        <path fill="#216C8A" d="M27.872 15.14v18.306l5.352-4.04V13.163l1.337-3.13zM6.69 15.14v18.306l-5.353-4.04V13.163L0 10.033z"/>
    </g>
</svg>
